ISO-10303-21;
HEADER;
FILE_DESCRIPTION (( 'STEP AP214' ),
    '1' );
FILE_NAME ('Body-Fuselage-3.STEP',
    '2026-04-30T22:21:28',
    ( '' ),
    ( '' ),
    'SwSTEP 2.0',
    'SolidWorks 2026',
    '' );
FILE_SCHEMA (( 'AUTOMOTIVE_DESIGN' ));
ENDSEC;

DATA;
#1 = DIRECTION ( 'NONE',  ( 1.000000000000000000, 0.000000000000000000, -0.000000000000000000 ) ) ;
#2 = PRODUCT_DEFINITION_SHAPE ( 'NONE', 'NONE',  #26 ) ;
#3 = EDGE_CURVE ( 'NONE', #316, #70, #235, .T. ) ;
#4 = DIRECTION ( 'NONE',  ( 1.000000000000000000, 0.000000000000000000, 0.000000000000000000 ) ) ;
#5 = CARTESIAN_POINT ( 'NONE',  ( 233.3708168272376042, 1.712572864960690389, 40.00000000000000000 ) ) ;
#6 = CIRCLE ( 'NONE', #300, 45.00000000000000711 ) ;
#7 = DIRECTION ( 'NONE',  ( 0.000000000000000000, 0.000000000000000000, -1.000000000000000000 ) ) ;
#8 = LINE ( 'NONE', #134, #225 ) ;
#9 = CYLINDRICAL_SURFACE ( 'NONE', #64, 45.00000000000000711 ) ;
#10 = DIRECTION ( 'NONE',  ( 0.9408874118687265975, 0.3387194682727419082, 0.000000000000000000 ) ) ;
#11 = EDGE_CURVE ( 'NONE', #231, #316, #264, .T. ) ;
#12 = CARTESIAN_POINT ( 'NONE',  ( 238.1181703176842746, 3.421620121521489200, -39.89016697836446212 ) ) ;
#13 = LINE ( 'NONE', #115, #263 ) ;
#14 = DIRECTION ( 'NONE',  ( 0.000000000000000000, 0.000000000000000000, -1.000000000000000000 ) ) ;
#15 = VECTOR ( 'NONE', #268, 1000.000000000000000 ) ;
#16 = DIRECTION ( 'NONE',  ( 0.000000000000000000, 0.000000000000000000, -1.000000000000000000 ) ) ;
#17 = ORIENTED_EDGE ( 'NONE', *, *, #188, .F. ) ;
#18 = ORIENTED_EDGE ( 'NONE', *, *, #36, .F. ) ;
#19 = FACE_OUTER_BOUND ( 'NONE', #94, .T. ) ;
#20 = ORIENTED_EDGE ( 'NONE', *, *, #73, .T. ) ;
#21 = CARTESIAN_POINT ( 'NONE',  ( 0.000000000000000000, 0.000000000000000000, 0.000000000000000000 ) ) ;
#22 = VERTEX_POINT ( 'NONE', #57 ) ;
#23 = APPLICATION_PROTOCOL_DEFINITION ( 'draft international standard', 'automotive_design', 1998, #238 ) ;
#24 = ORIENTED_EDGE ( 'NONE', *, *, #179, .F. ) ;
#25 = FACE_OUTER_BOUND ( 'NONE', #43, .T. ) ;
#26 = PRODUCT_DEFINITION ( 'General', '', #185, #254 ) ;
#27 = AXIS2_PLACEMENT_3D ( 'NONE', #54, #31, #33 ) ;
#28 = EDGE_CURVE ( 'NONE', #102, #182, #297, .T. ) ;
#29 = CARTESIAN_POINT ( 'NONE',  ( 112.4966482942693915, 0.000000000000000000, 0.000000000000000000 ) ) ;
#30 = CARTESIAN_POINT ( 'NONE',  ( 124.9999999999999716, -37.30092119284488916, 14.44442031253505299 ) ) ;
#31 = DIRECTION ( 'NONE',  ( -1.000000000000000000, -0.000000000000000000, -0.000000000000000000 ) ) ;
#32 = AXIS2_PLACEMENT_3D ( 'NONE', #227, #275, #167 ) ;
#33 = DIRECTION ( 'NONE',  ( 0.000000000000000000, 0.000000000000000000, 1.000000000000000000 ) ) ;
#34 = CARTESIAN_POINT ( 'NONE',  ( 0.000000000000000000, 0.000000000000000000, 40.00000000000000000 ) ) ;
#35 = ADVANCED_FACE ( 'NONE', ( #133 ), #211, .T. ) ;
#36 = EDGE_CURVE ( 'NONE', #98, #152, #128, .T. ) ;
#37 = DIRECTION ( 'NONE',  ( 0.3387194682727419637, -0.9408874118687267085, 0.000000000000000000 ) ) ;
#38 = CARTESIAN_POINT ( 'NONE',  ( 0.000000000000000000, 0.000000000000000000, 0.000000000000000000 ) ) ;
#39 = AXIS2_PLACEMENT_3D ( 'NONE', #84, #60, #105 ) ;
#40 = FACE_OUTER_BOUND ( 'NONE', #277, .T. ) ;
#41 = EDGE_LOOP ( 'NONE', ( #78, #198, #18, #291, #51, #76, #222, #294 ) ) ;
#42 =( NAMED_UNIT ( * ) SI_UNIT ( $, .STERADIAN. ) SOLID_ANGLE_UNIT ( ) );
#43 = EDGE_LOOP ( 'NONE', ( #135, #319 ) ) ;
#44 = ADVANCED_FACE ( 'NONE', ( #234 ), #304, .T. ) ;
#45 = ADVANCED_FACE ( 'NONE', ( #25 ), #178, .F. ) ;
#46 = DIRECTION ( 'NONE',  ( -1.000000000000000000, -0.000000000000000000, -0.000000000000000000 ) ) ;
#47 = ORIENTED_EDGE ( 'NONE', *, *, #86, .F. ) ;
#48 = AXIS2_PLACEMENT_3D ( 'NONE', #322, #71, #146 ) ;
#49 = CARTESIAN_POINT ( 'NONE',  ( 250.0000000000000000, 0.000000000000000000, -45.00000000000000711 ) ) ;
#50 = EDGE_LOOP ( 'NONE', ( #104, #171, #126, #202, #205, #17 ) ) ;
#51 = ORIENTED_EDGE ( 'NONE', *, *, #3, .T. ) ;
#52 = UNCERTAINTY_MEASURE_WITH_UNIT (LENGTH_MEASURE( 1.000000000000000082E-05 ), #271, 'distance_accuracy_value', 'NONE');
#53 = PRODUCT ( 'Body-Fuselage-3', 'Body-Fuselage-3', '', ( #230 ) ) ;
#54 = CARTESIAN_POINT ( 'NONE',  ( 250.0000000000000000, 0.000000000000000000, 0.000000000000000000 ) ) ;
#55 = SHAPE_DEFINITION_REPRESENTATION ( #2, #215 ) ;
#56 = CARTESIAN_POINT ( 'NONE',  ( 242.8361840605512896, 5.120105068953625604, 39.67095315319352977 ) ) ;
#57 = CARTESIAN_POINT ( 'NONE',  ( 242.8361840605512896, 5.120105068953625604, -39.67095315319352267 ) ) ;
#58 = EDGE_CURVE ( 'NONE', #22, #231, #203, .T. ) ;
#59 = CARTESIAN_POINT ( 'NONE',  ( 228.6136699801245697, 0.000000000000000000, 40.00000000000000000 ) ) ;
#60 = DIRECTION ( 'NONE',  ( 1.000000000000000000, 0.000000000000000000, 0.000000000000000000 ) ) ;
#61 = CARTESIAN_POINT ( 'NONE',  ( 250.0000000000000000, 0.000000000000000000, 0.000000000000000000 ) ) ;
#62 = ADVANCED_FACE ( 'NONE', ( #79 ), #259, .F. ) ;
#63 = FACE_OUTER_BOUND ( 'NONE', #200, .T. ) ;
#64 = AXIS2_PLACEMENT_3D ( 'NONE', #61, #87, #289 ) ;
#65 = VERTEX_POINT ( 'NONE', #83 ) ;
#66 = DIRECTION ( 'NONE',  ( -1.000000000000000000, -0.000000000000000000, -0.000000000000000000 ) ) ;
#67 = PLANE ( 'NONE',  #32 ) ;
#68 = VECTOR ( 'NONE', #66, 1000.000000000000000 ) ;
#69 = CARTESIAN_POINT ( 'NONE',  ( 250.0000000000000000, 0.000000000000000000, 0.000000000000000000 ) ) ;
#70 = VERTEX_POINT ( 'NONE', #239 ) ;
#71 = DIRECTION ( 'NONE',  ( 1.000000000000000000, 0.000000000000000000, 0.000000000000000000 ) ) ;
#72 = EDGE_LOOP ( 'NONE', ( #100, #228 ) ) ;
#73 = EDGE_CURVE ( 'NONE', #65, #321, #8, .T. ) ;
#74 = FACE_OUTER_BOUND ( 'NONE', #50, .T. ) ;
#75 = ORIENTED_EDGE ( 'NONE', *, *, #11, .F. ) ;
#76 = ORIENTED_EDGE ( 'NONE', *, *, #179, .T. ) ;
#77 = AXIS2_PLACEMENT_3D ( 'NONE', #305, #280, #159 ) ;
#78 = ORIENTED_EDGE ( 'NONE', *, *, #28, .T. ) ;
#79 = FACE_OUTER_BOUND ( 'NONE', #41, .T. ) ;
#80 = CARTESIAN_POINT ( 'NONE',  ( 142.1156528238321641, -31.13928617626527640, 30.35607735377024596 ) ) ;
#81 =( GEOMETRIC_REPRESENTATION_CONTEXT ( 3 ) GLOBAL_UNCERTAINTY_ASSIGNED_CONTEXT ( ( #207 ) ) GLOBAL_UNIT_ASSIGNED_CONTEXT ( ( #166, #243, #162 ) ) REPRESENTATION_CONTEXT ( 'NONE', 'WORKASPACE' ) );
#82 = CARTESIAN_POINT ( 'NONE',  ( 250.0000000000000000, 0.000000000000000000, 0.000000000000000000 ) ) ;
#83 = CARTESIAN_POINT ( 'NONE',  ( 250.0000000000000000, 0.000000000000000000, 45.00000000000000711 ) ) ;
#84 = CARTESIAN_POINT ( 'NONE',  ( 0.000000000000000000, 0.000000000000000000, 0.000000000000000000 ) ) ;
#85 = VECTOR ( 'NONE', #91, 1000.000000000000000 ) ;
#86 = EDGE_CURVE ( 'NONE', #149, #250, #285, .T. ) ;
#87 = DIRECTION ( 'NONE',  ( -1.000000000000000000, -0.000000000000000000, -0.000000000000000000 ) ) ;
#88 = LINE ( 'NONE', #314, #103 ) ;
#89 = DIRECTION ( 'NONE',  ( -0.000000000000000000, -0.000000000000000000, -1.000000000000000000 ) ) ;
#90 = VECTOR ( 'NONE', #142, 1000.000000000000000 ) ;
#91 = DIRECTION ( 'NONE',  ( -1.000000000000000000, -0.000000000000000000, -0.000000000000000000 ) ) ;
#92 = CARTESIAN_POINT ( 'NONE',  ( 0.000000000000000000, 5.510910596163090344E-15, -45.00000000000000711 ) ) ;
#93 = CARTESIAN_POINT ( 'NONE',  ( 0.000000000000000000, 0.000000000000000000, 45.00000000000000711 ) ) ;
#94 = EDGE_LOOP ( 'NONE', ( #24, #224, #127, #323 ) ) ;
#95 = ADVANCED_FACE ( 'NONE', ( #281, #130 ), #110, .F. ) ;
#96 = STYLED_ITEM ( 'NONE', ( #111 ), #155 ) ;
#97 = EDGE_CURVE ( 'NONE', #252, #65, #306, .T. ) ;
#98 = VERTEX_POINT ( 'NONE', #34 ) ;
#99 = CARTESIAN_POINT ( 'NONE',  ( 112.4966482942693915, -37.30092119284488916, -14.44442031253505299 ) ) ;
#100 = ORIENTED_EDGE ( 'NONE', *, *, #131, .T. ) ;
#101 = CARTESIAN_POINT ( 'NONE',  ( 242.8361840605512896, 5.120105068953625604, 39.67095315319352977 ) ) ;
#102 = VERTEX_POINT ( 'NONE', #192 ) ;
#103 = VECTOR ( 'NONE', #89, 1000.000000000000000 ) ;
#104 = ORIENTED_EDGE ( 'NONE', *, *, #143, .F. ) ;
#105 = DIRECTION ( 'NONE',  ( 0.000000000000000000, 0.000000000000000000, -1.000000000000000000 ) ) ;
#106 = DIRECTION ( 'NONE',  ( 0.000000000000000000, 0.000000000000000000, -1.000000000000000000 ) ) ;
#107 = EDGE_CURVE ( 'NONE', #149, #250, #88, .T. ) ;
#108 = ORIENTED_EDGE ( 'NONE', *, *, #311, .T. ) ;
#109 = AXIS2_PLACEMENT_3D ( 'NONE', #82, #157, #279 ) ;
#110 = PLANE ( 'NONE',  #39 ) ;
#111 = PRESENTATION_STYLE_ASSIGNMENT (( #218 ) ) ;
#112 = CIRCLE ( 'NONE', #214, 45.00000000000000711 ) ;
#113 = SURFACE_STYLE_FILL_AREA ( #164 ) ;
#114 = DIRECTION ( 'NONE',  ( 0.000000000000000000, 0.000000000000000000, -1.000000000000000000 ) ) ;
#115 = CARTESIAN_POINT ( 'NONE',  ( 250.0000000000000000, 0.000000000000000000, 40.00000000000000000 ) ) ;
#116 = EDGE_CURVE ( 'NONE', #145, #321, #112, .T. ) ;
#117 = AXIS2_PLACEMENT_3D ( 'NONE', #213, #37, #10 ) ;
#118 = CARTESIAN_POINT ( 'NONE',  ( 250.0000000000000000, 4.898587196589413026E-15, -40.00000000000000000 ) ) ;
#119 = LINE ( 'NONE', #293, #15 ) ;
#120 = ORIENTED_EDGE ( 'NONE', *, *, #97, .F. ) ;
#121 = ADVANCED_FACE ( 'NONE', ( #63 ), #165, .F. ) ;
#122 = ORIENTED_EDGE ( 'NONE', *, *, #131, .F. ) ;
#123 = COLOUR_RGB ( '',0.7921568627450980005, 0.8196078431372548767, 0.9333333333333333481 ) ;
#124 = PLANE ( 'NONE',  #236 ) ;
#125 = ORIENTED_EDGE ( 'NONE', *, *, #240, .T. ) ;
#126 = ORIENTED_EDGE ( 'NONE', *, *, #58, .T. ) ;
#127 = ORIENTED_EDGE ( 'NONE', *, *, #216, .F. ) ;
#128 = CIRCLE ( 'NONE', #292, 40.00000000000000000 ) ;
#129 = ORIENTED_EDGE ( 'NONE', *, *, #116, .F. ) ;
#130 = FACE_BOUND ( 'NONE', #173, .T. ) ;
#131 = EDGE_CURVE ( 'NONE', #252, #65, #6, .T. ) ;
#132 = EDGE_CURVE ( 'NONE', #182, #22, #163, .T. ) ;
#133 = FACE_OUTER_BOUND ( 'NONE', #72, .T. ) ;
#134 = CARTESIAN_POINT ( 'NONE',  ( 250.0000000000000000, 0.000000000000000000, 45.00000000000000711 ) ) ;
#135 = ORIENTED_EDGE ( 'NONE', *, *, #58, .F. ) ;
#136 = CARTESIAN_POINT ( 'NONE',  ( 250.0000000000000000, 0.000000000000000000, -45.00000000000000711 ) ) ;
#137 = FILL_AREA_STYLE_COLOUR ( '', #123 ) ;
#138 = AXIS2_PLACEMENT_3D ( 'NONE', #21, #320, #150 ) ;
#139 = CARTESIAN_POINT ( 'NONE',  ( 250.0000000000000000, 0.000000000000000000, 0.000000000000000000 ) ) ;
#140 = CARTESIAN_POINT ( 'NONE',  ( 2.775557561562891351E-14, -90.00000000000000000, -45.00000000000002132 ) ) ;
#141 = VECTOR ( 'NONE', #197, 1000.000000000000000 ) ;
#142 = DIRECTION ( 'NONE',  ( -0.000000000000000000, -0.000000000000000000, 1.000000000000000000 ) ) ;
#143 = EDGE_CURVE ( 'NONE', #182, #152, #190, .T. ) ;
#144 =( NAMED_UNIT ( * ) PLANE_ANGLE_UNIT ( ) SI_UNIT ( $, .RADIAN. ) );
#145 = VERTEX_POINT ( 'NONE', #92 ) ;
#146 = DIRECTION ( 'NONE',  ( 0.000000000000000000, 0.000000000000000000, -1.000000000000000000 ) ) ;
#147 = ORIENTED_EDGE ( 'NONE', *, *, #36, .T. ) ;
#148 = DIRECTION ( 'NONE',  ( 0.000000000000000000, 0.000000000000000000, 1.000000000000000000 ) ) ;
#149 = VERTEX_POINT ( 'NONE', #310 ) ;
#150 = DIRECTION ( 'NONE',  ( 1.000000000000000000, 0.000000000000000000, 0.000000000000000000 ) ) ;
#151 = ORIENTED_EDGE ( 'NONE', *, *, #303, .F. ) ;
#152 = VERTEX_POINT ( 'NONE', #308 ) ;
#153 = VECTOR ( 'NONE', #245, 1000.000000000000000 ) ;
#154 = CARTESIAN_POINT ( 'NONE',  ( 124.9999999999999716, -37.30092119284488916, -14.44442031253505299 ) ) ;
#155 = MANIFOLD_SOLID_BREP ( 'Cut-Extrude2', #161 ) ;
#156 = EDGE_CURVE ( 'NONE', #316, #98, #13, .T. ) ;
#157 = DIRECTION ( 'NONE',  ( -1.000000000000000000, -0.000000000000000000, -0.000000000000000000 ) ) ;
#158 = APPLICATION_PROTOCOL_DEFINITION ( 'draft international standard', 'automotive_design', 1998, #220 ) ;
#159 = DIRECTION ( 'NONE',  ( 0.000000000000000000, 0.000000000000000000, -1.000000000000000000 ) ) ;
#160 = CARTESIAN_POINT ( 'NONE',  ( 142.1156528238321357, -31.13928617626529771, -30.35607735377022109 ) ) ;
#161 = CLOSED_SHELL ( 'NONE', ( #62, #44, #290, #189, #265, #35, #95, #226, #248, #121, #45 ) ) ;
#162 =( NAMED_UNIT ( * ) SI_UNIT ( $, .STERADIAN. ) SOLID_ANGLE_UNIT ( ) );
#163 =( BOUNDED_CURVE ( )  B_SPLINE_CURVE ( 3, ( #287, #242, #12, #217 ),
 .UNSPECIFIED., .F., .T. ) 
 B_SPLINE_CURVE_WITH_KNOTS ( ( 4, 4 ),
 ( 1.570796326794896558, 1.699151103034442611 ),
 .UNSPECIFIED. ) 
 CURVE ( )  GEOMETRIC_REPRESENTATION_ITEM ( )  RATIONAL_B_SPLINE_CURVE ( ( 1.000000000000000000, 0.9986275587754535055, 0.9986275587754535055, 1.000000000000000000 ) ) 
 REPRESENTATION_ITEM ( '' )  );
#164 = FILL_AREA_STYLE ('',( #137 ) ) ;
#165 = PLANE ( 'NONE',  #117 ) ;
#166 =( LENGTH_UNIT ( ) NAMED_UNIT ( * ) SI_UNIT ( .MILLI., .METRE. ) );
#167 = DIRECTION ( 'NONE',  ( -0.9408874118687268195, -0.3387194682727416306, 0.000000000000000000 ) ) ;
#168 = CYLINDRICAL_SURFACE ( 'NONE', #313, 40.00000000000000000 ) ;
#169 = EDGE_LOOP ( 'NONE', ( #122, #247, #269, #274 ) ) ;
#170 = LINE ( 'NONE', #249, #141 ) ;
#171 = ORIENTED_EDGE ( 'NONE', *, *, #132, .T. ) ;
#172 = CARTESIAN_POINT ( 'NONE',  ( 228.6136699801245697, 0.000000000000000000, 40.00000000000000000 ) ) ;
#173 = EDGE_LOOP ( 'NONE', ( #147, #301 ) ) ;
#174 = AXIS2_PLACEMENT_3D ( 'NONE', #181, #261, #210 ) ;
#175 = CARTESIAN_POINT ( 'NONE',  ( 112.4966482942693915, -37.30092119284488916, 50.00000000000000000 ) ) ;
#176 = ORIENTED_EDGE ( 'NONE', *, *, #3, .F. ) ;
#177 = EDGE_LOOP ( 'NONE', ( #299, #317, #20, #125 ) ) ;
#178 = PLANE ( 'NONE',  #260 ) ;
#179 = EDGE_CURVE ( 'NONE', #70, #149, #312, .T. ) ;
#180 = VECTOR ( 'NONE', #246, 1000.000000000000000 ) ;
#181 = CARTESIAN_POINT ( 'NONE',  ( 250.0000000000000000, 0.000000000000000000, 0.000000000000000000 ) ) ;
#182 = VERTEX_POINT ( 'NONE', #266 ) ;
#183 = CARTESIAN_POINT ( 'NONE',  ( 0.000000000000000000, 0.000000000000000000, 0.000000000000000000 ) ) ;
#184 = CARTESIAN_POINT ( 'NONE',  ( 181.2163983596663854, -17.06301778336494124, 39.99999999999999289 ) ) ;
#185 = PRODUCT_DEFINITION_FORMATION_WITH_SPECIFIED_SOURCE ( 'Symmetric', '', #53, .NOT_KNOWN. ) ;
#186 = DIRECTION ( 'NONE',  ( 1.000000000000000000, 0.000000000000000000, 0.000000000000000000 ) ) ;
#187 = CARTESIAN_POINT ( 'NONE',  ( 0.000000000000000000, 0.000000000000000000, 0.000000000000000000 ) ) ;
#188 = EDGE_CURVE ( 'NONE', #152, #98, #209, .T. ) ;
#189 = ADVANCED_FACE ( 'NONE', ( #221 ), #9, .T. ) ;
#190 = LINE ( 'NONE', #118, #68 ) ;
#191 = MECHANICAL_DESIGN_GEOMETRIC_PRESENTATION_REPRESENTATION (  '', ( #96 ), #81 ) ;
#192 = CARTESIAN_POINT ( 'NONE',  ( 124.9999999999999716, -37.30092119284488916, -14.44442031253505299 ) ) ;
#193 = CARTESIAN_POINT ( 'NONE',  ( 250.0000000000000000, -37.30092119284488916, 14.44442031253505299 ) ) ;
#194 = FACE_OUTER_BOUND ( 'NONE', #229, .T. ) ;
#195 = ORIENTED_EDGE ( 'NONE', *, *, #28, .F. ) ;
#196 = AXIS2_PLACEMENT_3D ( 'NONE', #199, #223, #16 ) ;
#197 = DIRECTION ( 'NONE',  ( -1.000000000000000000, -0.000000000000000000, -0.000000000000000000 ) ) ;
#198 = ORIENTED_EDGE ( 'NONE', *, *, #143, .T. ) ;
#199 = CARTESIAN_POINT ( 'NONE',  ( 0.000000000000000000, 0.000000000000000000, 0.000000000000000000 ) ) ;
#200 = EDGE_LOOP ( 'NONE', ( #195, #151, #176, #75, #108, #253 ) ) ;
#201 = CARTESIAN_POINT ( 'NONE',  ( 250.0000000000000000, -37.30092119284488916, -14.44442031253505299 ) ) ;
#202 = ORIENTED_EDGE ( 'NONE', *, *, #11, .T. ) ;
#203 = CIRCLE ( 'NONE', #77, 40.00000000000000000 ) ;
#204 = DIRECTION ( 'NONE',  ( 0.000000000000000000, -1.000000000000000000, 0.000000000000000000 ) ) ;
#205 = ORIENTED_EDGE ( 'NONE', *, *, #156, .T. ) ;
#206 = CARTESIAN_POINT ( 'NONE',  ( 181.2163983596663854, -17.06301778336495545, -39.99999999999999289 ) ) ;
#207 = UNCERTAINTY_MEASURE_WITH_UNIT (LENGTH_MEASURE( 1.000000000000000082E-05 ), #166, 'distance_accuracy_value', 'NONE');
#208 = CARTESIAN_POINT ( 'NONE',  ( 228.6136699801245697, 0.000000000000000000, 40.00000000000000000 ) ) ;
#209 = CIRCLE ( 'NONE', #219, 40.00000000000000000 ) ;
#210 = DIRECTION ( 'NONE',  ( 0.000000000000000000, 0.000000000000000000, -1.000000000000000000 ) ) ;
#211 = PLANE ( 'NONE',  #174 ) ;
#212 = ORIENTED_EDGE ( 'NONE', *, *, #258, .T. ) ;
#213 = CARTESIAN_POINT ( 'NONE',  ( 124.9999999999999716, -37.30092119284488916, 50.00000000000000000 ) ) ;
#214 = AXIS2_PLACEMENT_3D ( 'NONE', #187, #186, #283 ) ;
#215 = ADVANCED_BREP_SHAPE_REPRESENTATION ( 'Body-Fuselage-3', ( #155, #138 ), #232 ) ;
#216 = EDGE_CURVE ( 'NONE', #250, #102, #273, .T. ) ;
#217 = CARTESIAN_POINT ( 'NONE',  ( 242.8361840605512896, 5.120105068953625604, -39.67095315319352267 ) ) ;
#218 = SURFACE_STYLE_USAGE ( .BOTH. , #286 ) ;
#219 = AXIS2_PLACEMENT_3D ( 'NONE', #38, #244, #14 ) ;
#220 = APPLICATION_CONTEXT ( 'automotive_design' ) ;
#221 = FACE_OUTER_BOUND ( 'NONE', #177, .T. ) ;
#222 = ORIENTED_EDGE ( 'NONE', *, *, #86, .T. ) ;
#223 = DIRECTION ( 'NONE',  ( 1.000000000000000000, 0.000000000000000000, 0.000000000000000000 ) ) ;
#224 = ORIENTED_EDGE ( 'NONE', *, *, #303, .T. ) ;
#225 = VECTOR ( 'NONE', #237, 1000.000000000000000 ) ;
#226 = ADVANCED_FACE ( 'NONE', ( #40 ), #267, .F. ) ;
#227 = CARTESIAN_POINT ( 'NONE',  ( 250.0000000000000000, 0.000000000000000000, -45.00000000000000711 ) ) ;
#228 = ORIENTED_EDGE ( 'NONE', *, *, #258, .F. ) ;
#229 = EDGE_LOOP ( 'NONE', ( #212, #120 ) ) ;
#230 = PRODUCT_CONTEXT ( 'NONE', #238, 'mechanical' ) ;
#231 = VERTEX_POINT ( 'NONE', #101 ) ;
#232 =( GEOMETRIC_REPRESENTATION_CONTEXT ( 3 ) GLOBAL_UNCERTAINTY_ASSIGNED_CONTEXT ( ( #52 ) ) GLOBAL_UNIT_ASSIGNED_CONTEXT ( ( #271, #144, #42 ) ) REPRESENTATION_CONTEXT ( 'NONE', 'WORKASPACE' ) );
#233 = CARTESIAN_POINT ( 'NONE',  ( 242.8361840605512896, 43.97049905881704035, 50.00000000000000000 ) ) ;
#234 = FACE_OUTER_BOUND ( 'NONE', #169, .T. ) ;
#235 =( BOUNDED_CURVE ( )  B_SPLINE_CURVE ( 3, ( #208, #184, #80, #30 ),
 .UNSPECIFIED., .F., .F. ) 
 B_SPLINE_CURVE_WITH_KNOTS ( ( 4, 4 ),
 ( 4.712388980384689674, 5.913726824231999579 ),
 .UNSPECIFIED. ) 
 CURVE ( )  GEOMETRIC_REPRESENTATION_ITEM ( )  RATIONAL_B_SPLINE_CURVE ( ( 1.000000000000000000, 0.8833051523716417552, 0.8833051523716417552, 1.000000000000000000 ) ) 
 REPRESENTATION_ITEM ( '' )  );
#236 = AXIS2_PLACEMENT_3D ( 'NONE', #175, #204, #318 ) ;
#237 = DIRECTION ( 'NONE',  ( -1.000000000000000000, -0.000000000000000000, -0.000000000000000000 ) ) ;
#238 = APPLICATION_CONTEXT ( 'automotive_design' ) ;
#239 = CARTESIAN_POINT ( 'NONE',  ( 124.9999999999999716, -37.30092119284488916, 14.44442031253505299 ) ) ;
#240 = EDGE_CURVE ( 'NONE', #321, #145, #278, .T. ) ;
#241 = AXIS2_PLACEMENT_3D ( 'NONE', #29, #307, #7 ) ;
#242 = CARTESIAN_POINT ( 'NONE',  ( 233.3708168272375474, 1.712572864960677510, -40.00000000000000000 ) ) ;
#243 =( NAMED_UNIT ( * ) PLANE_ANGLE_UNIT ( ) SI_UNIT ( $, .RADIAN. ) );
#244 = DIRECTION ( 'NONE',  ( 1.000000000000000000, 0.000000000000000000, 0.000000000000000000 ) ) ;
#245 = DIRECTION ( 'NONE',  ( -0.000000000000000000, -0.000000000000000000, -1.000000000000000000 ) ) ;
#246 = DIRECTION ( 'NONE',  ( 1.000000000000000000, 0.000000000000000000, 0.000000000000000000 ) ) ;
#247 = ORIENTED_EDGE ( 'NONE', *, *, #270, .T. ) ;
#248 = ADVANCED_FACE ( 'NONE', ( #19 ), #124, .F. ) ;
#249 = CARTESIAN_POINT ( 'NONE',  ( 250.0000000000000000, 5.510910596163090344E-15, -45.00000000000000711 ) ) ;
#250 = VERTEX_POINT ( 'NONE', #99 ) ;
#251 = CARTESIAN_POINT ( 'NONE',  ( 124.9999999999999716, -37.30092119284488916, 50.00000000000000000 ) ) ;
#252 = VERTEX_POINT ( 'NONE', #295 ) ;
#253 = ORIENTED_EDGE ( 'NONE', *, *, #132, .F. ) ;
#254 = PRODUCT_DEFINITION_CONTEXT ( 'detailed design', #220, 'design' ) ;
#255 = PRESENTATION_LAYER_ASSIGNMENT (  '', '', ( #96 ) ) ;
#256 = CARTESIAN_POINT ( 'NONE',  ( 228.6136699801245697, 4.898587196589413026E-15, -40.00000000000000000 ) ) ;
#257 = DIRECTION ( 'NONE',  ( -0.000000000000000000, 0.000000000000000000, -1.000000000000000000 ) ) ;
#258 = EDGE_CURVE ( 'NONE', #252, #65, #315, .T. ) ;
#259 = CYLINDRICAL_SURFACE ( 'NONE', #27, 40.00000000000000000 ) ;
#260 = AXIS2_PLACEMENT_3D ( 'NONE', #233, #1, #257 ) ;
#261 = DIRECTION ( 'NONE',  ( 1.000000000000000000, 0.000000000000000000, 0.000000000000000000 ) ) ;
#262 = DIRECTION ( 'NONE',  ( -1.000000000000000000, -0.000000000000000000, -0.000000000000000000 ) ) ;
#263 = VECTOR ( 'NONE', #262, 1000.000000000000000 ) ;
#264 =( BOUNDED_CURVE ( )  B_SPLINE_CURVE ( 3, ( #56, #302, #5, #59 ),
 .UNSPECIFIED., .F., .F. ) 
 B_SPLINE_CURVE_WITH_KNOTS ( ( 4, 4 ),
 ( 4.584034204145143399, 4.712388980384689674 ),
 .UNSPECIFIED. ) 
 CURVE ( )  GEOMETRIC_REPRESENTATION_ITEM ( )  RATIONAL_B_SPLINE_CURVE ( ( 1.000000000000000000, 0.9986275587754535055, 0.9986275587754535055, 1.000000000000000000 ) ) 
 REPRESENTATION_ITEM ( '' )  );
#265 = ADVANCED_FACE ( 'NONE', ( #74 ), #168, .F. ) ;
#266 = CARTESIAN_POINT ( 'NONE',  ( 228.6136699801245697, 4.898587196589413026E-15, -40.00000000000000000 ) ) ;
#267 = PLANE ( 'NONE',  #48 ) ;
#268 = DIRECTION ( 'NONE',  ( -0.000000000000000000, -0.000000000000000000, -1.000000000000000000 ) ) ;
#269 = ORIENTED_EDGE ( 'NONE', *, *, #116, .T. ) ;
#270 = EDGE_CURVE ( 'NONE', #252, #145, #170, .T. ) ;
#271 =( LENGTH_UNIT ( ) NAMED_UNIT ( * ) SI_UNIT ( .MILLI., .METRE. ) );
#272 = ORIENTED_EDGE ( 'NONE', *, *, #107, .T. ) ;
#273 = LINE ( 'NONE', #201, #180 ) ;
#274 = ORIENTED_EDGE ( 'NONE', *, *, #73, .F. ) ;
#275 = DIRECTION ( 'NONE',  ( -0.3387194682727416306, 0.9408874118687268195, 0.000000000000000000 ) ) ;
#276 = EDGE_LOOP ( 'NONE', ( #296, #129 ) ) ;
#277 = EDGE_LOOP ( 'NONE', ( #47, #272 ) ) ;
#278 = CIRCLE ( 'NONE', #196, 45.00000000000000711 ) ;
#279 = DIRECTION ( 'NONE',  ( 0.000000000000000000, 0.000000000000000000, 1.000000000000000000 ) ) ;
#280 = DIRECTION ( 'NONE',  ( 1.000000000000000000, 0.000000000000000000, -0.000000000000000000 ) ) ;
#281 = FACE_OUTER_BOUND ( 'NONE', #276, .T. ) ;
#282 = DIRECTION ( 'NONE',  ( 1.000000000000000000, 0.000000000000000000, 0.000000000000000000 ) ) ;
#283 = DIRECTION ( 'NONE',  ( 0.000000000000000000, 0.000000000000000000, -1.000000000000000000 ) ) ;
#284 = CARTESIAN_POINT ( 'NONE',  ( 250.0000000000000000, 0.000000000000000000, 45.00000000000000711 ) ) ;
#285 = CIRCLE ( 'NONE', #241, 40.00000000000000000 ) ;
#286 = SURFACE_SIDE_STYLE ('',( #113 ) ) ;
#287 = CARTESIAN_POINT ( 'NONE',  ( 228.6136699801245697, 4.898587196589413026E-15, -40.00000000000000000 ) ) ;
#288 = PRODUCT_RELATED_PRODUCT_CATEGORY ( 'part', '', ( #53 ) ) ;
#289 = DIRECTION ( 'NONE',  ( 0.000000000000000000, 0.000000000000000000, 1.000000000000000000 ) ) ;
#290 = ADVANCED_FACE ( 'NONE', ( #194 ), #67, .F. ) ;
#291 = ORIENTED_EDGE ( 'NONE', *, *, #156, .F. ) ;
#292 = AXIS2_PLACEMENT_3D ( 'NONE', #183, #4, #106 ) ;
#293 = CARTESIAN_POINT ( 'NONE',  ( 242.8361840605512896, 5.120105068953625604, 50.00000000000000000 ) ) ;
#294 = ORIENTED_EDGE ( 'NONE', *, *, #216, .T. ) ;
#295 = CARTESIAN_POINT ( 'NONE',  ( 250.0000000000000000, 0.000000000000000000, -45.00000000000000711 ) ) ;
#296 = ORIENTED_EDGE ( 'NONE', *, *, #240, .F. ) ;
#297 =( BOUNDED_CURVE ( )  B_SPLINE_CURVE ( 3, ( #154, #160, #206, #256 ),
 .UNSPECIFIED., .F., .F. ) 
 B_SPLINE_CURVE_WITH_KNOTS ( ( 4, 4 ),
 ( 0.3694584829475862642, 1.570796326794896558 ),
 .UNSPECIFIED. ) 
 CURVE ( )  GEOMETRIC_REPRESENTATION_ITEM ( )  RATIONAL_B_SPLINE_CURVE ( ( 1.000000000000000000, 0.8833051523716417552, 0.8833051523716417552, 1.000000000000000000 ) ) 
 REPRESENTATION_ITEM ( '' )  );
#298 = LINE ( 'NONE', #251, #153 ) ;
#299 = ORIENTED_EDGE ( 'NONE', *, *, #270, .F. ) ;
#300 = AXIS2_PLACEMENT_3D ( 'NONE', #139, #282, #114 ) ;
#301 = ORIENTED_EDGE ( 'NONE', *, *, #188, .T. ) ;
#302 = CARTESIAN_POINT ( 'NONE',  ( 238.1181703176843030, 3.421620121521505187, 39.89016697836446212 ) ) ;
#303 = EDGE_CURVE ( 'NONE', #70, #102, #298, .T. ) ;
#304 = CYLINDRICAL_SURFACE ( 'NONE', #109, 45.00000000000000711 ) ;
#305 = CARTESIAN_POINT ( 'NONE',  ( 242.8361840605512896, 0.000000000000000000, 0.000000000000000000 ) ) ;
#306 =( BOUNDED_CURVE ( )  B_SPLINE_CURVE ( 3, ( #136, #140, #309, #284 ),
 .UNSPECIFIED., .F., .F. ) 
 B_SPLINE_CURVE_WITH_KNOTS ( ( 4, 4 ),
 ( 4.712388980384689674, 7.853981633974482790 ),
 .UNSPECIFIED. ) 
 CURVE ( )  GEOMETRIC_REPRESENTATION_ITEM ( )  RATIONAL_B_SPLINE_CURVE ( ( 1.000000000000000000, 0.3333333333333333703, 0.3333333333333333703, 1.000000000000000000 ) ) 
 REPRESENTATION_ITEM ( '' )  );
#307 = DIRECTION ( 'NONE',  ( 1.000000000000000000, 0.000000000000000000, 0.000000000000000000 ) ) ;
#308 = CARTESIAN_POINT ( 'NONE',  ( 0.000000000000000000, 4.898587196589413026E-15, -40.00000000000000000 ) ) ;
#309 = CARTESIAN_POINT ( 'NONE',  ( 2.775557561562891351E-14, -90.00000000000001421, 45.00000000000000000 ) ) ;
#310 = CARTESIAN_POINT ( 'NONE',  ( 112.4966482942693915, -37.30092119284488916, 14.44442031253505299 ) ) ;
#311 = EDGE_CURVE ( 'NONE', #231, #22, #119, .T. ) ;
#312 = LINE ( 'NONE', #193, #85 ) ;
#313 = AXIS2_PLACEMENT_3D ( 'NONE', #69, #46, #148 ) ;
#314 = CARTESIAN_POINT ( 'NONE',  ( 112.4966482942693915, -37.30092119284488916, 50.00000000000000000 ) ) ;
#315 = LINE ( 'NONE', #49, #90 ) ;
#316 = VERTEX_POINT ( 'NONE', #172 ) ;
#317 = ORIENTED_EDGE ( 'NONE', *, *, #97, .T. ) ;
#318 = DIRECTION ( 'NONE',  ( 0.000000000000000000, -0.000000000000000000, -1.000000000000000000 ) ) ;
#319 = ORIENTED_EDGE ( 'NONE', *, *, #311, .F. ) ;
#320 = DIRECTION ( 'NONE',  ( 0.000000000000000000, 0.000000000000000000, 1.000000000000000000 ) ) ;
#321 = VERTEX_POINT ( 'NONE', #93 ) ;
#322 = CARTESIAN_POINT ( 'NONE',  ( 112.4966482942693915, -45.00000000000000711, 50.00000000000000000 ) ) ;
#323 = ORIENTED_EDGE ( 'NONE', *, *, #107, .F. ) ;
ENDSEC;
END-ISO-10303-21;
