ISO-10303-21;
HEADER;
FILE_DESCRIPTION (( 'STEP AP214' ),
    '1' );
FILE_NAME ('Body-Fuselage-1.STEP',
    '2026-04-30T22:21:28',
    ( '' ),
    ( '' ),
    'SwSTEP 2.0',
    'SolidWorks 2026',
    '' );
FILE_SCHEMA (( 'AUTOMOTIVE_DESIGN' ));
ENDSEC;

DATA;
#1 = DIRECTION ( 'NONE',  ( 0.000000000000000000, 0.000000000000000000, -1.000000000000000000 ) ) ;
#2 = EDGE_CURVE ( 'NONE', #378, #288, #292, .T. ) ;
#3 = FACE_OUTER_BOUND ( 'NONE', #120, .T. ) ;
#4 = CARTESIAN_POINT ( 'NONE',  ( -78.54116938428298056, 0.000000000000000000, 0.000000000000000000 ) ) ;
#5 = APPLICATION_PROTOCOL_DEFINITION ( 'draft international standard', 'automotive_design', 1998, #174 ) ;
#6 = DIRECTION ( 'NONE',  ( 1.000000000000000000, 0.000000000000000000, 0.000000000000000000 ) ) ;
#7 = CARTESIAN_POINT ( 'NONE',  ( 66.93228216595511526, -39.99999999999998579, 19.62746379632007176 ) ) ;
#8 = SURFACE_STYLE_FILL_AREA ( #324 ) ;
#9 = CARTESIAN_POINT ( 'NONE',  ( 33.93046349621193514, -35.00000000000000000, -9.370442065960974176 ) ) ;
#10 = CARTESIAN_POINT ( 'NONE',  ( 22.40551707102022760, -35.00000000000000000, 2.223086511170895285 ) ) ;
#11 = EDGE_CURVE ( 'NONE', #140, #81, #325, .T. ) ;
#12 = EDGE_CURVE ( 'NONE', #347, #113, #349, .T. ) ;
#13 = CARTESIAN_POINT ( 'NONE',  ( 21.89496052013247862, -34.99999999999999289, 1.177983771499677035 ) ) ;
#14 = EDGE_LOOP ( 'NONE', ( #220, #62, #171, #87 ) ) ;
#15 = CARTESIAN_POINT ( 'NONE',  ( 21.75820440136746470, -35.00000000000000711, 0.6088331372822883836 ) ) ;
#16 = CARTESIAN_POINT ( 'NONE',  ( 62.52829408094905261, -35.00000000000000000, 17.41569704027770626 ) ) ;
#17 = DIRECTION ( 'NONE',  ( -1.000000000000000000, 0.000000000000000000, -0.000000000000000000 ) ) ;
#18 = DIRECTION ( 'NONE',  ( -1.000000000000000000, -0.000000000000000000, -0.000000000000000000 ) ) ;
#19 = CARTESIAN_POINT ( 'NONE',  ( 62.52113588886523843, -35.00000000000000000, -17.41416991378602930 ) ) ;
#20 = EDGE_LOOP ( 'NONE', ( #189, #26 ) ) ;
#21 = DIRECTION ( 'NONE',  ( 1.000000000000000000, 0.000000000000000000, 0.000000000000000000 ) ) ;
#22 = EDGE_LOOP ( 'NONE', ( #372, #316, #258, #370 ) ) ;
#23 = AXIS2_PLACEMENT_3D ( 'NONE', #201, #323, #176 ) ;
#24 = CARTESIAN_POINT ( 'NONE',  ( 27.21938414704633402, -40.00000000000000711, -6.835087811732362795 ) ) ;
#25 = EDGE_CURVE ( 'NONE', #365, #140, #44, .T. ) ;
#26 = ORIENTED_EDGE ( 'NONE', *, *, #212, .F. ) ;
#27 = CARTESIAN_POINT ( 'NONE',  ( 46.65140369606896797, -40.00000000000000000, -14.43277080043863947 ) ) ;
#28 = ORIENTED_EDGE ( 'NONE', *, *, #310, .F. ) ;
#29 = DIRECTION ( 'NONE',  ( -0.000000000000000000, -0.000000000000000000, 1.000000000000000000 ) ) ;
#30 = AXIS2_PLACEMENT_3D ( 'NONE', #129, #360, #33 ) ;
#31 = CIRCLE ( 'NONE', #276, 30.00000000000000000 ) ;
#32 = DIRECTION ( 'NONE',  ( 0.000000000000000000, 0.000000000000000000, 1.000000000000000000 ) ) ;
#33 = DIRECTION ( 'NONE',  ( 0.000000000000000000, 0.000000000000000000, 1.000000000000000000 ) ) ;
#34 = PRODUCT_CONTEXT ( 'NONE', #225, 'mechanical' ) ;
#35 = LINE ( 'NONE', #154, #132 ) ;
#36 = CARTESIAN_POINT ( 'NONE',  ( 71.45883061571704786, 5.510910596163089556E-15, 45.00000000000000000 ) ) ;
#37 = FACE_OUTER_BOUND ( 'NONE', #262, .T. ) ;
#38 = CIRCLE ( 'NONE', #291, 24.97506218943956213 ) ;
#39 = CARTESIAN_POINT ( 'NONE',  ( 71.45883061571704786, 0.000000000000000000, 0.000000000000000000 ) ) ;
#40 = CARTESIAN_POINT ( 'NONE',  ( 23.49917797284358301, -35.00000000000000000, 3.571285647712215905 ) ) ;
#41 = CARTESIAN_POINT ( 'NONE',  ( 42.58670146682089808, -34.99999999999999289, -12.28263013315846663 ) ) ;
#42 = EDGE_CURVE ( 'NONE', #231, #140, #314, .T. ) ;
#43 = PRODUCT_DEFINITION_FORMATION_WITH_SPECIFIED_SOURCE ( 'ANY', '', #68, .NOT_KNOWN. ) ;
#44 = CIRCLE ( 'NONE', #93, 39.97506218943956924 ) ;
#45 = CARTESIAN_POINT ( 'NONE',  ( 23.46631359557245133, -35.00000000000000000, -3.518076689681764790 ) ) ;
#46 = CARTESIAN_POINT ( 'NONE',  ( 36.12883033070236394, -35.00000000000000711, 10.17370322771199298 ) ) ;
#47 = EDGE_CURVE ( 'NONE', #343, #365, #35, .T. ) ;
#48 = CARTESIAN_POINT ( 'NONE',  ( 33.99111753785678047, -35.00000000000000711, 9.393281264888248216 ) ) ;
#49 = CARTESIAN_POINT ( 'NONE',  ( 22.34313386866155682, -40.00000000000000000, -2.673028260427139369 ) ) ;
#50 = CARTESIAN_POINT ( 'NONE',  ( 71.45883061571704786, 5.510910596163089556E-15, 45.00000000000000000 ) ) ;
#51 = EDGE_LOOP ( 'NONE', ( #148, #253, #115, #169 ) ) ;
#52 = MANIFOLD_SOLID_BREP ( 'Cut-Extrude1', #240 ) ;
#53 = CARTESIAN_POINT ( 'NONE',  ( 21.45315156218521579, -40.00000000000000000, -0.2009712949786679470 ) ) ;
#54 = EDGE_LOOP ( 'NONE', ( #109, #28 ) ) ;
#55 = ADVANCED_BREP_SHAPE_REPRESENTATION ( 'Body-Fuselage-1', ( #52, #301 ), #214 ) ;
#56 = FACE_OUTER_BOUND ( 'NONE', #233, .T. ) ;
#57 = ORIENTED_EDGE ( 'NONE', *, *, #306, .T. ) ;
#58 = ADVANCED_FACE ( 'NONE', ( #330 ), #237, .F. ) ;
#59 = CARTESIAN_POINT ( 'NONE',  ( 22.03958797663028690, -40.00000000000000711, -2.170775394526764046 ) ) ;
#60 = LINE ( 'NONE', #300, #340 ) ;
#61 = CARTESIAN_POINT ( 'NONE',  ( 35.78781744480784965, -40.00000000000000000, 10.81008021583191514 ) ) ;
#62 = ORIENTED_EDGE ( 'NONE', *, *, #313, .T. ) ;
#63 = CARTESIAN_POINT ( 'NONE',  ( 48.98372786320749128, -39.99999999999997868, 15.10290479485101933 ) ) ;
#64 = DIRECTION ( 'NONE',  ( 0.000000000000000000, 0.000000000000000000, 1.000000000000000000 ) ) ;
#65 = DIRECTION ( 'NONE',  ( -1.000000000000000000, -0.000000000000000000, -0.000000000000000000 ) ) ;
#66 = CARTESIAN_POINT ( 'NONE',  ( -78.54116938428298056, 0.000000000000000000, 0.000000000000000000 ) ) ;
#67 =( NAMED_UNIT ( * ) SI_UNIT ( $, .STERADIAN. ) SOLID_ANGLE_UNIT ( ) );
#68 = PRODUCT ( 'Body-Fuselage-1', 'Body-Fuselage-1', '', ( #34 ) ) ;
#69 = CARTESIAN_POINT ( 'NONE',  ( 71.45883061571704786, 0.000000000000000000, 0.000000000000000000 ) ) ;
#70 = DIRECTION ( 'NONE',  ( 0.9950371902099890420, 0.000000000000000000, -0.09950371902099892918 ) ) ;
#71 = CARTESIAN_POINT ( 'NONE',  ( 21.69946041726990771, -35.00000000000000000, 0.03319759852080693407 ) ) ;
#72 = DIRECTION ( 'NONE',  ( 1.000000000000000000, 0.000000000000000000, 0.000000000000000000 ) ) ;
#73 = ORIENTED_EDGE ( 'NONE', *, *, #202, .T. ) ;
#74 = CARTESIAN_POINT ( 'NONE',  ( 26.76733896422297576, -35.00000000000000000, 5.978975886931038097 ) ) ;
#75 = DIRECTION ( 'NONE',  ( 0.000000000000000000, 0.000000000000000000, -1.000000000000000000 ) ) ;
#76 = CARTESIAN_POINT ( 'NONE',  ( 35.62260459895121301, -40.00000000000000711, -10.74668261397131275 ) ) ;
#77 = AXIS2_PLACEMENT_3D ( 'NONE', #4, #210, #124 ) ;
#78 = CARTESIAN_POINT ( 'NONE',  ( 53.62519203156735870, -35.00000000000000000, -15.29324799985423411 ) ) ;
#79 = ORIENTED_EDGE ( 'NONE', *, *, #207, .T. ) ;
#80 = CARTESIAN_POINT ( 'NONE',  ( 55.84640931115406204, -35.00000000000000711, -15.83818297240367734 ) ) ;
#81 = VERTEX_POINT ( 'NONE', #352 ) ;
#82 = B_SPLINE_CURVE_WITH_KNOTS ( 'NONE', 3,
 ( #333, #188, #16, #335, #133, #337, #186, #192, #303, #46, #48, #102, #130, #248, #364, #74, #221, #165, #164, #368, #40, #135, #366, #10, #136, #271, #13, #274, #15, #251, #71, #305, #250, #158, #107, #304, #332, #308, #217, #243, #363, #45, #275, #272, #159, #222, #162, #367, #134, #249, #106, #270, #9, #101, #216, #41, #331, #104, #78, #80, #19, #118, #346 ),
 .UNSPECIFIED., .F., .F.,
 ( 4, 2, 2, 2, 2, 2, 2, 2, 2, 2, 2, 2, 2, 2, 2, 1, 2, 2, 2, 2, 2, 2, 2, 2, 2, 2, 2, 2, 2, 2, 2, 4 ),
 ( 0.1163713241538217036, 0.1300693326384771698, 0.1369183368808048751, 0.1437673411231326082, 0.1506163453654603135, 0.1574653496077880188, 0.1608898517289518715, 0.1626021027895337978, 0.1643143538501157519, 0.1660266049106976782, 0.1677388559712796046, 0.1685949815015705955, 0.1694511070318615586, 0.1703072325621525218, 0.1707352953272979756, 0.1711633580924434850, 0.1715914208575889666, 0.1720194836227344481, 0.1728756091530254113, 0.1737317346833163745, 0.1745878602136073376, 0.1754439857438983008, 0.1763001112741892640, 0.1780123623347712181, 0.1797246133953531444, 0.1814368644559350707, 0.1848613665770989511, 0.1917103708194267120, 0.1985593750617545006, 0.2054083793040822892, 0.2122573835464100500, 0.2259553920310656272 ),
 .UNSPECIFIED. ) ;
#83 = CARTESIAN_POINT ( 'NONE',  ( -78.54116938428298056, 4.592425496802574367E-15, 30.00000000000000000 ) ) ;
#84 = ORIENTED_EDGE ( 'NONE', *, *, #247, .F. ) ;
#85 = EDGE_CURVE ( 'NONE', #103, #81, #211, .T. ) ;
#86 = CARTESIAN_POINT ( 'NONE',  ( 71.45883061571703365, -40.00000000000000000, -20.61552812808831092 ) ) ;
#87 = ORIENTED_EDGE ( 'NONE', *, *, #12, .F. ) ;
#88 = AXIS2_PLACEMENT_3D ( 'NONE', #371, #17, #139 ) ;
#89 = CARTESIAN_POINT ( 'NONE',  ( 71.45883061571704786, 0.000000000000000000, -45.00000000000000000 ) ) ;
#90 = CARTESIAN_POINT ( 'NONE',  ( 71.45883061571703365, -35.00000000000000000, 19.31335281740487275 ) ) ;
#91 = SURFACE_STYLE_USAGE ( .BOTH. , #181 ) ;
#92 = DIRECTION ( 'NONE',  ( 1.000000000000000000, 0.000000000000000000, 0.000000000000000000 ) ) ;
#93 = AXIS2_PLACEMENT_3D ( 'NONE', #224, #18, #138 ) ;
#94 = CARTESIAN_POINT ( 'NONE',  ( 42.34114240941320162, -40.00000000000000000, 13.10841058933594283 ) ) ;
#95 = CARTESIAN_POINT ( 'NONE',  ( -78.54116938428298056, 0.000000000000000000, -24.97506218943956213 ) ) ;
#96 = CARTESIAN_POINT ( 'NONE',  ( 27.34826574706656643, -40.00000000000000000, 6.910906839004868019 ) ) ;
#97 = PRODUCT_DEFINITION_SHAPE ( 'NONE', 'NONE',  #281 ) ;
#98 = EDGE_CURVE ( 'NONE', #288, #113, #382, .T. ) ;
#99 = AXIS2_PLACEMENT_3D ( 'NONE', #318, #286, #117 ) ;
#100 = ADVANCED_FACE ( 'NONE', ( #268 ), #150, .T. ) ;
#101 = CARTESIAN_POINT ( 'NONE',  ( 36.07466025581408076, -35.00000000000001421, -10.15447442865864502 ) ) ;
#102 = CARTESIAN_POINT ( 'NONE',  ( 30.84560334866527498, -34.99999999999999289, 8.061194103609272688 ) ) ;
#103 = VERTEX_POINT ( 'NONE', #358 ) ;
#104 = CARTESIAN_POINT ( 'NONE',  ( 49.19279945216970162, -35.00000000000000000, -14.15004506598544509 ) ) ;
#105 = CONICAL_SURFACE ( 'NONE', #131, 24.97506218943956213, 0.09966865249116205194 ) ;
#106 = CARTESIAN_POINT ( 'NONE',  ( 29.73028339363456141, -35.00000000000000000, -7.553737909613691848 ) ) ;
#107 = CARTESIAN_POINT ( 'NONE',  ( 21.87446457831714142, -35.00000000000000711, -1.115624687505960999 ) ) ;
#108 = CARTESIAN_POINT ( 'NONE',  ( 21.59372104929298430, -40.00000000000000000, -1.078476948391522194 ) ) ;
#109 = ORIENTED_EDGE ( 'NONE', *, *, #336, .T. ) ;
#110 = ADVANCED_FACE ( 'NONE', ( #328 ), #245, .F. ) ;
#111 = CARTESIAN_POINT ( 'NONE',  ( 36.71183312685424482, -40.00000000000000711, -11.15770907723914540 ) ) ;
#112 = PRESENTATION_LAYER_ASSIGNMENT (  '', '', ( #374 ) ) ;
#113 = VERTEX_POINT ( 'NONE', #235 ) ;
#114 = CARTESIAN_POINT ( 'NONE',  ( 29.25160671287167347, -40.00000000000000000, -7.953089949436375150 ) ) ;
#115 = ORIENTED_EDGE ( 'NONE', *, *, #319, .T. ) ;
#116 = CARTESIAN_POINT ( 'NONE',  ( 48.88443551922676278, -40.00000000000000711, -15.07491149515345619 ) ) ;
#117 = DIRECTION ( 'NONE',  ( 0.000000000000000000, 0.000000000000000000, 1.000000000000000000 ) ) ;
#118 = CARTESIAN_POINT ( 'NONE',  ( 66.98552096370465847, -35.00000000000000000, -18.38746059546683753 ) ) ;
#119 = AXIS2_PLACEMENT_3D ( 'NONE', #219, #72, #75 ) ;
#120 = EDGE_LOOP ( 'NONE', ( #84, #345 ) ) ;
#121 = CARTESIAN_POINT ( 'NONE',  ( 62.41705093196494403, -39.99999999999999289, 18.58759409954797448 ) ) ;
#122 = DIRECTION ( 'NONE',  ( 1.000000000000000000, 0.000000000000000000, 0.000000000000000000 ) ) ;
#123 = CARTESIAN_POINT ( 'NONE',  ( -78.54216938428295691, -35.00000000000000000, 28.28427124746190913 ) ) ;
#124 = DIRECTION ( 'NONE',  ( 0.000000000000000000, 0.000000000000000000, 1.000000000000000000 ) ) ;
#125 = CARTESIAN_POINT ( 'NONE',  ( 71.45883061571704786, 0.000000000000000000, 0.000000000000000000 ) ) ;
#126 = EDGE_CURVE ( 'NONE', #279, #347, #31, .T. ) ;
#127 = DIRECTION ( 'NONE',  ( 0.000000000000000000, 1.000000000000000000, 0.000000000000000000 ) ) ;
#128 = AXIS2_PLACEMENT_3D ( 'NONE', #223, #21, #312 ) ;
#129 = CARTESIAN_POINT ( 'NONE',  ( -78.54116938428298056, 0.000000000000000000, 0.000000000000000000 ) ) ;
#130 = CARTESIAN_POINT ( 'NONE',  ( 29.80742639378325265, -35.00000000000000000, 7.589854218634138228 ) ) ;
#131 = AXIS2_PLACEMENT_3D ( 'NONE', #299, #6, #156 ) ;
#132 = VECTOR ( 'NONE', #29, 1000.000000000000000 ) ;
#133 = CARTESIAN_POINT ( 'NONE',  ( 53.64470017737112784, -35.00000000000000000, 15.29807861245471301 ) ) ;
#134 = CARTESIAN_POINT ( 'NONE',  ( 27.68052136546473108, -35.00000000000000711, -6.499405870812431374 ) ) ;
#135 = CARTESIAN_POINT ( 'NONE',  ( 22.92016947622185441, -34.99999999999999289, 2.923135123474884800 ) ) ;
#136 = CARTESIAN_POINT ( 'NONE',  ( 22.25312427126597825, -35.00000000000000711, 1.971151925266402483 ) ) ;
#137 = CARTESIAN_POINT ( 'NONE',  ( 21.90310910870482175, -40.00000000000000000, -1.905438602824951921 ) ) ;
#138 = DIRECTION ( 'NONE',  ( 0.000000000000000000, 0.000000000000000000, 1.000000000000000000 ) ) ;
#139 = DIRECTION ( 'NONE',  ( -0.000000000000000000, 0.000000000000000000, 1.000000000000000000 ) ) ;
#140 = VERTEX_POINT ( 'NONE', #183 ) ;
#141 = AXIS2_PLACEMENT_3D ( 'NONE', #170, #200, #317 ) ;
#142 = CARTESIAN_POINT ( 'NONE',  ( 33.46590263862244541, -40.00000000000000711, -9.882972446281236500 ) ) ;
#143 = COLOUR_RGB ( '',0.7921568627450980005, 0.8196078431372548767, 0.9333333333333333481 ) ;
#144 = ORIENTED_EDGE ( 'NONE', *, *, #319, .F. ) ;
#145 = ADVANCED_FACE ( 'NONE', ( #37 ), #105, .F. ) ;
#146 = CARTESIAN_POINT ( 'NONE',  ( 24.79944331226493404, -40.00000000000000000, -5.191754673913778539 ) ) ;
#147 = ORIENTED_EDGE ( 'NONE', *, *, #12, .T. ) ;
#148 = ORIENTED_EDGE ( 'NONE', *, *, #25, .T. ) ;
#149 = DIRECTION ( 'NONE',  ( -1.000000000000000000, -0.000000000000000000, -0.000000000000000000 ) ) ;
#150 = CONICAL_SURFACE ( 'NONE', #195, 45.00000000000000000, 0.09966865249116201031 ) ;
#151 = CARTESIAN_POINT ( 'NONE',  ( 53.44433562350852185, -39.99999999999999289, 16.32290173179780268 ) ) ;
#152 = CARTESIAN_POINT ( 'NONE',  ( 71.45883061571703365, -40.00000000000000000, -20.61552812808831092 ) ) ;
#153 = CARTESIAN_POINT ( 'NONE',  ( 71.45883061571704786, -35.00000000000000000, -19.31335281740487275 ) ) ;
#154 = CARTESIAN_POINT ( 'NONE',  ( 71.45883061571703365, -35.00000000000000000, 28.28427124746190913 ) ) ;
#155 = DIRECTION ( 'NONE',  ( -0.000000000000000000, 1.000000000000000000, 0.000000000000000000 ) ) ;
#156 = DIRECTION ( 'NONE',  ( 0.000000000000000000, 0.000000000000000000, -1.000000000000000000 ) ) ;
#157 = DIRECTION ( 'NONE',  ( 0.000000000000000000, 0.000000000000000000, -1.000000000000000000 ) ) ;
#158 = CARTESIAN_POINT ( 'NONE',  ( 21.77329711995029271, -35.00000000000000711, -0.6897817872155048713 ) ) ;
#159 = CARTESIAN_POINT ( 'NONE',  ( 24.77021725409070640, -35.00000000000000000, -4.653945607117969452 ) ) ;
#160 = CONICAL_SURFACE ( 'NONE', #119, 45.00000000000000000, 0.09966865249116201031 ) ;
#161 = VECTOR ( 'NONE', #178, 1000.000000000000114 ) ;
#162 = CARTESIAN_POINT ( 'NONE',  ( 26.18935699460963207, -34.99999999999999289, -5.627424184997368961 ) ) ;
#163 = EDGE_LOOP ( 'NONE', ( #197, #380, #147, #57, #199, #227 ) ) ;
#164 = CARTESIAN_POINT ( 'NONE',  ( 24.83030672297523012, -35.00000000000001421, 4.699371198149564499 ) ) ;
#165 = CARTESIAN_POINT ( 'NONE',  ( 25.30121493473054528, -35.00000000000000000, 5.037901996126641357 ) ) ;
#166 = AXIS2_PLACEMENT_3D ( 'NONE', #302, #127, #264 ) ;
#167 = CARTESIAN_POINT ( 'NONE',  ( 24.33705483792875768, -40.00000000000001421, -4.823223158073825623 ) ) ;
#168 = FACE_BOUND ( 'NONE', #51, .T. ) ;
#169 = ORIENTED_EDGE ( 'NONE', *, *, #47, .T. ) ;
#170 = CARTESIAN_POINT ( 'NONE',  ( 71.45883061571704786, 0.000000000000000000, 0.000000000000000000 ) ) ;
#171 = ORIENTED_EDGE ( 'NONE', *, *, #98, .T. ) ;
#172 = FACE_BOUND ( 'NONE', #20, .T. ) ;
#173 = ORIENTED_EDGE ( 'NONE', *, *, #85, .F. ) ;
#174 = APPLICATION_CONTEXT ( 'automotive_design' ) ;
#175 = CARTESIAN_POINT ( 'NONE',  ( 21.98342161089574986, -39.99999999999999289, 2.066604215127509914 ) ) ;
#176 = DIRECTION ( 'NONE',  ( 0.000000000000000000, 0.000000000000000000, 1.000000000000000000 ) ) ;
#177 = CARTESIAN_POINT ( 'NONE',  ( 32.55824648292637136, -40.00000000000000000, 9.499973995382836378 ) ) ;
#178 = DIRECTION ( 'NONE',  ( 0.9950371902099890420, 0.000000000000000000, -0.09950371902099888755 ) ) ;
#179 = PLANE ( 'NONE',  #180 ) ;
#180 = AXIS2_PLACEMENT_3D ( 'NONE', #123, #155, #234 ) ;
#181 = SURFACE_SIDE_STYLE ('',( #8 ) ) ;
#182 = DIRECTION ( 'NONE',  ( -1.000000000000000000, -0.000000000000000000, -0.000000000000000000 ) ) ;
#183 = CARTESIAN_POINT ( 'NONE',  ( 71.45883061571704786, 4.895533195601354497E-15, 39.97506218943956924 ) ) ;
#184 = DIRECTION ( 'NONE',  ( 0.000000000000000000, 0.000000000000000000, 1.000000000000000000 ) ) ;
#185 = FILL_AREA_STYLE_COLOUR ( '', #143 ) ;
#186 = CARTESIAN_POINT ( 'NONE',  ( 47.01230323107954234, -35.00000000000000000, 13.56039465445624614 ) ) ;
#187 = CARTESIAN_POINT ( 'NONE',  ( -78.54116938428298056, 3.977048096240839308E-15, 24.97506218943956213 ) ) ;
#188 = CARTESIAN_POINT ( 'NONE',  ( 66.98853449137995142, -34.99999999999999289, 18.38808433986458368 ) ) ;
#189 = ORIENTED_EDGE ( 'NONE', *, *, #207, .F. ) ;
#190 = MECHANICAL_DESIGN_GEOMETRIC_PRESENTATION_REPRESENTATION (  '', ( #374 ), #356 ) ;
#191 = FACE_OUTER_BOUND ( 'NONE', #163, .T. ) ;
#192 = CARTESIAN_POINT ( 'NONE',  ( 42.62543547491418394, -34.99999999999999289, 12.29424908859717824 ) ) ;
#193 = CARTESIAN_POINT ( 'NONE',  ( 22.62072361637787665, -40.00000000000000711, 3.059342342910735812 ) ) ;
#194 = AXIS2_PLACEMENT_3D ( 'NONE', #125, #353, #184 ) ;
#195 = AXIS2_PLACEMENT_3D ( 'NONE', #39, #92, #1 ) ;
#196 = PLANE ( 'NONE',  #128 ) ;
#197 = ORIENTED_EDGE ( 'NONE', *, *, #313, .F. ) ;
#198 = CARTESIAN_POINT ( 'NONE',  ( 22.51121240684057057, -39.99999999999998579, -2.912554789637534558 ) ) ;
#199 = ORIENTED_EDGE ( 'NONE', *, *, #310, .T. ) ;
#200 = DIRECTION ( 'NONE',  ( -1.000000000000000000, -0.000000000000000000, -0.000000000000000000 ) ) ;
#201 = CARTESIAN_POINT ( 'NONE',  ( 71.45883061571704786, 0.000000000000000000, 0.000000000000000000 ) ) ;
#202 = EDGE_CURVE ( 'NONE', #347, #279, #373, .T. ) ;
#203 = CARTESIAN_POINT ( 'NONE',  ( 32.39776045489270473, -40.00000000000000000, -9.430262385054646757 ) ) ;
#204 = ORIENTED_EDGE ( 'NONE', *, *, #42, .T. ) ;
#205 = VERTEX_POINT ( 'NONE', #152 ) ;
#206 = PRODUCT_DEFINITION_CONTEXT ( 'detailed design', #174, 'design' ) ;
#207 = EDGE_CURVE ( 'NONE', #103, #231, #334, .T. ) ;
#208 = DIRECTION ( 'NONE',  ( 0.000000000000000000, 0.000000000000000000, 1.000000000000000000 ) ) ;
#209 = DIRECTION ( 'NONE',  ( 1.000000000000000000, 0.000000000000000000, 0.000000000000000000 ) ) ;
#210 = DIRECTION ( 'NONE',  ( -1.000000000000000000, -0.000000000000000000, -0.000000000000000000 ) ) ;
#211 = LINE ( 'NONE', #95, #362 ) ;
#212 = EDGE_CURVE ( 'NONE', #231, #103, #38, .T. ) ;
#213 = CARTESIAN_POINT ( 'NONE',  ( -78.54116938428298056, 0.000000000000000000, -30.00000000000000000 ) ) ;
#214 =( GEOMETRIC_REPRESENTATION_CONTEXT ( 3 ) GLOBAL_UNCERTAINTY_ASSIGNED_CONTEXT ( ( #350 ) ) GLOBAL_UNIT_ASSIGNED_CONTEXT ( ( #329, #236, #67 ) ) REPRESENTATION_CONTEXT ( 'NONE', 'WORKASPACE' ) );
#215 = AXIS2_PLACEMENT_3D ( 'NONE', #69, #149, #64 ) ;
#216 = CARTESIAN_POINT ( 'NONE',  ( 40.40228762256098349, -34.99999999999999289, -11.61195414442543772 ) ) ;
#217 = CARTESIAN_POINT ( 'NONE',  ( 22.69899831709514260, -35.00000000000000000, -2.646116338300562809 ) ) ;
#218 = ORIENTED_EDGE ( 'NONE', *, *, #126, .T. ) ;
#219 = CARTESIAN_POINT ( 'NONE',  ( 71.45883061571704786, 0.000000000000000000, 0.000000000000000000 ) ) ;
#220 = ORIENTED_EDGE ( 'NONE', *, *, #126, .F. ) ;
#221 = CARTESIAN_POINT ( 'NONE',  ( 26.27100080184228048, -35.00000000000000000, 5.678736776041270140 ) ) ;
#222 = CARTESIAN_POINT ( 'NONE',  ( 25.23452482941043584, -35.00000000000000000, -4.990753445720260473 ) ) ;
#223 = CARTESIAN_POINT ( 'NONE',  ( -78.54116938428298056, 30.00000000000000000, 0.000000000000000000 ) ) ;
#224 = CARTESIAN_POINT ( 'NONE',  ( 71.45883061571704786, 0.000000000000000000, 0.000000000000000000 ) ) ;
#225 = APPLICATION_CONTEXT ( 'automotive_design' ) ;
#226 = CARTESIAN_POINT ( 'NONE',  ( 26.22518815625338462, -40.00000000000000711, -6.231317222360155839 ) ) ;
#227 = ORIENTED_EDGE ( 'NONE', *, *, #2, .T. ) ;
#228 = FACE_OUTER_BOUND ( 'NONE', #22, .T. ) ;
#229 = EDGE_LOOP ( 'NONE', ( #321, #283, #273, #376 ) ) ;
#230 = PLANE ( 'NONE',  #88 ) ;
#231 = VERTEX_POINT ( 'NONE', #187 ) ;
#232 = CARTESIAN_POINT ( 'NONE',  ( 30.29074333363766769, -39.99999999999998579, -8.465053847628022154 ) ) ;
#233 = EDGE_LOOP ( 'NONE', ( #73, #218 ) ) ;
#234 = DIRECTION ( 'NONE',  ( 0.000000000000000000, -0.000000000000000000, 1.000000000000000000 ) ) ;
#235 = CARTESIAN_POINT ( 'NONE',  ( 71.45883061571704786, 0.000000000000000000, -45.00000000000000000 ) ) ;
#236 =( NAMED_UNIT ( * ) PLANE_ANGLE_UNIT ( ) SI_UNIT ( $, .RADIAN. ) );
#237 = PLANE ( 'NONE',  #166 ) ;
#238 = CARTESIAN_POINT ( 'NONE',  ( 29.38724364013590673, -40.00000000000000000, 8.022106914717165083 ) ) ;
#239 =( NAMED_UNIT ( * ) SI_UNIT ( $, .STERADIAN. ) SOLID_ANGLE_UNIT ( ) );
#240 = CLOSED_SHELL ( 'NONE', ( #100, #145, #280, #284, #110, #246, #355, #58 ) ) ;
#241 = CARTESIAN_POINT ( 'NONE',  ( 71.45883061571704786, -39.99999999999999289, 20.61552812808830737 ) ) ;
#242 = DIRECTION ( 'NONE',  ( 0.9950371902099890420, 1.218569110023239502E-17, 0.09950371902099892918 ) ) ;
#243 = CARTESIAN_POINT ( 'NONE',  ( 22.87856332106882817, -35.00000000000000000, -2.872851315012611373 ) ) ;
#244 = CIRCLE ( 'NONE', #194, 39.97506218943956924 ) ;
#245 = CONICAL_SURFACE ( 'NONE', #341, 24.97506218943956213, 0.09966865249116205194 ) ;
#246 = ADVANCED_FACE ( 'NONE', ( #191 ), #160, .T. ) ;
#247 = EDGE_CURVE ( 'NONE', #365, #343, #82, .T. ) ;
#248 = CARTESIAN_POINT ( 'NONE',  ( 28.27525599511410093, -35.00000000000000711, 6.816482930109023286 ) ) ;
#249 = CARTESIAN_POINT ( 'NONE',  ( 28.19077271622197856, -35.00000000000000000, -6.772252841108263866 ) ) ;
#250 = CARTESIAN_POINT ( 'NONE',  ( 21.74756017583428758, -35.00000000000000711, -0.5443766455261468407 ) ) ;
#251 = CARTESIAN_POINT ( 'NONE',  ( 21.71999007597079157, -35.00000000000000000, 0.3211758141567103153 ) ) ;
#252 = CARTESIAN_POINT ( 'NONE',  ( 24.47265378497773725, -39.99999999999999289, 4.934785039155843656 ) ) ;
#253 = ORIENTED_EDGE ( 'NONE', *, *, #11, .T. ) ;
#254 = CARTESIAN_POINT ( 'NONE',  ( 42.20866725285470267, -39.99999999999999289, -13.06605836711555213 ) ) ;
#255 = CARTESIAN_POINT ( 'NONE',  ( -78.54116938428298056, 3.058562996880324514E-15, 24.97506218943956213 ) ) ;
#256 = VECTOR ( 'NONE', #242, 1000.000000000000114 ) ;
#257 = CARTESIAN_POINT ( 'NONE',  ( 21.46662486898442168, -39.99999999999999289, 0.3849366191808943904 ) ) ;
#258 = ORIENTED_EDGE ( 'NONE', *, *, #98, .F. ) ;
#259 = CARTESIAN_POINT ( 'NONE',  ( 39.99873487623042934, -40.00000000000000000, -12.34229144902344721 ) ) ;
#260 = ORIENTED_EDGE ( 'NONE', *, *, #25, .F. ) ;
#261 = CARTESIAN_POINT ( 'NONE',  ( 66.91595855053316200, -40.00000000000000000, -19.62390064387778565 ) ) ;
#262 = EDGE_LOOP ( 'NONE', ( #79, #204, #260, #339, #144, #173 ) ) ;
#263 = CARTESIAN_POINT ( 'NONE',  ( 46.76162557455295854, -39.99999999999997868, 14.46498870958875571 ) ) ;
#264 = DIRECTION ( 'NONE',  ( 0.000000000000000000, -0.000000000000000000, 1.000000000000000000 ) ) ;
#265 = CARTESIAN_POINT ( 'NONE',  ( 71.45883061571704786, -39.99999999999999289, 20.61552812808830737 ) ) ;
#266 = CARTESIAN_POINT ( 'NONE',  ( 0.000000000000000000, 0.000000000000000000, 0.000000000000000000 ) ) ;
#267 = CIRCLE ( 'NONE', #141, 45.00000000000000000 ) ;
#268 = FACE_OUTER_BOUND ( 'NONE', #14, .T. ) ;
#269 = CARTESIAN_POINT ( 'NONE',  ( 30.43304167950615380, -40.00000000000000000, 8.533537472925882383 ) ) ;
#270 = CARTESIAN_POINT ( 'NONE',  ( 30.77288177483642784, -35.00000000000000711, -8.028903153148915450 ) ) ;
#271 = CARTESIAN_POINT ( 'NONE',  ( 21.99820776226444252, -35.00000000000000000, 1.448756713303684052 ) ) ;
#272 = CARTESIAN_POINT ( 'NONE',  ( 24.10396707096291280, -35.00000000000000711, -4.106160345591625571 ) ) ;
#273 = ORIENTED_EDGE ( 'NONE', *, *, #85, .T. ) ;
#274 = CARTESIAN_POINT ( 'NONE',  ( 21.78644829037708064, -34.99999999999999289, 0.7534897482152341786 ) ) ;
#275 = CARTESIAN_POINT ( 'NONE',  ( 23.88697836578486289, -35.00000000000000711, -3.916385837748471932 ) ) ;
#276 = AXIS2_PLACEMENT_3D ( 'NONE', #66, #182, #208 ) ;
#277 = CARTESIAN_POINT ( 'NONE',  ( 23.59067975303382880, -40.00000000000000711, 4.153423603921476470 ) ) ;
#278 = CARTESIAN_POINT ( 'NONE',  ( 55.61573084514341758, -40.00000000000000711, -16.88754935200256568 ) ) ;
#279 = VERTEX_POINT ( 'NONE', #83 ) ;
#280 = ADVANCED_FACE ( 'NONE', ( #168, #228 ), #230, .F. ) ;
#281 = PRODUCT_DEFINITION ( 'UNKNOWN', '', #43, #206 ) ;
#282 = CARTESIAN_POINT ( 'NONE',  ( 22.44623604559905772, -39.99999999999999289, 2.823249624280273373 ) ) ;
#283 = ORIENTED_EDGE ( 'NONE', *, *, #212, .T. ) ;
#284 = ADVANCED_FACE ( 'NONE', ( #172, #56 ), #196, .F. ) ;
#285 = CARTESIAN_POINT ( 'NONE',  ( 23.46596971283791078, -40.00000000000001421, -4.031407317385770739 ) ) ;
#286 = DIRECTION ( 'NONE',  ( -1.000000000000000000, -0.000000000000000000, -0.000000000000000000 ) ) ;
#287 = CARTESIAN_POINT ( 'NONE',  ( 21.64513107390576607, -39.99999999999999289, 1.254725837262029575 ) ) ;
#288 = VERTEX_POINT ( 'NONE', #50 ) ;
#289 = DIRECTION ( 'NONE',  ( 0.9950371902099890420, 1.218569110023238886E-17, 0.09950371902099888755 ) ) ;
#290 = UNCERTAINTY_MEASURE_WITH_UNIT (LENGTH_MEASURE( 1.000000000000000082E-05 ), #361, 'distance_accuracy_value', 'NONE');
#291 = AXIS2_PLACEMENT_3D ( 'NONE', #327, #65, #309 ) ;
#292 = CIRCLE ( 'NONE', #23, 45.00000000000000000 ) ;
#293 = LINE ( 'NONE', #36, #381 ) ;
#294 = PRESENTATION_STYLE_ASSIGNMENT (( #91 ) ) ;
#295 = CARTESIAN_POINT ( 'NONE',  ( 26.35403956520466551, -40.00000000000000711, 6.312893967797681860 ) ) ;
#296 = CARTESIAN_POINT ( 'NONE',  ( -78.54116938428298056, 0.000000000000000000, 0.000000000000000000 ) ) ;
#297 = CARTESIAN_POINT ( 'NONE',  ( 55.68291574909915909, -40.00000000000000000, 16.90472846692405184 ) ) ;
#298 = PRODUCT_RELATED_PRODUCT_CATEGORY ( 'part', '', ( #68 ) ) ;
#299 = CARTESIAN_POINT ( 'NONE',  ( -78.54116938428298056, 0.000000000000000000, 0.000000000000000000 ) ) ;
#300 = CARTESIAN_POINT ( 'NONE',  ( 71.45883061571703365, -40.00000000000000000, 20.61552812808831092 ) ) ;
#301 = AXIS2_PLACEMENT_3D ( 'NONE', #266, #32, #209 ) ;
#302 = CARTESIAN_POINT ( 'NONE',  ( -78.54116938428299477, -40.00000000000000000, 20.61552812808831092 ) ) ;
#303 = CARTESIAN_POINT ( 'NONE',  ( 40.44549371068290355, -34.99999999999999289, 11.62549767696579650 ) ) ;
#304 = CARTESIAN_POINT ( 'NONE',  ( 21.97365384721334536, -34.99999999999999289, -1.388734989224815308 ) ) ;
#305 = CARTESIAN_POINT ( 'NONE',  ( 21.71454761144149259, -35.00000000000000000, -0.2554268934359624210 ) ) ;
#306 = EDGE_CURVE ( 'NONE', #113, #205, #267, .T. ) ;
#307 = B_SPLINE_CURVE_WITH_KNOTS ( 'NONE', 3,
 ( #86, #261, #338, #278, #375, #116, #27, #254, #259, #111, #76, #142, #203, #232, #114, #24, #226, #146, #167, #285, #342, #198, #49, #59, #137, #344, #108, #315, #53, #257, #377, #287, #320, #175, #379, #282, #193, #311, #277, #252, #369, #295, #96, #238, #269, #177, #351, #61, #357, #322, #94, #263, #63, #151, #297, #121, #7, #241 ),
 .UNSPECIFIED., .F., .F.,
 ( 4, 2, 2, 2, 2, 2, 2, 2, 2, 2, 2, 2, 2, 2, 2, 2, 2, 2, 2, 2, 2, 2, 2, 2, 2, 2, 2, 2, 4 ),
 ( 0.1575668744879762107, 0.1715138340601360945, 0.1784873138462160502, 0.1854607936322960060, 0.1924342734183759618, 0.1959210133114159258, 0.1994077532044558898, 0.2028944930974958538, 0.2063812329905358456, 0.2081246029370558137, 0.2098679728835757818, 0.2107396578568357937, 0.2116113428300957777, 0.2124830278033557618, 0.2133547127766157736, 0.2142263977498757577, 0.2150980827231357417, 0.2159697676963957536, 0.2168414526696557376, 0.2185848226161757335, 0.2203281925626957016, 0.2238149324557356934, 0.2273016723487756852, 0.2307884122418156214, 0.2342751521348556132, 0.2412486319209355690, 0.2482221117070155525, 0.2551955914930955083, 0.2691425510652554753 ),
 .UNSPECIFIED. ) ;
#308 = CARTESIAN_POINT ( 'NONE',  ( 22.37171719964245398, -35.00000000000000000, -2.169227892230178423 ) ) ;
#309 = DIRECTION ( 'NONE',  ( 0.000000000000000000, 0.000000000000000000, 1.000000000000000000 ) ) ;
#310 = EDGE_CURVE ( 'NONE', #205, #378, #307, .T. ) ;
#311 = CARTESIAN_POINT ( 'NONE',  ( 23.17687603373067162, -39.99999999999998579, 3.738663744475117845 ) ) ;
#312 = DIRECTION ( 'NONE',  ( 0.000000000000000000, 0.000000000000000000, -1.000000000000000000 ) ) ;
#313 = EDGE_CURVE ( 'NONE', #279, #288, #293, .T. ) ;
#314 = LINE ( 'NONE', #255, #256 ) ;
#315 = CARTESIAN_POINT ( 'NONE',  ( 21.47952614193540199, -39.99999999999998579, -0.4993752077432762615 ) ) ;
#316 = ORIENTED_EDGE ( 'NONE', *, *, #306, .F. ) ;
#317 = DIRECTION ( 'NONE',  ( 0.000000000000000000, 0.000000000000000000, 1.000000000000000000 ) ) ;
#318 = CARTESIAN_POINT ( 'NONE',  ( 71.45883061571704786, 0.000000000000000000, 0.000000000000000000 ) ) ;
#319 = EDGE_CURVE ( 'NONE', #81, #343, #244, .T. ) ;
#320 = CARTESIAN_POINT ( 'NONE',  ( 21.74308994450022681, -40.00000000000000000, 1.531749237752854542 ) ) ;
#321 = ORIENTED_EDGE ( 'NONE', *, *, #42, .F. ) ;
#322 = CARTESIAN_POINT ( 'NONE',  ( 40.14253925413369473, -39.99999999999999289, 12.39050517508172788 ) ) ;
#323 = DIRECTION ( 'NONE',  ( -1.000000000000000000, -0.000000000000000000, -0.000000000000000000 ) ) ;
#324 = FILL_AREA_STYLE ('',( #185 ) ) ;
#325 = CIRCLE ( 'NONE', #99, 39.97506218943956924 ) ;
#326 = SHAPE_DEFINITION_REPRESENTATION ( #97, #55 ) ;
#327 = CARTESIAN_POINT ( 'NONE',  ( -78.54116938428298056, 0.000000000000000000, 0.000000000000000000 ) ) ;
#328 = FACE_OUTER_BOUND ( 'NONE', #229, .T. ) ;
#329 =( LENGTH_UNIT ( ) NAMED_UNIT ( * ) SI_UNIT ( .MILLI., .METRE. ) );
#330 = FACE_OUTER_BOUND ( 'NONE', #54, .T. ) ;
#331 = CARTESIAN_POINT ( 'NONE',  ( 46.98112785257021073, -35.00000000000000000, -13.55182930489922377 ) ) ;
#332 = CARTESIAN_POINT ( 'NONE',  ( 22.22316698710766758, -34.99999999999999289, -1.917582868760568493 ) ) ;
#333 = CARTESIAN_POINT ( 'NONE',  ( 71.45883061571703365, -35.00000000000000000, 19.31335281740487275 ) ) ;
#334 = CIRCLE ( 'NONE', #77, 24.97506218943956213 ) ;
#335 = CARTESIAN_POINT ( 'NONE',  ( 55.86248770419209109, -35.00000000000000000, 15.84206042965717920 ) ) ;
#336 = EDGE_CURVE ( 'NONE', #205, #378, #60, .T. ) ;
#337 = CARTESIAN_POINT ( 'NONE',  ( 49.22038398606615317, -35.00000000000000000, 14.15735847206202713 ) ) ;
#338 = CARTESIAN_POINT ( 'NONE',  ( 62.38120741593402130, -40.00000000000000000, -18.57940137420609972 ) ) ;
#339 = ORIENTED_EDGE ( 'NONE', *, *, #247, .T. ) ;
#340 = VECTOR ( 'NONE', #359, 1000.000000000000000 ) ;
#341 = AXIS2_PLACEMENT_3D ( 'NONE', #296, #122, #157 ) ;
#342 = CARTESIAN_POINT ( 'NONE',  ( 23.05312828269197922, -40.00000000000000711, -3.604328395630138182 ) ) ;
#343 = VERTEX_POINT ( 'NONE', #153 ) ;
#344 = CARTESIAN_POINT ( 'NONE',  ( 21.68035520550785833, -39.99999999999998579, -1.359110717051897010 ) ) ;
#345 = ORIENTED_EDGE ( 'NONE', *, *, #47, .F. ) ;
#346 = CARTESIAN_POINT ( 'NONE',  ( 71.45883061571704786, -35.00000000000000000, -19.31335281740487275 ) ) ;
#347 = VERTEX_POINT ( 'NONE', #213 ) ;
#348 = APPLICATION_PROTOCOL_DEFINITION ( 'draft international standard', 'automotive_design', 1998, #225 ) ;
#349 = LINE ( 'NONE', #89, #161 ) ;
#350 = UNCERTAINTY_MEASURE_WITH_UNIT (LENGTH_MEASURE( 1.000000000000000082E-05 ), #329, 'distance_accuracy_value', 'NONE');
#351 = CARTESIAN_POINT ( 'NONE',  ( 33.63059964875793639, -40.00000000000001421, 9.951302069718101606 ) ) ;
#352 = CARTESIAN_POINT ( 'NONE',  ( 71.45883061571704786, 0.000000000000000000, -39.97506218943956924 ) ) ;
#353 = DIRECTION ( 'NONE',  ( -1.000000000000000000, -0.000000000000000000, -0.000000000000000000 ) ) ;
#354 =( NAMED_UNIT ( * ) PLANE_ANGLE_UNIT ( ) SI_UNIT ( $, .RADIAN. ) );
#355 = ADVANCED_FACE ( 'NONE', ( #3 ), #179, .T. ) ;
#356 =( GEOMETRIC_REPRESENTATION_CONTEXT ( 3 ) GLOBAL_UNCERTAINTY_ASSIGNED_CONTEXT ( ( #290 ) ) GLOBAL_UNIT_ASSIGNED_CONTEXT ( ( #361, #354, #239 ) ) REPRESENTATION_CONTEXT ( 'NONE', 'WORKASPACE' ) );
#357 = CARTESIAN_POINT ( 'NONE',  ( 36.87291520520440002, -39.99999999999999289, 11.21738167660363317 ) ) ;
#358 = CARTESIAN_POINT ( 'NONE',  ( -78.54116938428298056, 0.000000000000000000, -24.97506218943956213 ) ) ;
#359 = DIRECTION ( 'NONE',  ( -0.000000000000000000, -0.000000000000000000, 1.000000000000000000 ) ) ;
#360 = DIRECTION ( 'NONE',  ( -1.000000000000000000, -0.000000000000000000, -0.000000000000000000 ) ) ;
#361 =( LENGTH_UNIT ( ) NAMED_UNIT ( * ) SI_UNIT ( .MILLI., .METRE. ) );
#362 = VECTOR ( 'NONE', #70, 1000.000000000000114 ) ;
#363 = CARTESIAN_POINT ( 'NONE',  ( 23.26183651917168405, -35.00000000000000711, -3.308568778088293971 ) ) ;
#364 = CARTESIAN_POINT ( 'NONE',  ( 27.76877140923691911, -35.00000000000000711, 6.547483179390040320 ) ) ;
#365 = VERTEX_POINT ( 'NONE', #90 ) ;
#366 = CARTESIAN_POINT ( 'NONE',  ( 22.73851434618774547, -35.00000000000000000, 2.697933926133727400 ) ) ;
#367 = CARTESIAN_POINT ( 'NONE',  ( 26.68006826611796711, -35.00000000000000000, -5.927024014483285974 ) ) ;
#368 = CARTESIAN_POINT ( 'NONE',  ( 23.93089582908549673, -35.00000000000001421, 3.967384758407032308 ) ) ;
#369 = CARTESIAN_POINT ( 'NONE',  ( 24.93456019877850949, -39.99999999999999289, 5.295231403100166823 ) ) ;
#370 = ORIENTED_EDGE ( 'NONE', *, *, #2, .F. ) ;
#371 = CARTESIAN_POINT ( 'NONE',  ( 71.45883061571703365, 45.00000000000000000, 0.000000000000000000 ) ) ;
#372 = ORIENTED_EDGE ( 'NONE', *, *, #336, .F. ) ;
#373 = CIRCLE ( 'NONE', #30, 30.00000000000000000 ) ;
#374 = STYLED_ITEM ( 'NONE', ( #294 ), #52 ) ;
#375 = CARTESIAN_POINT ( 'NONE',  ( 53.36656135868616246, -40.00000000000000000, -16.30243411490472027 ) ) ;
#376 = ORIENTED_EDGE ( 'NONE', *, *, #11, .F. ) ;
#377 = CARTESIAN_POINT ( 'NONE',  ( 21.50555771982376996, -40.00000000000000000, 0.6763319079064107342 ) ) ;
#378 = VERTEX_POINT ( 'NONE', #265 ) ;
#379 = CARTESIAN_POINT ( 'NONE',  ( 22.12640352068019922, -40.00000000000000000, 2.325249466756770467 ) ) ;
#380 = ORIENTED_EDGE ( 'NONE', *, *, #202, .F. ) ;
#381 = VECTOR ( 'NONE', #289, 1000.000000000000114 ) ;
#382 = CIRCLE ( 'NONE', #215, 45.00000000000000000 ) ;
ENDSEC;
END-ISO-10303-21;
