ISO-10303-21;
HEADER;
FILE_DESCRIPTION (( 'STEP AP214' ),
    '1' );
FILE_NAME ('Body-Fuselage-2.STEP',
    '2026-04-30T22:21:28',
    ( '' ),
    ( '' ),
    'SwSTEP 2.0',
    'SolidWorks 2026',
    '' );
FILE_SCHEMA (( 'AUTOMOTIVE_DESIGN' ));
ENDSEC;

DATA;
#1 = AXIS2_PLACEMENT_3D ( 'NONE', #407, #524, #125 ) ;
#2 = ORIENTED_EDGE ( 'NONE', *, *, #504, .T. ) ;
#3 = CARTESIAN_POINT ( 'NONE',  ( -100.0000000000000284, 5.510910596163089556E-15, -45.00000000000000000 ) ) ;
#4 = DIRECTION ( 'NONE',  ( 1.000000000000000000, -0.000000000000000000, 0.000000000000000000 ) ) ;
#5 = ADVANCED_FACE ( 'NONE', ( #274 ), #177, .F. ) ;
#6 = VERTEX_POINT ( 'NONE', #672 ) ;
#7 = DIRECTION ( 'NONE',  ( -1.000000000000000000, -0.000000000000000000, -0.000000000000000000 ) ) ;
#8 = DIRECTION ( 'NONE',  ( 1.000000000000000000, -0.000000000000000000, 0.000000000000000000 ) ) ;
#9 = EDGE_CURVE ( 'NONE', #712, #710, #234, .T. ) ;
#10 = VERTEX_POINT ( 'NONE', #109 ) ;
#11 = DIRECTION ( 'NONE',  ( -1.000000000000000000, -0.000000000000000000, -0.000000000000000000 ) ) ;
#12 = CIRCLE ( 'NONE', #171, 40.00000000000000000 ) ;
#13 = DIRECTION ( 'NONE',  ( 1.000000000000000000, 0.000000000000000000, 0.000000000000000000 ) ) ;
#14 = VERTEX_POINT ( 'NONE', #452 ) ;
#15 = CARTESIAN_POINT ( 'NONE',  ( 99.99999999999998579, 17.49999999999999645, 41.45780987944248608 ) ) ;
#16 = DIRECTION ( 'NONE',  ( 1.000000000000000000, 0.000000000000000000, 0.000000000000000000 ) ) ;
#17 = CARTESIAN_POINT ( 'NONE',  ( 125.0000000000000000, -34.98091791387818006, -1.155587254393189101 ) ) ;
#18 = CARTESIAN_POINT ( 'NONE',  ( -100.0000000000000284, 0.000000000000000000, 0.000000000000000000 ) ) ;
#19 = ORIENTED_EDGE ( 'NONE', *, *, #614, .T. ) ;
#20 = CARTESIAN_POINT ( 'NONE',  ( 99.99999999999998579, -17.50000000000000000, -41.45780987944248608 ) ) ;
#21 = VECTOR ( 'NONE', #168, 1000.000000000000000 ) ;
#22 = ORIENTED_EDGE ( 'NONE', *, *, #208, .F. ) ;
#23 = CIRCLE ( 'NONE', #246, 45.00000000000000000 ) ;
#24 = PRESENTATION_STYLE_ASSIGNMENT (( #516 ) ) ;
#25 = EDGE_CURVE ( 'NONE', #620, #631, #564, .T. ) ;
#26 = DIRECTION ( 'NONE',  ( 1.000000000000000000, 0.000000000000000000, 0.000000000000000000 ) ) ;
#27 = EDGE_CURVE ( 'NONE', #620, #557, #107, .T. ) ;
#28 = ORIENTED_EDGE ( 'NONE', *, *, #244, .F. ) ;
#29 = CARTESIAN_POINT ( 'NONE',  ( 99.99999999999998579, 0.000000000000000000, 0.000000000000000000 ) ) ;
#30 = VERTEX_POINT ( 'NONE', #438 ) ;
#31 = EDGE_CURVE ( 'NONE', #126, #316, #506, .T. ) ;
#32 = CARTESIAN_POINT ( 'NONE',  ( -125.0000000000000000, -40.65885023150087108, 19.28361734354791679 ) ) ;
#33 = ORIENTED_EDGE ( 'NONE', *, *, #100, .T. ) ;
#34 = VECTOR ( 'NONE', #339, 1000.000000000000000 ) ;
#35 = CARTESIAN_POINT ( 'NONE',  ( 99.99999999999998579, 5.510910596163089556E-15, -45.00000000000000000 ) ) ;
#36 = AXIS2_PLACEMENT_3D ( 'NONE', #169, #560, #381 ) ;
#37 = CARTESIAN_POINT ( 'NONE',  ( 125.0000000000000000, 0.000000000000000000, 0.000000000000000000 ) ) ;
#38 = ORIENTED_EDGE ( 'NONE', *, *, #469, .T. ) ;
#39 = DIRECTION ( 'NONE',  ( 0.000000000000000000, 0.000000000000000000, 1.000000000000000000 ) ) ;
#40 = ORIENTED_EDGE ( 'NONE', *, *, #651, .F. ) ;
#41 = CARTESIAN_POINT ( 'NONE',  ( -100.0000000000000284, -17.49999999999999645, 35.96873642484538891 ) ) ;
#42 = DIRECTION ( 'NONE',  ( -0.000000000000000000, -0.000000000000000000, 1.000000000000000000 ) ) ;
#43 = ORIENTED_EDGE ( 'NONE', *, *, #511, .F. ) ;
#44 = CIRCLE ( 'NONE', #198, 40.00000000000000000 ) ;
#45 = LINE ( 'NONE', #367, #514 ) ;
#46 = VECTOR ( 'NONE', #638, 1000.000000000000000 ) ;
#47 = ORIENTED_EDGE ( 'NONE', *, *, #526, .T. ) ;
#48 = EDGE_CURVE ( 'NONE', #584, #357, #532, .T. ) ;
#49 = LINE ( 'NONE', #661, #657 ) ;
#50 = ORIENTED_EDGE ( 'NONE', *, *, #77, .F. ) ;
#51 = EDGE_CURVE ( 'NONE', #557, #453, #23, .T. ) ;
#52 = DIRECTION ( 'NONE',  ( -1.000000000000000000, -0.000000000000000000, -0.000000000000000000 ) ) ;
#53 = FACE_OUTER_BOUND ( 'NONE', #230, .T. ) ;
#54 = EDGE_CURVE ( 'NONE', #206, #702, #617, .T. ) ;
#55 = VECTOR ( 'NONE', #616, 1000.000000000000000 ) ;
#56 = AXIS2_PLACEMENT_3D ( 'NONE', #362, #209, #642 ) ;
#57 = EDGE_CURVE ( 'NONE', #206, #635, #60, .T. ) ;
#58 = CARTESIAN_POINT ( 'NONE',  ( 125.0000000000000000, 0.000000000000000000, 0.000000000000000000 ) ) ;
#59 = CARTESIAN_POINT ( 'NONE',  ( 125.0000000000000000, 0.000000000000000000, 0.000000000000000000 ) ) ;
#60 = CIRCLE ( 'NONE', #344, 45.00000000000000000 ) ;
#61 = ORIENTED_EDGE ( 'NONE', *, *, #311, .T. ) ;
#62 = PLANE ( 'NONE',  #342 ) ;
#63 = DIRECTION ( 'NONE',  ( 0.000000000000000000, 0.000000000000000000, -1.000000000000000000 ) ) ;
#64 = ORIENTED_EDGE ( 'NONE', *, *, #27, .F. ) ;
#65 = DIRECTION ( 'NONE',  ( 0.000000000000000000, 0.000000000000000000, -1.000000000000000000 ) ) ;
#66 = CARTESIAN_POINT ( 'NONE',  ( -100.0000000000000142, -17.50000000000000000, -45.00000000000000000 ) ) ;
#67 = ORIENTED_EDGE ( 'NONE', *, *, #573, .T. ) ;
#68 = LINE ( 'NONE', #183, #647 ) ;
#69 = AXIS2_PLACEMENT_3D ( 'NONE', #538, #317, #429 ) ;
#70 = CARTESIAN_POINT ( 'NONE',  ( 125.0000000000000000, 17.49999999999999645, -41.45780987944248608 ) ) ;
#71 = ORIENTED_EDGE ( 'NONE', *, *, #54, .T. ) ;
#72 = PLANE ( 'NONE',  #102 ) ;
#73 = VERTEX_POINT ( 'NONE', #503 ) ;
#74 = FACE_OUTER_BOUND ( 'NONE', #95, .T. ) ;
#75 = DIRECTION ( 'NONE',  ( 0.000000000000000000, 0.000000000000000000, 1.000000000000000000 ) ) ;
#76 = ORIENTED_EDGE ( 'NONE', *, *, #573, .F. ) ;
#77 = EDGE_CURVE ( 'NONE', #10, #263, #554, .T. ) ;
#78 = EDGE_CURVE ( 'NONE', #357, #149, #403, .T. ) ;
#79 = DIRECTION ( 'NONE',  ( 0.000000000000000000, 0.03301677869694826656, -0.9994547975393768269 ) ) ;
#80 = CIRCLE ( 'NONE', #69, 45.00000000000000000 ) ;
#81 = ORIENTED_EDGE ( 'NONE', *, *, #561, .T. ) ;
#82 = CARTESIAN_POINT ( 'NONE',  ( -125.0000000000000000, -35.62028508407166782, 18.19877167639239701 ) ) ;
#83 = FACE_OUTER_BOUND ( 'NONE', #361, .T. ) ;
#84 = ADVANCED_FACE ( 'NONE', ( #552 ), #662, .F. ) ;
#85 = ORIENTED_EDGE ( 'NONE', *, *, #439, .T. ) ;
#86 = PLANE ( 'NONE',  #188 ) ;
#87 = ORIENTED_EDGE ( 'NONE', *, *, #281, .T. ) ;
#88 = DIRECTION ( 'NONE',  ( -0.000000000000000000, -0.000000000000000000, 1.000000000000000000 ) ) ;
#89 = CIRCLE ( 'NONE', #255, 40.00000000000000000 ) ;
#90 = ORIENTED_EDGE ( 'NONE', *, *, #384, .F. ) ;
#91 = CIRCLE ( 'NONE', #578, 40.00000000000000000 ) ;
#92 =( NAMED_UNIT ( * ) SI_UNIT ( $, .STERADIAN. ) SOLID_ANGLE_UNIT ( ) );
#93 = CIRCLE ( 'NONE', #625, 45.00000000000000000 ) ;
#94 = CARTESIAN_POINT ( 'NONE',  ( -125.0000000000000000, 0.000000000000000000, 45.00000000000000000 ) ) ;
#95 = EDGE_LOOP ( 'NONE', ( #322, #139, #178, #28, #465, #267 ) ) ;
#96 = CARTESIAN_POINT ( 'NONE',  ( 99.99999999999998579, -17.50000000000000000, -45.00000000000000000 ) ) ;
#97 = ORIENTED_EDGE ( 'NONE', *, *, #132, .F. ) ;
#98 = EDGE_CURVE ( 'NONE', #710, #677, #310, .T. ) ;
#99 = DIRECTION ( 'NONE',  ( -1.000000000000000000, -0.000000000000000000, -0.000000000000000000 ) ) ;
#100 = EDGE_CURVE ( 'NONE', #263, #372, #612, .T. ) ;
#101 = ORIENTED_EDGE ( 'NONE', *, *, #301, .T. ) ;
#102 = AXIS2_PLACEMENT_3D ( 'NONE', #580, #190, #251 ) ;
#103 = FACE_OUTER_BOUND ( 'NONE', #212, .T. ) ;
#104 = EDGE_CURVE ( 'NONE', #158, #702, #93, .T. ) ;
#105 = ORIENTED_EDGE ( 'NONE', *, *, #593, .F. ) ;
#106 = LINE ( 'NONE', #323, #218 ) ;
#107 = LINE ( 'NONE', #70, #269 ) ;
#108 = CARTESIAN_POINT ( 'NONE',  ( -100.0000000000000142, -17.50000000000000000, -45.00000000000000000 ) ) ;
#109 = CARTESIAN_POINT ( 'NONE',  ( -100.0000000000000284, 4.898587196589413026E-15, -40.00000000000000000 ) ) ;
#110 = APPLICATION_CONTEXT ( 'automotive_design' ) ;
#111 = EDGE_LOOP ( 'NONE', ( #245, #38, #40, #90 ) ) ;
#112 = EDGE_CURVE ( 'NONE', #427, #440, #619, .T. ) ;
#113 = VECTOR ( 'NONE', #709, 1000.000000000000000 ) ;
#114 = CARTESIAN_POINT ( 'NONE',  ( 125.0000000000000000, 0.000000000000000000, 45.00000000000000000 ) ) ;
#115 = DIRECTION ( 'NONE',  ( -1.000000000000000000, -0.000000000000000000, -0.000000000000000000 ) ) ;
#116 = EDGE_LOOP ( 'NONE', ( #393, #298, #375, #217, #296, #145 ) ) ;
#117 = DIRECTION ( 'NONE',  ( 0.000000000000000000, 0.000000000000000000, -1.000000000000000000 ) ) ;
#118 = CARTESIAN_POINT ( 'NONE',  ( 99.99999999999998579, 0.000000000000000000, 0.000000000000000000 ) ) ;
#119 = ORIENTED_EDGE ( 'NONE', *, *, #504, .F. ) ;
#120 = CARTESIAN_POINT ( 'NONE',  ( -100.0000000000000142, -17.50000000000000000, -45.00000000000000000 ) ) ;
#121 = CARTESIAN_POINT ( 'NONE',  ( -100.0000000000000142, 17.50000000000000000, -45.00000000000000000 ) ) ;
#122 = ORIENTED_EDGE ( 'NONE', *, *, #31, .F. ) ;
#123 = DIRECTION ( 'NONE',  ( 1.000000000000000000, -0.000000000000000000, 0.000000000000000000 ) ) ;
#124 = AXIS2_PLACEMENT_3D ( 'NONE', #129, #348, #571 ) ;
#125 = DIRECTION ( 'NONE',  ( 0.000000000000000000, 0.000000000000000000, -1.000000000000000000 ) ) ;
#126 = VERTEX_POINT ( 'NONE', #549 ) ;
#127 = AXIS2_PLACEMENT_3D ( 'NONE', #59, #4, #225 ) ;
#128 = DIRECTION ( 'NONE',  ( -1.000000000000000000, 0.000000000000000000, -0.000000000000000000 ) ) ;
#129 = CARTESIAN_POINT ( 'NONE',  ( 125.0000000000000000, 0.000000000000000000, 0.000000000000000000 ) ) ;
#130 = ORIENTED_EDGE ( 'NONE', *, *, #539, .F. ) ;
#131 = ADVANCED_FACE ( 'NONE', ( #53 ), #412, .F. ) ;
#132 = EDGE_CURVE ( 'NONE', #635, #258, #517, .T. ) ;
#133 = PLANE ( 'NONE',  #541 ) ;
#134 = VERTEX_POINT ( 'NONE', #32 ) ;
#135 = EDGE_CURVE ( 'NONE', #149, #513, #295, .T. ) ;
#136 = DIRECTION ( 'NONE',  ( 1.000000000000000000, -0.000000000000000000, 0.000000000000000000 ) ) ;
#137 = DIRECTION ( 'NONE',  ( 1.000000000000000000, -0.000000000000000000, 0.000000000000000000 ) ) ;
#138 = AXIS2_PLACEMENT_3D ( 'NONE', #382, #496, #65 ) ;
#139 = ORIENTED_EDGE ( 'NONE', *, *, #253, .T. ) ;
#140 = VECTOR ( 'NONE', #291, 1000.000000000000000 ) ;
#141 = LINE ( 'NONE', #299, #515 ) ;
#142 = CARTESIAN_POINT ( 'NONE',  ( 125.0000000000000000, -17.49999999999999645, 41.45780987944248608 ) ) ;
#143 = ORIENTED_EDGE ( 'NONE', *, *, #265, .F. ) ;
#144 = DIRECTION ( 'NONE',  ( -1.000000000000000000, -0.000000000000000000, -0.000000000000000000 ) ) ;
#145 = ORIENTED_EDGE ( 'NONE', *, *, #159, .T. ) ;
#146 = PRODUCT_CONTEXT ( 'NONE', #632, 'mechanical' ) ;
#147 = DIRECTION ( 'NONE',  ( -1.000000000000000000, -0.000000000000000000, -0.000000000000000000 ) ) ;
#148 = VECTOR ( 'NONE', #42, 1000.000000000000000 ) ;
#149 = VERTEX_POINT ( 'NONE', #622 ) ;
#150 = CYLINDRICAL_SURFACE ( 'NONE', #184, 40.00000000000000000 ) ;
#151 = AXIS2_PLACEMENT_3D ( 'NONE', #118, #16, #606 ) ;
#152 = LINE ( 'NONE', #586, #414 ) ;
#153 = ORIENTED_EDGE ( 'NONE', *, *, #293, .F. ) ;
#154 = ADVANCED_FACE ( 'NONE', ( #634 ), #86, .F. ) ;
#155 = EDGE_CURVE ( 'NONE', #458, #6, #463, .T. ) ;
#156 = DIRECTION ( 'NONE',  ( 0.000000000000000000, 0.000000000000000000, 1.000000000000000000 ) ) ;
#157 = LINE ( 'NONE', #655, #636 ) ;
#158 = VERTEX_POINT ( 'NONE', #20 ) ;
#159 = EDGE_CURVE ( 'NONE', #557, #592, #194, .T. ) ;
#160 = CARTESIAN_POINT ( 'NONE',  ( -100.0000000000000284, -17.49999999999999645, -41.45780987944248608 ) ) ;
#161 = ORIENTED_EDGE ( 'NONE', *, *, #469, .F. ) ;
#162 = VECTOR ( 'NONE', #522, 1000.000000000000000 ) ;
#163 = PLANE ( 'NONE',  #366 ) ;
#164 = DIRECTION ( 'NONE',  ( -1.000000000000000000, -0.000000000000000000, -0.000000000000000000 ) ) ;
#165 = FACE_OUTER_BOUND ( 'NONE', #239, .T. ) ;
#166 = CARTESIAN_POINT ( 'NONE',  ( -100.0000000000000284, 0.000000000000000000, 0.000000000000000000 ) ) ;
#167 = ORIENTED_EDGE ( 'NONE', *, *, #253, .F. ) ;
#168 = DIRECTION ( 'NONE',  ( -0.000000000000000000, -0.000000000000000000, 1.000000000000000000 ) ) ;
#169 = CARTESIAN_POINT ( 'NONE',  ( 99.99999999999998579, 0.000000000000000000, 0.000000000000000000 ) ) ;
#170 = ORIENTED_EDGE ( 'NONE', *, *, #483, .F. ) ;
#171 = AXIS2_PLACEMENT_3D ( 'NONE', #471, #694, #197 ) ;
#172 = AXIS2_PLACEMENT_3D ( 'NONE', #574, #136, #461 ) ;
#173 = CARTESIAN_POINT ( 'NONE',  ( 99.99999999999998579, -17.50000000000000000, -45.00000000000000000 ) ) ;
#174 = DIRECTION ( 'NONE',  ( -0.000000000000000000, 1.000000000000000000, 0.000000000000000000 ) ) ;
#175 = EDGE_CURVE ( 'NONE', #73, #316, #473, .T. ) ;
#176 = PLANE ( 'NONE',  #447 ) ;
#177 = PLANE ( 'NONE',  #495 ) ;
#178 = ORIENTED_EDGE ( 'NONE', *, *, #384, .T. ) ;
#179 = PLANE ( 'NONE',  #172 ) ;
#180 = DIRECTION ( 'NONE',  ( 0.000000000000000000, -0.03301677869694705919, 0.9994547975393768269 ) ) ;
#181 = ORIENTED_EDGE ( 'NONE', *, *, #431, .F. ) ;
#182 = AXIS2_PLACEMENT_3D ( 'NONE', #380, #391, #664 ) ;
#183 = CARTESIAN_POINT ( 'NONE',  ( 125.0000000000000000, -39.97819190157509439, -1.320671147877883200 ) ) ;
#184 = AXIS2_PLACEMENT_3D ( 'NONE', #652, #259, #529 ) ;
#185 = FACE_OUTER_BOUND ( 'NONE', #607, .T. ) ;
#186 = ADVANCED_FACE ( 'NONE', ( #356 ), #72, .F. ) ;
#187 = ORIENTED_EDGE ( 'NONE', *, *, #539, .T. ) ;
#188 = AXIS2_PLACEMENT_3D ( 'NONE', #518, #512, #180 ) ;
#189 = SURFACE_SIDE_STYLE ('',( #633 ) ) ;
#190 = DIRECTION ( 'NONE',  ( -0.000000000000000000, 1.000000000000000000, 0.000000000000000000 ) ) ;
#191 = ORIENTED_EDGE ( 'NONE', *, *, #57, .F. ) ;
#192 = ADVANCED_FACE ( 'NONE', ( #83 ), #133, .F. ) ;
#193 = FACE_BOUND ( 'NONE', #314, .T. ) ;
#194 = LINE ( 'NONE', #358, #545 ) ;
#195 = EDGE_LOOP ( 'NONE', ( #302, #477, #536, #654 ) ) ;
#196 = CARTESIAN_POINT ( 'NONE',  ( 125.0000000000000000, -35.62028508407166782, 18.19877167639239701 ) ) ;
#197 = DIRECTION ( 'NONE',  ( 0.000000000000000000, 0.000000000000000000, -1.000000000000000000 ) ) ;
#198 = AXIS2_PLACEMENT_3D ( 'NONE', #216, #7, #325 ) ;
#199 = ORIENTED_EDGE ( 'NONE', *, *, #644, .T. ) ;
#200 = CARTESIAN_POINT ( 'NONE',  ( 99.99999999999998579, -17.50000000000000000, 35.96873642484536759 ) ) ;
#201 = ORIENTED_EDGE ( 'NONE', *, *, #331, .F. ) ;
#202 = DIRECTION ( 'NONE',  ( 1.000000000000000000, -0.000000000000000000, 0.000000000000000000 ) ) ;
#203 = EDGE_LOOP ( 'NONE', ( #613, #276, #101, #226, #501, #161 ) ) ;
#204 = FACE_BOUND ( 'NONE', #338, .T. ) ;
#205 = ADVANCED_FACE ( 'NONE', ( #351 ), #575, .F. ) ;
#206 = VERTEX_POINT ( 'NONE', #568 ) ;
#207 =( GEOMETRIC_REPRESENTATION_CONTEXT ( 3 ) GLOBAL_UNCERTAINTY_ASSIGNED_CONTEXT ( ( #330 ) ) GLOBAL_UNIT_ASSIGNED_CONTEXT ( ( #480, #534, #92 ) ) REPRESENTATION_CONTEXT ( 'NONE', 'WORKASPACE' ) );
#208 = EDGE_CURVE ( 'NONE', #453, #423, #297, .T. ) ;
#209 = DIRECTION ( 'NONE',  ( -1.000000000000000000, -0.000000000000000000, -0.000000000000000000 ) ) ;
#210 = VECTOR ( 'NONE', #337, 1000.000000000000000 ) ;
#211 = DIRECTION ( 'NONE',  ( 1.000000000000000000, 0.000000000000000000, 0.000000000000000000 ) ) ;
#212 = EDGE_LOOP ( 'NONE', ( #191, #71, #81, #708, #305, #488, #319, #544, #468, #341, #309, #566 ) ) ;
#213 = EDGE_CURVE ( 'NONE', #372, #349, #705, .T. ) ;
#214 = CARTESIAN_POINT ( 'NONE',  ( -125.0000000000000000, 0.000000000000000000, 40.00000000000000000 ) ) ;
#215 = EDGE_LOOP ( 'NONE', ( #352, #181, #249, #408 ) ) ;
#216 = CARTESIAN_POINT ( 'NONE',  ( -100.0000000000000284, 0.000000000000000000, 0.000000000000000000 ) ) ;
#217 = ORIENTED_EDGE ( 'NONE', *, *, #682, .F. ) ;
#218 = VECTOR ( 'NONE', #52, 1000.000000000000000 ) ;
#219 = VECTOR ( 'NONE', #11, 1000.000000000000000 ) ;
#220 = VECTOR ( 'NONE', #13, 1000.000000000000000 ) ;
#221 = CARTESIAN_POINT ( 'NONE',  ( 125.0000000000000000, -17.49999999999999645, 35.96873642484538891 ) ) ;
#222 = DIRECTION ( 'NONE',  ( -1.000000000000000000, -0.000000000000000000, -0.000000000000000000 ) ) ;
#223 = ORIENTED_EDGE ( 'NONE', *, *, #213, .T. ) ;
#224 = DIRECTION ( 'NONE',  ( -0.000000000000000000, -0.000000000000000000, 1.000000000000000000 ) ) ;
#225 = DIRECTION ( 'NONE',  ( 0.000000000000000000, 0.000000000000000000, -1.000000000000000000 ) ) ;
#226 = ORIENTED_EDGE ( 'NONE', *, *, #78, .F. ) ;
#227 = LINE ( 'NONE', #335, #21 ) ;
#228 = DIRECTION ( 'NONE',  ( 0.000000000000000000, 0.000000000000000000, 1.000000000000000000 ) ) ;
#229 = EDGE_CURVE ( 'NONE', #443, #73, #12, .T. ) ;
#230 = EDGE_LOOP ( 'NONE', ( #520, #602, #256, #641, #122, #334, #43, #153 ) ) ;
#231 = CIRCLE ( 'NONE', #138, 45.00000000000000000 ) ;
#232 = CARTESIAN_POINT ( 'NONE',  ( -100.0000000000000284, 0.000000000000000000, 0.000000000000000000 ) ) ;
#233 = DIRECTION ( 'NONE',  ( 1.000000000000000000, 0.000000000000000000, 0.000000000000000000 ) ) ;
#234 = CIRCLE ( 'NONE', #486, 40.00000000000000000 ) ;
#235 = PRODUCT_DEFINITION ( 'General', '', #714, #660 ) ;
#236 = CARTESIAN_POINT ( 'NONE',  ( -100.0000000000000284, 0.000000000000000000, 0.000000000000000000 ) ) ;
#237 = CARTESIAN_POINT ( 'NONE',  ( 99.99999999999998579, 17.50000000000000000, -41.45780987944248608 ) ) ;
#238 = DIRECTION ( 'NONE',  ( -1.000000000000000000, -0.000000000000000000, -0.000000000000000000 ) ) ;
#239 = EDGE_LOOP ( 'NONE', ( #223, #569, #369, #667, #704, #665 ) ) ;
#240 = VECTOR ( 'NONE', #550, 1000.000000000000000 ) ;
#241 = CARTESIAN_POINT ( 'NONE',  ( 125.0000000000000000, 17.49999999999999645, 41.45780987944248608 ) ) ;
#242 = CIRCLE ( 'NONE', #56, 45.00000000000000000 ) ;
#243 = DIRECTION ( 'NONE',  ( 0.000000000000000000, 0.000000000000000000, -1.000000000000000000 ) ) ;
#244 = EDGE_CURVE ( 'NONE', #30, #596, #623, .T. ) ;
#245 = ORIENTED_EDGE ( 'NONE', *, *, #155, .T. ) ;
#246 = AXIS2_PLACEMENT_3D ( 'NONE', #500, #446, #493 ) ;
#247 = CARTESIAN_POINT ( 'NONE',  ( -100.0000000000000142, 17.50000000000000000, 41.45780987944246476 ) ) ;
#248 = DIRECTION ( 'NONE',  ( 0.000000000000000000, 0.000000000000000000, -1.000000000000000000 ) ) ;
#249 = ORIENTED_EDGE ( 'NONE', *, *, #283, .F. ) ;
#250 = DIRECTION ( 'NONE',  ( -1.000000000000000000, -0.000000000000000000, -0.000000000000000000 ) ) ;
#251 = DIRECTION ( 'NONE',  ( 0.000000000000000000, -0.000000000000000000, 1.000000000000000000 ) ) ;
#252 = ORIENTED_EDGE ( 'NONE', *, *, #229, .F. ) ;
#253 = EDGE_CURVE ( 'NONE', #126, #458, #600, .T. ) ;
#254 = DIRECTION ( 'NONE',  ( 0.000000000000000000, 0.000000000000000000, -1.000000000000000000 ) ) ;
#255 = AXIS2_PLACEMENT_3D ( 'NONE', #535, #261, #653 ) ;
#256 = ORIENTED_EDGE ( 'NONE', *, *, #331, .T. ) ;
#257 = DIRECTION ( 'NONE',  ( -1.000000000000000000, -0.000000000000000000, -0.000000000000000000 ) ) ;
#258 = VERTEX_POINT ( 'NONE', #457 ) ;
#259 = DIRECTION ( 'NONE',  ( -1.000000000000000000, -0.000000000000000000, -0.000000000000000000 ) ) ;
#260 = ADVANCED_FACE ( 'NONE', ( #185 ), #404, .F. ) ;
#261 = DIRECTION ( 'NONE',  ( 1.000000000000000000, 0.000000000000000000, 0.000000000000000000 ) ) ;
#262 = EDGE_CURVE ( 'NONE', #631, #592, #482, .T. ) ;
#263 = VERTEX_POINT ( 'NONE', #363 ) ;
#264 = CARTESIAN_POINT ( 'NONE',  ( 99.99999999999998579, 0.000000000000000000, 45.00000000000000000 ) ) ;
#265 = EDGE_CURVE ( 'NONE', #349, #631, #713, .T. ) ;
#266 = CIRCLE ( 'NONE', #182, 45.00000000000000000 ) ;
#267 = ORIENTED_EDGE ( 'NONE', *, *, #583, .F. ) ;
#268 =( GEOMETRIC_REPRESENTATION_CONTEXT ( 3 ) GLOBAL_UNCERTAINTY_ASSIGNED_CONTEXT ( ( #441 ) ) GLOBAL_UNIT_ASSIGNED_CONTEXT ( ( #689, #411, #354 ) ) REPRESENTATION_CONTEXT ( 'NONE', 'WORKASPACE' ) );
#269 = VECTOR ( 'NONE', #392, 1000.000000000000000 ) ;
#270 = FACE_OUTER_BOUND ( 'NONE', #695, .T. ) ;
#271 = ORIENTED_EDGE ( 'NONE', *, *, #135, .T. ) ;
#272 = DIRECTION ( 'NONE',  ( 0.000000000000000000, -1.000000000000000000, 0.000000000000000000 ) ) ;
#273 = DIRECTION ( 'NONE',  ( 0.000000000000000000, 0.000000000000000000, -1.000000000000000000 ) ) ;
#274 = FACE_OUTER_BOUND ( 'NONE', #111, .T. ) ;
#275 = CIRCLE ( 'NONE', #551, 45.00000000000000000 ) ;
#276 = ORIENTED_EDGE ( 'NONE', *, *, #293, .T. ) ;
#277 = VECTOR ( 'NONE', #466, 1000.000000000000000 ) ;
#278 = DIRECTION ( 'NONE',  ( 0.000000000000000000, 0.000000000000000000, -1.000000000000000000 ) ) ;
#279 = DIRECTION ( 'NONE',  ( 0.000000000000000000, -0.000000000000000000, 1.000000000000000000 ) ) ;
#280 = CARTESIAN_POINT ( 'NONE',  ( -100.0000000000000000, 17.49999999999999645, -41.45780987944248608 ) ) ;
#281 = EDGE_CURVE ( 'NONE', #677, #14, #157, .T. ) ;
#282 = DIRECTION ( 'NONE',  ( 1.000000000000000000, -0.000000000000000000, 0.000000000000000000 ) ) ;
#283 = EDGE_CURVE ( 'NONE', #423, #385, #80, .T. ) ;
#284 = ORIENTED_EDGE ( 'NONE', *, *, #682, .T. ) ;
#285 = LINE ( 'NONE', #114, #34 ) ;
#286 = DIRECTION ( 'NONE',  ( 0.000000000000000000, -0.000000000000000000, -1.000000000000000000 ) ) ;
#287 = EDGE_LOOP ( 'NONE', ( #328, #85, #562, #507 ) ) ;
#288 = AXIS2_PLACEMENT_3D ( 'NONE', #18, #238, #681 ) ;
#289 = CARTESIAN_POINT ( 'NONE',  ( 99.99999999999998579, 17.50000000000000000, -45.00000000000000000 ) ) ;
#290 = DIRECTION ( 'NONE',  ( 1.000000000000000000, 0.000000000000000000, 0.000000000000000000 ) ) ;
#291 = DIRECTION ( 'NONE',  ( 1.000000000000000000, 0.000000000000000000, 0.000000000000000000 ) ) ;
#292 = ORIENTED_EDGE ( 'NONE', *, *, #9, .T. ) ;
#293 = EDGE_CURVE ( 'NONE', #14, #346, #89, .T. ) ;
#294 = LINE ( 'NONE', #17, #277 ) ;
#295 = LINE ( 'NONE', #142, #46 ) ;
#296 = ORIENTED_EDGE ( 'NONE', *, *, #51, .F. ) ;
#297 = LINE ( 'NONE', #398, #162 ) ;
#298 = ORIENTED_EDGE ( 'NONE', *, *, #77, .T. ) ;
#299 = CARTESIAN_POINT ( 'NONE',  ( 125.0000000000000000, -17.49999999999999645, -41.45780987944248608 ) ) ;
#300 = DIRECTION ( 'NONE',  ( -1.000000000000000000, 0.000000000000000000, -0.000000000000000000 ) ) ;
#301 = EDGE_CURVE ( 'NONE', #346, #149, #598, .T. ) ;
#302 = ORIENTED_EDGE ( 'NONE', *, *, #511, .T. ) ;
#303 = CARTESIAN_POINT ( 'NONE',  ( 125.0000000000000000, -34.34155074368472071, -20.50994618517870549 ) ) ;
#304 = CARTESIAN_POINT ( 'NONE',  ( -100.0000000000000142, 17.50000000000000000, -45.00000000000000000 ) ) ;
#305 = ORIENTED_EDGE ( 'NONE', *, *, #51, .T. ) ;
#306 = AXIS2_PLACEMENT_3D ( 'NONE', #416, #679, #345 ) ;
#307 = DIRECTION ( 'NONE',  ( 0.000000000000000000, 0.000000000000000000, 1.000000000000000000 ) ) ;
#308 = AXIS2_PLACEMENT_3D ( 'NONE', #236, #563, #343 ) ;
#309 = ORIENTED_EDGE ( 'NONE', *, *, #48, .T. ) ;
#310 = CIRCLE ( 'NONE', #127, 40.00000000000000000 ) ;
#311 = EDGE_CURVE ( 'NONE', #30, #385, #487, .T. ) ;
#312 = APPLICATION_PROTOCOL_DEFINITION ( 'draft international standard', 'automotive_design', 1998, #632 ) ;
#313 = LINE ( 'NONE', #376, #435 ) ;
#314 = EDGE_LOOP ( 'NONE', ( #587, #498, #645, #576 ) ) ;
#315 = DIRECTION ( 'NONE',  ( -1.000000000000000000, -0.000000000000000000, -0.000000000000000000 ) ) ;
#316 = VERTEX_POINT ( 'NONE', #214 ) ;
#317 = DIRECTION ( 'NONE',  ( 1.000000000000000000, -0.000000000000000000, 0.000000000000000000 ) ) ;
#318 = AXIS2_PLACEMENT_3D ( 'NONE', #643, #147, #703 ) ;
#319 = ORIENTED_EDGE ( 'NONE', *, *, #283, .T. ) ;
#320 = VECTOR ( 'NONE', #164, 1000.000000000000000 ) ;
#321 = CARTESIAN_POINT ( 'NONE',  ( 99.99999999999998579, 0.000000000000000000, 0.000000000000000000 ) ) ;
#322 = ORIENTED_EDGE ( 'NONE', *, *, #559, .T. ) ;
#323 = CARTESIAN_POINT ( 'NONE',  ( 125.0000000000000000, 4.898587196589413026E-15, -40.00000000000000000 ) ) ;
#324 = CARTESIAN_POINT ( 'NONE',  ( 125.0000000000000000, -39.29753357164929639, -21.92495963930370806 ) ) ;
#325 = DIRECTION ( 'NONE',  ( 0.000000000000000000, 0.000000000000000000, 1.000000000000000000 ) ) ;
#326 = CARTESIAN_POINT ( 'NONE',  ( 125.0000000000000000, 0.000000000000000000, 0.000000000000000000 ) ) ;
#327 = AXIS2_PLACEMENT_3D ( 'NONE', #701, #202, #478 ) ;
#328 = ORIENTED_EDGE ( 'NONE', *, *, #593, .T. ) ;
#329 = VECTOR ( 'NONE', #594, 1000.000000000000000 ) ;
#330 = UNCERTAINTY_MEASURE_WITH_UNIT (LENGTH_MEASURE( 1.000000000000000082E-05 ), #480, 'distance_accuracy_value', 'NONE');
#331 = EDGE_CURVE ( 'NONE', #663, #639, #546, .T. ) ;
#332 = CARTESIAN_POINT ( 'NONE',  ( 125.0000000000000000, -34.34155074368472071, -20.50994618517870549 ) ) ;
#333 = CARTESIAN_POINT ( 'NONE',  ( 125.0000000000000000, 0.000000000000000000, 40.00000000000000000 ) ) ;
#334 = ORIENTED_EDGE ( 'NONE', *, *, #559, .F. ) ;
#335 = CARTESIAN_POINT ( 'NONE',  ( 99.99999999999998579, 17.50000000000000000, -45.00000000000000000 ) ) ;
#336 = EDGE_CURVE ( 'NONE', #316, #639, #424, .T. ) ;
#337 = DIRECTION ( 'NONE',  ( -0.000000000000000000, -0.000000000000000000, 1.000000000000000000 ) ) ;
#338 = EDGE_LOOP ( 'NONE', ( #364, #19, #525, #400 ) ) ;
#339 = DIRECTION ( 'NONE',  ( -1.000000000000000000, -0.000000000000000000, -0.000000000000000000 ) ) ;
#340 = ORIENTED_EDGE ( 'NONE', *, *, #399, .T. ) ;
#341 = ORIENTED_EDGE ( 'NONE', *, *, #651, .T. ) ;
#342 = AXIS2_PLACEMENT_3D ( 'NONE', #558, #608, #273 ) ;
#343 = DIRECTION ( 'NONE',  ( 0.000000000000000000, 0.000000000000000000, 1.000000000000000000 ) ) ;
#344 = AXIS2_PLACEMENT_3D ( 'NONE', #326, #8, #676 ) ;
#345 = DIRECTION ( 'NONE',  ( 0.000000000000000000, 0.000000000000000000, 1.000000000000000000 ) ) ;
#346 = VERTEX_POINT ( 'NONE', #200 ) ;
#347 = DIRECTION ( 'NONE',  ( -0.000000000000000000, 0.000000000000000000, 1.000000000000000000 ) ) ;
#348 = DIRECTION ( 'NONE',  ( -1.000000000000000000, -0.000000000000000000, -0.000000000000000000 ) ) ;
#349 = VERTEX_POINT ( 'NONE', #419 ) ;
#350 = CARTESIAN_POINT ( 'NONE',  ( -100.0000000000000142, 17.50000000000000000, -35.96873642484539602 ) ) ;
#351 = FACE_OUTER_BOUND ( 'NONE', #116, .T. ) ;
#352 = ORIENTED_EDGE ( 'NONE', *, *, #360, .F. ) ;
#353 = AXIS2_PLACEMENT_3D ( 'NONE', #29, #26, #248 ) ;
#354 =( NAMED_UNIT ( * ) SI_UNIT ( $, .STERADIAN. ) SOLID_ANGLE_UNIT ( ) );
#355 = CIRCLE ( 'NONE', #308, 45.00000000000000000 ) ;
#356 = FACE_OUTER_BOUND ( 'NONE', #691, .T. ) ;
#357 = VERTEX_POINT ( 'NONE', #264 ) ;
#358 = CARTESIAN_POINT ( 'NONE',  ( -100.0000000000000142, 17.50000000000000000, -45.00000000000000000 ) ) ;
#359 = ADVANCED_BREP_SHAPE_REPRESENTATION ( 'Body-Fuselage-2', ( #609, #449 ), #207 ) ;
#360 = EDGE_CURVE ( 'NONE', #134, #440, #45, .T. ) ;
#361 = EDGE_LOOP ( 'NONE', ( #389, #201, #581, #187 ) ) ;
#362 = CARTESIAN_POINT ( 'NONE',  ( -100.0000000000000284, 0.000000000000000000, 0.000000000000000000 ) ) ;
#363 = CARTESIAN_POINT ( 'NONE',  ( -100.0000000000000284, -17.49999999999999645, -35.96873642484538891 ) ) ;
#364 = ORIENTED_EDGE ( 'NONE', *, *, #9, .F. ) ;
#365 = CARTESIAN_POINT ( 'NONE',  ( 0.000000000000000000, 0.000000000000000000, 0.000000000000000000 ) ) ;
#366 = AXIS2_PLACEMENT_3D ( 'NONE', #58, #451, #278 ) ;
#367 = CARTESIAN_POINT ( 'NONE',  ( -125.0000000000000000, -39.97819190157509439, -1.320671147877883200 ) ) ;
#368 = AXIS2_PLACEMENT_3D ( 'NONE', #626, #128, #347 ) ;
#369 = ORIENTED_EDGE ( 'NONE', *, *, #25, .F. ) ;
#370 = CARTESIAN_POINT ( 'NONE',  ( -125.0000000000000000, -34.98091791387818006, -1.155587254393189101 ) ) ;
#371 = DIRECTION ( 'NONE',  ( 0.000000000000000000, 0.000000000000000000, -1.000000000000000000 ) ) ;
#372 = VERTEX_POINT ( 'NONE', #640 ) ;
#373 = SHAPE_DEFINITION_REPRESENTATION ( #531, #359 ) ;
#374 = CARTESIAN_POINT ( 'NONE',  ( 125.0000000000000000, -35.62028508407166782, 18.19877167639239701 ) ) ;
#375 = ORIENTED_EDGE ( 'NONE', *, *, #386, .F. ) ;
#376 = CARTESIAN_POINT ( 'NONE',  ( -100.0000000000000142, -17.50000000000000000, -45.00000000000000000 ) ) ;
#377 = ADVANCED_FACE ( 'NONE', ( #270 ), #591, .T. ) ;
#378 = VECTOR ( 'NONE', #224, 1000.000000000000000 ) ;
#379 = VERTEX_POINT ( 'NONE', #160 ) ;
#380 = CARTESIAN_POINT ( 'NONE',  ( -125.0000000000000000, 0.000000000000000000, 0.000000000000000000 ) ) ;
#381 = DIRECTION ( 'NONE',  ( 0.000000000000000000, 0.000000000000000000, -1.000000000000000000 ) ) ;
#382 = CARTESIAN_POINT ( 'NONE',  ( 125.0000000000000000, 0.000000000000000000, 0.000000000000000000 ) ) ;
#383 = CARTESIAN_POINT ( 'NONE',  ( 125.0000000000000000, 0.000000000000000000, 0.000000000000000000 ) ) ;
#384 = EDGE_CURVE ( 'NONE', #458, #596, #152, .T. ) ;
#385 = VERTEX_POINT ( 'NONE', #94 ) ;
#386 = EDGE_CURVE ( 'NONE', #379, #263, #313, .T. ) ;
#387 = LINE ( 'NONE', #221, #55 ) ;
#388 = CARTESIAN_POINT ( 'NONE',  ( 99.99999999999998579, 0.000000000000000000, 0.000000000000000000 ) ) ;
#389 = ORIENTED_EDGE ( 'NONE', *, *, #697, .T. ) ;
#390 = ADVANCED_FACE ( 'NONE', ( #103 ), #530, .T. ) ;
#391 = DIRECTION ( 'NONE',  ( 1.000000000000000000, -0.000000000000000000, 0.000000000000000000 ) ) ;
#392 = DIRECTION ( 'NONE',  ( -1.000000000000000000, -0.000000000000000000, -0.000000000000000000 ) ) ;
#393 = ORIENTED_EDGE ( 'NONE', *, *, #464, .T. ) ;
#394 = DIRECTION ( 'NONE',  ( -1.000000000000000000, -0.000000000000000000, -0.000000000000000000 ) ) ;
#395 = CARTESIAN_POINT ( 'NONE',  ( 125.0000000000000000, -17.49999999999999645, -35.96873642484538891 ) ) ;
#396 = ORIENTED_EDGE ( 'NONE', *, *, #25, .T. ) ;
#397 = CARTESIAN_POINT ( 'NONE',  ( 125.0000000000000000, -40.65885023150087108, 19.28361734354791679 ) ) ;
#398 = CARTESIAN_POINT ( 'NONE',  ( 125.0000000000000000, 5.510910596163089556E-15, -45.00000000000000000 ) ) ;
#399 = EDGE_CURVE ( 'NONE', #440, #423, #481, .T. ) ;
#400 = ORIENTED_EDGE ( 'NONE', *, *, #98, .F. ) ;
#401 = AXIS2_PLACEMENT_3D ( 'NONE', #321, #211, #254 ) ;
#402 = CARTESIAN_POINT ( 'NONE',  ( 125.0000000000000000, 0.000000000000000000, 45.00000000000000000 ) ) ;
#403 = CIRCLE ( 'NONE', #36, 45.00000000000000000 ) ;
#404 = CYLINDRICAL_SURFACE ( 'NONE', #124, 40.00000000000000000 ) ;
#405 = ORIENTED_EDGE ( 'NONE', *, *, #666, .T. ) ;
#406 = FACE_OUTER_BOUND ( 'NONE', #215, .T. ) ;
#407 = CARTESIAN_POINT ( 'NONE',  ( 125.0000000000000000, 0.000000000000000000, 0.000000000000000000 ) ) ;
#408 = ORIENTED_EDGE ( 'NONE', *, *, #399, .F. ) ;
#409 = ADVANCED_FACE ( 'NONE', ( #648 ), #422, .T. ) ;
#410 = ADVANCED_FACE ( 'NONE', ( #204, #425 ), #163, .T. ) ;
#411 =( NAMED_UNIT ( * ) PLANE_ANGLE_UNIT ( ) SI_UNIT ( $, .RADIAN. ) );
#412 = CYLINDRICAL_SURFACE ( 'NONE', #450, 40.00000000000000000 ) ;
#413 = ORIENTED_EDGE ( 'NONE', *, *, #615, .T. ) ;
#414 = VECTOR ( 'NONE', #88, 1000.000000000000000 ) ;
#415 = FACE_OUTER_BOUND ( 'NONE', #203, .T. ) ;
#416 = CARTESIAN_POINT ( 'NONE',  ( -100.0000000000000284, 0.000000000000000000, 0.000000000000000000 ) ) ;
#417 = ORIENTED_EDGE ( 'NONE', *, *, #112, .F. ) ;
#418 = CLOSED_SHELL ( 'NONE', ( #390, #377, #692, #260, #154, #131, #192, #409, #410, #597, #5, #674, #485, #668, #519, #84, #205, #186 ) ) ;
#419 = CARTESIAN_POINT ( 'NONE',  ( 99.99999999999998579, 4.898587196589413026E-15, -40.00000000000000000 ) ) ;
#420 = ORIENTED_EDGE ( 'NONE', *, *, #100, .F. ) ;
#421 = PRODUCT ( 'Body-Fuselage-2', 'Body-Fuselage-2', '', ( #146 ) ) ;
#422 = CYLINDRICAL_SURFACE ( 'NONE', #318, 45.00000000000000000 ) ;
#423 = VERTEX_POINT ( 'NONE', #499 ) ;
#424 = CIRCLE ( 'NONE', #492, 40.00000000000000000 ) ;
#425 = FACE_OUTER_BOUND ( 'NONE', #287, .T. ) ;
#426 = VECTOR ( 'NONE', #250, 1000.000000000000000 ) ;
#427 = VERTEX_POINT ( 'NONE', #491 ) ;
#428 = VECTOR ( 'NONE', #115, 1000.000000000000000 ) ;
#429 = DIRECTION ( 'NONE',  ( 0.000000000000000000, 0.000000000000000000, -1.000000000000000000 ) ) ;
#430 = ORIENTED_EDGE ( 'NONE', *, *, #112, .T. ) ;
#431 = EDGE_CURVE ( 'NONE', #385, #134, #266, .T. ) ;
#432 = CARTESIAN_POINT ( 'NONE',  ( 125.0000000000000000, 0.000000000000000000, 0.000000000000000000 ) ) ;
#433 = ORIENTED_EDGE ( 'NONE', *, *, #175, .F. ) ;
#434 = CARTESIAN_POINT ( 'NONE',  ( 99.99999999999998579, 0.000000000000000000, 0.000000000000000000 ) ) ;
#435 = VECTOR ( 'NONE', #601, 1000.000000000000000 ) ;
#436 = ORIENTED_EDGE ( 'NONE', *, *, #439, .F. ) ;
#437 = CARTESIAN_POINT ( 'NONE',  ( -125.0000000000000000, -39.29753357164929639, -21.92495963930370806 ) ) ;
#438 = CARTESIAN_POINT ( 'NONE',  ( -100.0000000000000284, 0.000000000000000000, 45.00000000000000000 ) ) ;
#439 = EDGE_CURVE ( 'NONE', #427, #206, #231, .T. ) ;
#440 = VERTEX_POINT ( 'NONE', #437 ) ;
#441 = UNCERTAINTY_MEASURE_WITH_UNIT (LENGTH_MEASURE( 1.000000000000000082E-05 ), #689, 'distance_accuracy_value', 'NONE');
#442 = DIRECTION ( 'NONE',  ( -1.000000000000000000, -0.000000000000000000, -0.000000000000000000 ) ) ;
#443 = VERTEX_POINT ( 'NONE', #489 ) ;
#444 = ORIENTED_EDGE ( 'NONE', *, *, #104, .T. ) ;
#445 = DIRECTION ( 'NONE',  ( 1.000000000000000000, 0.000000000000000000, 0.000000000000000000 ) ) ;
#446 = DIRECTION ( 'NONE',  ( -1.000000000000000000, -0.000000000000000000, -0.000000000000000000 ) ) ;
#447 = AXIS2_PLACEMENT_3D ( 'NONE', #120, #272, #555 ) ;
#448 = ORIENTED_EDGE ( 'NONE', *, *, #98, .T. ) ;
#449 = AXIS2_PLACEMENT_3D ( 'NONE', #365, #156, #537 ) ;
#450 = AXIS2_PLACEMENT_3D ( 'NONE', #687, #690, #75 ) ;
#451 = DIRECTION ( 'NONE',  ( 1.000000000000000000, -0.000000000000000000, 0.000000000000000000 ) ) ;
#452 = CARTESIAN_POINT ( 'NONE',  ( 99.99999999999998579, 0.000000000000000000, 40.00000000000000000 ) ) ;
#453 = VERTEX_POINT ( 'NONE', #3 ) ;
#454 = DIRECTION ( 'NONE',  ( 1.000000000000000000, 0.000000000000000000, 0.000000000000000000 ) ) ;
#455 = DIRECTION ( 'NONE',  ( -0.000000000000000000, 0.000000000000000000, 1.000000000000000000 ) ) ;
#456 = PLANE ( 'NONE',  #624 ) ;
#457 = CARTESIAN_POINT ( 'NONE',  ( 125.0000000000000000, -40.65885023150087108, 19.28361734354791679 ) ) ;
#458 = VERTEX_POINT ( 'NONE', #675 ) ;
#459 = AXIS2_PLACEMENT_3D ( 'NONE', #582, #137, #243 ) ;
#460 = COLOUR_RGB ( '',0.7921568627450980005, 0.8196078431372548767, 0.9333333333333333481 ) ;
#461 = DIRECTION ( 'NONE',  ( 0.000000000000000000, 0.000000000000000000, -1.000000000000000000 ) ) ;
#462 = EDGE_CURVE ( 'NONE', #6, #14, #565, .T. ) ;
#463 = LINE ( 'NONE', #467, #140 ) ;
#464 = EDGE_CURVE ( 'NONE', #592, #10, #44, .T. ) ;
#465 = ORIENTED_EDGE ( 'NONE', *, *, #666, .F. ) ;
#466 = DIRECTION ( 'NONE',  ( 0.000000000000000000, -0.03301677869694826656, 0.9994547975393768269 ) ) ;
#467 = CARTESIAN_POINT ( 'NONE',  ( 125.0000000000000000, 17.49999999999999645, 35.96873642484538891 ) ) ;
#468 = ORIENTED_EDGE ( 'NONE', *, *, #244, .T. ) ;
#469 = EDGE_CURVE ( 'NONE', #6, #584, #227, .T. ) ;
#470 = CARTESIAN_POINT ( 'NONE',  ( 99.99999999999998579, 17.49999999999999645, -35.96873642484538891 ) ) ;
#471 = CARTESIAN_POINT ( 'NONE',  ( -125.0000000000000000, 0.000000000000000000, 0.000000000000000000 ) ) ;
#472 = ORIENTED_EDGE ( 'NONE', *, *, #262, .T. ) ;
#473 = CIRCLE ( 'NONE', #459, 40.00000000000000000 ) ;
#474 = CARTESIAN_POINT ( 'NONE',  ( 125.0000000000000000, 17.49999999999999645, -35.96873642484538891 ) ) ;
#475 = ORIENTED_EDGE ( 'NONE', *, *, #78, .T. ) ;
#476 = CARTESIAN_POINT ( 'NONE',  ( 125.0000000000000000, 0.000000000000000000, 45.00000000000000000 ) ) ;
#477 = ORIENTED_EDGE ( 'NONE', *, *, #583, .T. ) ;
#478 = DIRECTION ( 'NONE',  ( 0.000000000000000000, 0.000000000000000000, -1.000000000000000000 ) ) ;
#479 = ORIENTED_EDGE ( 'NONE', *, *, #462, .F. ) ;
#480 =( LENGTH_UNIT ( ) NAMED_UNIT ( * ) SI_UNIT ( .MILLI., .METRE. ) );
#481 = CIRCLE ( 'NONE', #327, 45.00000000000000000 ) ;
#482 = LINE ( 'NONE', #474, #113 ) ;
#483 = EDGE_CURVE ( 'NONE', #158, #372, #603, .T. ) ;
#484 = ORIENTED_EDGE ( 'NONE', *, *, #431, .T. ) ;
#485 = ADVANCED_FACE ( 'NONE', ( #548 ), #176, .F. ) ;
#486 = AXIS2_PLACEMENT_3D ( 'NONE', #383, #282, #63 ) ;
#487 = LINE ( 'NONE', #476, #528 ) ;
#488 = ORIENTED_EDGE ( 'NONE', *, *, #208, .T. ) ;
#489 = CARTESIAN_POINT ( 'NONE',  ( -125.0000000000000000, -34.34155074368472071, -20.50994618517870549 ) ) ;
#490 = ORIENTED_EDGE ( 'NONE', *, *, #615, .F. ) ;
#491 = CARTESIAN_POINT ( 'NONE',  ( 125.0000000000000000, -39.29753357164929639, -21.92495963930370806 ) ) ;
#492 = AXIS2_PLACEMENT_3D ( 'NONE', #699, #542, #371 ) ;
#493 = DIRECTION ( 'NONE',  ( 0.000000000000000000, 0.000000000000000000, 1.000000000000000000 ) ) ;
#494 = ORIENTED_EDGE ( 'NONE', *, *, #213, .F. ) ;
#495 = AXIS2_PLACEMENT_3D ( 'NONE', #121, #174, #279 ) ;
#496 = DIRECTION ( 'NONE',  ( 1.000000000000000000, -0.000000000000000000, 0.000000000000000000 ) ) ;
#497 = DIRECTION ( 'NONE',  ( 0.000000000000000000, -1.000000000000000000, 0.000000000000000000 ) ) ;
#498 = ORIENTED_EDGE ( 'NONE', *, *, #175, .T. ) ;
#499 = CARTESIAN_POINT ( 'NONE',  ( -125.0000000000000000, 5.510910596163089556E-15, -45.00000000000000000 ) ) ;
#500 = CARTESIAN_POINT ( 'NONE',  ( -100.0000000000000284, 0.000000000000000000, 0.000000000000000000 ) ) ;
#501 = ORIENTED_EDGE ( 'NONE', *, *, #48, .F. ) ;
#502 = CARTESIAN_POINT ( 'NONE',  ( -100.0000000000000284, -17.49999999999999645, 41.45780987944248608 ) ) ;
#503 = CARTESIAN_POINT ( 'NONE',  ( -125.0000000000000000, 4.898587196589413026E-15, -40.00000000000000000 ) ) ;
#504 = EDGE_CURVE ( 'NONE', #10, #73, #49, .T. ) ;
#505 = CARTESIAN_POINT ( 'NONE',  ( 125.0000000000000000, 0.000000000000000000, 0.000000000000000000 ) ) ;
#506 = LINE ( 'NONE', #333, #320 ) ;
#507 = ORIENTED_EDGE ( 'NONE', *, *, #132, .T. ) ;
#508 = PLANE ( 'NONE',  #368 ) ;
#509 = DIRECTION ( 'NONE',  ( 0.000000000000000000, -0.9994547975393768269, -0.03301677869694826656 ) ) ;
#510 = ORIENTED_EDGE ( 'NONE', *, *, #54, .F. ) ;
#511 = EDGE_CURVE ( 'NONE', #346, #688, #387, .T. ) ;
#512 = DIRECTION ( 'NONE',  ( -0.000000000000000000, 0.9994547975393769379, 0.03301677869694706613 ) ) ;
#513 = VERTEX_POINT ( 'NONE', #502 ) ;
#514 = VECTOR ( 'NONE', #595, 1000.000000000000227 ) ;
#515 = VECTOR ( 'NONE', #290, 1000.000000000000000 ) ;
#516 = SURFACE_STYLE_USAGE ( .BOTH. , #189 ) ;
#517 = CIRCLE ( 'NONE', #1, 45.00000000000000000 ) ;
#518 = CARTESIAN_POINT ( 'NONE',  ( 125.0000000000000000, -39.97819190157509439, -1.320671147877883200 ) ) ;
#519 = ADVANCED_FACE ( 'NONE', ( #165 ), #62, .F. ) ;
#520 = ORIENTED_EDGE ( 'NONE', *, *, #281, .F. ) ;
#521 = FILL_AREA_STYLE ('',( #629 ) ) ;
#522 = DIRECTION ( 'NONE',  ( -1.000000000000000000, -0.000000000000000000, -0.000000000000000000 ) ) ;
#523 = EDGE_LOOP ( 'NONE', ( #510, #436, #430, #340, #22, #284, #199, #444 ) ) ;
#524 = DIRECTION ( 'NONE',  ( 1.000000000000000000, -0.000000000000000000, 0.000000000000000000 ) ) ;
#525 = ORIENTED_EDGE ( 'NONE', *, *, #646, .F. ) ;
#526 = EDGE_CURVE ( 'NONE', #635, #357, #285, .T. ) ;
#527 = VECTOR ( 'NONE', #99, 1000.000000000000000 ) ;
#528 = VECTOR ( 'NONE', #707, 1000.000000000000000 ) ;
#529 = DIRECTION ( 'NONE',  ( 0.000000000000000000, 0.000000000000000000, 1.000000000000000000 ) ) ;
#530 = CYLINDRICAL_SURFACE ( 'NONE', #696, 45.00000000000000000 ) ;
#531 = PRODUCT_DEFINITION_SHAPE ( 'NONE', 'NONE',  #235 ) ;
#532 = CIRCLE ( 'NONE', #151, 45.00000000000000000 ) ;
#533 = EDGE_LOOP ( 'NONE', ( #700, #417, #105, #413 ) ) ;
#534 =( NAMED_UNIT ( * ) PLANE_ANGLE_UNIT ( ) SI_UNIT ( $, .RADIAN. ) );
#535 = CARTESIAN_POINT ( 'NONE',  ( 99.99999999999998579, 0.000000000000000000, 0.000000000000000000 ) ) ;
#536 = ORIENTED_EDGE ( 'NONE', *, *, #135, .F. ) ;
#537 = DIRECTION ( 'NONE',  ( 1.000000000000000000, 0.000000000000000000, 0.000000000000000000 ) ) ;
#538 = CARTESIAN_POINT ( 'NONE',  ( -125.0000000000000000, 0.000000000000000000, 0.000000000000000000 ) ) ;
#539 = EDGE_CURVE ( 'NONE', #712, #443, #605, .T. ) ;
#540 = ORIENTED_EDGE ( 'NONE', *, *, #262, .F. ) ;
#541 = AXIS2_PLACEMENT_3D ( 'NONE', #627, #509, #79 ) ;
#542 = DIRECTION ( 'NONE',  ( 1.000000000000000000, -0.000000000000000000, 0.000000000000000000 ) ) ;
#543 = PRODUCT_RELATED_PRODUCT_CATEGORY ( 'part', '', ( #421 ) ) ;
#544 = ORIENTED_EDGE ( 'NONE', *, *, #311, .F. ) ;
#545 = VECTOR ( 'NONE', #630, 1000.000000000000000 ) ;
#546 = LINE ( 'NONE', #374, #527 ) ;
#547 = ORIENTED_EDGE ( 'NONE', *, *, #31, .T. ) ;
#548 = FACE_OUTER_BOUND ( 'NONE', #195, .T. ) ;
#549 = CARTESIAN_POINT ( 'NONE',  ( -100.0000000000000284, 0.000000000000000000, 40.00000000000000000 ) ) ;
#550 = DIRECTION ( 'NONE',  ( -0.000000000000000000, -0.000000000000000000, 1.000000000000000000 ) ) ;
#551 = AXIS2_PLACEMENT_3D ( 'NONE', #434, #445, #658 ) ;
#552 = FACE_OUTER_BOUND ( 'NONE', #656, .T. ) ;
#553 = ORIENTED_EDGE ( 'NONE', *, *, #644, .F. ) ;
#554 = CIRCLE ( 'NONE', #649, 40.00000000000000000 ) ;
#555 = DIRECTION ( 'NONE',  ( 0.000000000000000000, -0.000000000000000000, -1.000000000000000000 ) ) ;
#556 = CARTESIAN_POINT ( 'NONE',  ( 125.0000000000000000, 5.510910596163089556E-15, -45.00000000000000000 ) ) ;
#557 = VERTEX_POINT ( 'NONE', #280 ) ;
#558 = CARTESIAN_POINT ( 'NONE',  ( 99.99999999999998579, 17.50000000000000000, -45.00000000000000000 ) ) ;
#559 = EDGE_CURVE ( 'NONE', #688, #126, #588, .T. ) ;
#560 = DIRECTION ( 'NONE',  ( 1.000000000000000000, 0.000000000000000000, 0.000000000000000000 ) ) ;
#561 = EDGE_CURVE ( 'NONE', #702, #620, #275, .T. ) ;
#562 = ORIENTED_EDGE ( 'NONE', *, *, #57, .T. ) ;
#563 = DIRECTION ( 'NONE',  ( -1.000000000000000000, -0.000000000000000000, -0.000000000000000000 ) ) ;
#564 = LINE ( 'NONE', #289, #210 ) ;
#565 = CIRCLE ( 'NONE', #577, 40.00000000000000000 ) ;
#566 = ORIENTED_EDGE ( 'NONE', *, *, #526, .F. ) ;
#567 = DIRECTION ( 'NONE',  ( 1.000000000000000000, 0.000000000000000000, 0.000000000000000000 ) ) ;
#568 = CARTESIAN_POINT ( 'NONE',  ( 125.0000000000000000, 5.510910596163089556E-15, -45.00000000000000000 ) ) ;
#569 = ORIENTED_EDGE ( 'NONE', *, *, #265, .T. ) ;
#570 = CARTESIAN_POINT ( 'NONE',  ( 125.0000000000000000, 0.000000000000000000, 40.00000000000000000 ) ) ;
#571 = DIRECTION ( 'NONE',  ( 0.000000000000000000, 0.000000000000000000, 1.000000000000000000 ) ) ;
#572 = ORIENTED_EDGE ( 'NONE', *, *, #386, .T. ) ;
#573 = EDGE_CURVE ( 'NONE', #710, #349, #106, .T. ) ;
#574 = CARTESIAN_POINT ( 'NONE',  ( -125.0000000000000000, 0.000000000000000000, 0.000000000000000000 ) ) ;
#575 = PLANE ( 'NONE',  #670 ) ;
#576 = ORIENTED_EDGE ( 'NONE', *, *, #697, .F. ) ;
#577 = AXIS2_PLACEMENT_3D ( 'NONE', #669, #618, #117 ) ;
#578 = AXIS2_PLACEMENT_3D ( 'NONE', #505, #123, #693 ) ;
#579 = LINE ( 'NONE', #397, #426 ) ;
#580 = CARTESIAN_POINT ( 'NONE',  ( -100.0000000000000142, 17.50000000000000000, -45.00000000000000000 ) ) ;
#581 = ORIENTED_EDGE ( 'NONE', *, *, #614, .F. ) ;
#582 = CARTESIAN_POINT ( 'NONE',  ( -125.0000000000000000, 0.000000000000000000, 0.000000000000000000 ) ) ;
#583 = EDGE_CURVE ( 'NONE', #688, #513, #715, .T. ) ;
#584 = VERTEX_POINT ( 'NONE', #15 ) ;
#585 = LINE ( 'NONE', #370, #329 ) ;
#586 = CARTESIAN_POINT ( 'NONE',  ( -100.0000000000000142, 17.50000000000000000, -45.00000000000000000 ) ) ;
#587 = ORIENTED_EDGE ( 'NONE', *, *, #229, .T. ) ;
#588 = CIRCLE ( 'NONE', #683, 40.00000000000000000 ) ;
#589 = MECHANICAL_DESIGN_GEOMETRIC_PRESENTATION_REPRESENTATION (  '', ( #671 ), #268 ) ;
#590 = CARTESIAN_POINT ( 'NONE',  ( 125.0000000000000000, 4.898587196589413026E-15, -40.00000000000000000 ) ) ;
#591 = CYLINDRICAL_SURFACE ( 'NONE', #610, 45.00000000000000000 ) ;
#592 = VERTEX_POINT ( 'NONE', #350 ) ;
#593 = EDGE_CURVE ( 'NONE', #258, #427, #68, .T. ) ;
#594 = DIRECTION ( 'NONE',  ( 0.000000000000000000, -0.03301677869694826656, 0.9994547975393768269 ) ) ;
#595 = DIRECTION ( 'NONE',  ( 0.000000000000000000, 0.03301677869694705919, -0.9994547975393768269 ) ) ;
#596 = VERTEX_POINT ( 'NONE', #247 ) ;
#597 = ADVANCED_FACE ( 'NONE', ( #193, #406 ), #179, .F. ) ;
#598 = LINE ( 'NONE', #96, #148 ) ;
#599 = ORIENTED_EDGE ( 'NONE', *, *, #159, .F. ) ;
#600 = CIRCLE ( 'NONE', #288, 40.00000000000000000 ) ;
#601 = DIRECTION ( 'NONE',  ( -0.000000000000000000, -0.000000000000000000, 1.000000000000000000 ) ) ;
#602 = ORIENTED_EDGE ( 'NONE', *, *, #646, .T. ) ;
#603 = LINE ( 'NONE', #173, #378 ) ;
#604 = DIRECTION ( 'NONE',  ( 0.000000000000000000, 0.000000000000000000, -1.000000000000000000 ) ) ;
#605 = LINE ( 'NONE', #332, #219 ) ;
#606 = DIRECTION ( 'NONE',  ( 0.000000000000000000, 0.000000000000000000, -1.000000000000000000 ) ) ;
#607 = EDGE_LOOP ( 'NONE', ( #76, #448, #87, #479, #685, #167, #547, #433, #119, #650, #540, #143 ) ) ;
#608 = DIRECTION ( 'NONE',  ( 1.000000000000000000, 0.000000000000000000, 0.000000000000000000 ) ) ;
#609 = MANIFOLD_SOLID_BREP ( 'Cut-Extrude1', #418 ) ;
#610 = AXIS2_PLACEMENT_3D ( 'NONE', #432, #144, #307 ) ;
#611 = PRESENTATION_LAYER_ASSIGNMENT (  '', '', ( #671 ) ) ;
#612 = LINE ( 'NONE', #395, #220 ) ;
#613 = ORIENTED_EDGE ( 'NONE', *, *, #462, .T. ) ;
#614 = EDGE_CURVE ( 'NONE', #712, #663, #294, .T. ) ;
#615 = EDGE_CURVE ( 'NONE', #258, #134, #579, .T. ) ;
#616 = DIRECTION ( 'NONE',  ( -1.000000000000000000, -0.000000000000000000, -0.000000000000000000 ) ) ;
#617 = LINE ( 'NONE', #556, #686 ) ;
#618 = DIRECTION ( 'NONE',  ( 1.000000000000000000, 0.000000000000000000, 0.000000000000000000 ) ) ;
#619 = LINE ( 'NONE', #324, #428 ) ;
#620 = VERTEX_POINT ( 'NONE', #237 ) ;
#621 = LINE ( 'NONE', #241, #684 ) ;
#622 = CARTESIAN_POINT ( 'NONE',  ( 99.99999999999998579, -17.50000000000000000, 41.45780987944246476 ) ) ;
#623 = CIRCLE ( 'NONE', #306, 45.00000000000000000 ) ;
#624 = AXIS2_PLACEMENT_3D ( 'NONE', #680, #454, #678 ) ;
#625 = AXIS2_PLACEMENT_3D ( 'NONE', #388, #233, #604 ) ;
#626 = CARTESIAN_POINT ( 'NONE',  ( -100.0000000000000142, 17.50000000000000000, -45.00000000000000000 ) ) ;
#627 = CARTESIAN_POINT ( 'NONE',  ( 125.0000000000000000, -34.98091791387818006, -1.155587254393189101 ) ) ;
#628 = EDGE_LOOP ( 'NONE', ( #292, #67, #494, #420, #50, #2, #252, #130 ) ) ;
#629 = FILL_AREA_STYLE_COLOUR ( '', #460 ) ;
#630 = DIRECTION ( 'NONE',  ( -0.000000000000000000, -0.000000000000000000, 1.000000000000000000 ) ) ;
#631 = VERTEX_POINT ( 'NONE', #470 ) ;
#632 = APPLICATION_CONTEXT ( 'automotive_design' ) ;
#633 = SURFACE_STYLE_FILL_AREA ( #521 ) ;
#634 = FACE_OUTER_BOUND ( 'NONE', #533, .T. ) ;
#635 = VERTEX_POINT ( 'NONE', #402 ) ;
#636 = VECTOR ( 'NONE', #315, 1000.000000000000000 ) ;
#637 = DIRECTION ( 'NONE',  ( 0.000000000000000000, 0.03301677869694705919, -0.9994547975393768269 ) ) ;
#638 = DIRECTION ( 'NONE',  ( -1.000000000000000000, -0.000000000000000000, -0.000000000000000000 ) ) ;
#639 = VERTEX_POINT ( 'NONE', #82 ) ;
#640 = CARTESIAN_POINT ( 'NONE',  ( 99.99999999999998579, -17.50000000000000000, -35.96873642484539602 ) ) ;
#641 = ORIENTED_EDGE ( 'NONE', *, *, #336, .F. ) ;
#642 = DIRECTION ( 'NONE',  ( 0.000000000000000000, 0.000000000000000000, 1.000000000000000000 ) ) ;
#643 = CARTESIAN_POINT ( 'NONE',  ( 125.0000000000000000, 0.000000000000000000, 0.000000000000000000 ) ) ;
#644 = EDGE_CURVE ( 'NONE', #379, #158, #141, .T. ) ;
#645 = ORIENTED_EDGE ( 'NONE', *, *, #336, .T. ) ;
#646 = EDGE_CURVE ( 'NONE', #677, #663, #91, .T. ) ;
#647 = VECTOR ( 'NONE', #637, 1000.000000000000227 ) ;
#648 = FACE_OUTER_BOUND ( 'NONE', #523, .T. ) ;
#649 = AXIS2_PLACEMENT_3D ( 'NONE', #166, #659, #228 ) ;
#650 = ORIENTED_EDGE ( 'NONE', *, *, #464, .F. ) ;
#651 = EDGE_CURVE ( 'NONE', #596, #584, #621, .T. ) ;
#652 = CARTESIAN_POINT ( 'NONE',  ( 125.0000000000000000, 0.000000000000000000, 0.000000000000000000 ) ) ;
#653 = DIRECTION ( 'NONE',  ( 0.000000000000000000, 0.000000000000000000, -1.000000000000000000 ) ) ;
#654 = ORIENTED_EDGE ( 'NONE', *, *, #301, .F. ) ;
#655 = CARTESIAN_POINT ( 'NONE',  ( 125.0000000000000000, 0.000000000000000000, 40.00000000000000000 ) ) ;
#656 = EDGE_LOOP ( 'NONE', ( #33, #170, #553, #572 ) ) ;
#657 = VECTOR ( 'NONE', #442, 1000.000000000000000 ) ;
#658 = DIRECTION ( 'NONE',  ( 0.000000000000000000, 0.000000000000000000, -1.000000000000000000 ) ) ;
#659 = DIRECTION ( 'NONE',  ( -1.000000000000000000, -0.000000000000000000, -0.000000000000000000 ) ) ;
#660 = PRODUCT_DEFINITION_CONTEXT ( 'detailed design', #110, 'design' ) ;
#661 = CARTESIAN_POINT ( 'NONE',  ( 125.0000000000000000, 4.898587196589413026E-15, -40.00000000000000000 ) ) ;
#662 = PLANE ( 'NONE',  #673 ) ;
#663 = VERTEX_POINT ( 'NONE', #196 ) ;
#664 = DIRECTION ( 'NONE',  ( 0.000000000000000000, 0.000000000000000000, -1.000000000000000000 ) ) ;
#665 = ORIENTED_EDGE ( 'NONE', *, *, #483, .T. ) ;
#666 = EDGE_CURVE ( 'NONE', #513, #30, #355, .T. ) ;
#667 = ORIENTED_EDGE ( 'NONE', *, *, #561, .F. ) ;
#668 = ADVANCED_FACE ( 'NONE', ( #415 ), #456, .F. ) ;
#669 = CARTESIAN_POINT ( 'NONE',  ( 99.99999999999998579, 0.000000000000000000, 0.000000000000000000 ) ) ;
#670 = AXIS2_PLACEMENT_3D ( 'NONE', #304, #300, #455 ) ;
#671 = STYLED_ITEM ( 'NONE', ( #24 ), #609 ) ;
#672 = CARTESIAN_POINT ( 'NONE',  ( 99.99999999999998579, 17.50000000000000000, 35.96873642484536759 ) ) ;
#673 = AXIS2_PLACEMENT_3D ( 'NONE', #66, #497, #286 ) ;
#674 = ADVANCED_FACE ( 'NONE', ( #74 ), #508, .F. ) ;
#675 = CARTESIAN_POINT ( 'NONE',  ( -100.0000000000000000, 17.49999999999999645, 35.96873642484538891 ) ) ;
#676 = DIRECTION ( 'NONE',  ( 0.000000000000000000, 0.000000000000000000, -1.000000000000000000 ) ) ;
#677 = VERTEX_POINT ( 'NONE', #570 ) ;
#678 = DIRECTION ( 'NONE',  ( 0.000000000000000000, 0.000000000000000000, -1.000000000000000000 ) ) ;
#679 = DIRECTION ( 'NONE',  ( -1.000000000000000000, -0.000000000000000000, -0.000000000000000000 ) ) ;
#680 = CARTESIAN_POINT ( 'NONE',  ( 99.99999999999998579, 17.50000000000000000, -45.00000000000000000 ) ) ;
#681 = DIRECTION ( 'NONE',  ( 0.000000000000000000, 0.000000000000000000, 1.000000000000000000 ) ) ;
#682 = EDGE_CURVE ( 'NONE', #453, #379, #242, .T. ) ;
#683 = AXIS2_PLACEMENT_3D ( 'NONE', #232, #394, #711 ) ;
#684 = VECTOR ( 'NONE', #567, 1000.000000000000000 ) ;
#685 = ORIENTED_EDGE ( 'NONE', *, *, #155, .F. ) ;
#686 = VECTOR ( 'NONE', #222, 1000.000000000000000 ) ;
#687 = CARTESIAN_POINT ( 'NONE',  ( 125.0000000000000000, 0.000000000000000000, 0.000000000000000000 ) ) ;
#688 = VERTEX_POINT ( 'NONE', #41 ) ;
#689 =( LENGTH_UNIT ( ) NAMED_UNIT ( * ) SI_UNIT ( .MILLI., .METRE. ) );
#690 = DIRECTION ( 'NONE',  ( -1.000000000000000000, -0.000000000000000000, -0.000000000000000000 ) ) ;
#691 = EDGE_LOOP ( 'NONE', ( #472, #599, #64, #396 ) ) ;
#692 = ADVANCED_FACE ( 'NONE', ( #706 ), #150, .F. ) ;
#693 = DIRECTION ( 'NONE',  ( 0.000000000000000000, 0.000000000000000000, -1.000000000000000000 ) ) ;
#694 = DIRECTION ( 'NONE',  ( 1.000000000000000000, -0.000000000000000000, 0.000000000000000000 ) ) ;
#695 = EDGE_LOOP ( 'NONE', ( #97, #47, #475, #271, #405, #61, #484, #490 ) ) ;
#696 = AXIS2_PLACEMENT_3D ( 'NONE', #37, #257, #39 ) ;
#697 = EDGE_CURVE ( 'NONE', #443, #639, #585, .T. ) ;
#698 = APPLICATION_PROTOCOL_DEFINITION ( 'draft international standard', 'automotive_design', 1998, #110 ) ;
#699 = CARTESIAN_POINT ( 'NONE',  ( -125.0000000000000000, 0.000000000000000000, 0.000000000000000000 ) ) ;
#700 = ORIENTED_EDGE ( 'NONE', *, *, #360, .T. ) ;
#701 = CARTESIAN_POINT ( 'NONE',  ( -125.0000000000000000, 0.000000000000000000, 0.000000000000000000 ) ) ;
#702 = VERTEX_POINT ( 'NONE', #35 ) ;
#703 = DIRECTION ( 'NONE',  ( 0.000000000000000000, 0.000000000000000000, 1.000000000000000000 ) ) ;
#704 = ORIENTED_EDGE ( 'NONE', *, *, #104, .F. ) ;
#705 = CIRCLE ( 'NONE', #353, 40.00000000000000000 ) ;
#706 = FACE_OUTER_BOUND ( 'NONE', #628, .T. ) ;
#707 = DIRECTION ( 'NONE',  ( -1.000000000000000000, -0.000000000000000000, -0.000000000000000000 ) ) ;
#708 = ORIENTED_EDGE ( 'NONE', *, *, #27, .T. ) ;
#709 = DIRECTION ( 'NONE',  ( -1.000000000000000000, -0.000000000000000000, -0.000000000000000000 ) ) ;
#710 = VERTEX_POINT ( 'NONE', #590 ) ;
#711 = DIRECTION ( 'NONE',  ( 0.000000000000000000, 0.000000000000000000, 1.000000000000000000 ) ) ;
#712 = VERTEX_POINT ( 'NONE', #303 ) ;
#713 = CIRCLE ( 'NONE', #401, 40.00000000000000000 ) ;
#714 = PRODUCT_DEFINITION_FORMATION_WITH_SPECIFIED_SOURCE ( 'Symmetric', '', #421, .NOT_KNOWN. ) ;
#715 = LINE ( 'NONE', #108, #240 ) ;
ENDSEC;
END-ISO-10303-21;
