ISO-10303-21;
HEADER;
FILE_DESCRIPTION (( 'STEP AP214' ),
    '1' );
FILE_NAME ('Left Wing.STEP',
    '2026-04-30T22:21:28',
    ( '' ),
    ( '' ),
    'SwSTEP 2.0',
    'SolidWorks 2026',
    '' );
FILE_SCHEMA (( 'AUTOMOTIVE_DESIGN' ));
ENDSEC;

DATA;
#1 = ADVANCED_BREP_SHAPE_REPRESENTATION ( 'Left Wing', ( #78, #31 ), #378 ) ;
#2 = LINE ( 'NONE', #701, #281 ) ;
#3 = CARTESIAN_POINT ( 'NONE',  ( -83.47117944608008600, -17.48874402754141499, -186.0966860321654792 ) ) ;
#4 = EDGE_CURVE ( 'NONE', #354, #382, #758, .T. ) ;
#5 = VERTEX_POINT ( 'NONE', #381 ) ;
#6 = CARTESIAN_POINT ( 'NONE',  ( -99.61936498898627690, -5.038771553870023290, -198.7799293110839187 ) ) ;
#7 = EDGE_CURVE ( 'NONE', #532, #407, #728, .T. ) ;
#8 = CARTESIAN_POINT ( 'NONE',  ( -83.40843789216918935, -17.49086496806832614, -186.1289573695850379 ) ) ;
#9 = ORIENTED_EDGE ( 'NONE', *, *, #16, .T. ) ;
#10 = DIRECTION ( 'NONE',  ( -1.000000000000000000, 0.000000000000000000, 0.000000000000000000 ) ) ;
#11 = APPLICATION_CONTEXT ( 'automotive_design' ) ;
#12 = FILL_AREA_STYLE ('',( #75 ) ) ;
#13 = ORIENTED_EDGE ( 'NONE', *, *, #750, .T. ) ;
#14 = PLANE ( 'NONE',  #784 ) ;
#15 = VECTOR ( 'NONE', #601, 1000.000000000000000 ) ;
#16 = EDGE_CURVE ( 'NONE', #525, #543, #739, .T. ) ;
#17 = DIRECTION ( 'NONE',  ( -1.000000000000000000, 0.000000000000000000, 0.000000000000000000 ) ) ;
#18 = ORIENTED_EDGE ( 'NONE', *, *, #270, .F. ) ;
#19 = CARTESIAN_POINT ( 'NONE',  ( -99.83806010860976698, 4.242914932997792654, -199.4809250091701358 ) ) ;
#20 = CARTESIAN_POINT ( 'NONE',  ( 99.99999999999957367, -5.000000000000017764, 110.0000000000000426 ) ) ;
#21 = FACE_OUTER_BOUND ( 'NONE', #740, .T. ) ;
#22 = ORIENTED_EDGE ( 'NONE', *, *, #220, .T. ) ;
#23 = APPLICATION_PROTOCOL_DEFINITION ( 'draft international standard', 'automotive_design', 1998, #11 ) ;
#24 = PLANE ( 'NONE',  #244 ) ;
#25 = CARTESIAN_POINT ( 'NONE',  ( -82.84015176117839019, -2.255140518769849223E-14, -200.0000000000000000 ) ) ;
#26 = EDGE_LOOP ( 'NONE', ( #268, #165, #272, #435 ) ) ;
#27 = EDGE_CURVE ( 'NONE', #382, #361, #377, .T. ) ;
#28 = DIRECTION ( 'NONE',  ( -1.000000000000000000, 0.000000000000000000, 0.000000000000000000 ) ) ;
#29 = PRODUCT ( 'Left Wing', 'Left Wing', '', ( #794 ) ) ;
#30 = CARTESIAN_POINT ( 'NONE',  ( 52.50000000000000711, 3.061616997868386099E-16, -200.0000000000000000 ) ) ;
#31 = AXIS2_PLACEMENT_3D ( 'NONE', #340, #283, #591 ) ;
#32 = ORIENTED_EDGE ( 'NONE', *, *, #680, .F. ) ;
#33 = APPLICATION_PROTOCOL_DEFINITION ( 'draft international standard', 'automotive_design', 1998, #808 ) ;
#34 = EDGE_CURVE ( 'NONE', #190, #311, #498, .T. ) ;
#35 = DIRECTION ( 'NONE',  ( -0.000000000000000000, -0.000000000000000000, -1.000000000000000000 ) ) ;
#36 = FACE_OUTER_BOUND ( 'NONE', #684, .T. ) ;
#37 = ORIENTED_EDGE ( 'NONE', *, *, #835, .T. ) ;
#38 = LINE ( 'NONE', #226, #836 ) ;
#39 = CARTESIAN_POINT ( 'NONE',  ( 50.00000000000000000, 0.000000000000000000, -150.0000000000000284 ) ) ;
#40 = ORIENTED_EDGE ( 'NONE', *, *, #447, .T. ) ;
#41 = CARTESIAN_POINT ( 'NONE',  ( -83.03750099752141978, 17.49894839672718660, -186.5459779297745229 ) ) ;
#42 = CIRCLE ( 'NONE', #388, 2.500000000000002220 ) ;
#43 = DIRECTION ( 'NONE',  ( -0.000000000000000000, -0.000000000000000000, 1.000000000000000000 ) ) ;
#44 = VERTEX_POINT ( 'NONE', #440 ) ;
#45 = CARTESIAN_POINT ( 'NONE',  ( 100.0000000000000000, 5.000000000000012434, -200.0000000000000000 ) ) ;
#46 = ORIENTED_EDGE ( 'NONE', *, *, #7, .F. ) ;
#47 = CARTESIAN_POINT ( 'NONE',  ( -95.96448438871109943, 11.58496628741383461, -192.2394132932776358 ) ) ;
#48 = CARTESIAN_POINT ( 'NONE',  ( 100.0000000000000000, -0.3794404183931309182, 200.0000000000000000 ) ) ;
#49 = ORIENTED_EDGE ( 'NONE', *, *, #155, .F. ) ;
#50 = CARTESIAN_POINT ( 'NONE',  ( -83.23734362398099051, 17.49555031573109076, -186.2595659199780584 ) ) ;
#51 = DIRECTION ( 'NONE',  ( -1.000000000000000000, 0.000000000000000000, 0.000000000000000000 ) ) ;
#52 = MECHANICAL_DESIGN_GEOMETRIC_PRESENTATION_REPRESENTATION (  '', ( #109 ), #81 ) ;
#53 = VECTOR ( 'NONE', #552, 1000.000000000000000 ) ;
#54 = CARTESIAN_POINT ( 'NONE',  ( -98.21752812341314609, -8.363998221544449052, -195.2265724574917840 ) ) ;
#55 = CARTESIAN_POINT ( 'NONE',  ( -89.78987747710169742, 16.09224394955622728, -187.9912044776474147 ) ) ;
#56 = VECTOR ( 'NONE', #519, 1000.000000000000000 ) ;
#57 = EDGE_CURVE ( 'NONE', #543, #190, #792, .T. ) ;
#58 = CARTESIAN_POINT ( 'NONE',  ( 50.00000000000000000, 0.000000000000000000, -150.0000000000000284 ) ) ;
#59 = CARTESIAN_POINT ( 'NONE',  ( 94.63308709453529843, -5.366912905464734429, -110.0000000000000142 ) ) ;
#60 = VERTEX_POINT ( 'NONE', #465 ) ;
#61 = DIRECTION ( 'NONE',  ( 0.000000000000000000, 0.000000000000000000, -1.000000000000000000 ) ) ;
#62 = DIRECTION ( 'NONE',  ( -0.000000000000000000, -0.000000000000000000, -1.000000000000000000 ) ) ;
#63 = ORIENTED_EDGE ( 'NONE', *, *, #304, .F. ) ;
#64 = CARTESIAN_POINT ( 'NONE',  ( 100.0000000000000000, -0.3794404183931309182, 200.0000000000000000 ) ) ;
#65 = CARTESIAN_POINT ( 'NONE',  ( 0.000000000000000000, 0.000000000000000000, -200.0000000000000000 ) ) ;
#66 = AXIS2_PLACEMENT_3D ( 'NONE', #280, #530, #394 ) ;
#67 = AXIS2_PLACEMENT_3D ( 'NONE', #600, #409, #460 ) ;
#68 = ADVANCED_FACE ( 'NONE', ( #731 ), #342, .F. ) ;
#69 = VERTEX_POINT ( 'NONE', #727 ) ;
#70 = DIRECTION ( 'NONE',  ( 0.2977591233433190543, -0.02035651910119314414, 0.9544239710924600217 ) ) ;
#71 = AXIS2_PLACEMENT_3D ( 'NONE', #393, #567, #445 ) ;
#72 = CARTESIAN_POINT ( 'NONE',  ( -84.63824659536517458, -17.40791587668508811, -186.0498820595636289 ) ) ;
#73 = ORIENTED_EDGE ( 'NONE', *, *, #802, .T. ) ;
#74 = CARTESIAN_POINT ( 'NONE',  ( -99.34500689923761740, -5.817194931552537085, -197.9005139817428471 ) ) ;
#75 = FILL_AREA_STYLE_COLOUR ( '', #501 ) ;
#76 = ORIENTED_EDGE ( 'NONE', *, *, #4, .T. ) ;
#77 = DIRECTION ( 'NONE',  ( 0.000000000000000000, 0.000000000000000000, -1.000000000000000000 ) ) ;
#78 = MANIFOLD_SOLID_BREP ( 'Cut-Extrude4', #451 ) ;
#79 = ORIENTED_EDGE ( 'NONE', *, *, #531, .F. ) ;
#80 = DIRECTION ( 'NONE',  ( 0.7071067811865477948, -0.7071067811865473507, 0.000000000000000000 ) ) ;
#81 =( GEOMETRIC_REPRESENTATION_CONTEXT ( 3 ) GLOBAL_UNCERTAINTY_ASSIGNED_CONTEXT ( ( #637 ) ) GLOBAL_UNIT_ASSIGNED_CONTEXT ( ( #581, #458, #338 ) ) REPRESENTATION_CONTEXT ( 'NONE', 'WORKASPACE' ) );
#82 = CARTESIAN_POINT ( 'NONE',  ( 47.50000000000000000, 0.000000000000000000, -150.0000000000000284 ) ) ;
#83 = CARTESIAN_POINT ( 'NONE',  ( -5.000000000000000000, 0.000000000000000000, -150.0000000000000284 ) ) ;
#84 = ORIENTED_EDGE ( 'NONE', *, *, #710, .F. ) ;
#85 = DIRECTION ( 'NONE',  ( -0.000000000000000000, -0.000000000000000000, -1.000000000000000000 ) ) ;
#86 = EDGE_CURVE ( 'NONE', #420, #392, #715, .T. ) ;
#87 = DIRECTION ( 'NONE',  ( -1.000000000000000000, 0.000000000000000000, 0.000000000000000000 ) ) ;
#88 = EDGE_LOOP ( 'NONE', ( #722, #300, #134, #767 ) ) ;
#89 = DIRECTION ( 'NONE',  ( 0.000000000000000000, 0.000000000000000000, -1.000000000000000000 ) ) ;
#90 = CARTESIAN_POINT ( 'NONE',  ( 38.18003527604806635, 9.226366865297441322, 200.0000000000000000 ) ) ;
#91 = DIRECTION ( 'NONE',  ( 0.000000000000000000, 0.000000000000000000, -1.000000000000000000 ) ) ;
#92 = EDGE_CURVE ( 'NONE', #69, #599, #608, .T. ) ;
#93 = EDGE_LOOP ( 'NONE', ( #328, #168, #22, #417, #339, #466, #536, #303, #459 ) ) ;
#94 = EDGE_CURVE ( 'NONE', #398, #823, #161, .T. ) ;
#95 = CIRCLE ( 'NONE', #752, 2.500000000000002220 ) ;
#96 = CARTESIAN_POINT ( 'NONE',  ( -82.84015176117840440, -17.50000000000003553, -200.0000000000000000 ) ) ;
#97 = CIRCLE ( 'NONE', #324, 2.500000000000002220 ) ;
#98 = CARTESIAN_POINT ( 'NONE',  ( 79.35030686659132471, -6.411731294692638805, 110.0000000000000142 ) ) ;
#99 = ORIENTED_EDGE ( 'NONE', *, *, #670, .F. ) ;
#100 = CARTESIAN_POINT ( 'NONE',  ( -99.34500689923761740, -5.817194931552537085, -197.9005139817428471 ) ) ;
#101 =( BOUNDED_CURVE ( )  B_SPLINE_CURVE ( 3, ( #791, #806, #232, #418 ),
 .UNSPECIFIED., .F., .F. ) 
 B_SPLINE_CURVE_WITH_KNOTS ( ( 4, 4 ),
 ( 4.487940798217945115, 4.712388980384549342 ),
 .UNSPECIFIED. ) 
 CURVE ( )  GEOMETRIC_REPRESENTATION_ITEM ( )  RATIONAL_B_SPLINE_CURVE ( ( 1.000000000000000000, 0.9958063219178139303, 0.9958063219178139303, 1.000000000000000000 ) ) 
 REPRESENTATION_ITEM ( '' )  );
#102 = LINE ( 'NONE', #45, #542 ) ;
#103 = ORIENTED_EDGE ( 'NONE', *, *, #178, .F. ) ;
#104 = ADVANCED_FACE ( 'NONE', ( #516 ), #721, .F. ) ;
#105 = CARTESIAN_POINT ( 'NONE',  ( -94.68042297183313849, 12.91969359890426006, -191.0505011499735986 ) ) ;
#106 = LINE ( 'NONE', #170, #201 ) ;
#107 = ORIENTED_EDGE ( 'NONE', *, *, #835, .F. ) ;
#108 = CARTESIAN_POINT ( 'NONE',  ( -92.40725560786911785, 14.66154374131506799, -189.4535949589735537 ) ) ;
#109 = STYLED_ITEM ( 'NONE', ( #652 ), #78 ) ;
#110 = AXIS2_PLACEMENT_3D ( 'NONE', #58, #834, #568 ) ;
#111 = DIRECTION ( 'NONE',  ( -1.000000000000000000, 0.000000000000000000, 0.000000000000000000 ) ) ;
#112 = ORIENTED_EDGE ( 'NONE', *, *, #617, .T. ) ;
#113 = CARTESIAN_POINT ( 'NONE',  ( -70.64386498825467697, -16.66619198139437330, -148.8193338085204118 ) ) ;
#114 = DIRECTION ( 'NONE',  ( -0.2977591233433190543, 0.02035651910119314761, -0.9544239710924600217 ) ) ;
#115 = VERTEX_POINT ( 'NONE', #30 ) ;
#116 = CARTESIAN_POINT ( 'NONE',  ( -82.94494716889578001, 17.49974741631796604, -186.8080064216866276 ) ) ;
#117 = DIRECTION ( 'NONE',  ( 0.9976712237790652527, 0.06820651906659734587, -0.000000000000000000 ) ) ;
#118 = CARTESIAN_POINT ( 'NONE',  ( 31.72867368829635737, 9.667418893914375033, 200.0000000000000000 ) ) ;
#119 = EDGE_CURVE ( 'NONE', #277, #482, #656, .T. ) ;
#120 = CARTESIAN_POINT ( 'NONE',  ( -96.82706837103616238, 10.52666187933804487, -193.1920373455663480 ) ) ;
#121 = EDGE_CURVE ( 'NONE', #674, #349, #798, .T. ) ;
#122 = CARTESIAN_POINT ( 'NONE',  ( 56.61681313135814264, 49.37088690716616668, -200.0000000000000000 ) ) ;
#123 = CARTESIAN_POINT ( 'NONE',  ( -99.34500689923761740, -5.817194931552537085, -197.9005139817428471 ) ) ;
#124 = EDGE_CURVE ( 'NONE', #148, #382, #288, .T. ) ;
#125 = ORIENTED_EDGE ( 'NONE', *, *, #373, .F. ) ;
#126 = CARTESIAN_POINT ( 'NONE',  ( 97.71325712932222984, -31.04006539200929993, 110.0000000000000426 ) ) ;
#127 = CARTESIAN_POINT ( 'NONE',  ( 100.0000000000000568, -0.3794404183931974761, 110.0000000000000426 ) ) ;
#128 = CARTESIAN_POINT ( 'NONE',  ( -84.22699767204261434, -17.44550604271662664, -185.9956514437936050 ) ) ;
#129 = EDGE_LOOP ( 'NONE', ( #112, #9, #614, #804 ) ) ;
#130 = DIRECTION ( 'NONE',  ( 0.7071067811865473507, 0.7071067811865477948, 0.000000000000000000 ) ) ;
#131 = EDGE_CURVE ( 'NONE', #143, #713, #667, .T. ) ;
#132 = LINE ( 'NONE', #497, #348 ) ;
#133 = CARTESIAN_POINT ( 'NONE',  ( -83.10304693664862441, -17.49826449081433211, -186.4160910881357438 ) ) ;
#134 = ORIENTED_EDGE ( 'NONE', *, *, #455, .T. ) ;
#135 = CARTESIAN_POINT ( 'NONE',  ( -50.00000000000000000, 0.000000000000000000, -200.0000000000000000 ) ) ;
#136 = AXIS2_PLACEMENT_3D ( 'NONE', #657, #91, #87 ) ;
#137 = ORIENTED_EDGE ( 'NONE', *, *, #313, .F. ) ;
#138 = CARTESIAN_POINT ( 'NONE',  ( 0.000000000000000000, 0.000000000000000000, -200.0000000000000000 ) ) ;
#139 = EDGE_CURVE ( 'NONE', #674, #618, #711, .T. ) ;
#140 = ORIENTED_EDGE ( 'NONE', *, *, #139, .T. ) ;
#141 = DIRECTION ( 'NONE',  ( -0.000000000000000000, 0.000000000000000000, 1.000000000000000000 ) ) ;
#142 = DIRECTION ( 'NONE',  ( 1.000000000000000000, 0.000000000000000000, 0.000000000000000000 ) ) ;
#143 = VERTEX_POINT ( 'NONE', #83 ) ;
#144 = CARTESIAN_POINT ( 'NONE',  ( -99.34500689923763161, 5.817194931552474024, -197.9005139817428756 ) ) ;
#145 = ADVANCED_FACE ( 'NONE', ( #21 ), #421, .F. ) ;
#146 = CARTESIAN_POINT ( 'NONE',  ( 100.0000000000000000, -0.3794404183931309182, -110.0000000000000426 ) ) ;
#147 = DIRECTION ( 'NONE',  ( -0.9976712237790653637, 0.06820651906659699892, 0.000000000000000000 ) ) ;
#148 = VERTEX_POINT ( 'NONE', #686 ) ;
#149 = VECTOR ( 'NONE', #196, 999.9999999999998863 ) ;
#150 = CARTESIAN_POINT ( 'NONE',  ( -5.000000000000000000, 0.000000000000000000, -200.0000000000000000 ) ) ;
#151 = ADVANCED_FACE ( 'NONE', ( #291 ), #478, .T. ) ;
#152 = EDGE_LOOP ( 'NONE', ( #137, #395, #49, #412 ) ) ;
#153 = CARTESIAN_POINT ( 'NONE',  ( 50.00000000000000000, 0.000000000000000000, -200.0000000000000000 ) ) ;
#154 = ADVANCED_FACE ( 'NONE', ( #360 ), #159, .T. ) ;
#155 = EDGE_CURVE ( 'NONE', #392, #326, #676, .T. ) ;
#156 = VERTEX_POINT ( 'NONE', #98 ) ;
#157 = PLANE ( 'NONE',  #642 ) ;
#158 = CARTESIAN_POINT ( 'NONE',  ( 47.50000000000000000, 0.000000000000000000, -150.0000000000000284 ) ) ;
#159 = CYLINDRICAL_SURFACE ( 'NONE', #243, 17.50000000000001421 ) ;
#160 = ORIENTED_EDGE ( 'NONE', *, *, #661, .T. ) ;
#161 = CIRCLE ( 'NONE', #623, 17.50000000000001421 ) ;
#162 = LINE ( 'NONE', #20, #709 ) ;
#163 = DIRECTION ( 'NONE',  ( -1.000000000000000000, 0.000000000000000000, 0.000000000000000000 ) ) ;
#164 = VECTOR ( 'NONE', #577, 1000.000000000000000 ) ;
#165 = ORIENTED_EDGE ( 'NONE', *, *, #295, .T. ) ;
#166 = CARTESIAN_POINT ( 'NONE',  ( -47.50000000000000000, 3.061616997868386099E-16, -200.0000000000000000 ) ) ;
#167 = DIRECTION ( 'NONE',  ( -0.000000000000000000, -0.000000000000000000, 1.000000000000000000 ) ) ;
#168 = ORIENTED_EDGE ( 'NONE', *, *, #121, .T. ) ;
#169 = CARTESIAN_POINT ( 'NONE',  ( 95.01164388110458958, 5.341032595333003563, -200.0000000000000000 ) ) ;
#170 = CARTESIAN_POINT ( 'NONE',  ( 80.22291376263747509, 6.352074889381724709, 110.0000000000000142 ) ) ;
#171 = EDGE_LOOP ( 'NONE', ( #211, #510, #632, #40, #638, #160 ) ) ;
#172 = CARTESIAN_POINT ( 'NONE',  ( -85.30282117986602941, 17.32791138731813874, -186.2018746542761676 ) ) ;
#173 = VECTOR ( 'NONE', #788, 1000.000000000000114 ) ;
#174 = FACE_OUTER_BOUND ( 'NONE', #194, .T. ) ;
#175 = ORIENTED_EDGE ( 'NONE', *, *, #687, .F. ) ;
#176 = AXIS2_PLACEMENT_3D ( 'NONE', #787, #209, #697 ) ;
#177 = CARTESIAN_POINT ( 'NONE',  ( 26.54535941449370640, -6.009423838235697701, 200.0000000000000000 ) ) ;
#178 = EDGE_CURVE ( 'NONE', #156, #148, #604, .T. ) ;
#179 = DIRECTION ( 'NONE',  ( 0.000000000000000000, 0.000000000000000000, -1.000000000000000000 ) ) ;
#180 = VERTEX_POINT ( 'NONE', #484 ) ;
#181 = CARTESIAN_POINT ( 'NONE',  ( -70.80721477505565531, -4.649348963471495289, -146.7194139734307896 ) ) ;
#182 = DIRECTION ( 'NONE',  ( 0.000000000000000000, 0.000000000000000000, -1.000000000000000000 ) ) ;
#183 = EDGE_CURVE ( 'NONE', #586, #781, #410, .T. ) ;
#184 = CARTESIAN_POINT ( 'NONE',  ( -99.09275140823579875, -6.532907639439045511, -197.0919453483167558 ) ) ;
#185 = ORIENTED_EDGE ( 'NONE', *, *, #295, .F. ) ;
#186 = FACE_OUTER_BOUND ( 'NONE', #422, .T. ) ;
#187 = DIRECTION ( 'NONE',  ( -1.000000000000000000, 0.000000000000000000, 0.000000000000000000 ) ) ;
#188 = VECTOR ( 'NONE', #334, 1000.000000000000114 ) ;
#189 = DIRECTION ( 'NONE',  ( -0.2977591233433190543, 0.02035651910119314761, -0.9544239710924600217 ) ) ;
#190 = VERTEX_POINT ( 'NONE', #819 ) ;
#191 = PLANE ( 'NONE',  #176 ) ;
#192 = LINE ( 'NONE', #146, #641 ) ;
#193 = CARTESIAN_POINT ( 'NONE',  ( -84.08868883498290359, -17.45596866261992020, -185.9873116091867473 ) ) ;
#194 = EDGE_LOOP ( 'NONE', ( #772, #810, #282, #732 ) ) ;
#195 = DIRECTION ( 'NONE',  ( -1.384546954556844116E-15, 9.465555987158836352E-17, 1.000000000000000000 ) ) ;
#196 = DIRECTION ( 'NONE',  ( 0.6572307955757380471, -0.7536893798819792600, 9.813077866773588567E-16 ) ) ;
#197 = CARTESIAN_POINT ( 'NONE',  ( -98.01218445493103104, -8.731791189148539800, -194.8693127982714941 ) ) ;
#198 = ORIENTED_EDGE ( 'NONE', *, *, #779, .F. ) ;
#199 = CARTESIAN_POINT ( 'NONE',  ( 5.000000000000000000, 6.123233995736766282E-16, -150.0000000000000284 ) ) ;
#200 = EDGE_CURVE ( 'NONE', #398, #44, #353, .T. ) ;
#201 = VECTOR ( 'NONE', #167, 1000.000000000000000 ) ;
#202 = CARTESIAN_POINT ( 'NONE',  ( 0.000000000000000000, 0.000000000000000000, -150.0000000000000284 ) ) ;
#203 = AXIS2_PLACEMENT_3D ( 'NONE', #336, #85, #276 ) ;
#204 = ORIENTED_EDGE ( 'NONE', *, *, #313, .T. ) ;
#205 = LINE ( 'NONE', #333, #287 ) ;
#206 = DIRECTION ( 'NONE',  ( 0.000000000000000000, 0.000000000000000000, -1.000000000000000000 ) ) ;
#207 = ADVANCED_FACE ( 'NONE', ( #36 ), #809, .F. ) ;
#208 = EDGE_LOOP ( 'NONE', ( #579, #37, #814, #84 ) ) ;
#209 = DIRECTION ( 'NONE',  ( 0.000000000000000000, 0.000000000000000000, -1.000000000000000000 ) ) ;
#210 = CARTESIAN_POINT ( 'NONE',  ( 100.1763382382187757, 4.987944508049785064, -110.0000000000000142 ) ) ;
#211 = ORIENTED_EDGE ( 'NONE', *, *, #270, .T. ) ;
#212 = DIRECTION ( 'NONE',  ( 0.9976712237790652527, 0.06820651906659734587, -0.000000000000000000 ) ) ;
#213 = B_SPLINE_CURVE_WITH_KNOTS ( 'NONE', 3,
 ( #477, #341, #359, #120, #748, #47, #551, #105, #678, #821, #108, #301, #619, #55, #374, #689, #370, #312, #556, #172, #367, #611, #548, #563, #818, #829, #544, #307, #252, #496, #50, #239, #41, #116, #824, #815, #248, #235 ),
 .UNSPECIFIED., .F., .F.,
 ( 4, 2, 2, 2, 2, 2, 2, 2, 2, 2, 2, 2, 2, 2, 2, 2, 2, 2, 4 ),
 ( 3.736708725176135323E-17, 0.006570184421593731026, 0.008212730526992140581, 0.009855276632390552738, 0.01314036884318732848, 0.01478291494858572155, 0.01642546105398411116, 0.01971055326478086261, 0.02135309937017922099, 0.02217437242287841406, 0.02299564547557760366, 0.02340628200192717071, 0.02381691852827673775, 0.02422755505462630826, 0.02443287331780108831, 0.02463819158097586490, 0.02504882810732540072, 0.02545946463367493307, 0.02628073768637407756 ),
 .UNSPECIFIED. ) ;
#214 = CARTESIAN_POINT ( 'NONE',  ( 24.71348079501039408, 2.664153838074581060, 199.7510949543430741 ) ) ;
#215 = VECTOR ( 'NONE', #578, 1000.000000000000000 ) ;
#216 = ADVANCED_FACE ( 'NONE', ( #751 ), #474, .T. ) ;
#217 = ORIENTED_EDGE ( 'NONE', *, *, #712, .T. ) ;
#218 =( NAMED_UNIT ( * ) SI_UNIT ( $, .STERADIAN. ) SOLID_ANGLE_UNIT ( ) );
#219 = AXIS2_PLACEMENT_3D ( 'NONE', #181, #431, #625 ) ;
#220 = EDGE_CURVE ( 'NONE', #349, #398, #102, .T. ) ;
#221 = DIRECTION ( 'NONE',  ( -1.000000000000000000, 0.000000000000000000, -0.000000000000000000 ) ) ;
#222 = ADVANCED_FACE ( 'NONE', ( #174 ), #357, .F. ) ;
#223 = AXIS2_PLACEMENT_3D ( 'NONE', #838, #442, #263 ) ;
#224 = EDGE_LOOP ( 'NONE', ( #441, #32 ) ) ;
#225 = FACE_OUTER_BOUND ( 'NONE', #427, .T. ) ;
#226 = CARTESIAN_POINT ( 'NONE',  ( -52.50000000000000711, 0.000000000000000000, -150.0000000000000284 ) ) ;
#227 = CARTESIAN_POINT ( 'NONE',  ( 0.000000000000000000, 0.000000000000000000, -150.0000000000000284 ) ) ;
#228 = ORIENTED_EDGE ( 'NONE', *, *, #624, .T. ) ;
#229 = LINE ( 'NONE', #414, #413 ) ;
#230 = DIRECTION ( 'NONE',  ( 0.000000000000000000, 0.000000000000000000, -1.000000000000000000 ) ) ;
#231 = EDGE_LOOP ( 'NONE', ( #570, #662, #402, #125, #175, #566, #593 ) ) ;
#232 = CARTESIAN_POINT ( 'NONE',  ( -1.093089912240650996, -7.444080984758694432E-15, 117.0318505592890546 ) ) ;
#233 = DIRECTION ( 'NONE',  ( -0.000000000000000000, -0.000000000000000000, -1.000000000000000000 ) ) ;
#234 = ORIENTED_EDGE ( 'NONE', *, *, #183, .F. ) ;
#235 = CARTESIAN_POINT ( 'NONE',  ( -82.84015176117840440, 17.49999999999999289, -187.9127739143834788 ) ) ;
#236 = DIRECTION ( 'NONE',  ( -0.000000000000000000, -0.000000000000000000, -1.000000000000000000 ) ) ;
#237 = ORIENTED_EDGE ( 'NONE', *, *, #624, .F. ) ;
#238 = ADVANCED_FACE ( 'NONE', ( #305 ), #616, .T. ) ;
#239 = CARTESIAN_POINT ( 'NONE',  ( -83.10179806449978912, 17.49827734711557525, -186.4184468347170025 ) ) ;
#240 = CARTESIAN_POINT ( 'NONE',  ( -50.00000000000000000, 0.000000000000000000, -150.0000000000000284 ) ) ;
#241 = ORIENTED_EDGE ( 'NONE', *, *, #356, .F. ) ;
#242 = EDGE_CURVE ( 'NONE', #618, #275, #106, .T. ) ;
#243 = AXIS2_PLACEMENT_3D ( 'NONE', #302, #481, #669 ) ;
#244 = AXIS2_PLACEMENT_3D ( 'NONE', #534, #464, #592 ) ;
#245 = ADVANCED_FACE ( 'NONE', ( #469 ), #803, .F. ) ;
#246 = CARTESIAN_POINT ( 'NONE',  ( -50.00000000000000000, 0.000000000000000000, -150.0000000000000284 ) ) ;
#247 = ORIENTED_EDGE ( 'NONE', *, *, #365, .F. ) ;
#248 = CARTESIAN_POINT ( 'NONE',  ( -82.84015176117839019, 17.49999999999999289, -187.6344987429963282 ) ) ;
#249 = DIRECTION ( 'NONE',  ( 0.6572307955757380471, -0.7536893798819792600, 0.000000000000000000 ) ) ;
#250 = CARTESIAN_POINT ( 'NONE',  ( -94.65668856927791808, -12.91690576933766721, -191.0529003275135267 ) ) ;
#251 = VERTEX_POINT ( 'NONE', #419 ) ;
#252 = CARTESIAN_POINT ( 'NONE',  ( -83.40409410605202822, 17.49100439635642701, -186.1314715540507905 ) ) ;
#253 = DIRECTION ( 'NONE',  ( 0.000000000000000000, 0.000000000000000000, -1.000000000000000000 ) ) ;
#254 = CARTESIAN_POINT ( 'NONE',  ( 25.10643666798131335, 4.770489558936219510E-15, 200.0000000000000000 ) ) ;
#255 = ORIENTED_EDGE ( 'NONE', *, *, #124, .F. ) ;
#256 = FACE_OUTER_BOUND ( 'NONE', #231, .T. ) ;
#257 = CIRCLE ( 'NONE', #640, 5.000000000000000000 ) ;
#258 = CARTESIAN_POINT ( 'NONE',  ( -52.50000000000000711, 0.000000000000000000, -150.0000000000000284 ) ) ;
#259 = VECTOR ( 'NONE', #769, 1000.000000000000000 ) ;
#260 = CARTESIAN_POINT ( 'NONE',  ( 94.63308709453529843, -5.366912905464734429, 200.0000000000000000 ) ) ;
#261 = AXIS2_PLACEMENT_3D ( 'NONE', #805, #80, #89 ) ;
#262 = ORIENTED_EDGE ( 'NONE', *, *, #131, .T. ) ;
#263 = DIRECTION ( 'NONE',  ( -1.000000000000000000, 0.000000000000000000, 0.000000000000000000 ) ) ;
#264 = CARTESIAN_POINT ( 'NONE',  ( 94.63308709453529843, -5.366912905464734429, -110.0000000000000426 ) ) ;
#265 = CARTESIAN_POINT ( 'NONE',  ( -85.04576177757746791, -17.36260364304417436, -186.1325777113845561 ) ) ;
#266 = CARTESIAN_POINT ( 'NONE',  ( 95.01164388110458958, 5.341032595333002675, -110.0000000000000284 ) ) ;
#267 = CARTESIAN_POINT ( 'NONE',  ( -85.31284854638920478, -17.32645986154854612, -186.2046874407945438 ) ) ;
#268 = ORIENTED_EDGE ( 'NONE', *, *, #778, .F. ) ;
#269 = PLANE ( 'NONE',  #756 ) ;
#270 = EDGE_CURVE ( 'NONE', #60, #781, #545, .T. ) ;
#271 = SURFACE_SIDE_STYLE ('',( #331 ) ) ;
#272 = ORIENTED_EDGE ( 'NONE', *, *, #119, .T. ) ;
#273 = DIRECTION ( 'NONE',  ( 0.7536893798819792600, 0.6572307955757380471, 0.000000000000000000 ) ) ;
#274 = DIRECTION ( 'NONE',  ( 0.000000000000000000, 0.000000000000000000, 1.000000000000000000 ) ) ;
#275 = VERTEX_POINT ( 'NONE', #830 ) ;
#276 = DIRECTION ( 'NONE',  ( -1.000000000000000000, 0.000000000000000000, 0.000000000000000000 ) ) ;
#277 = VERTEX_POINT ( 'NONE', #492 ) ;
#278 = CARTESIAN_POINT ( 'NONE',  ( 50.00000000000000000, 0.000000000000000000, -150.0000000000000284 ) ) ;
#279 = DIRECTION ( 'NONE',  ( -1.000000000000000000, 0.000000000000000000, 0.000000000000000000 ) ) ;
#280 = CARTESIAN_POINT ( 'NONE',  ( 77.75983265374092923, -29.67593501067736028, 110.0000000000000142 ) ) ;
#281 = VECTOR ( 'NONE', #446, 999.9999999999998863 ) ;
#282 = ORIENTED_EDGE ( 'NONE', *, *, #304, .T. ) ;
#283 = DIRECTION ( 'NONE',  ( 0.000000000000000000, 0.000000000000000000, 1.000000000000000000 ) ) ;
#284 = AXIS2_PLACEMENT_3D ( 'NONE', #725, #35, #279 ) ;
#285 = PRODUCT_DEFINITION_SHAPE ( 'NONE', 'NONE',  #719 ) ;
#286 = FACE_OUTER_BOUND ( 'NONE', #88, .T. ) ;
#287 = VECTOR ( 'NONE', #141, 1000.000000000000000 ) ;
#288 = LINE ( 'NONE', #598, #173 ) ;
#289 = VERTEX_POINT ( 'NONE', #314 ) ;
#290 = EDGE_CURVE ( 'NONE', #482, #277, #257, .T. ) ;
#291 = FACE_OUTER_BOUND ( 'NONE', #763, .T. ) ;
#292 = ORIENTED_EDGE ( 'NONE', *, *, #557, .F. ) ;
#293 = DIRECTION ( 'NONE',  ( -0.000000000000000000, -0.000000000000000000, -1.000000000000000000 ) ) ;
#294 = DIRECTION ( 'NONE',  ( -1.000000000000000000, 0.000000000000000000, 0.000000000000000000 ) ) ;
#295 = EDGE_CURVE ( 'NONE', #713, #277, #376, .T. ) ;
#296 = ORIENTED_EDGE ( 'NONE', *, *, #527, .T. ) ;
#297 = VECTOR ( 'NONE', #117, 1000.000000000000114 ) ;
#298 = LINE ( 'NONE', #113, #572 ) ;
#299 = DIRECTION ( 'NONE',  ( -1.000000000000000000, 0.000000000000000000, 0.000000000000000000 ) ) ;
#300 = ORIENTED_EDGE ( 'NONE', *, *, #429, .F. ) ;
#301 = CARTESIAN_POINT ( 'NONE',  ( -91.57143705412875079, 15.17415559512189382, -188.9530264387418867 ) ) ;
#302 = CARTESIAN_POINT ( 'NONE',  ( -82.84015176117839019, -2.255140518769849223E-14, -200.0000000000000000 ) ) ;
#303 = ORIENTED_EDGE ( 'NONE', *, *, #620, .F. ) ;
#304 = EDGE_CURVE ( 'NONE', #115, #828, #42, .T. ) ;
#305 = FACE_OUTER_BOUND ( 'NONE', #152, .T. ) ;
#306 = EDGE_LOOP ( 'NONE', ( #479, #63 ) ) ;
#307 = CARTESIAN_POINT ( 'NONE',  ( -83.46583828987945708, 17.48893455826520338, -186.0992162888575763 ) ) ;
#308 = VECTOR ( 'NONE', #523, 1000.000000000000000 ) ;
#309 = DIRECTION ( 'NONE',  ( -0.7071067811865473507, -0.7071067811865477948, -9.120909521761175973E-16 ) ) ;
#310 = VECTOR ( 'NONE', #383, 1000.000000000000000 ) ;
#311 = VERTEX_POINT ( 'NONE', #690 ) ;
#312 = CARTESIAN_POINT ( 'NONE',  ( -86.09062563609536767, 17.19748264438289809, -186.4465683901430282 ) ) ;
#313 = EDGE_CURVE ( 'NONE', #485, #420, #318, .T. ) ;
#314 = CARTESIAN_POINT ( 'NONE',  ( -52.50000000000000711, 0.000000000000000000, -200.0000000000000000 ) ) ;
#315 = CARTESIAN_POINT ( 'NONE',  ( -94.99883562282980165, -12.59488579881099035, -191.3398442965069535 ) ) ;
#316 = ORIENTED_EDGE ( 'NONE', *, *, #493, .T. ) ;
#317 = FACE_OUTER_BOUND ( 'NONE', #696, .T. ) ;
#318 = LINE ( 'NONE', #127, #149 ) ;
#319 = CARTESIAN_POINT ( 'NONE',  ( 38.18003527604806635, 9.226366865297441322, 200.0000000000000000 ) ) ;
#320 = ORIENTED_EDGE ( 'NONE', *, *, #680, .T. ) ;
#321 = FACE_BOUND ( 'NONE', #224, .T. ) ;
#322 = VECTOR ( 'NONE', #347, 1000.000000000000000 ) ;
#323 = DIRECTION ( 'NONE',  ( 1.000000000000000000, 0.000000000000000000, 0.000000000000000000 ) ) ;
#324 = AXIS2_PLACEMENT_3D ( 'NONE', #595, #811, #28 ) ;
#325 = CARTESIAN_POINT ( 'NONE',  ( -82.84015176117840440, -17.50000000000003553, -187.9127739143833935 ) ) ;
#326 = VERTEX_POINT ( 'NONE', #621 ) ;
#327 = CARTESIAN_POINT ( 'NONE',  ( 94.63308709453529843, -5.366912905464734429, 200.0000000000000000 ) ) ;
#328 = ORIENTED_EDGE ( 'NONE', *, *, #139, .F. ) ;
#329 = EDGE_CURVE ( 'NONE', #512, #354, #2, .T. ) ;
#330 = CARTESIAN_POINT ( 'NONE',  ( -99.83806010860976698, -4.242914932997851274, -199.4809250091701074 ) ) ;
#331 = SURFACE_STYLE_FILL_AREA ( #12 ) ;
#332 = ORIENTED_EDGE ( 'NONE', *, *, #661, .F. ) ;
#333 = CARTESIAN_POINT ( 'NONE',  ( 99.82325015093559273, -0.1767498490644423548, -200.0000000000000000 ) ) ;
#334 = DIRECTION ( 'NONE',  ( 0.2977591233433190543, 0.02035651910119326558, 0.9544239710924600217 ) ) ;
#335 = ORIENTED_EDGE ( 'NONE', *, *, #16, .F. ) ;
#336 = CARTESIAN_POINT ( 'NONE',  ( 50.00000000000000000, 0.000000000000000000, -150.0000000000000284 ) ) ;
#337 = ADVANCED_FACE ( 'NONE', ( #635 ), #371, .F. ) ;
#338 =( NAMED_UNIT ( * ) SI_UNIT ( $, .STERADIAN. ) SOLID_ANGLE_UNIT ( ) );
#339 = ORIENTED_EDGE ( 'NONE', *, *, #779, .T. ) ;
#340 = CARTESIAN_POINT ( 'NONE',  ( 0.000000000000000000, 0.000000000000000000, 0.000000000000000000 ) ) ;
#341 = CARTESIAN_POINT ( 'NONE',  ( -98.83976679745451577, 7.250689044778484416, -196.2810396264835333 ) ) ;
#342 = PLANE ( 'NONE',  #514 ) ;
#343 = PRODUCT_RELATED_PRODUCT_CATEGORY ( 'part', '', ( #29 ) ) ;
#344 = ORIENTED_EDGE ( 'NONE', *, *, #200, .F. ) ;
#345 = DIRECTION ( 'NONE',  ( 0.06820651906659695729, 0.9976712237790653637, -0.000000000000000000 ) ) ;
#346 = CARTESIAN_POINT ( 'NONE',  ( 100.1763382382187757, 4.987944508049785064, 110.0000000000000426 ) ) ;
#347 = DIRECTION ( 'NONE',  ( 0.000000000000000000, 0.000000000000000000, -1.000000000000000000 ) ) ;
#348 = VECTOR ( 'NONE', #309, 999.9999999999998863 ) ;
#349 = VERTEX_POINT ( 'NONE', #384 ) ;
#350 = EDGE_CURVE ( 'NONE', #358, #180, #95, .T. ) ;
#351 = VECTOR ( 'NONE', #212, 1000.000000000000114 ) ;
#352 = CARTESIAN_POINT ( 'NONE',  ( 0.000000000000000000, 0.000000000000000000, -150.0000000000000284 ) ) ;
#353 = LINE ( 'NONE', #364, #766 ) ;
#354 = VERTEX_POINT ( 'NONE', #573 ) ;
#355 = CARTESIAN_POINT ( 'NONE',  ( 80.22291376263747509, 6.352074889381724709, -110.0000000000000142 ) ) ;
#356 = EDGE_CURVE ( 'NONE', #420, #586, #132, .T. ) ;
#357 = CYLINDRICAL_SURFACE ( 'NONE', #362, 2.500000000000002220 ) ;
#358 = VERTEX_POINT ( 'NONE', #258 ) ;
#359 = CARTESIAN_POINT ( 'NONE',  ( -98.10809361252964322, 8.732187400197146232, -194.8403503196543909 ) ) ;
#360 = FACE_OUTER_BOUND ( 'NONE', #129, .T. ) ;
#361 = VERTEX_POINT ( 'NONE', #439 ) ;
#362 = AXIS2_PLACEMENT_3D ( 'NONE', #39, #368, #294 ) ;
#363 = PRODUCT_DEFINITION_FORMATION_WITH_SPECIFIED_SOURCE ( 'Symmetric', '', #29, .NOT_KNOWN. ) ;
#364 = CARTESIAN_POINT ( 'NONE',  ( -82.84015176117840440, 17.49999999999999289, -200.0000000000000000 ) ) ;
#365 = EDGE_CURVE ( 'NONE', #180, #490, #507, .T. ) ;
#366 = ORIENTED_EDGE ( 'NONE', *, *, #687, .T. ) ;
#367 = CARTESIAN_POINT ( 'NONE',  ( -85.03663583481460364, 17.36374923376191148, -186.1303374817330507 ) ) ;
#368 = DIRECTION ( 'NONE',  ( -0.000000000000000000, -0.000000000000000000, -1.000000000000000000 ) ) ;
#369 = ORIENTED_EDGE ( 'NONE', *, *, #527, .F. ) ;
#370 = CARTESIAN_POINT ( 'NONE',  ( -86.86261027894565245, 17.03953597767022998, -186.7195300751931200 ) ) ;
#371 = CYLINDRICAL_SURFACE ( 'NONE', #708, 2.500000000000002220 ) ;
#372 = CARTESIAN_POINT ( 'NONE',  ( -87.36115605951570728, -16.91370977363183670, -186.9165602926592840 ) ) ;
#373 = EDGE_CURVE ( 'NONE', #5, #251, #486, .T. ) ;
#374 = CARTESIAN_POINT ( 'NONE',  ( -88.84894520856148858, 16.46838541505654874, -187.5428302183535720 ) ) ;
#375 = VECTOR ( 'NONE', #538, 999.9999999999998863 ) ;
#376 = LINE ( 'NONE', #760, #259 ) ;
#377 = LINE ( 'NONE', #59, #682 ) ;
#378 =( GEOMETRIC_REPRESENTATION_CONTEXT ( 3 ) GLOBAL_UNCERTAINTY_ASSIGNED_CONTEXT ( ( #771 ) ) GLOBAL_UNIT_ASSIGNED_CONTEXT ( ( #790, #403, #218 ) ) REPRESENTATION_CONTEXT ( 'NONE', 'WORKASPACE' ) );
#379 = FACE_BOUND ( 'NONE', #306, .T. ) ;
#380 = CARTESIAN_POINT ( 'NONE',  ( -50.00000000000000000, 0.000000000000000000, -150.0000000000000284 ) ) ;
#381 = CARTESIAN_POINT ( 'NONE',  ( -100.0000000000000000, -3.433599921454314252, -200.0000000000000000 ) ) ;
#382 = VERTEX_POINT ( 'NONE', #264 ) ;
#383 = DIRECTION ( 'NONE',  ( 0.000000000000000000, -1.000000000000000000, 0.000000000000000000 ) ) ;
#384 = CARTESIAN_POINT ( 'NONE',  ( 95.01164388110458958, 5.341032595333003563, -200.0000000000000000 ) ) ;
#385 = CARTESIAN_POINT ( 'NONE',  ( -88.82852988006317219, -16.45128355895014138, -187.5475876746949382 ) ) ;
#386 = ORIENTED_EDGE ( 'NONE', *, *, #365, .T. ) ;
#387 = CARTESIAN_POINT ( 'NONE',  ( 77.75983265374092923, -29.67593501067736028, 110.0000000000000142 ) ) ;
#388 = AXIS2_PLACEMENT_3D ( 'NONE', #698, #253, #692 ) ;
#389 = CIRCLE ( 'NONE', #668, 2.500000000000002220 ) ;
#390 = EDGE_CURVE ( 'NONE', #349, #512, #774, .T. ) ;
#391 = VECTOR ( 'NONE', #345, 1000.000000000000000 ) ;
#392 = VERTEX_POINT ( 'NONE', #489 ) ;
#393 = CARTESIAN_POINT ( 'NONE',  ( -50.00000000000000000, 0.000000000000000000, -200.0000000000000000 ) ) ;
#394 = DIRECTION ( 'NONE',  ( -0.06820651906659695729, -0.9976712237790653637, 0.000000000000000000 ) ) ;
#395 = ORIENTED_EDGE ( 'NONE', *, *, #649, .F. ) ;
#396 = DIRECTION ( 'NONE',  ( -0.2977591233433189433, -0.02035651910119325517, -0.9544239710924600217 ) ) ;
#397 = DIRECTION ( 'NONE',  ( -1.000000000000000000, 0.000000000000000000, 0.000000000000000000 ) ) ;
#398 = VERTEX_POINT ( 'NONE', #432 ) ;
#399 = PLANE ( 'NONE',  #261 ) ;
#400 = DIRECTION ( 'NONE',  ( -0.000000000000000000, -0.000000000000000000, -1.000000000000000000 ) ) ;
#401 = AXIS2_PLACEMENT_3D ( 'NONE', #227, #236, #299 ) ;
#402 = ORIENTED_EDGE ( 'NONE', *, *, #533, .F. ) ;
#403 =( NAMED_UNIT ( * ) PLANE_ANGLE_UNIT ( ) SI_UNIT ( $, .RADIAN. ) );
#404 = CARTESIAN_POINT ( 'NONE',  ( 95.01164388110458958, 5.341032595333001787, 110.0000000000000284 ) ) ;
#405 = ORIENTED_EDGE ( 'NONE', *, *, #131, .F. ) ;
#406 = DIRECTION ( 'NONE',  ( 0.000000000000000000, 0.000000000000000000, -1.000000000000000000 ) ) ;
#407 = VERTEX_POINT ( 'NONE', #630 ) ;
#408 = LINE ( 'NONE', #472, #391 ) ;
#409 = DIRECTION ( 'NONE',  ( 0.06820651906659695729, 0.9976712237790653637, 0.000000000000000000 ) ) ;
#410 = LINE ( 'NONE', #613, #475 ) ;
#411 = VECTOR ( 'NONE', #189, 1000.000000000000114 ) ;
#412 = ORIENTED_EDGE ( 'NONE', *, *, #86, .F. ) ;
#413 = VECTOR ( 'NONE', #675, 1000.000000000000000 ) ;
#414 = CARTESIAN_POINT ( 'NONE',  ( 52.50000000000000711, 3.061616997868386099E-16, -150.0000000000000284 ) ) ;
#415 = CIRCLE ( 'NONE', #71, 2.500000000000002220 ) ;
#416 = DIRECTION ( 'NONE',  ( -0.9546217834310483097, 0.000000000000000000, 0.2978208364082755022 ) ) ;
#417 = ORIENTED_EDGE ( 'NONE', *, *, #200, .T. ) ;
#418 = CARTESIAN_POINT ( 'NONE',  ( -14.25566257045952945, -1.695692197767328935E-12, 74.84112026295727560 ) ) ;
#419 = CARTESIAN_POINT ( 'NONE',  ( -82.84015176117840440, -17.50000000000003553, -200.0000000000000000 ) ) ;
#420 = VERTEX_POINT ( 'NONE', #626 ) ;
#421 = CYLINDRICAL_SURFACE ( 'NONE', #812, 2.500000000000002220 ) ;
#422 = EDGE_LOOP ( 'NONE', ( #703, #457, #335, #99, #332 ) ) ;
#423 = AXIS2_PLACEMENT_3D ( 'NONE', #738, #114, #416 ) ;
#424 = VECTOR ( 'NONE', #764, 1000.000000000000000 ) ;
#425 = CYLINDRICAL_SURFACE ( 'NONE', #219, 12.00000000000000178 ) ;
#426 = DIRECTION ( 'NONE',  ( 0.000000000000000000, 0.000000000000000000, 1.000000000000000000 ) ) ;
#427 = EDGE_LOOP ( 'NONE', ( #776, #610 ) ) ;
#428 = PLANE ( 'NONE',  #67 ) ;
#429 = EDGE_CURVE ( 'NONE', #599, #69, #726, .T. ) ;
#430 = CARTESIAN_POINT ( 'NONE',  ( -91.55294398041456816, -15.20915641139498398, -188.9286165878251040 ) ) ;
#431 = DIRECTION ( 'NONE',  ( 0.2977591233433190543, 0.02035651910119326211, 0.9544239710924600217 ) ) ;
#432 = CARTESIAN_POINT ( 'NONE',  ( -82.84015176117840440, 17.49999999999999289, -200.0000000000000000 ) ) ;
#433 = CARTESIAN_POINT ( 'NONE',  ( -83.29348327911216643, -17.49422181729510939, -186.2083841186259292 ) ) ;
#434 =( BOUNDED_CURVE ( )  B_SPLINE_CURVE ( 3, ( #615, #177, #436, #606 ),
 .UNSPECIFIED., .F., .F. ) 
 B_SPLINE_CURVE_WITH_KNOTS ( ( 4, 4 ),
 ( 3.300883312260540770, 4.712388980384689674 ),
 .UNSPECIFIED. ) 
 CURVE ( )  GEOMETRIC_REPRESENTATION_ITEM ( )  RATIONAL_B_SPLINE_CURVE ( ( 1.000000000000000000, 0.8407489826951706213, 0.8407489826951706213, 1.000000000000000000 ) ) 
 REPRESENTATION_ITEM ( '' )  );
#435 = ORIENTED_EDGE ( 'NONE', *, *, #750, .F. ) ;
#436 = CARTESIAN_POINT ( 'NONE',  ( 31.72867368829633605, -9.667418893914382139, 200.0000000000000000 ) ) ;
#437 = EDGE_CURVE ( 'NONE', #361, #674, #192, .T. ) ;
#438 = AXIS2_PLACEMENT_3D ( 'NONE', #541, #230, #111 ) ;
#439 = CARTESIAN_POINT ( 'NONE',  ( 99.82325015093557852, -0.1767498490644584253, -110.0000000000000142 ) ) ;
#440 = CARTESIAN_POINT ( 'NONE',  ( -82.84015176117840440, 17.49999999999999289, -187.9127739143834788 ) ) ;
#441 = ORIENTED_EDGE ( 'NONE', *, *, #712, .F. ) ;
#442 = DIRECTION ( 'NONE',  ( 0.000000000000000000, 0.000000000000000000, -1.000000000000000000 ) ) ;
#443 = LINE ( 'NONE', #564, #424 ) ;
#444 = EDGE_LOOP ( 'NONE', ( #602, #476, #576, #754, #366 ) ) ;
#445 = DIRECTION ( 'NONE',  ( -1.000000000000000000, 0.000000000000000000, 0.000000000000000000 ) ) ;
#446 = DIRECTION ( 'NONE',  ( -0.7071067811865473507, -0.7071067811865477948, 0.000000000000000000 ) ) ;
#447 = EDGE_CURVE ( 'NONE', #326, #532, #443, .T. ) ;
#448 = CARTESIAN_POINT ( 'NONE',  ( 26.54535941449372416, 6.009423838235703030, 200.0000000000000000 ) ) ;
#449 = ORIENTED_EDGE ( 'NONE', *, *, #533, .T. ) ;
#450 = CARTESIAN_POINT ( 'NONE',  ( -100.0000000000000000, -3.433599921454314252, -200.0000000000000000 ) ) ;
#451 = CLOSED_SHELL ( 'NONE', ( #222, #337, #470, #238, #679, #68, #506, #723, #245, #594, #145, #761, #558, #807, #468, #151, #644, #154, #216, #651, #716, #825, #749, #104, #207 ) ) ;
#452 = CARTESIAN_POINT ( 'NONE',  ( -100.0000000000000000, -17.50000000000004263, -200.0000000000000000 ) ) ;
#453 = ORIENTED_EDGE ( 'NONE', *, *, #390, .F. ) ;
#454 = LINE ( 'NONE', #714, #56 ) ;
#455 = EDGE_CURVE ( 'NONE', #599, #828, #655, .T. ) ;
#456 = DIRECTION ( 'NONE',  ( 0.000000000000000000, 0.000000000000000000, -1.000000000000000000 ) ) ;
#457 = ORIENTED_EDGE ( 'NONE', *, *, #57, .F. ) ;
#458 =( NAMED_UNIT ( * ) PLANE_ANGLE_UNIT ( ) SI_UNIT ( $, .RADIAN. ) );
#459 = ORIENTED_EDGE ( 'NONE', *, *, #242, .F. ) ;
#460 = DIRECTION ( 'NONE',  ( -0.9976712237790653637, 0.06820651906659695729, 0.000000000000000000 ) ) ;
#461 = VECTOR ( 'NONE', #759, 1000.000000000000000 ) ;
#462 = DIRECTION ( 'NONE',  ( 0.9546217834310480876, 1.324803854717348916E-16, -0.2978208364082759463 ) ) ;
#463 = EDGE_LOOP ( 'NONE', ( #369, #539, #18, #729, #518, #449, #76, #255, #103 ) ) ;
#464 = DIRECTION ( 'NONE',  ( 0.000000000000000000, 0.000000000000000000, -1.000000000000000000 ) ) ;
#465 = CARTESIAN_POINT ( 'NONE',  ( 38.18003527604805214, -9.226366865297443098, 200.0000000000000000 ) ) ;
#466 = ORIENTED_EDGE ( 'NONE', *, *, #447, .F. ) ;
#467 = CARTESIAN_POINT ( 'NONE',  ( 99.82325015093557852, -0.1767498490644614506, -200.0000000000000000 ) ) ;
#468 = ADVANCED_FACE ( 'NONE', ( #822 ), #428, .T. ) ;
#469 = FACE_OUTER_BOUND ( 'NONE', #677, .T. ) ;
#470 = ADVANCED_FACE ( 'NONE', ( #666 ), #663, .F. ) ;
#471 = ORIENTED_EDGE ( 'NONE', *, *, #86, .T. ) ;
#472 = CARTESIAN_POINT ( 'NONE',  ( 77.75983265374092923, -29.67593501067736028, -110.0000000000000142 ) ) ;
#473 = CYLINDRICAL_SURFACE ( 'NONE', #203, 2.500000000000002220 ) ;
#474 = CYLINDRICAL_SURFACE ( 'NONE', #423, 12.00000000000000178 ) ;
#475 = VECTOR ( 'NONE', #426, 1000.000000000000000 ) ;
#476 = ORIENTED_EDGE ( 'NONE', *, *, #57, .T. ) ;
#477 = CARTESIAN_POINT ( 'NONE',  ( -99.34500689923763161, 5.817194931552474024, -197.9005139817428756 ) ) ;
#478 = CYLINDRICAL_SURFACE ( 'NONE', #529, 17.50000000000001421 ) ;
#479 = ORIENTED_EDGE ( 'NONE', *, *, #488, .F. ) ;
#480 = FACE_OUTER_BOUND ( 'NONE', #463, .T. ) ;
#481 = DIRECTION ( 'NONE',  ( -0.000000000000000000, -0.000000000000000000, 1.000000000000000000 ) ) ;
#482 = VERTEX_POINT ( 'NONE', #150 ) ;
#483 = LINE ( 'NONE', #169, #461 ) ;
#484 = CARTESIAN_POINT ( 'NONE',  ( -47.50000000000000000, 3.061616997868386099E-16, -150.0000000000000284 ) ) ;
#485 = VERTEX_POINT ( 'NONE', #404 ) ;
#486 = CIRCLE ( 'NONE', #753, 17.50000000000001421 ) ;
#487 = PLANE ( 'NONE',  #515 ) ;
#488 = EDGE_CURVE ( 'NONE', #828, #115, #389, .T. ) ;
#489 = CARTESIAN_POINT ( 'NONE',  ( 99.82325015093559273, -0.1767498490644434650, 200.0000000000000000 ) ) ;
#490 = VERTEX_POINT ( 'NONE', #166 ) ;
#491 = DIRECTION ( 'NONE',  ( 0.9976712237790652527, 0.06820651906659734587, 0.000000000000000000 ) ) ;
#492 = CARTESIAN_POINT ( 'NONE',  ( 5.000000000000000000, 6.123233995736766282E-16, -200.0000000000000000 ) ) ;
#493 = EDGE_CURVE ( 'NONE', #180, #358, #97, .T. ) ;
#494 = CARTESIAN_POINT ( 'NONE',  ( -97.56521318122756270, -9.466114282374352484, -194.1706604818137123 ) ) ;
#495 = EDGE_LOOP ( 'NONE', ( #296, #820, #521, #204, #747 ) ) ;
#496 = CARTESIAN_POINT ( 'NONE',  ( -83.28984836115185431, 17.49431446869735751, -186.2114179063889878 ) ) ;
#497 = CARTESIAN_POINT ( 'NONE',  ( 94.63308709453511369, -5.366912905464934269, 110.0000000000000426 ) ) ;
#498 = LINE ( 'NONE', #765, #411 ) ;
#499 = ORIENTED_EDGE ( 'NONE', *, *, #27, .F. ) ;
#500 = CARTESIAN_POINT ( 'NONE',  ( 94.63308709453529843, -5.366912905464734429, 200.0000000000000000 ) ) ;
#501 = COLOUR_RGB ( '',0.7921568627450980005, 0.8196078431372548767, 0.9333333333333333481 ) ;
#502 = DIRECTION ( 'NONE',  ( -1.000000000000000000, 0.000000000000000000, 0.000000000000000000 ) ) ;
#503 = CARTESIAN_POINT ( 'NONE',  ( -83.24028365460614509, -17.49548478847636446, -186.2565833083193922 ) ) ;
#504 = ORIENTED_EDGE ( 'NONE', *, *, #694, .T. ) ;
#505 = DIRECTION ( 'NONE',  ( 0.7071067811865477948, -0.7071067811865473507, 0.000000000000000000 ) ) ;
#506 = ADVANCED_FACE ( 'NONE', ( #741 ), #24, .F. ) ;
#507 = LINE ( 'NONE', #560, #554 ) ;
#508 = CARTESIAN_POINT ( 'NONE',  ( -97.32417829407370391, -9.831468508192420686, -193.8304098732347427 ) ) ;
#509 = PRODUCT_DEFINITION_CONTEXT ( 'detailed design', #808, 'design' ) ;
#510 = ORIENTED_EDGE ( 'NONE', *, *, #744, .T. ) ;
#511 = CARTESIAN_POINT ( 'NONE',  ( -88.34396290815411135, -16.61990135442023586, -187.3300485445839456 ) ) ;
#512 = VERTEX_POINT ( 'NONE', #467 ) ;
#513 = DIRECTION ( 'NONE',  ( -1.000000000000000000, 0.000000000000000000, -0.000000000000000000 ) ) ;
#514 = AXIS2_PLACEMENT_3D ( 'NONE', #452, #462, #589 ) ;
#515 = AXIS2_PLACEMENT_3D ( 'NONE', #745, #755, #491 ) ;
#516 = FACE_OUTER_BOUND ( 'NONE', #208, .T. ) ;
#517 = VECTOR ( 'NONE', #130, 999.9999999999998863 ) ;
#518 = ORIENTED_EDGE ( 'NONE', *, *, #617, .F. ) ;
#519 = DIRECTION ( 'NONE',  ( -0.000000000000000000, -0.000000000000000000, -1.000000000000000000 ) ) ;
#520 = CARTESIAN_POINT ( 'NONE',  ( 95.01164388110458958, 5.341032595333003563, -200.0000000000000000 ) ) ;
#521 = ORIENTED_EDGE ( 'NONE', *, *, #620, .T. ) ;
#522 = FACE_OUTER_BOUND ( 'NONE', #550, .T. ) ;
#523 = DIRECTION ( 'NONE',  ( -0.000000000000000000, -0.000000000000000000, 1.000000000000000000 ) ) ;
#524 = CARTESIAN_POINT ( 'NONE',  ( 99.82325015093559273, -0.1767498490644423548, -200.0000000000000000 ) ) ;
#525 = VERTEX_POINT ( 'NONE', #537 ) ;
#526 = DIRECTION ( 'NONE',  ( 0.000000000000000000, 0.000000000000000000, -1.000000000000000000 ) ) ;
#527 = EDGE_CURVE ( 'NONE', #586, #156, #162, .T. ) ;
#528 = DIRECTION ( 'NONE',  ( -0.9976712237790652527, -0.06820651906659734587, -1.374866528283163780E-15 ) ) ;
#529 = AXIS2_PLACEMENT_3D ( 'NONE', #681, #43, #735 ) ;
#530 = DIRECTION ( 'NONE',  ( -0.9976712237790653637, 0.06820651906659695729, 0.000000000000000000 ) ) ;
#531 = EDGE_CURVE ( 'NONE', #407, #190, #101, .T. ) ;
#532 = VERTEX_POINT ( 'NONE', #90 ) ;
#533 = EDGE_CURVE ( 'NONE', #251, #354, #737, .T. ) ;
#534 = CARTESIAN_POINT ( 'NONE',  ( 0.000000000000000000, 0.000000000000000000, 200.0000000000000000 ) ) ;
#535 = EDGE_CURVE ( 'NONE', #69, #115, #229, .T. ) ;
#536 = ORIENTED_EDGE ( 'NONE', *, *, #649, .T. ) ;
#537 = CARTESIAN_POINT ( 'NONE',  ( -82.84015176117840440, -17.50000000000003553, -187.9127739143833935 ) ) ;
#538 = DIRECTION ( 'NONE',  ( -0.6572307955757380471, 0.7536893798819792600, 0.000000000000000000 ) ) ;
#539 = ORIENTED_EDGE ( 'NONE', *, *, #183, .T. ) ;
#540 = FACE_OUTER_BOUND ( 'NONE', #671, .T. ) ;
#541 = CARTESIAN_POINT ( 'NONE',  ( 97.71325712932222984, -31.04006539200929993, -110.0000000000000142 ) ) ;
#542 = VECTOR ( 'NONE', #549, 1000.000000000000000 ) ;
#543 = VERTEX_POINT ( 'NONE', #100 ) ;
#544 = CARTESIAN_POINT ( 'NONE',  ( -83.66276448061724125, 17.48114901188539960, -186.0227719368105568 ) ) ;
#545 = LINE ( 'NONE', #816, #297 ) ;
#546 = ORIENTED_EDGE ( 'NONE', *, *, #290, .T. ) ;
#547 =( BOUNDED_CURVE ( )  B_SPLINE_CURVE ( 3, ( #74, #6, #330, #450 ),
 .UNSPECIFIED., .F., .F. ) 
 B_SPLINE_CURVE_WITH_KNOTS ( ( 4, 4 ),
 ( 2.802733710076705798, 2.944105744318273210 ),
 .UNSPECIFIED. ) 
 CURVE ( )  GEOMETRIC_REPRESENTATION_ITEM ( )  RATIONAL_B_SPLINE_CURVE ( ( 1.000000000000000000, 0.9983351890218872260, 0.9983351890218872260, 1.000000000000000000 ) ) 
 REPRESENTATION_ITEM ( '' )  );
#548 = CARTESIAN_POINT ( 'NONE',  ( -84.49306890504351486, 17.42231612826599374, -186.0254238957300856 ) ) ;
#549 = DIRECTION ( 'NONE',  ( -0.9976712237790653637, 0.06820651906659695729, 0.000000000000000000 ) ) ;
#550 = EDGE_LOOP ( 'NONE', ( #499, #664, #553, #504 ) ) ;
#551 = CARTESIAN_POINT ( 'NONE',  ( -95.65504520438638281, 11.92659349089598919, -191.9351712690691727 ) ) ;
#552 = DIRECTION ( 'NONE',  ( -0.000000000000000000, -0.000000000000000000, -1.000000000000000000 ) ) ;
#553 = ORIENTED_EDGE ( 'NONE', *, *, #329, .F. ) ;
#554 = VECTOR ( 'NONE', #62, 1000.000000000000000 ) ;
#555 = AXIS2_PLACEMENT_3D ( 'NONE', #352, #406, #221 ) ;
#556 = CARTESIAN_POINT ( 'NONE',  ( -85.83017048856326880, 17.24473953767862611, -186.3597999149784528 ) ) ;
#557 = EDGE_CURVE ( 'NONE', #358, #289, #38, .T. ) ;
#558 = ADVANCED_FACE ( 'NONE', ( #286 ), #473, .F. ) ;
#559 = AXIS2_PLACEMENT_3D ( 'NONE', #135, #833, #10 ) ;
#560 = CARTESIAN_POINT ( 'NONE',  ( -47.50000000000000000, 3.061616997868386099E-16, -150.0000000000000284 ) ) ;
#561 = CARTESIAN_POINT ( 'NONE',  ( -85.83714004173900491, -17.24350608117812200, -186.3620834657024830 ) ) ;
#562 = EDGE_LOOP ( 'NONE', ( #786, #386, #320, #292 ) ) ;
#563 = CARTESIAN_POINT ( 'NONE',  ( -84.21673395392264183, 17.44632499480449539, -185.9948695898863775 ) ) ;
#564 = CARTESIAN_POINT ( 'NONE',  ( 100.0000000000000000, 5.000000000000012434, 200.0000000000000000 ) ) ;
#565 = CARTESIAN_POINT ( 'NONE',  ( -84.50179471893343930, -17.42147999877984432, -186.0267670328026099 ) ) ;
#566 = ORIENTED_EDGE ( 'NONE', *, *, #94, .F. ) ;
#567 = DIRECTION ( 'NONE',  ( 0.000000000000000000, 0.000000000000000000, -1.000000000000000000 ) ) ;
#568 = DIRECTION ( 'NONE',  ( -1.000000000000000000, 0.000000000000000000, 0.000000000000000000 ) ) ;
#569 = CARTESIAN_POINT ( 'NONE',  ( -82.94555515574445792, -17.49974381168873094, -186.8058075801865527 ) ) ;
#570 = ORIENTED_EDGE ( 'NONE', *, *, #390, .T. ) ;
#571 = FACE_OUTER_BOUND ( 'NONE', #495, .T. ) ;
#572 = VECTOR ( 'NONE', #396, 1000.000000000000114 ) ;
#573 = CARTESIAN_POINT ( 'NONE',  ( 94.63308709453529843, -5.366912905464734429, -200.0000000000000000 ) ) ;
#574 = VECTOR ( 'NONE', #70, 1000.000000000000114 ) ;
#575 = CARTESIAN_POINT ( 'NONE',  ( -95.97311789051411779, -11.60319640342311409, -192.2232608559381788 ) ) ;
#576 = ORIENTED_EDGE ( 'NONE', *, *, #34, .T. ) ;
#577 = DIRECTION ( 'NONE',  ( 0.06820651906659695729, 0.9976712237790653637, -0.000000000000000000 ) ) ;
#578 = DIRECTION ( 'NONE',  ( 0.000000000000000000, 0.000000000000000000, 1.000000000000000000 ) ) ;
#579 = ORIENTED_EDGE ( 'NONE', *, *, #178, .T. ) ;
#580 = FACE_BOUND ( 'NONE', #789, .T. ) ;
#581 =( LENGTH_UNIT ( ) NAMED_UNIT ( * ) SI_UNIT ( .MILLI., .METRE. ) );
#582 = ORIENTED_EDGE ( 'NONE', *, *, #124, .T. ) ;
#583 = FACE_OUTER_BOUND ( 'NONE', #837, .T. ) ;
#584 = VECTOR ( 'NONE', #147, 1000.000000000000000 ) ;
#585 = SURFACE_STYLE_USAGE ( .BOTH. , #271 ) ;
#586 = VERTEX_POINT ( 'NONE', #801 ) ;
#587 = CARTESIAN_POINT ( 'NONE',  ( -99.61936498898629111, 5.038771553869959341, -198.7799293110839187 ) ) ;
#588 = DIRECTION ( 'NONE',  ( 0.000000000000000000, 0.000000000000000000, -1.000000000000000000 ) ) ;
#589 = DIRECTION ( 'NONE',  ( -0.2978208364082759463, 0.000000000000000000, -0.9546217834310480876 ) ) ;
#590 = ORIENTED_EDGE ( 'NONE', *, *, #121, .F. ) ;
#591 = DIRECTION ( 'NONE',  ( 1.000000000000000000, 0.000000000000000000, 0.000000000000000000 ) ) ;
#592 = DIRECTION ( 'NONE',  ( -1.000000000000000000, 0.000000000000000000, -0.000000000000000000 ) ) ;
#593 = ORIENTED_EDGE ( 'NONE', *, *, #220, .F. ) ;
#594 = ADVANCED_FACE ( 'NONE', ( #540 ), #734, .T. ) ;
#595 = CARTESIAN_POINT ( 'NONE',  ( -50.00000000000000000, 0.000000000000000000, -150.0000000000000284 ) ) ;
#596 = AXIS2_PLACEMENT_3D ( 'NONE', #785, #456, #397 ) ;
#597 = VECTOR ( 'NONE', #249, 999.9999999999998863 ) ;
#598 = CARTESIAN_POINT ( 'NONE',  ( 100.0000000000000000, -4.999999999999987566, -110.0000000000000142 ) ) ;
#599 = VERTEX_POINT ( 'NONE', #158 ) ;
#600 = CARTESIAN_POINT ( 'NONE',  ( 100.0000000000000000, 5.000000000000012434, -200.0000000000000000 ) ) ;
#601 = DIRECTION ( 'NONE',  ( 0.000000000000000000, 0.000000000000000000, -1.000000000000000000 ) ) ;
#602 = ORIENTED_EDGE ( 'NONE', *, *, #685, .F. ) ;
#603 = DIRECTION ( 'NONE',  ( 0.9976712237790653637, -0.06820651906659699892, 1.387778780781445676E-15 ) ) ;
#604 = LINE ( 'NONE', #813, #15 ) ;
#605 = ORIENTED_EDGE ( 'NONE', *, *, #437, .T. ) ;
#606 = CARTESIAN_POINT ( 'NONE',  ( 38.18003527604805214, -9.226366865297443098, 200.0000000000000000 ) ) ;
#607 = DIRECTION ( 'NONE',  ( -0.000000000000000000, -0.000000000000000000, 1.000000000000000000 ) ) ;
#608 = CIRCLE ( 'NONE', #136, 2.500000000000002220 ) ;
#609 = AXIS2_PLACEMENT_3D ( 'NONE', #48, #746, #742 ) ;
#610 = ORIENTED_EDGE ( 'NONE', *, *, #92, .T. ) ;
#611 = CARTESIAN_POINT ( 'NONE',  ( -84.63016661837453114, 17.40874576888562686, -186.0484457728818768 ) ) ;
#612 = CIRCLE ( 'NONE', #223, 5.000000000000000000 ) ;
#613 = CARTESIAN_POINT ( 'NONE',  ( 94.63308709453529843, -5.366912905464734429, 200.0000000000000000 ) ) ;
#614 = ORIENTED_EDGE ( 'NONE', *, *, #685, .T. ) ;
#615 = CARTESIAN_POINT ( 'NONE',  ( 25.10643666798131335, 4.770489558936219510E-15, 200.0000000000000000 ) ) ;
#616 = PLANE ( 'NONE',  #609 ) ;
#617 = EDGE_CURVE ( 'NONE', #251, #525, #730, .T. ) ;
#618 = VERTEX_POINT ( 'NONE', #355 ) ;
#619 = CARTESIAN_POINT ( 'NONE',  ( -91.13662468275168749, 15.41657509877760646, -188.7078906110202468 ) ) ;
#620 = EDGE_CURVE ( 'NONE', #275, #485, #660, .T. ) ;
#621 = CARTESIAN_POINT ( 'NONE',  ( 95.01164388110458958, 5.341032595333003563, 200.0000000000000000 ) ) ;
#622 = CARTESIAN_POINT ( 'NONE',  ( -93.93637344114897303, -13.54071125237041606, -190.4918088507562572 ) ) ;
#623 = AXIS2_PLACEMENT_3D ( 'NONE', #25, #274, #142 ) ;
#624 = EDGE_CURVE ( 'NONE', #311, #44, #213, .T. ) ;
#625 = DIRECTION ( 'NONE',  ( 0.9546217834310483097, 0.000000000000000000, -0.2978208364082755022 ) ) ;
#626 = CARTESIAN_POINT ( 'NONE',  ( 99.82325015093557852, -0.1767498490644731635, 110.0000000000000426 ) ) ;
#627 = CARTESIAN_POINT ( 'NONE',  ( -82.91569234240473918, -17.49985034875204093, -186.9409764310213973 ) ) ;
#628 = ORIENTED_EDGE ( 'NONE', *, *, #350, .T. ) ;
#629 = LINE ( 'NONE', #500, #517 ) ;
#630 = CARTESIAN_POINT ( 'NONE',  ( 25.10643666798131335, 4.770489558936219510E-15, 200.0000000000000000 ) ) ;
#631 = CARTESIAN_POINT ( 'NONE',  ( -92.38672330899044027, -14.69858113698189683, -189.4240768670572947 ) ) ;
#632 = ORIENTED_EDGE ( 'NONE', *, *, #155, .T. ) ;
#633 = LINE ( 'NONE', #387, #164 ) ;
#634 =( BOUNDED_CURVE ( )  B_SPLINE_CURVE ( 3, ( #718, #19, #587, #144 ),
 .UNSPECIFIED., .F., .F. ) 
 B_SPLINE_CURVE_WITH_KNOTS ( ( 4, 4 ),
 ( 3.339079562861313022, 3.480451597102879546 ),
 .UNSPECIFIED. ) 
 CURVE ( )  GEOMETRIC_REPRESENTATION_ITEM ( )  RATIONAL_B_SPLINE_CURVE ( ( 1.000000000000000000, 0.9983351890218872260, 0.9983351890218872260, 1.000000000000000000 ) ) 
 REPRESENTATION_ITEM ( '' )  );
#635 = FACE_OUTER_BOUND ( 'NONE', #562, .T. ) ;
#636 = CARTESIAN_POINT ( 'NONE',  ( -93.55786248231359536, -13.84248914890491555, -190.2176135660066052 ) ) ;
#637 = UNCERTAINTY_MEASURE_WITH_UNIT (LENGTH_MEASURE( 1.000000000000000082E-05 ), #581, 'distance_accuracy_value', 'NONE');
#638 = ORIENTED_EDGE ( 'NONE', *, *, #7, .T. ) ;
#639 = CARTESIAN_POINT ( 'NONE',  ( 36.98742042498217586, 9.307900847274199307, 196.1772449174438293 ) ) ;
#640 = AXIS2_PLACEMENT_3D ( 'NONE', #65, #179, #187 ) ;
#641 = VECTOR ( 'NONE', #757, 999.9999999999998863 ) ;
#642 = AXIS2_PLACEMENT_3D ( 'NONE', #278, #526, #659 ) ;
#643 = CARTESIAN_POINT ( 'NONE',  ( -83.80863323967029999, -17.47374402928151227, -186.0001546990148995 ) ) ;
#644 = ADVANCED_FACE ( 'NONE', ( #480 ), #487, .T. ) ;
#645 = ORIENTED_EDGE ( 'NONE', *, *, #290, .F. ) ;
#646 = DIRECTION ( 'NONE',  ( 0.000000000000000000, 0.000000000000000000, -1.000000000000000000 ) ) ;
#647 = DIRECTION ( 'NONE',  ( -0.000000000000000000, 0.000000000000000000, 1.000000000000000000 ) ) ;
#648 = ORIENTED_EDGE ( 'NONE', *, *, #437, .F. ) ;
#649 = EDGE_CURVE ( 'NONE', #326, #485, #483, .T. ) ;
#650 = CARTESIAN_POINT ( 'NONE',  ( 94.63308709453529843, -5.366912905464734429, -200.0000000000000000 ) ) ;
#651 = ADVANCED_FACE ( 'NONE', ( #186 ), #425, .T. ) ;
#652 = PRESENTATION_STYLE_ASSIGNMENT (( #585 ) ) ;
#653 = ORIENTED_EDGE ( 'NONE', *, *, #94, .T. ) ;
#654 = CARTESIAN_POINT ( 'NONE',  ( 47.50000000000000000, 0.000000000000000000, -200.0000000000000000 ) ) ;
#655 = LINE ( 'NONE', #82, #53 ) ;
#656 = CIRCLE ( 'NONE', #596, 5.000000000000000000 ) ;
#657 = CARTESIAN_POINT ( 'NONE',  ( 50.00000000000000000, 0.000000000000000000, -150.0000000000000284 ) ) ;
#658 = ORIENTED_EDGE ( 'NONE', *, *, #119, .F. ) ;
#659 = DIRECTION ( 'NONE',  ( -1.000000000000000000, 0.000000000000000000, -0.000000000000000000 ) ) ;
#660 = LINE ( 'NONE', #346, #783 ) ;
#661 = EDGE_CURVE ( 'NONE', #407, #60, #434, .T. ) ;
#662 = ORIENTED_EDGE ( 'NONE', *, *, #329, .T. ) ;
#663 = CYLINDRICAL_SURFACE ( 'NONE', #284, 5.000000000000000000 ) ;
#664 = ORIENTED_EDGE ( 'NONE', *, *, #4, .F. ) ;
#665 = CARTESIAN_POINT ( 'NONE',  ( -100.0000000000000000, 3.433599921454264514, -200.0000000000000000 ) ) ;
#666 = FACE_OUTER_BOUND ( 'NONE', #26, .T. ) ;
#667 = CIRCLE ( 'NONE', #795, 5.000000000000000000 ) ;
#668 = AXIS2_PLACEMENT_3D ( 'NONE', #153, #588, #672 ) ;
#669 = DIRECTION ( 'NONE',  ( 1.000000000000000000, 0.000000000000000000, 0.000000000000000000 ) ) ;
#670 = EDGE_CURVE ( 'NONE', #60, #525, #298, .T. ) ;
#671 = EDGE_LOOP ( 'NONE', ( #262, #817 ) ) ;
#672 = DIRECTION ( 'NONE',  ( -1.000000000000000000, 0.000000000000000000, 0.000000000000000000 ) ) ;
#673 = CARTESIAN_POINT ( 'NONE',  ( 100.0000000000000000, -0.3794404183931309182, 200.0000000000000000 ) ) ;
#674 = VERTEX_POINT ( 'NONE', #266 ) ;
#675 = DIRECTION ( 'NONE',  ( -0.000000000000000000, -0.000000000000000000, -1.000000000000000000 ) ) ;
#676 = LINE ( 'NONE', #673, #375 ) ;
#677 = EDGE_LOOP ( 'NONE', ( #185, #405, #13, #546 ) ) ;
#678 = CARTESIAN_POINT ( 'NONE',  ( -93.96909421789057149, 13.53944524151399698, -190.4979798047419308 ) ) ;
#679 = ADVANCED_FACE ( 'NONE', ( #700 ), #704, .T. ) ;
#680 = EDGE_CURVE ( 'NONE', #490, #289, #797, .T. ) ;
#681 = CARTESIAN_POINT ( 'NONE',  ( -82.84015176117839019, -2.255140518769849223E-14, -200.0000000000000000 ) ) ;
#682 = VECTOR ( 'NONE', #831, 999.9999999999998863 ) ;
#683 = AXIS2_PLACEMENT_3D ( 'NONE', #650, #505, #77 ) ;
#684 = EDGE_LOOP ( 'NONE', ( #582, #743, #605, #140, #107 ) ) ;
#685 = EDGE_CURVE ( 'NONE', #543, #5, #547, .T. ) ;
#686 = CARTESIAN_POINT ( 'NONE',  ( 79.35030686659132471, -6.411731294692644134, -110.0000000000000142 ) ) ;
#687 = EDGE_CURVE ( 'NONE', #823, #5, #707, .T. ) ;
#688 = ORIENTED_EDGE ( 'NONE', *, *, #557, .T. ) ;
#689 = CARTESIAN_POINT ( 'NONE',  ( -87.36721721382927797, 16.91217039901900421, -186.9189501455840627 ) ) ;
#690 = CARTESIAN_POINT ( 'NONE',  ( -99.34500689923763161, 5.817194931552474024, -197.9005139817428756 ) ) ;
#691 = CARTESIAN_POINT ( 'NONE',  ( -86.09531267947117783, -17.19656598767319977, -186.4481866557428020 ) ) ;
#692 = DIRECTION ( 'NONE',  ( -1.000000000000000000, 0.000000000000000000, 0.000000000000000000 ) ) ;
#693 = CARTESIAN_POINT ( 'NONE',  ( -96.55316616022390974, -10.90790661054370503, -192.8422579556103358 ) ) ;
#694 = EDGE_CURVE ( 'NONE', #512, #361, #205, .T. ) ;
#695 = VECTOR ( 'NONE', #647, 1000.000000000000000 ) ;
#696 = EDGE_LOOP ( 'NONE', ( #628, #316 ) ) ;
#697 = DIRECTION ( 'NONE',  ( -1.000000000000000000, 0.000000000000000000, -0.000000000000000000 ) ) ;
#698 = CARTESIAN_POINT ( 'NONE',  ( 50.00000000000000000, 0.000000000000000000, -200.0000000000000000 ) ) ;
#699 = CARTESIAN_POINT ( 'NONE',  ( -82.85075057500863238, -17.50005034557496231, -187.3533600799709689 ) ) ;
#700 = FACE_OUTER_BOUND ( 'NONE', #717, .T. ) ;
#701 = CARTESIAN_POINT ( 'NONE',  ( 50.00000000000002842, -50.00000000000000711, -200.0000000000000000 ) ) ;
#702 = CARTESIAN_POINT ( 'NONE',  ( -83.03814434014378776, -17.49894117622545053, -186.5446406466469682 ) ) ;
#703 = ORIENTED_EDGE ( 'NONE', *, *, #531, .T. ) ;
#704 = PLANE ( 'NONE',  #683 ) ;
#705 = CARTESIAN_POINT ( 'NONE',  ( -82.84015176117840440, -17.50000000000003908, -187.6335818989665540 ) ) ;
#706 = ORIENTED_EDGE ( 'NONE', *, *, #34, .F. ) ;
#707 = LINE ( 'NONE', #777, #310 ) ;
#708 = AXIS2_PLACEMENT_3D ( 'NONE', #246, #400, #502 ) ;
#709 = VECTOR ( 'NONE', #528, 1000.000000000000114 ) ;
#710 = EDGE_CURVE ( 'NONE', #156, #275, #633, .T. ) ;
#711 = LINE ( 'NONE', #210, #584 ) ;
#712 = EDGE_CURVE ( 'NONE', #289, #490, #415, .T. ) ;
#713 = VERTEX_POINT ( 'NONE', #199 ) ;
#714 = CARTESIAN_POINT ( 'NONE',  ( -5.000000000000000000, 0.000000000000000000, -150.0000000000000284 ) ) ;
#715 = LINE ( 'NONE', #524, #695 ) ;
#716 = ADVANCED_FACE ( 'NONE', ( #583 ), #14, .T. ) ;
#717 = EDGE_LOOP ( 'NONE', ( #241, #471, #736, #234 ) ) ;
#718 = CARTESIAN_POINT ( 'NONE',  ( -100.0000000000000000, 3.433599921454264514, -200.0000000000000000 ) ) ;
#719 = PRODUCT_DEFINITION ( 'General', '', #363, #509 ) ;
#720 = DIRECTION ( 'NONE',  ( 0.000000000000000000, 0.000000000000000000, 1.000000000000000000 ) ) ;
#721 = PLANE ( 'NONE',  #66 ) ;
#722 = ORIENTED_EDGE ( 'NONE', *, *, #535, .F. ) ;
#723 = ADVANCED_FACE ( 'NONE', ( #256, #379, #321, #580 ), #269, .T. ) ;
#724 = PRESENTATION_LAYER_ASSIGNMENT (  '', '', ( #109 ) ) ;
#725 = CARTESIAN_POINT ( 'NONE',  ( 0.000000000000000000, 0.000000000000000000, -150.0000000000000284 ) ) ;
#726 = CIRCLE ( 'NONE', #110, 2.500000000000002220 ) ;
#727 = CARTESIAN_POINT ( 'NONE',  ( 52.50000000000000711, 3.061616997868386099E-16, -150.0000000000000284 ) ) ;
#728 =( BOUNDED_CURVE ( )  B_SPLINE_CURVE ( 3, ( #319, #118, #448, #254 ),
 .UNSPECIFIED., .F., .F. ) 
 B_SPLINE_CURVE_WITH_KNOTS ( ( 4, 4 ),
 ( 4.712388980384689674, 6.123894648508837690 ),
 .UNSPECIFIED. ) 
 CURVE ( )  GEOMETRIC_REPRESENTATION_ITEM ( )  RATIONAL_B_SPLINE_CURVE ( ( 1.000000000000000000, 0.8407489826951707323, 0.8407489826951707323, 1.000000000000000000 ) ) 
 REPRESENTATION_ITEM ( '' )  );
#729 = ORIENTED_EDGE ( 'NONE', *, *, #670, .T. ) ;
#730 = LINE ( 'NONE', #96, #308 ) ;
#731 = FACE_OUTER_BOUND ( 'NONE', #444, .T. ) ;
#732 = ORIENTED_EDGE ( 'NONE', *, *, #455, .F. ) ;
#733 = SHAPE_DEFINITION_REPRESENTATION ( #285, #1 ) ;
#734 = PLANE ( 'NONE',  #555 ) ;
#735 = DIRECTION ( 'NONE',  ( 1.000000000000000000, 0.000000000000000000, 0.000000000000000000 ) ) ;
#736 = ORIENTED_EDGE ( 'NONE', *, *, #744, .F. ) ;
#737 = LINE ( 'NONE', #796, #351 ) ;
#738 = CARTESIAN_POINT ( 'NONE',  ( -70.80721477505564110, 4.649348963471451768, -146.7194139734307896 ) ) ;
#739 = B_SPLINE_CURVE_WITH_KNOTS ( 'NONE', 3,
 ( #325, #705, #699, #627, #569, #702, #133, #503, #433, #8, #3, #770, #643, #193, #128, #565, #72, #265, #267, #561, #691, #827, #372, #511, #385, #775, #780, #430, #631, #636, #622, #250, #315, #575, #693, #508, #494, #197, #54, #762, #184, #123 ),
 .UNSPECIFIED., .F., .F.,
 ( 4, 2, 2, 2, 2, 2, 2, 2, 2, 2, 2, 2, 2, 2, 2, 2, 2, 2, 2, 2, 4 ),
 ( 0.000000000000000000, 0.0008364066801182027918, 0.001254610020177262825, 0.001672813360236323184, 0.001881915030265835041, 0.002091016700295347114, 0.002509220040354333096, 0.002927423380413319513, 0.003345626720472305929, 0.004182033400590277027, 0.005018440080708247257, 0.006691253440944186850, 0.008364066801180127311, 0.01003688016141606777, 0.01338250688188787757, 0.01505532024212378334, 0.01672813360235968910, 0.02007376032283153880, 0.02174657368306745844, 0.02341938704330337115, 0.02676501376377519656 ),
 .UNSPECIFIED. ) ;
#740 = EDGE_LOOP ( 'NONE', ( #247, #793, #688, #217 ) ) ;
#741 = FACE_OUTER_BOUND ( 'NONE', #171, .T. ) ;
#742 = DIRECTION ( 'NONE',  ( 0.000000000000000000, 0.000000000000000000, -1.000000000000000000 ) ) ;
#743 = ORIENTED_EDGE ( 'NONE', *, *, #27, .T. ) ;
#744 = EDGE_CURVE ( 'NONE', #781, #392, #629, .T. ) ;
#745 = CARTESIAN_POINT ( 'NONE',  ( 100.0000000000000000, -4.999999999999987566, -200.0000000000000000 ) ) ;
#746 = DIRECTION ( 'NONE',  ( 0.7536893798819792600, 0.6572307955757380471, 0.000000000000000000 ) ) ;
#747 = ORIENTED_EDGE ( 'NONE', *, *, #356, .T. ) ;
#748 = CARTESIAN_POINT ( 'NONE',  ( -96.55220365306298902, 10.88297678546173053, -192.8696452645954764 ) ) ;
#749 = ADVANCED_FACE ( 'NONE', ( #571 ), #768, .F. ) ;
#750 = EDGE_CURVE ( 'NONE', #143, #482, #454, .T. ) ;
#751 = FACE_OUTER_BOUND ( 'NONE', #800, .T. ) ;
#752 = AXIS2_PLACEMENT_3D ( 'NONE', #380, #182, #51 ) ;
#753 = AXIS2_PLACEMENT_3D ( 'NONE', #826, #720, #323 ) ;
#754 = ORIENTED_EDGE ( 'NONE', *, *, #802, .F. ) ;
#755 = DIRECTION ( 'NONE',  ( 0.06820651906659735975, -0.9976712237790653637, 0.000000000000000000 ) ) ;
#756 = AXIS2_PLACEMENT_3D ( 'NONE', #138, #646, #513 ) ;
#757 = DIRECTION ( 'NONE',  ( -0.6572307955757380471, 0.7536893798819792600, 0.000000000000000000 ) ) ;
#758 = LINE ( 'NONE', #260, #215 ) ;
#759 = DIRECTION ( 'NONE',  ( 0.000000000000000000, 0.000000000000000000, -1.000000000000000000 ) ) ;
#760 = CARTESIAN_POINT ( 'NONE',  ( 5.000000000000000000, 6.123233995736766282E-16, -150.0000000000000284 ) ) ;
#761 = ADVANCED_FACE ( 'NONE', ( #317 ), #191, .T. ) ;
#762 = CARTESIAN_POINT ( 'NONE',  ( -98.78305834884920955, -7.263223091717684099, -196.3246903110813264 ) ) ;
#763 = EDGE_LOOP ( 'NONE', ( #73, #228, #344, #653 ) ) ;
#764 = DIRECTION ( 'NONE',  ( -0.9976712237790653637, 0.06820651906659695729, 0.000000000000000000 ) ) ;
#765 = CARTESIAN_POINT ( 'NONE',  ( -82.91780461822625625, 4.694137296045532537, -145.2454837716205986 ) ) ;
#766 = VECTOR ( 'NONE', #607, 1000.000000000000000 ) ;
#767 = ORIENTED_EDGE ( 'NONE', *, *, #488, .T. ) ;
#768 = PLANE ( 'NONE',  #799 ) ;
#769 = DIRECTION ( 'NONE',  ( -0.000000000000000000, -0.000000000000000000, -1.000000000000000000 ) ) ;
#770 = CARTESIAN_POINT ( 'NONE',  ( -83.66919483821445169, -17.48085072232830584, -186.0212515834047622 ) ) ;
#771 = UNCERTAINTY_MEASURE_WITH_UNIT (LENGTH_MEASURE( 1.000000000000000082E-05 ), #790, 'distance_accuracy_value', 'NONE');
#772 = ORIENTED_EDGE ( 'NONE', *, *, #92, .F. ) ;
#773 = LINE ( 'NONE', #639, #574 ) ;
#774 = LINE ( 'NONE', #122, #597 ) ;
#775 = CARTESIAN_POINT ( 'NONE',  ( -89.76793610049899996, -16.07828371996167860, -187.9936057004977101 ) ) ;
#776 = ORIENTED_EDGE ( 'NONE', *, *, #429, .T. ) ;
#777 = CARTESIAN_POINT ( 'NONE',  ( -100.0000000000000000, 17.49999999999998934, -200.0000000000000000 ) ) ;
#778 = EDGE_CURVE ( 'NONE', #713, #143, #612, .T. ) ;
#779 = EDGE_CURVE ( 'NONE', #44, #532, #773, .T. ) ;
#780 = CARTESIAN_POINT ( 'NONE',  ( -90.22400861907296132, -15.87368749385565181, -188.2226581139458972 ) ) ;
#781 = VERTEX_POINT ( 'NONE', #327 ) ;
#782 = DIRECTION ( 'NONE',  ( 1.000000000000000000, 0.000000000000000000, 1.384546954556844116E-15 ) ) ;
#783 = VECTOR ( 'NONE', #603, 1000.000000000000000 ) ;
#784 = AXIS2_PLACEMENT_3D ( 'NONE', #64, #273, #61 ) ;
#785 = CARTESIAN_POINT ( 'NONE',  ( 0.000000000000000000, 0.000000000000000000, -200.0000000000000000 ) ) ;
#786 = ORIENTED_EDGE ( 'NONE', *, *, #493, .F. ) ;
#787 = CARTESIAN_POINT ( 'NONE',  ( -50.00000000000000000, 0.000000000000000000, -150.0000000000000284 ) ) ;
#788 = DIRECTION ( 'NONE',  ( 0.9976712237790652527, 0.06820651906659734587, 0.000000000000000000 ) ) ;
#789 = EDGE_LOOP ( 'NONE', ( #645, #658 ) ) ;
#790 =( LENGTH_UNIT ( ) NAMED_UNIT ( * ) SI_UNIT ( .MILLI., .METRE. ) );
#791 = CARTESIAN_POINT ( 'NONE',  ( 25.10643666798131335, 4.770489558936219510E-15, 200.0000000000000000 ) ) ;
#792 = LINE ( 'NONE', #214, #188 ) ;
#793 = ORIENTED_EDGE ( 'NONE', *, *, #350, .F. ) ;
#794 = PRODUCT_CONTEXT ( 'NONE', #11, 'mechanical' ) ;
#795 = AXIS2_PLACEMENT_3D ( 'NONE', #202, #206, #17 ) ;
#796 = CARTESIAN_POINT ( 'NONE',  ( 100.0000000000000000, -4.999999999999987566, -200.0000000000000000 ) ) ;
#797 = CIRCLE ( 'NONE', #559, 2.500000000000002220 ) ;
#798 = LINE ( 'NONE', #520, #322 ) ;
#799 = AXIS2_PLACEMENT_3D ( 'NONE', #126, #195, #782 ) ;
#800 = EDGE_LOOP ( 'NONE', ( #237, #706, #79, #46, #198 ) ) ;
#801 = CARTESIAN_POINT ( 'NONE',  ( 94.63308709453529843, -5.366912905464734429, 110.0000000000000426 ) ) ;
#802 = EDGE_CURVE ( 'NONE', #823, #311, #634, .T. ) ;
#803 = CYLINDRICAL_SURFACE ( 'NONE', #401, 5.000000000000000000 ) ;
#804 = ORIENTED_EDGE ( 'NONE', *, *, #373, .T. ) ;
#805 = CARTESIAN_POINT ( 'NONE',  ( 94.63308709453529843, -5.366912905464734429, -200.0000000000000000 ) ) ;
#806 = CARTESIAN_POINT ( 'NONE',  ( 12.08286554953813408, -4.929420633200071281E-15, 158.9271726322263589 ) ) ;
#807 = ADVANCED_FACE ( 'NONE', ( #225 ), #157, .T. ) ;
#808 = APPLICATION_CONTEXT ( 'automotive_design' ) ;
#809 = PLANE ( 'NONE',  #438 ) ;
#810 = ORIENTED_EDGE ( 'NONE', *, *, #535, .T. ) ;
#811 = DIRECTION ( 'NONE',  ( 0.000000000000000000, 0.000000000000000000, -1.000000000000000000 ) ) ;
#812 = AXIS2_PLACEMENT_3D ( 'NONE', #240, #233, #163 ) ;
#813 = CARTESIAN_POINT ( 'NONE',  ( 79.35030686659133892, -6.411731294692640581, -200.0000000000000000 ) ) ;
#814 = ORIENTED_EDGE ( 'NONE', *, *, #242, .T. ) ;
#815 = CARTESIAN_POINT ( 'NONE',  ( -82.85054390461441187, 17.50004926510449721, -187.3571867942237361 ) ) ;
#816 = CARTESIAN_POINT ( 'NONE',  ( 100.0000000000000000, -4.999999999999987566, 200.0000000000000000 ) ) ;
#817 = ORIENTED_EDGE ( 'NONE', *, *, #778, .T. ) ;
#818 = CARTESIAN_POINT ( 'NONE',  ( -84.07732289354387945, 17.45676970352809221, -185.9871002055225233 ) ) ;
#819 = CARTESIAN_POINT ( 'NONE',  ( -14.25566257045952945, -1.695692197767328935E-12, 74.84112026295727560 ) ) ;
#820 = ORIENTED_EDGE ( 'NONE', *, *, #710, .T. ) ;
#821 = CARTESIAN_POINT ( 'NONE',  ( -92.80933533234606614, 14.39080829340563028, -189.7096130495405646 ) ) ;
#822 = FACE_OUTER_BOUND ( 'NONE', #93, .T. ) ;
#823 = VERTEX_POINT ( 'NONE', #665 ) ;
#824 = CARTESIAN_POINT ( 'NONE',  ( -82.91475127799755285, 17.49985408457803615, -186.9457253926051123 ) ) ;
#825 = ADVANCED_FACE ( 'NONE', ( #522 ), #399, .T. ) ;
#826 = CARTESIAN_POINT ( 'NONE',  ( -82.84015176117839019, -2.255140518769849223E-14, -200.0000000000000000 ) ) ;
#827 = CARTESIAN_POINT ( 'NONE',  ( -86.86145769093000979, -17.03968650265778351, -186.7192011685172872 ) ) ;
#828 = VERTEX_POINT ( 'NONE', #654 ) ;
#829 = CARTESIAN_POINT ( 'NONE',  ( -83.79929774447872148, 17.47425076721441783, -186.0013719328518107 ) ) ;
#830 = CARTESIAN_POINT ( 'NONE',  ( 80.22291376263747509, 6.352074889381724709, 110.0000000000000142 ) ) ;
#831 = DIRECTION ( 'NONE',  ( 0.7071067811865473507, 0.7071067811865477948, 0.000000000000000000 ) ) ;
#832 = ORIENTED_EDGE ( 'NONE', *, *, #694, .F. ) ;
#833 = DIRECTION ( 'NONE',  ( 0.000000000000000000, 0.000000000000000000, -1.000000000000000000 ) ) ;
#834 = DIRECTION ( 'NONE',  ( 0.000000000000000000, 0.000000000000000000, -1.000000000000000000 ) ) ;
#835 = EDGE_CURVE ( 'NONE', #148, #618, #408, .T. ) ;
#836 = VECTOR ( 'NONE', #293, 1000.000000000000000 ) ;
#837 = EDGE_LOOP ( 'NONE', ( #648, #832, #453, #590 ) ) ;
#838 = CARTESIAN_POINT ( 'NONE',  ( 0.000000000000000000, 0.000000000000000000, -150.0000000000000284 ) ) ;
ENDSEC;
END-ISO-10303-21;
