ISO-10303-21;
HEADER;
FILE_DESCRIPTION (( 'STEP AP214' ),
    '1' );
FILE_NAME ('Main Assembly.STEP',
    '2026-04-30T22:21:28',
    ( '' ),
    ( '' ),
    'SwSTEP 2.0',
    'SolidWorks 2026',
    '' );
FILE_SCHEMA (( 'AUTOMOTIVE_DESIGN' ));
ENDSEC;

DATA;
#1 = PRODUCT_RELATED_PRODUCT_CATEGORY ( 'part', '', ( #25 ) ) ;
#2 = APPLICATION_PROTOCOL_DEFINITION ( 'draft international standard', 'automotive_design', 1998, #51 ) ;
#3 = EXTERNAL_SOURCE (IDENTIFIER('') ) ;
#4 = PROPERTY_DEFINITION_REPRESENTATION ( #122, #202 ) ;
#5 = PROPERTY_DEFINITION_REPRESENTATION ( #127, #114 ) ;
#6 =( LENGTH_UNIT ( ) NAMED_UNIT ( * ) SI_UNIT ( .MILLI., .METRE. ) );
#7 =( LENGTH_UNIT ( ) NAMED_UNIT ( * ) SI_UNIT ( .MILLI., .METRE. ) );
#8 =( NAMED_UNIT ( * ) SI_UNIT ( $, .STERADIAN. ) SOLID_ANGLE_UNIT ( ) );
#9 = IDENTIFICATION_ROLE ( 'external document id and location', $) ;
#10 = DIRECTION ( 'NONE',  ( 1.000000000000000000, 0.000000000000000000, 0.000000000000000000 ) ) ;
#11 =( GEOMETRIC_REPRESENTATION_CONTEXT ( 3 ) GLOBAL_UNCERTAINTY_ASSIGNED_CONTEXT ( ( #303 ) ) GLOBAL_UNIT_ASSIGNED_CONTEXT ( ( #237, #265, #49 ) ) REPRESENTATION_CONTEXT ( 'NONE', 'WORKASPACE' ) );
#12 = DIRECTION ( 'NONE',  ( 0.9985792045777371895, 0.01517633499419744451, 0.05108082850774681161 ) ) ;
#13 = ITEM_DEFINED_TRANSFORMATION ( 'NONE', 'NONE', #258,  #307 ) ;
#14 = OBJECT_ROLE ('mandatory',$ ) ;
#15 = PROPERTY_DEFINITION ('external definition','', #266 ) ;
#16 =( REPRESENTATION_RELATIONSHIP ('NONE','NONE', #115, #299 ) REPRESENTATION_RELATIONSHIP_WITH_TRANSFORMATION ( #13 )SHAPE_REPRESENTATION_RELATIONSHIP( ) );
#17 = SHAPE_DEFINITION_REPRESENTATION ( #52, #270 ) ;
#18 = APPLIED_DOCUMENT_REFERENCE ( #187,'',( #73) ) ;
#19 =( NAMED_UNIT ( * ) SI_UNIT ( $, .STERADIAN. ) SOLID_ANGLE_UNIT ( ) );
#20 = ITEM_DEFINED_TRANSFORMATION ( 'NONE', 'NONE', #99,  #129 ) ;
#21 =( REPRESENTATION_RELATIONSHIP ('NONE','NONE', #115, #202 ) REPRESENTATION_RELATIONSHIP_WITH_TRANSFORMATION ( #53 )SHAPE_REPRESENTATION_RELATIONSHIP( ) );
#22 = ROLE_ASSOCIATION ( #271, #76 ) ;
#23 = PRODUCT_DEFINITION_FORMATION_WITH_SPECIFIED_SOURCE ( 'Symmetric', '', #77, .NOT_KNOWN. ) ;
#24 = AXIS2_PLACEMENT_3D ( 'NONE', #72, #186, #10 ) ;
#25 = PRODUCT ( 'Plane_Nose', 'Plane_Nose', '', ( #43 ) ) ;
#26 = CARTESIAN_POINT ( 'NONE',  ( 0.000000000000000000, 0.000000000000000000, 0.000000000000000000 ) ) ;
#27 = PRODUCT_RELATED_PRODUCT_CATEGORY ( 'part', '', ( #107 ) ) ;
#28 = DIRECTION ( 'NONE',  ( -0.05114061308231766106, 0.003577457612999991945, 0.9986850552053895269 ) ) ;
#29 = SHAPE_REPRESENTATION ( 'Left Wing', ( #91 ), #106 ) ;
#30 = CARTESIAN_POINT ( 'NONE',  ( 730.2068336411545033, 972.8357774944208813, 1378.436785807681190 ) ) ;
#31 = PRODUCT_DEFINITION_CONTEXT ( 'detailed design', #239, 'design' ) ;
#32 = APPLICATION_CONTEXT ( 'automotive_design' ) ;
#33 = DIRECTION ( 'NONE',  ( 0.000000000000000000, 0.000000000000000000, 1.000000000000000000 ) ) ;
#34 = PRODUCT_DEFINITION_FORMATION_WITH_SPECIFIED_SOURCE ( 'Symmetric', '', #191, .NOT_KNOWN. ) ;
#35 = PRODUCT_RELATED_PRODUCT_CATEGORY ( 'part', '', ( #269 ) ) ;
#36 =( NAMED_UNIT ( * ) PLANE_ANGLE_UNIT ( ) SI_UNIT ( $, .RADIAN. ) );
#37 =( LENGTH_UNIT ( ) NAMED_UNIT ( * ) SI_UNIT ( .MILLI., .METRE. ) );
#38 = PRODUCT_DEFINITION_SHAPE ( 'NONE', 'NONE',  #317 ) ;
#39 = APPLICATION_CONTEXT ( 'automotive_design' ) ;
#40 = UNCERTAINTY_MEASURE_WITH_UNIT (LENGTH_MEASURE( 1.000000000000000082E-05 ), #218, 'distance_accuracy_value', 'NONE');
#41 = APPLICATION_PROTOCOL_DEFINITION ( 'draft international standard', 'automotive_design', 1998, #182 ) ;
#42 = SHAPE_DEFINITION_REPRESENTATION ( #314, #115 ) ;
#43 = PRODUCT_CONTEXT ( 'NONE', #56, 'mechanical' ) ;
#44 = ROLE_ASSOCIATION ( #216, #18 ) ;
#45 = PROPERTY_DEFINITION ('document property','', #157 ) ;
#46 = DIRECTION ( 'NONE',  ( 1.000000000000000000, 0.000000000000000000, 0.000000000000000000 ) ) ;
#47 = APPLIED_DOCUMENT_REFERENCE ( #288,'',( #293) ) ;
#48 = APPLICATION_PROTOCOL_DEFINITION ( 'draft international standard', 'automotive_design', 1998, #56 ) ;
#49 =( NAMED_UNIT ( * ) SI_UNIT ( $, .STERADIAN. ) SOLID_ANGLE_UNIT ( ) );
#50 = ROLE_ASSOCIATION ( #196, #183 ) ;
#51 = APPLICATION_CONTEXT ( 'automotive_design' ) ;
#52 = PRODUCT_DEFINITION_SHAPE ( 'NONE', 'NONE',  #275 ) ;
#53 = ITEM_DEFINED_TRANSFORMATION ( 'NONE', 'NONE', #161,  #240 ) ;
#54 = EXTERNAL_SOURCE (IDENTIFIER('') ) ;
#55 =( NAMED_UNIT ( * ) PLANE_ANGLE_UNIT ( ) SI_UNIT ( $, .RADIAN. ) );
#56 = APPLICATION_CONTEXT ( 'automotive_design' ) ;
#57 = APPLICATION_PROTOCOL_DEFINITION ( 'draft international standard', 'automotive_design', 1998, #109 ) ;
#58 = PRODUCT_DEFINITION_CONTEXT ( 'detailed design', #120, 'design' ) ;
#59 = PRODUCT_RELATED_PRODUCT_CATEGORY ( 'part', '', ( #291 ) ) ;
#60 =( GEOMETRIC_REPRESENTATION_CONTEXT ( 3 ) GLOBAL_UNCERTAINTY_ASSIGNED_CONTEXT ( ( #40 ) ) GLOBAL_UNIT_ASSIGNED_CONTEXT ( ( #218, #294, #170 ) ) REPRESENTATION_CONTEXT ( 'NONE', 'WORKASPACE' ) );
#61 = PRODUCT_DEFINITION_SHAPE ( 'NONE', 'NONE',  #319 ) ;
#62 = PRODUCT_CONTEXT ( 'NONE', #139, 'mechanical' ) ;
#63 = DIRECTION ( 'NONE',  ( 0.9985792045777370785, 0.01517633499419722420, 0.05108082850774688793 ) ) ;
#64 = PRODUCT_DEFINITION_CONTEXT ( 'detailed design', #113, 'design' ) ;
#65 = APPLICATION_CONTEXT ( 'automotive_design' ) ;
#66 = APPLIED_EXTERNAL_IDENTIFICATION_ASSIGNMENT ( 'Right Wing.STEP' , #169, #128,( #157) ) ;
#67 = SHAPE_DEFINITION_REPRESENTATION ( #223, #299 ) ;
#68 = OBJECT_ROLE ('mandatory',$ ) ;
#69 = CONTEXT_DEPENDENT_SHAPE_REPRESENTATION ( #217, #173 ) ;
#70 = DIRECTION ( 'NONE',  ( 1.000000000000000000, 0.000000000000000000, 0.000000000000000000 ) ) ;
#71 = ROLE_ASSOCIATION ( #259, #309 ) ;
#72 = CARTESIAN_POINT ( 'NONE',  ( 0.000000000000000000, 0.000000000000000000, 0.000000000000000000 ) ) ;
#73 = PRODUCT_DEFINITION ( 'General', '', #172, #168 ) ;
#74 = ITEM_DEFINED_TRANSFORMATION ( 'NONE', 'NONE', #245,  #91 ) ;
#75 = EXTERNAL_SOURCE (IDENTIFIER('') ) ;
#76 = APPLIED_DOCUMENT_REFERENCE ( #157,'',( #274) ) ;
#77 = PRODUCT ( 'Body-Fuselage-1', 'Body-Fuselage-1', '', ( #95 ) ) ;
#78 = CARTESIAN_POINT ( 'NONE',  ( 730.1836975103051373, 972.8373959444639922, 1378.888593221045085 ) ) ;
#79 = PROPERTY_DEFINITION ('external definition','', #100 ) ;
#80 =( REPRESENTATION_RELATIONSHIP ('NONE','NONE', #115, #255 ) REPRESENTATION_RELATIONSHIP_WITH_TRANSFORMATION ( #236 )SHAPE_REPRESENTATION_RELATIONSHIP( ) );
#81 = CARTESIAN_POINT ( 'NONE',  ( 855.0060980825222714, 974.7344378187384564, 1385.273696784513504 ) ) ;
#82 = PRODUCT_DEFINITION_FORMATION_WITH_SPECIFIED_SOURCE ( 'Symmetric', '', #107, .NOT_KNOWN. ) ;
#83 = AXIS2_PLACEMENT_3D ( 'NONE', #110, #163, #70 ) ;
#84 = DOCUMENT_TYPE ( 'geometry' ) ;
#85 = CARTESIAN_POINT ( 'NONE',  ( 534.0039947017897930, 969.8558709184717372, 1368.853313385531465 ) ) ;
#86 = SHAPE_REPRESENTATION ( 'Plane_Nose', ( #83 ), #311 ) ;
#87 = PRODUCT_DEFINITION_CONTEXT ( 'detailed design', #165, 'design' ) ;
#88 =( REPRESENTATION_RELATIONSHIP ('NONE','NONE', #115, #114 ) REPRESENTATION_RELATIONSHIP_WITH_TRANSFORMATION ( #20 )SHAPE_REPRESENTATION_RELATIONSHIP( ) );
#89 = APPLIED_DOCUMENT_REFERENCE ( #224,'',( #248) ) ;
#90 = APPLICATION_PROTOCOL_DEFINITION ( 'draft international standard', 'automotive_design', 1998, #113 ) ;
#91 = AXIS2_PLACEMENT_3D ( 'NONE', #26, #33, #251 ) ;
#92 = PRODUCT_CONTEXT ( 'NONE', #96, 'mechanical' ) ;
#93 = PRODUCT_DEFINITION_SHAPE ( 'NONE', 'NONE',  #320 ) ;
#94 = UNCERTAINTY_MEASURE_WITH_UNIT (LENGTH_MEASURE( 1.000000000000000082E-05 ), #160, 'distance_accuracy_value', 'NONE');
#95 = PRODUCT_CONTEXT ( 'NONE', #32, 'mechanical' ) ;
#96 = APPLICATION_CONTEXT ( 'automotive_design' ) ;
#97 = PROPERTY_DEFINITION_REPRESENTATION ( #230, #299 ) ;
#98 = DIRECTION ( 'NONE',  ( 1.000000000000000000, 0.000000000000000000, 0.000000000000000000 ) ) ;
#99 = AXIS2_PLACEMENT_3D ( 'NONE', #171, #150, #279 ) ;
#100 = DOCUMENT_FILE ( 'Body-Fuselage-3.STEP' , '', '', #175, '' ,$ ) ;
#101 = PROPERTY_DEFINITION_REPRESENTATION ( #79, #270 ) ;
#102 = OBJECT_ROLE ('mandatory',$ ) ;
#103 = CONTEXT_DEPENDENT_SHAPE_REPRESENTATION ( #80, #118 ) ;
#104 =( NAMED_UNIT ( * ) SI_UNIT ( $, .STERADIAN. ) SOLID_ANGLE_UNIT ( ) );
#105 = DOCUMENT_FILE ( 'Body-Fuselage-2.STEP' , '', '', #108, '' ,$ ) ;
#106 =( GEOMETRIC_REPRESENTATION_CONTEXT ( 3 ) GLOBAL_UNCERTAINTY_ASSIGNED_CONTEXT ( ( #176 ) ) GLOBAL_UNIT_ASSIGNED_CONTEXT ( ( #7, #246, #8 ) ) REPRESENTATION_CONTEXT ( 'NONE', 'WORKASPACE' ) );
#107 = PRODUCT ( 'Left Wing', 'Left Wing', '', ( #180 ) ) ;
#108 = DOCUMENT_TYPE ( 'geometry' ) ;
#109 = APPLICATION_CONTEXT ( 'automotive_design' ) ;
#110 = CARTESIAN_POINT ( 'NONE',  ( 0.000000000000000000, 0.000000000000000000, 0.000000000000000000 ) ) ;
#111 = PRODUCT ( 'Center-Wing-Brace', 'Center-Wing-Brace', '', ( #62 ) ) ;
#112 = PRODUCT_DEFINITION_FORMATION_WITH_SPECIFIED_SOURCE ( 'Symmetric', '', #158, .NOT_KNOWN. ) ;
#113 = APPLICATION_CONTEXT ( 'automotive_design' ) ;
#114 = SHAPE_REPRESENTATION ( 'Right Wing', ( #129 ), #60 ) ;
#115 = SHAPE_REPRESENTATION ( 'Main Assembly', ( #283, #258, #249, #194, #161, #154, #245, #99 ), #143 ) ;
#116 = PRODUCT_DEFINITION_FORMATION_WITH_SPECIFIED_SOURCE ( 'Symmetric', '', #269, .NOT_KNOWN. ) ;
#117 = PRODUCT_RELATED_PRODUCT_CATEGORY ( 'part', '', ( #191 ) ) ;
#118 = PRODUCT_DEFINITION_SHAPE ( 'NONE', 'NONE',  #321 ) ;
#119 = PRODUCT_CONTEXT ( 'NONE', #65, 'mechanical' ) ;
#120 = APPLICATION_CONTEXT ( 'automotive_design' ) ;
#121 = SHAPE_DEFINITION_REPRESENTATION ( #136, #86 ) ;
#122 = PROPERTY_DEFINITION ('document property','', #105 ) ;
#123 = PRODUCT_DEFINITION_CONTEXT ( 'detailed design', #298, 'design' ) ;
#124 = APPLICATION_PROTOCOL_DEFINITION ( 'draft international standard', 'automotive_design', 1998, #65 ) ;
#125 = APPLICATION_PROTOCOL_DEFINITION ( 'draft international standard', 'automotive_design', 1998, #32 ) ;
#126 = DOCUMENT_TYPE ( 'geometry' ) ;
#127 = PROPERTY_DEFINITION ('external definition','', #157 ) ;
#128 = EXTERNAL_SOURCE (IDENTIFIER('') ) ;
#129 = AXIS2_PLACEMENT_3D ( 'NONE', #242, #195, #243 ) ;
#130 = APPLIED_DOCUMENT_REFERENCE ( #105,'',( #277) ) ;
#131 = PROPERTY_DEFINITION_REPRESENTATION ( #145, #86 ) ;
#132 = IDENTIFICATION_ROLE ( 'external document id and location', $) ;
#133 = CONTEXT_DEPENDENT_SHAPE_REPRESENTATION ( #88, #286 ) ;
#134 =( GEOMETRIC_REPRESENTATION_CONTEXT ( 3 ) GLOBAL_UNCERTAINTY_ASSIGNED_CONTEXT ( ( #94 ) ) GLOBAL_UNIT_ASSIGNED_CONTEXT ( ( #160, #267, #19 ) ) REPRESENTATION_CONTEXT ( 'NONE', 'WORKASPACE' ) );
#135 = DIRECTION ( 'NONE',  ( 1.000000000000000000, 0.000000000000000000, 0.000000000000000000 ) ) ;
#136 = PRODUCT_DEFINITION_SHAPE ( 'NONE', 'NONE',  #73 ) ;
#137 = DIRECTION ( 'NONE',  ( 0.000000000000000000, 0.000000000000000000, 1.000000000000000000 ) ) ;
#138 = DIRECTION ( 'NONE',  ( 0.9985792045777370785, 0.01517633499419744625, 0.05108082850774681161 ) ) ;
#139 = APPLICATION_CONTEXT ( 'automotive_design' ) ;
#140 =( NAMED_UNIT ( * ) SI_UNIT ( $, .STERADIAN. ) SOLID_ANGLE_UNIT ( ) );
#141 = PRODUCT_DEFINITION_CONTEXT ( 'detailed design', #182, 'design' ) ;
#142 =( REPRESENTATION_RELATIONSHIP ('NONE','NONE', #115, #29 ) REPRESENTATION_RELATIONSHIP_WITH_TRANSFORMATION ( #74 )SHAPE_REPRESENTATION_RELATIONSHIP( ) );
#143 =( GEOMETRIC_REPRESENTATION_CONTEXT ( 3 ) GLOBAL_UNCERTAINTY_ASSIGNED_CONTEXT ( ( #256 ) ) GLOBAL_UNIT_ASSIGNED_CONTEXT ( ( #37, #36, #260 ) ) REPRESENTATION_CONTEXT ( 'NONE', 'WORKASPACE' ) );
#144 = APPLICATION_PROTOCOL_DEFINITION ( 'draft international standard', 'automotive_design', 1998, #239 ) ;
#145 = PROPERTY_DEFINITION ('document property','', #187 ) ;
#146 = DIRECTION ( 'NONE',  ( -0.05114061308231774433, 0.003577457612999910413, 0.9986850552053894159 ) ) ;
#147 = SHAPE_DEFINITION_REPRESENTATION ( #214, #202 ) ;
#148 = EXTERNAL_SOURCE (IDENTIFIER('') ) ;
#149 = UNCERTAINTY_MEASURE_WITH_UNIT (LENGTH_MEASURE( 1.000000000000000082E-05 ), #190, 'distance_accuracy_value', 'NONE');
#150 = DIRECTION ( 'NONE',  ( 0.05114061308231775821, -0.003577457612999914317, -0.9986850552053895269 ) ) ;
#151 = PROPERTY_DEFINITION ('document property','', #288 ) ;
#152 = PROPERTY_DEFINITION_REPRESENTATION ( #204, #86 ) ;
#153 = DIRECTION ( 'NONE',  ( 0.000000000000000000, 0.000000000000000000, 1.000000000000000000 ) ) ;
#154 = AXIS2_PLACEMENT_3D ( 'NONE', #30, #232, #63 ) ;
#155 = EXTERNAL_SOURCE (IDENTIFIER('') ) ;
#156 = PROPERTY_DEFINITION_REPRESENTATION ( #280, #202 ) ;
#157 = DOCUMENT_FILE ( 'Right Wing.STEP' , '', '', #205, '' ,$ ) ;
#158 = PRODUCT ( 'Body-Fuselage-3', 'Body-Fuselage-3', '', ( #92 ) ) ;
#159 = PROPERTY_DEFINITION_REPRESENTATION ( #308, #29 ) ;
#160 =( LENGTH_UNIT ( ) NAMED_UNIT ( * ) SI_UNIT ( .MILLI., .METRE. ) );
#161 = AXIS2_PLACEMENT_3D ( 'NONE', #78, #28, #138 ) ;
#162 = AXIS2_PLACEMENT_3D ( 'NONE', #238, #153, #290 ) ;
#163 = DIRECTION ( 'NONE',  ( 0.000000000000000000, 0.000000000000000000, 1.000000000000000000 ) ) ;
#164 = PRODUCT_DEFINITION_SHAPE ( 'NONE', 'NONE',  #293 ) ;
#165 = APPLICATION_CONTEXT ( 'automotive_design' ) ;
#166 = DIRECTION ( 'NONE',  ( -0.05108292046999507452, -0.0002500256240542539843, 0.9986943840452110477 ) ) ;
#167 = PRODUCT_CONTEXT ( 'NONE', #109, 'mechanical' ) ;
#168 = PRODUCT_DEFINITION_CONTEXT ( 'detailed design', #39, 'design' ) ;
#169 = IDENTIFICATION_ROLE ( 'external document id and location', $) ;
#170 =( NAMED_UNIT ( * ) SI_UNIT ( $, .STERADIAN. ) SOLID_ANGLE_UNIT ( ) );
#171 = CARTESIAN_POINT ( 'NONE',  ( 742.9919869117338749, 971.9414130911708298, 1128.765522006333640 ) ) ;
#172 = PRODUCT_DEFINITION_FORMATION_WITH_SPECIFIED_SOURCE ( 'Symmetric', '', #25, .NOT_KNOWN. ) ;
#173 = PRODUCT_DEFINITION_SHAPE ( 'NONE', 'NONE',  #318 ) ;
#174 = APPLICATION_PROTOCOL_DEFINITION ( 'draft international standard', 'automotive_design', 1998, #120 ) ;
#175 = DOCUMENT_TYPE ( 'geometry' ) ;
#176 = UNCERTAINTY_MEASURE_WITH_UNIT (LENGTH_MEASURE( 1.000000000000000082E-05 ), #7, 'distance_accuracy_value', 'NONE');
#177 = PROPERTY_DEFINITION ('document property','', #100 ) ;
#178 = APPLICATION_PROTOCOL_DEFINITION ( 'draft international standard', 'automotive_design', 1998, #165 ) ;
#179 = PRODUCT_DEFINITION_FORMATION_WITH_SPECIFIED_SOURCE ( 'Symmetric', '', #111, .NOT_KNOWN. ) ;
#180 = PRODUCT_CONTEXT ( 'NONE', #310, 'mechanical' ) ;
#181 = PRODUCT_RELATED_PRODUCT_CATEGORY ( 'part', '', ( #111 ) ) ;
#182 = APPLICATION_CONTEXT ( 'automotive_design' ) ;
#183 = APPLIED_DOCUMENT_REFERENCE ( #100,'',( #275) ) ;
#184 =( NAMED_UNIT ( * ) PLANE_ANGLE_UNIT ( ) SI_UNIT ( $, .RADIAN. ) );
#185 = PROPERTY_DEFINITION_REPRESENTATION ( #15, #255 ) ;
#186 = DIRECTION ( 'NONE',  ( 0.000000000000000000, 0.000000000000000000, 1.000000000000000000 ) ) ;
#187 = DOCUMENT_FILE ( 'Plane_Nose.STEP' , '', '', #84, '' ,$ ) ;
#188 = DOCUMENT_TYPE ( 'geometry' ) ;
#189 = PROPERTY_DEFINITION_REPRESENTATION ( #45, #114 ) ;
#190 =( LENGTH_UNIT ( ) NAMED_UNIT ( * ) SI_UNIT ( .MILLI., .METRE. ) );
#191 = PRODUCT ( 'Body-Fuselage-2', 'Body-Fuselage-2', '', ( #119 ) ) ;
#192 = PROPERTY_DEFINITION_REPRESENTATION ( #177, #270 ) ;
#193 =( NAMED_UNIT ( * ) PLANE_ANGLE_UNIT ( ) SI_UNIT ( $, .RADIAN. ) );
#194 = AXIS2_PLACEMENT_3D ( 'NONE', #315, #166, #272 ) ;
#195 = DIRECTION ( 'NONE',  ( 0.000000000000000000, 0.000000000000000000, 1.000000000000000000 ) ) ;
#196 = OBJECT_ROLE ('mandatory',$ ) ;
#197 =( NAMED_UNIT ( * ) SI_UNIT ( $, .STERADIAN. ) SOLID_ANGLE_UNIT ( ) );
#198 = PRODUCT_DEFINITION_CONTEXT ( 'detailed design', #51, 'design' ) ;
#199 = DIRECTION ( 'NONE',  ( -0.05061834975413063292, -0.02943725776983474596, 0.9982841431792657261 ) ) ;
#200 = DIRECTION ( 'NONE',  ( 0.9985792045777368564, 0.01517633499419767523, 0.05108082850774688100 ) ) ;
#201 = IDENTIFICATION_ROLE ( 'external document id and location', $) ;
#202 = SHAPE_REPRESENTATION ( 'Body-Fuselage-2', ( #240 ), #229 ) ;
#203 = DIRECTION ( 'NONE',  ( 0.000000000000000000, 0.000000000000000000, 1.000000000000000000 ) ) ;
#204 = PROPERTY_DEFINITION ('external definition','', #187 ) ;
#205 = DOCUMENT_TYPE ( 'geometry' ) ;
#206 = UNCERTAINTY_MEASURE_WITH_UNIT (LENGTH_MEASURE( 1.000000000000000082E-05 ), #6, 'distance_accuracy_value', 'NONE');
#207 = ITEM_DEFINED_TRANSFORMATION ( 'NONE', 'NONE', #249,  #162 ) ;
#208 = ROLE_ASSOCIATION ( #102, #89 ) ;
#209 =( REPRESENTATION_RELATIONSHIP ('NONE','NONE', #115, #86 ) REPRESENTATION_RELATIONSHIP_WITH_TRANSFORMATION ( #287 )SHAPE_REPRESENTATION_RELATIONSHIP( ) );
#210 = ROLE_ASSOCIATION ( #14, #47 ) ;
#211 = PRODUCT_RELATED_PRODUCT_CATEGORY ( 'part', '', ( #158 ) ) ;
#212 = PROPERTY_DEFINITION_REPRESENTATION ( #301, #255 ) ;
#213 = DIRECTION ( 'NONE',  ( 0.000000000000000000, 0.000000000000000000, 1.000000000000000000 ) ) ;
#214 = PRODUCT_DEFINITION_SHAPE ( 'NONE', 'NONE',  #277 ) ;
#215 = PRODUCT_DEFINITION_SHAPE ( 'NONE', 'NONE',  #274 ) ;
#216 = OBJECT_ROLE ('mandatory',$ ) ;
#217 =( REPRESENTATION_RELATIONSHIP ('NONE','NONE', #115, #270 ) REPRESENTATION_RELATIONSHIP_WITH_TRANSFORMATION ( #207 )SHAPE_REPRESENTATION_RELATIONSHIP( ) );
#218 =( LENGTH_UNIT ( ) NAMED_UNIT ( * ) SI_UNIT ( .MILLI., .METRE. ) );
#219 = DOCUMENT_TYPE ( 'geometry' ) ;
#220 =( LENGTH_UNIT ( ) NAMED_UNIT ( * ) SI_UNIT ( .MILLI., .METRE. ) );
#221 = APPLIED_EXTERNAL_IDENTIFICATION_ASSIGNMENT ( 'Plane_Nose.STEP' , #225, #3,( #187) ) ;
#222 = PROPERTY_DEFINITION_REPRESENTATION ( #253, #299 ) ;
#223 = PRODUCT_DEFINITION_SHAPE ( 'NONE', 'NONE',  #248 ) ;
#224 = DOCUMENT_FILE ( 'Body-Fuselage-1.STEP' , '', '', #188, '' ,$ ) ;
#225 = IDENTIFICATION_ROLE ( 'external document id and location', $) ;
#226 = UNCERTAINTY_MEASURE_WITH_UNIT (LENGTH_MEASURE( 1.000000000000000082E-05 ), #220, 'distance_accuracy_value', 'NONE');
#227 = CARTESIAN_POINT ( 'NONE',  ( 717.4216803705751317, 973.7301418976708192, 1628.108049609028740 ) ) ;
#228 = APPLIED_EXTERNAL_IDENTIFICATION_ASSIGNMENT ( 'Body-Fuselage-2.STEP' , #132, #276,( #105) ) ;
#229 =( GEOMETRIC_REPRESENTATION_CONTEXT ( 3 ) GLOBAL_UNCERTAINTY_ASSIGNED_CONTEXT ( ( #149 ) ) GLOBAL_UNIT_ASSIGNED_CONTEXT ( ( #190, #193, #197 ) ) REPRESENTATION_CONTEXT ( 'NONE', 'WORKASPACE' ) );
#230 = PROPERTY_DEFINITION ('document property','', #224 ) ;
#231 = APPLICATION_PROTOCOL_DEFINITION ( 'draft international standard', 'automotive_design', 1998, #39 ) ;
#232 = DIRECTION ( 'NONE',  ( -0.05114061308231773739, 0.003577457612999905209, 0.9986850552053895269 ) ) ;
#233 = APPLIED_EXTERNAL_IDENTIFICATION_ASSIGNMENT ( 'Body-Fuselage-3.STEP' , #201, #155,( #100) ) ;
#234 = IDENTIFICATION_ROLE ( 'external document id and location', $) ;
#235 = PRODUCT_RELATED_PRODUCT_CATEGORY ( 'part', '', ( #77 ) ) ;
#236 = ITEM_DEFINED_TRANSFORMATION ( 'NONE', 'NONE', #154,  #24 ) ;
#237 =( LENGTH_UNIT ( ) NAMED_UNIT ( * ) SI_UNIT ( .MILLI., .METRE. ) );
#238 = CARTESIAN_POINT ( 'NONE',  ( 0.000000000000000000, 0.000000000000000000, 0.000000000000000000 ) ) ;
#239 = APPLICATION_CONTEXT ( 'automotive_design' ) ;
#240 = AXIS2_PLACEMENT_3D ( 'NONE', #313, #213, #46 ) ;
#241 = PRODUCT_DEFINITION_SHAPE ( 'NONE', 'NONE',  #268 ) ;
#242 = CARTESIAN_POINT ( 'NONE',  ( 0.000000000000000000, 0.000000000000000000, 0.000000000000000000 ) ) ;
#243 = DIRECTION ( 'NONE',  ( 1.000000000000000000, 0.000000000000000000, 0.000000000000000000 ) ) ;
#244 = APPLIED_EXTERNAL_IDENTIFICATION_ASSIGNMENT ( 'Left Wing.STEP' , #234, #148,( #288) ) ;
#245 = AXIS2_PLACEMENT_3D ( 'NONE', #227, #146, #200 ) ;
#246 =( NAMED_UNIT ( * ) PLANE_ANGLE_UNIT ( ) SI_UNIT ( $, .RADIAN. ) );
#247 = DIRECTION ( 'NONE',  ( 0.9985792045777370785, 0.01517633499419744451, 0.05108082850774681161 ) ) ;
#248 = PRODUCT_DEFINITION ( 'General', '', #23, #198 ) ;
#249 = AXIS2_PLACEMENT_3D ( 'NONE', #81, #296, #12 ) ;
#250 = PRODUCT_DEFINITION ( 'General', '', #278, #123 ) ;
#251 = DIRECTION ( 'NONE',  ( 1.000000000000000000, 0.000000000000000000, 0.000000000000000000 ) ) ;
#252 = APPLICATION_PROTOCOL_DEFINITION ( 'draft international standard', 'automotive_design', 1998, #139 ) ;
#253 = PROPERTY_DEFINITION ('external definition','', #224 ) ;
#254 = SHAPE_DEFINITION_REPRESENTATION ( #215, #114 ) ;
#255 = SHAPE_REPRESENTATION ( 'Center-Wing-Brace', ( #24 ), #284 ) ;
#256 = UNCERTAINTY_MEASURE_WITH_UNIT (LENGTH_MEASURE( 1.000000000000000082E-05 ), #37, 'distance_accuracy_value', 'NONE');
#257 = SHAPE_DEFINITION_REPRESENTATION ( #164, #29 ) ;
#258 = AXIS2_PLACEMENT_3D ( 'NONE', #85, #199, #247 ) ;
#259 = OBJECT_ROLE ('mandatory',$ ) ;
#260 =( NAMED_UNIT ( * ) SI_UNIT ( $, .STERADIAN. ) SOLID_ANGLE_UNIT ( ) );
#261 = PRODUCT_DEFINITION_SHAPE ( 'NONE', 'NONE',  #322 ) ;
#262 = CONTEXT_DEPENDENT_SHAPE_REPRESENTATION ( #21, #93 ) ;
#263 = APPLIED_EXTERNAL_IDENTIFICATION_ASSIGNMENT ( 'Center-Wing-Brace.STEP' , #9, #54,( #266) ) ;
#264 = CONTEXT_DEPENDENT_SHAPE_REPRESENTATION ( #142, #261 ) ;
#265 =( NAMED_UNIT ( * ) PLANE_ANGLE_UNIT ( ) SI_UNIT ( $, .RADIAN. ) );
#266 = DOCUMENT_FILE ( 'Center-Wing-Brace.STEP' , '', '', #126, '' ,$ ) ;
#267 =( NAMED_UNIT ( * ) PLANE_ANGLE_UNIT ( ) SI_UNIT ( $, .RADIAN. ) );
#268 = PRODUCT_DEFINITION ( 'General', '', #179, #31 ) ;
#269 = PRODUCT ( 'Right Wing', 'Right Wing', '', ( #305 ) ) ;
#270 = SHAPE_REPRESENTATION ( 'Body-Fuselage-3', ( #162 ), #134 ) ;
#271 = OBJECT_ROLE ('mandatory',$ ) ;
#272 = DIRECTION ( 'NONE',  ( 0.9985792045777371895, 0.01517633499419744798, 0.05108082850774681855 ) ) ;
#273 = APPLICATION_PROTOCOL_DEFINITION ( 'draft international standard', 'automotive_design', 1998, #298 ) ;
#274 = PRODUCT_DEFINITION ( 'General', '', #116, #64 ) ;
#275 = PRODUCT_DEFINITION ( 'General', '', #112, #58 ) ;
#276 = EXTERNAL_SOURCE (IDENTIFIER('') ) ;
#277 = PRODUCT_DEFINITION ( 'General', '', #34, #87 ) ;
#278 = PRODUCT_DEFINITION_FORMATION_WITH_SPECIFIED_SOURCE ( 'Symmetric', '', #291, .NOT_KNOWN. ) ;
#279 = DIRECTION ( 'NONE',  ( 0.9985792045777371895, 0.01517633499419681481, 0.05108082850774690875 ) ) ;
#280 = PROPERTY_DEFINITION ('external definition','', #105 ) ;
#281 = CARTESIAN_POINT ( 'NONE',  ( 0.000000000000000000, 0.000000000000000000, 0.000000000000000000 ) ) ;
#282 = SHAPE_DEFINITION_REPRESENTATION ( #241, #255 ) ;
#283 = AXIS2_PLACEMENT_3D ( 'NONE', #281, #203, #98 ) ;
#284 =( GEOMETRIC_REPRESENTATION_CONTEXT ( 3 ) GLOBAL_UNCERTAINTY_ASSIGNED_CONTEXT ( ( #226 ) ) GLOBAL_UNIT_ASSIGNED_CONTEXT ( ( #220, #55, #140 ) ) REPRESENTATION_CONTEXT ( 'NONE', 'WORKASPACE' ) );
#285 = CONTEXT_DEPENDENT_SHAPE_REPRESENTATION ( #209, #61 ) ;
#286 = PRODUCT_DEFINITION_SHAPE ( 'NONE', 'NONE',  #323 ) ;
#287 = ITEM_DEFINED_TRANSFORMATION ( 'NONE', 'NONE', #194,  #83 ) ;
#288 = DOCUMENT_FILE ( 'Left Wing.STEP' , '', '', #219, '' ,$ ) ;
#289 = ROLE_ASSOCIATION ( #68, #130 ) ;
#290 = DIRECTION ( 'NONE',  ( 1.000000000000000000, 0.000000000000000000, 0.000000000000000000 ) ) ;
#291 = PRODUCT ( 'Main Assembly', 'Main Assembly', '', ( #167 ) ) ;
#292 = CARTESIAN_POINT ( 'NONE',  ( 0.000000000000000000, 0.000000000000000000, 0.000000000000000000 ) ) ;
#293 = PRODUCT_DEFINITION ( 'General', '', #82, #141 ) ;
#294 =( NAMED_UNIT ( * ) PLANE_ANGLE_UNIT ( ) SI_UNIT ( $, .RADIAN. ) );
#295 = APPLICATION_CONTEXT ( 'automotive_design' ) ;
#296 = DIRECTION ( 'NONE',  ( -0.05065110432946641483, -0.02746559642300620829, 0.9983386733184956841 ) ) ;
#297 = CONTEXT_DEPENDENT_SHAPE_REPRESENTATION ( #16, #38 ) ;
#298 = APPLICATION_CONTEXT ( 'automotive_design' ) ;
#299 = SHAPE_REPRESENTATION ( 'Body-Fuselage-1', ( #307 ), #11 ) ;
#300 = APPLIED_EXTERNAL_IDENTIFICATION_ASSIGNMENT ( 'Body-Fuselage-1.STEP' , #316, #75,( #224) ) ;
#301 = PROPERTY_DEFINITION ('document property','', #266 ) ;
#302 = APPLICATION_PROTOCOL_DEFINITION ( 'draft international standard', 'automotive_design', 1998, #96 ) ;
#303 = UNCERTAINTY_MEASURE_WITH_UNIT (LENGTH_MEASURE( 1.000000000000000082E-05 ), #237, 'distance_accuracy_value', 'NONE');
#304 = APPLICATION_PROTOCOL_DEFINITION ( 'draft international standard', 'automotive_design', 1998, #295 ) ;
#305 = PRODUCT_CONTEXT ( 'NONE', #295, 'mechanical' ) ;
#306 = APPLICATION_PROTOCOL_DEFINITION ( 'draft international standard', 'automotive_design', 1998, #310 ) ;
#307 = AXIS2_PLACEMENT_3D ( 'NONE', #292, #137, #135 ) ;
#308 = PROPERTY_DEFINITION ('external definition','', #288 ) ;
#309 = APPLIED_DOCUMENT_REFERENCE ( #266,'',( #268) ) ;
#310 = APPLICATION_CONTEXT ( 'automotive_design' ) ;
#311 =( GEOMETRIC_REPRESENTATION_CONTEXT ( 3 ) GLOBAL_UNCERTAINTY_ASSIGNED_CONTEXT ( ( #206 ) ) GLOBAL_UNIT_ASSIGNED_CONTEXT ( ( #6, #184, #104 ) ) REPRESENTATION_CONTEXT ( 'NONE', 'WORKASPACE' ) );
#312 = PROPERTY_DEFINITION_REPRESENTATION ( #151, #29 ) ;
#313 = CARTESIAN_POINT ( 'NONE',  ( 0.000000000000000000, 0.000000000000000000, 0.000000000000000000 ) ) ;
#314 = PRODUCT_DEFINITION_SHAPE ( 'NONE', 'NONE',  #250 ) ;
#315 = CARTESIAN_POINT ( 'NONE',  ( 375.6880798852081966, 967.4497970215243186, 1360.754899100795001 ) ) ;
#316 = IDENTIFICATION_ROLE ( 'external document id and location', $) ;
#317 = NEXT_ASSEMBLY_USAGE_OCCURRENCE ( 'NAUO1', ' ', ' ', #250, #248, $ ) ;
#318 = NEXT_ASSEMBLY_USAGE_OCCURRENCE ( 'NAUO2', ' ', ' ', #250, #275, $ ) ;
#319 = NEXT_ASSEMBLY_USAGE_OCCURRENCE ( 'NAUO3', ' ', ' ', #250, #73, $ ) ;
#320 = NEXT_ASSEMBLY_USAGE_OCCURRENCE ( 'NAUO4', ' ', ' ', #250, #277, $ ) ;
#321 = NEXT_ASSEMBLY_USAGE_OCCURRENCE ( 'NAUO5', ' ', ' ', #250, #268, $ ) ;
#322 = NEXT_ASSEMBLY_USAGE_OCCURRENCE ( 'NAUO6', ' ', ' ', #250, #293, $ ) ;
#323 = NEXT_ASSEMBLY_USAGE_OCCURRENCE ( 'NAUO7', ' ', ' ', #250, #274, $ ) ;
ENDSEC;
END-ISO-10303-21;
