ISO-10303-21;
HEADER;
FILE_DESCRIPTION (( 'STEP AP214' ),
    '1' );
FILE_NAME ('Plane_Nose.STEP',
    '2026-04-30T22:21:28',
    ( '' ),
    ( '' ),
    'SwSTEP 2.0',
    'SolidWorks 2026',
    '' );
FILE_SCHEMA (( 'AUTOMOTIVE_DESIGN' ));
ENDSEC;

DATA;
#1 = CIRCLE ( 'NONE', #107, 1.500000000000001332 ) ;
#2 = EDGE_LOOP ( 'NONE', ( #550, #440 ) ) ;
#3 = CARTESIAN_POINT ( 'NONE',  ( 0.000000000000000000, 8.000000000000000000, 0.000000000000000000 ) ) ;
#4 = EDGE_CURVE ( 'NONE', #437, #115, #530, .T. ) ;
#5 = EDGE_LOOP ( 'NONE', ( #126, #219, #399, #265 ) ) ;
#6 = DIRECTION ( 'NONE',  ( -1.000000000000000000, 0.000000000000000000, 0.000000000000000000 ) ) ;
#7 = ORIENTED_EDGE ( 'NONE', *, *, #359, .F. ) ;
#8 = CIRCLE ( 'NONE', #191, 1.500000000000001332 ) ;
#9 = FACE_OUTER_BOUND ( 'NONE', #235, .T. ) ;
#10 = ORIENTED_EDGE ( 'NONE', *, *, #59, .F. ) ;
#11 = PRESENTATION_STYLE_ASSIGNMENT (( #260 ) ) ;
#12 = VERTEX_POINT ( 'NONE', #237 ) ;
#13 = DIRECTION ( 'NONE',  ( 0.000000000000000000, 0.000000000000000000, 1.000000000000000000 ) ) ;
#14 = VERTEX_POINT ( 'NONE', #486 ) ;
#15 = DIRECTION ( 'NONE',  ( -1.000000000000000000, -0.000000000000000000, -0.000000000000000000 ) ) ;
#16 = CIRCLE ( 'NONE', #45, 10.01335581735189884 ) ;
#17 = CARTESIAN_POINT ( 'NONE',  ( 80.00000000000000000, 0.000000000000000000, -30.00000000000000000 ) ) ;
#18 = EDGE_CURVE ( 'NONE', #12, #394, #369, .T. ) ;
#19 = DIRECTION ( 'NONE',  ( 0.000000000000000000, 0.000000000000000000, 1.000000000000000000 ) ) ;
#20 = ADVANCED_FACE ( 'NONE', ( #143 ), #325, .T. ) ;
#21 = ORIENTED_EDGE ( 'NONE', *, *, #300, .F. ) ;
#22 = FACE_OUTER_BOUND ( 'NONE', #97, .T. ) ;
#23 = ORIENTED_EDGE ( 'NONE', *, *, #315, .F. ) ;
#24 = FACE_OUTER_BOUND ( 'NONE', #288, .T. ) ;
#25 = VERTEX_POINT ( 'NONE', #444 ) ;
#26 = AXIS2_PLACEMENT_3D ( 'NONE', #371, #280, #41 ) ;
#27 = AXIS2_PLACEMENT_3D ( 'NONE', #73, #546, #200 ) ;
#28 = CARTESIAN_POINT ( 'NONE',  ( 0.000000000000000000, 0.000000000000000000, 8.000000000000000000 ) ) ;
#29 = CARTESIAN_POINT ( 'NONE',  ( 10.00000000000000000, 8.000000000000000000, 0.000000000000000000 ) ) ;
#30 = EDGE_LOOP ( 'NONE', ( #136, #351, #247, #58 ) ) ;
#31 = PLANE ( 'NONE',  #432 ) ;
#32 = DIRECTION ( 'NONE',  ( -1.000000000000000000, -0.000000000000000000, -0.000000000000000000 ) ) ;
#33 = CARTESIAN_POINT ( 'NONE',  ( 10.00000000000000000, 0.000000000000000000, 0.000000000000000000 ) ) ;
#34 = DIRECTION ( 'NONE',  ( -1.000000000000000000, -0.000000000000000000, -0.000000000000000000 ) ) ;
#35 = CIRCLE ( 'NONE', #336, 1.500000000000000000 ) ;
#36 = VECTOR ( 'NONE', #269, 1000.000000000000000 ) ;
#37 = CARTESIAN_POINT ( 'NONE',  ( 0.000000000000000000, 0.000000000000000000, 0.000000000000000000 ) ) ;
#38 = AXIS2_PLACEMENT_3D ( 'NONE', #251, #326, #162 ) ;
#39 = CYLINDRICAL_SURFACE ( 'NONE', #52, 1.500000000000001332 ) ;
#40 = EDGE_CURVE ( 'NONE', #540, #12, #103, .T. ) ;
#41 = DIRECTION ( 'NONE',  ( 0.000000000000000000, 0.000000000000000000, 1.000000000000000000 ) ) ;
#42 =( NAMED_UNIT ( * ) SI_UNIT ( $, .STERADIAN. ) SOLID_ANGLE_UNIT ( ) );
#43 = EDGE_LOOP ( 'NONE', ( #129, #257, #91, #48 ) ) ;
#44 = ADVANCED_FACE ( 'NONE', ( #106, #402, #184, #362, #276 ), #410, .F. ) ;
#45 = AXIS2_PLACEMENT_3D ( 'NONE', #246, #283, #381 ) ;
#46 = EDGE_CURVE ( 'NONE', #372, #318, #68, .T. ) ;
#47 = DIRECTION ( 'NONE',  ( 0.000000000000000000, 0.000000000000000000, 1.000000000000000000 ) ) ;
#48 = ORIENTED_EDGE ( 'NONE', *, *, #18, .F. ) ;
#49 = DIRECTION ( 'NONE',  ( 0.000000000000000000, 0.000000000000000000, 1.000000000000000000 ) ) ;
#50 = VERTEX_POINT ( 'NONE', #374 ) ;
#51 = ORIENTED_EDGE ( 'NONE', *, *, #493, .T. ) ;
#52 = AXIS2_PLACEMENT_3D ( 'NONE', #382, #547, #289 ) ;
#53 = LINE ( 'NONE', #517, #95 ) ;
#54 = EDGE_LOOP ( 'NONE', ( #89, #305, #67, #533 ) ) ;
#55 = CARTESIAN_POINT ( 'NONE',  ( 0.000000000000000000, 1.836970198721029441E-16, -9.500000000000000000 ) ) ;
#56 = CARTESIAN_POINT ( 'NONE',  ( 5.421010862427522170E-15, 9.660449702255409611E-16, 7.888355817351901500 ) ) ;
#57 = LINE ( 'NONE', #489, #404 ) ;
#58 = ORIENTED_EDGE ( 'NONE', *, *, #503, .T. ) ;
#59 = EDGE_CURVE ( 'NONE', #468, #261, #328, .T. ) ;
#60 = EDGE_CURVE ( 'NONE', #50, #394, #139, .T. ) ;
#61 = CARTESIAN_POINT ( 'NONE',  ( 10.00000000000000000, -8.000000000000000000, 0.000000000000000000 ) ) ;
#62 = CIRCLE ( 'NONE', #222, 13.00000000000000000 ) ;
#63 = CARTESIAN_POINT ( 'NONE',  ( 36.96853973261324455, 0.000000000000000000, 0.000000000000000000 ) ) ;
#64 = DIRECTION ( 'NONE',  ( -1.000000000000000000, 0.000000000000000000, 0.000000000000000000 ) ) ;
#65 = EDGE_LOOP ( 'NONE', ( #21, #450, #537, #453 ) ) ;
#66 = DIRECTION ( 'NONE',  ( -1.000000000000000000, -0.000000000000000000, -0.000000000000000000 ) ) ;
#67 = ORIENTED_EDGE ( 'NONE', *, *, #316, .T. ) ;
#68 = CIRCLE ( 'NONE', #168, 1.500000000000000000 ) ;
#69 = CARTESIAN_POINT ( 'NONE',  ( 10.00000000000000000, 0.000000000000000000, 9.500000000000001776 ) ) ;
#70 = VECTOR ( 'NONE', #108, 1000.000000000000000 ) ;
#71 =( NAMED_UNIT ( * ) PLANE_ANGLE_UNIT ( ) SI_UNIT ( $, .RADIAN. ) );
#72 = DIRECTION ( 'NONE',  ( 1.000000000000000000, 0.000000000000000000, 0.000000000000000000 ) ) ;
#73 = CARTESIAN_POINT ( 'NONE',  ( 10.00000000000000000, 0.000000000000000000, -8.000000000000000000 ) ) ;
#74 = LINE ( 'NONE', #337, #273 ) ;
#75 = ADVANCED_FACE ( 'NONE', ( #123 ), #195, .F. ) ;
#76 = LINE ( 'NONE', #499, #405 ) ;
#77 = EDGE_CURVE ( 'NONE', #490, #434, #456, .T. ) ;
#78 = CARTESIAN_POINT ( 'NONE',  ( 0.000000000000000000, 0.000000000000000000, 0.000000000000000000 ) ) ;
#79 = CARTESIAN_POINT ( 'NONE',  ( 10.00000000000000000, 1.836970198721029441E-16, -9.500000000000000000 ) ) ;
#80 = DIRECTION ( 'NONE',  ( 0.000000000000000000, 0.000000000000000000, 1.000000000000000000 ) ) ;
#81 = ORIENTED_EDGE ( 'NONE', *, *, #340, .F. ) ;
#82 = CARTESIAN_POINT ( 'NONE',  ( 10.00000000000000000, 0.000000000000000000, 8.000000000000000000 ) ) ;
#83 = ORIENTED_EDGE ( 'NONE', *, *, #359, .T. ) ;
#84 = PRODUCT_DEFINITION_CONTEXT ( 'detailed design', #536, 'design' ) ;
#85 = SURFACE_STYLE_FILL_AREA ( #392 ) ;
#86 = EDGE_LOOP ( 'NONE', ( #502, #208, #518, #133 ) ) ;
#87 = DIRECTION ( 'NONE',  ( 0.000000000000000000, 0.000000000000000000, 1.000000000000000000 ) ) ;
#88 = CIRCLE ( 'NONE', #38, 1.499999999999999556 ) ;
#89 = ORIENTED_EDGE ( 'NONE', *, *, #190, .F. ) ;
#90 = FACE_OUTER_BOUND ( 'NONE', #54, .T. ) ;
#91 = ORIENTED_EDGE ( 'NONE', *, *, #60, .T. ) ;
#92 = DIRECTION ( 'NONE',  ( 1.000000000000000000, 0.000000000000000000, 0.000000000000000000 ) ) ;
#93 = EDGE_CURVE ( 'NONE', #474, #434, #111, .T. ) ;
#94 = ORIENTED_EDGE ( 'NONE', *, *, #142, .T. ) ;
#95 = VECTOR ( 'NONE', #302, 1000.000000000000000 ) ;
#96 = CYLINDRICAL_SURFACE ( 'NONE', #204, 1.500000000000001332 ) ;
#97 = EDGE_LOOP ( 'NONE', ( #320, #211, #171, #511 ) ) ;
#98 = FACE_OUTER_BOUND ( 'NONE', #117, .T. ) ;
#99 = EDGE_LOOP ( 'NONE', ( #270, #51 ) ) ;
#100 = ADVANCED_FACE ( 'NONE', ( #424 ), #39, .F. ) ;
#101 = ADVANCED_FACE ( 'NONE', ( #199 ), #210, .T. ) ;
#102 = DIRECTION ( 'NONE',  ( 0.000000000000000000, 0.000000000000000000, 1.000000000000000000 ) ) ;
#103 = LINE ( 'NONE', #145, #522 ) ;
#104 = CARTESIAN_POINT ( 'NONE',  ( 10.00000000000000000, 8.000000000000000000, -1.500000000000000000 ) ) ;
#105 = AXIS2_PLACEMENT_3D ( 'NONE', #334, #114, #157 ) ;
#106 = FACE_BOUND ( 'NONE', #442, .T. ) ;
#107 = AXIS2_PLACEMENT_3D ( 'NONE', #164, #248, #534 ) ;
#108 = DIRECTION ( 'NONE',  ( -1.000000000000000000, -0.000000000000000000, -0.000000000000000000 ) ) ;
#109 = VERTEX_POINT ( 'NONE', #287 ) ;
#110 = CARTESIAN_POINT ( 'NONE',  ( 0.000000000000000000, -8.000000000000000000, 1.500000000000000222 ) ) ;
#111 = LINE ( 'NONE', #69, #471 ) ;
#112 = DIRECTION ( 'NONE',  ( 0.000000000000000000, 0.000000000000000000, 1.000000000000000000 ) ) ;
#113 = AXIS2_PLACEMENT_3D ( 'NONE', #458, #504, #121 ) ;
#114 = DIRECTION ( 'NONE',  ( -1.000000000000000000, 0.000000000000000000, 0.000000000000000000 ) ) ;
#115 = VERTEX_POINT ( 'NONE', #154 ) ;
#116 = DIRECTION ( 'NONE',  ( 0.000000000000000000, 0.000000000000000000, 1.000000000000000000 ) ) ;
#117 = EDGE_LOOP ( 'NONE', ( #527, #484 ) ) ;
#118 = ADVANCED_FACE ( 'NONE', ( #207 ), #203, .F. ) ;
#119 = EDGE_CURVE ( 'NONE', #253, #50, #74, .T. ) ;
#120 = DIRECTION ( 'NONE',  ( 1.000000000000000000, -0.000000000000000000, -0.000000000000000000 ) ) ;
#121 = DIRECTION ( 'NONE',  ( 0.000000000000000000, 0.000000000000000000, -1.000000000000000000 ) ) ;
#122 = APPLICATION_PROTOCOL_DEFINITION ( 'draft international standard', 'automotive_design', 1998, #339 ) ;
#123 = FACE_OUTER_BOUND ( 'NONE', #30, .T. ) ;
#124 = AXIS2_PLACEMENT_3D ( 'NONE', #217, #508, #478 ) ;
#125 = CARTESIAN_POINT ( 'NONE',  ( 10.00000000000000000, 0.000000000000000000, -6.500000000000000888 ) ) ;
#126 = ORIENTED_EDGE ( 'NONE', *, *, #234, .F. ) ;
#127 = UNCERTAINTY_MEASURE_WITH_UNIT (LENGTH_MEASURE( 1.000000000000000082E-05 ), #342, 'distance_accuracy_value', 'NONE');
#128 = CARTESIAN_POINT ( 'NONE',  ( 5.421010862427522170E-15, 0.000000000000000000, 0.000000000000000000 ) ) ;
#129 = ORIENTED_EDGE ( 'NONE', *, *, #316, .F. ) ;
#130 = PRESENTATION_LAYER_ASSIGNMENT (  '', '', ( #249 ) ) ;
#131 = CIRCLE ( 'NONE', #498, 24.88835581735190061 ) ;
#132 = SURFACE_SIDE_STYLE ('',( #85 ) ) ;
#133 = ORIENTED_EDGE ( 'NONE', *, *, #142, .F. ) ;
#134 = EDGE_CURVE ( 'NONE', #356, #437, #16, .T. ) ;
#135 = CARTESIAN_POINT ( 'NONE',  ( 36.96853973261324455, 3.474878987978495769E-15, 26.74908047606610495 ) ) ;
#136 = ORIENTED_EDGE ( 'NONE', *, *, #495, .F. ) ;
#137 = DIRECTION ( 'NONE',  ( 0.000000000000000000, 0.000000000000000000, -1.000000000000000000 ) ) ;
#138 = ORIENTED_EDGE ( 'NONE', *, *, #259, .F. ) ;
#139 = CIRCLE ( 'NONE', #447, 30.00000000000000000 ) ;
#140 = AXIS2_PLACEMENT_3D ( 'NONE', #262, #92, #254 ) ;
#141 = DIRECTION ( 'NONE',  ( 0.000000000000000000, 0.000000000000000000, 1.000000000000000000 ) ) ;
#142 = EDGE_CURVE ( 'NONE', #115, #14, #403, .T. ) ;
#143 = FACE_OUTER_BOUND ( 'NONE', #299, .T. ) ;
#144 = CARTESIAN_POINT ( 'NONE',  ( 5.421010862427522170E-15, 0.000000000000000000, 0.000000000000000000 ) ) ;
#145 = CARTESIAN_POINT ( 'NONE',  ( 36.96853973261324455, 0.000000000000000000, -26.74908047606610495 ) ) ;
#146 = PRODUCT_RELATED_PRODUCT_CATEGORY ( 'part', '', ( #354 ) ) ;
#147 = DIRECTION ( 'NONE',  ( 0.000000000000000000, 0.000000000000000000, 1.000000000000000000 ) ) ;
#148 = EDGE_LOOP ( 'NONE', ( #192, #284 ) ) ;
#149 = DIRECTION ( 'NONE',  ( -1.000000000000000000, -0.000000000000000000, -0.000000000000000000 ) ) ;
#150 = CIRCLE ( 'NONE', #26, 1.499999999999999556 ) ;
#151 = ORIENTED_EDGE ( 'NONE', *, *, #46, .T. ) ;
#152 = LINE ( 'NONE', #245, #321 ) ;
#153 = EDGE_LOOP ( 'NONE', ( #515, #215 ) ) ;
#154 = CARTESIAN_POINT ( 'NONE',  ( 80.00000000000000000, 3.047944528776040846E-15, 24.88835581735190061 ) ) ;
#155 = CARTESIAN_POINT ( 'NONE',  ( 80.00000000000000000, 0.000000000000000000, 0.000000000000000000 ) ) ;
#156 = EDGE_CURVE ( 'NONE', #160, #109, #357, .T. ) ;
#157 = DIRECTION ( 'NONE',  ( 0.000000000000000000, 0.000000000000000000, 1.000000000000000000 ) ) ;
#158 = CIRCLE ( 'NONE', #258, 1.500000000000000000 ) ;
#159 = EDGE_CURVE ( 'NONE', #323, #167, #150, .T. ) ;
#160 = VERTEX_POINT ( 'NONE', #332 ) ;
#161 = AXIS2_PLACEMENT_3D ( 'NONE', #33, #120, #239 ) ;
#162 = DIRECTION ( 'NONE',  ( 0.000000000000000000, 0.000000000000000000, 1.000000000000000000 ) ) ;
#163 = CARTESIAN_POINT ( 'NONE',  ( 10.00000000000000000, 0.000000000000000000, 0.000000000000000000 ) ) ;
#164 = CARTESIAN_POINT ( 'NONE',  ( 10.00000000000000000, 0.000000000000000000, 8.000000000000000000 ) ) ;
#165 = CARTESIAN_POINT ( 'NONE',  ( 80.00000000000000000, 0.000000000000000000, 0.000000000000000000 ) ) ;
#166 = DIRECTION ( 'NONE',  ( -1.000000000000000000, -0.000000000000000000, -0.000000000000000000 ) ) ;
#167 = VERTEX_POINT ( 'NONE', #535 ) ;
#168 = AXIS2_PLACEMENT_3D ( 'NONE', #29, #505, #116 ) ;
#169 = DIRECTION ( 'NONE',  ( 1.000000000000000000, 0.000000000000000000, 0.000000000000000000 ) ) ;
#170 = EDGE_LOOP ( 'NONE', ( #303, #294 ) ) ;
#171 = ORIENTED_EDGE ( 'NONE', *, *, #395, .T. ) ;
#172 = CARTESIAN_POINT ( 'NONE',  ( 10.00000000000000000, -8.000000000000000000, 0.000000000000000000 ) ) ;
#173 = ADVANCED_FACE ( 'NONE', ( #324 ), #175, .T. ) ;
#174 = ORIENTED_EDGE ( 'NONE', *, *, #512, .T. ) ;
#175 = CONICAL_SURFACE ( 'NONE', #113, 30.00000000000000000, 0.07540426942150997569 ) ;
#176 = FACE_BOUND ( 'NONE', #148, .T. ) ;
#177 =( GEOMETRIC_REPRESENTATION_CONTEXT ( 3 ) GLOBAL_UNCERTAINTY_ASSIGNED_CONTEXT ( ( #213 ) ) GLOBAL_UNIT_ASSIGNED_CONTEXT ( ( #423, #71, #281 ) ) REPRESENTATION_CONTEXT ( 'NONE', 'WORKASPACE' ) );
#178 = ORIENTED_EDGE ( 'NONE', *, *, #134, .T. ) ;
#179 = DIRECTION ( 'NONE',  ( -1.000000000000000000, -0.000000000000000000, -0.000000000000000000 ) ) ;
#180 = PRODUCT_DEFINITION_SHAPE ( 'NONE', 'NONE',  #244 ) ;
#181 = VERTEX_POINT ( 'NONE', #464 ) ;
#182 = VECTOR ( 'NONE', #226, 1000.000000000000227 ) ;
#183 = CARTESIAN_POINT ( 'NONE',  ( 10.00000000000000000, 8.000000000000000000, 0.000000000000000000 ) ) ;
#184 = FACE_BOUND ( 'NONE', #170, .T. ) ;
#185 = CIRCLE ( 'NONE', #266, 1.500000000000001332 ) ;
#186 = CARTESIAN_POINT ( 'NONE',  ( 0.000000000000000000, 8.000000000000000000, 0.000000000000000000 ) ) ;
#187 = ORIENTED_EDGE ( 'NONE', *, *, #40, .T. ) ;
#188 = CARTESIAN_POINT ( 'NONE',  ( 10.00000000000000000, 0.000000000000000000, 8.000000000000000000 ) ) ;
#189 = ORIENTED_EDGE ( 'NONE', *, *, #361, .F. ) ;
#190 = EDGE_CURVE ( 'NONE', #341, #540, #62, .T. ) ;
#191 = AXIS2_PLACEMENT_3D ( 'NONE', #82, #390, #386 ) ;
#192 = ORIENTED_EDGE ( 'NONE', *, *, #510, .F. ) ;
#193 = MANIFOLD_SOLID_BREP ( 'Cut-Extrude1', #393 ) ;
#194 = CARTESIAN_POINT ( 'NONE',  ( 0.000000000000000000, 0.000000000000000000, -13.00000000000000000 ) ) ;
#195 = CYLINDRICAL_SURFACE ( 'NONE', #367, 1.499999999999999556 ) ;
#196 = ADVANCED_BREP_SHAPE_REPRESENTATION ( 'Plane_Nose', ( #193, #416 ), #177 ) ;
#197 = ADVANCED_FACE ( 'NONE', ( #388 ), #292, .F. ) ;
#198 = EDGE_CURVE ( 'NONE', #224, #397, #35, .T. ) ;
#199 = FACE_OUTER_BOUND ( 'NONE', #43, .T. ) ;
#200 = DIRECTION ( 'NONE',  ( 0.000000000000000000, 0.000000000000000000, 1.000000000000000000 ) ) ;
#201 = ADVANCED_FACE ( 'NONE', ( #9 ), #209, .F. ) ;
#202 = MECHANICAL_DESIGN_GEOMETRIC_PRESENTATION_REPRESENTATION (  '', ( #249 ), #428 ) ;
#203 = CYLINDRICAL_SURFACE ( 'NONE', #346, 1.500000000000000222 ) ;
#204 = AXIS2_PLACEMENT_3D ( 'NONE', #188, #524, #13 ) ;
#205 = AXIS2_PLACEMENT_3D ( 'NONE', #37, #322, #463 ) ;
#206 = CARTESIAN_POINT ( 'NONE',  ( 0.000000000000000000, 1.836970198721030427E-16, 6.500000000000000000 ) ) ;
#207 = FACE_OUTER_BOUND ( 'NONE', #387, .T. ) ;
#208 = ORIENTED_EDGE ( 'NONE', *, *, #134, .F. ) ;
#209 = CYLINDRICAL_SURFACE ( 'NONE', #506, 1.500000000000000000 ) ;
#210 = CONICAL_SURFACE ( 'NONE', #497, 30.00000000000000000, 0.07540426942150997569 ) ;
#211 = ORIENTED_EDGE ( 'NONE', *, *, #59, .T. ) ;
#212 = AXIS2_PLACEMENT_3D ( 'NONE', #401, #398, #451 ) ;
#213 = UNCERTAINTY_MEASURE_WITH_UNIT (LENGTH_MEASURE( 1.000000000000000082E-05 ), #423, 'distance_accuracy_value', 'NONE');
#214 =( NAMED_UNIT ( * ) PLANE_ANGLE_UNIT ( ) SI_UNIT ( $, .RADIAN. ) );
#215 = ORIENTED_EDGE ( 'NONE', *, *, #395, .F. ) ;
#216 = EDGE_CURVE ( 'NONE', #181, #496, #53, .T. ) ;
#217 = CARTESIAN_POINT ( 'NONE',  ( 2.710505431213761085E-15, 13.00000000000000000, 0.000000000000000000 ) ) ;
#218 = ADVANCED_FACE ( 'NONE', ( #295, #467, #176, #223, #345 ), #433, .F. ) ;
#219 = ORIENTED_EDGE ( 'NONE', *, *, #300, .T. ) ;
#220 = CARTESIAN_POINT ( 'NONE',  ( 0.000000000000000000, 8.000000000000000000, -1.500000000000000000 ) ) ;
#221 = ORIENTED_EDGE ( 'NONE', *, *, #421, .T. ) ;
#222 = AXIS2_PLACEMENT_3D ( 'NONE', #78, #507, #47 ) ;
#223 = FACE_BOUND ( 'NONE', #2, .T. ) ;
#224 = VERTEX_POINT ( 'NONE', #220 ) ;
#225 = CARTESIAN_POINT ( 'NONE',  ( 0.000000000000000000, -8.000000000000000000, 0.000000000000000000 ) ) ;
#226 = DIRECTION ( 'NONE',  ( 0.9971584448364589903, 0.000000000000000000, -0.07533283408537384818 ) ) ;
#227 = DIRECTION ( 'NONE',  ( 0.000000000000000000, 0.000000000000000000, 1.000000000000000000 ) ) ;
#228 = ORIENTED_EDGE ( 'NONE', *, *, #407, .F. ) ;
#229 = AXIS2_PLACEMENT_3D ( 'NONE', #544, #241, #466 ) ;
#230 = AXIS2_PLACEMENT_3D ( 'NONE', #306, #267, #441 ) ;
#231 = LINE ( 'NONE', #104, #36 ) ;
#232 = ORIENTED_EDGE ( 'NONE', *, *, #333, .T. ) ;
#233 = DIRECTION ( 'NONE',  ( -1.000000000000000000, -0.000000000000000000, -0.000000000000000000 ) ) ;
#234 = EDGE_CURVE ( 'NONE', #25, #474, #8, .T. ) ;
#235 = EDGE_LOOP ( 'NONE', ( #523, #83, #548, #462 ) ) ;
#236 = CARTESIAN_POINT ( 'NONE',  ( 80.00000000000000000, 0.000000000000000000, -30.00000000000000000 ) ) ;
#237 = CARTESIAN_POINT ( 'NONE',  ( 36.96853973261324455, 0.000000000000000000, -26.74908047606610495 ) ) ;
#238 = AXIS2_PLACEMENT_3D ( 'NONE', #163, #549, #80 ) ;
#239 = DIRECTION ( 'NONE',  ( 0.000000000000000000, 0.000000000000000000, 1.000000000000000000 ) ) ;
#240 = CIRCLE ( 'NONE', #513, 1.500000000000000000 ) ;
#241 = DIRECTION ( 'NONE',  ( -1.000000000000000000, 0.000000000000000000, 0.000000000000000000 ) ) ;
#242 = EDGE_CURVE ( 'NONE', #160, #167, #350, .T. ) ;
#243 = DIRECTION ( 'NONE',  ( -1.000000000000000000, -0.000000000000000000, -0.000000000000000000 ) ) ;
#244 = PRODUCT_DEFINITION ( 'General', '', #310, #84 ) ;
#245 = CARTESIAN_POINT ( 'NONE',  ( 36.96853973261324455, 3.275817578514931176E-15, 26.74908047606610495 ) ) ;
#246 = CARTESIAN_POINT ( 'NONE',  ( 10.00000000000000000, 0.000000000000000000, 0.000000000000000000 ) ) ;
#247 = ORIENTED_EDGE ( 'NONE', *, *, #242, .T. ) ;
#248 = DIRECTION ( 'NONE',  ( -1.000000000000000000, 0.000000000000000000, 0.000000000000000000 ) ) ;
#249 = STYLED_ITEM ( 'NONE', ( #11 ), #193 ) ;
#250 = DIRECTION ( 'NONE',  ( -1.000000000000000000, -0.000000000000000000, -0.000000000000000000 ) ) ;
#251 = CARTESIAN_POINT ( 'NONE',  ( 0.000000000000000000, 0.000000000000000000, -8.000000000000000000 ) ) ;
#252 = CARTESIAN_POINT ( 'NONE',  ( 10.00000000000000000, -8.000000000000000000, -1.500000000000000222 ) ) ;
#253 = VERTEX_POINT ( 'NONE', #135 ) ;
#254 = DIRECTION ( 'NONE',  ( 0.000000000000000000, 0.000000000000000000, -1.000000000000000000 ) ) ;
#255 = EDGE_LOOP ( 'NONE', ( #545, #228, #272, #330 ) ) ;
#256 = AXIS2_PLACEMENT_3D ( 'NONE', #128, #169, #473 ) ;
#257 = ORIENTED_EDGE ( 'NONE', *, *, #119, .T. ) ;
#258 = AXIS2_PLACEMENT_3D ( 'NONE', #183, #271, #487 ) ;
#259 = EDGE_CURVE ( 'NONE', #181, #468, #413, .T. ) ;
#260 = SURFACE_STYLE_USAGE ( .BOTH. , #132 ) ;
#261 = VERTEX_POINT ( 'NONE', #304 ) ;
#262 = CARTESIAN_POINT ( 'NONE',  ( 36.96853973261324455, 0.000000000000000000, 0.000000000000000000 ) ) ;
#263 = ORIENTED_EDGE ( 'NONE', *, *, #340, .T. ) ;
#264 = CYLINDRICAL_SURFACE ( 'NONE', #358, 1.500000000000000000 ) ;
#265 = ORIENTED_EDGE ( 'NONE', *, *, #93, .F. ) ;
#266 = AXIS2_PLACEMENT_3D ( 'NONE', #28, #538, #331 ) ;
#267 = DIRECTION ( 'NONE',  ( -1.000000000000000000, -0.000000000000000000, -0.000000000000000000 ) ) ;
#268 = ORIENTED_EDGE ( 'NONE', *, *, #190, .T. ) ;
#269 = DIRECTION ( 'NONE',  ( -1.000000000000000000, -0.000000000000000000, -0.000000000000000000 ) ) ;
#270 = ORIENTED_EDGE ( 'NONE', *, *, #156, .T. ) ;
#271 = DIRECTION ( 'NONE',  ( -1.000000000000000000, 0.000000000000000000, 0.000000000000000000 ) ) ;
#272 = ORIENTED_EDGE ( 'NONE', *, *, #18, .T. ) ;
#273 = VECTOR ( 'NONE', #426, 1000.000000000000227 ) ;
#274 = CIRCLE ( 'NONE', #500, 1.500000000000000222 ) ;
#275 = DIRECTION ( 'NONE',  ( 0.000000000000000000, 0.000000000000000000, 1.000000000000000000 ) ) ;
#276 = FACE_OUTER_BOUND ( 'NONE', #335, .T. ) ;
#277 = VECTOR ( 'NONE', #543, 1000.000000000000000 ) ;
#278 = CARTESIAN_POINT ( 'NONE',  ( 10.00000000000000000, 8.000000000000000000, -1.500000000000000000 ) ) ;
#279 = ORIENTED_EDGE ( 'NONE', *, *, #495, .T. ) ;
#280 = DIRECTION ( 'NONE',  ( -1.000000000000000000, 0.000000000000000000, 0.000000000000000000 ) ) ;
#281 =( NAMED_UNIT ( * ) SI_UNIT ( $, .STERADIAN. ) SOLID_ANGLE_UNIT ( ) );
#282 = CONICAL_SURFACE ( 'NONE', #429, 7.888355817351901500, 0.2093853929534954528 ) ;
#283 = DIRECTION ( 'NONE',  ( 1.000000000000000000, -0.000000000000000000, -0.000000000000000000 ) ) ;
#284 = ORIENTED_EDGE ( 'NONE', *, *, #77, .F. ) ;
#285 = ADVANCED_FACE ( 'NONE', ( #90 ), #348, .T. ) ;
#286 = DIRECTION ( 'NONE',  ( -1.000000000000000000, 0.000000000000000000, -0.000000000000000000 ) ) ;
#287 = CARTESIAN_POINT ( 'NONE',  ( 10.00000000000000000, 1.836970198721029441E-16, -9.500000000000000000 ) ) ;
#288 = EDGE_LOOP ( 'NONE', ( #525, #491, #23, #509 ) ) ;
#289 = DIRECTION ( 'NONE',  ( 0.000000000000000000, 0.000000000000000000, 1.000000000000000000 ) ) ;
#290 = PRODUCT_CONTEXT ( 'NONE', #339, 'mechanical' ) ;
#291 = ADVANCED_FACE ( 'NONE', ( #469 ), #264, .F. ) ;
#292 = CONICAL_SURFACE ( 'NONE', #256, 7.888355817351901500, 0.2093853929534954528 ) ;
#293 = DIRECTION ( 'NONE',  ( 0.000000000000000000, 0.000000000000000000, 1.000000000000000000 ) ) ;
#294 = ORIENTED_EDGE ( 'NONE', *, *, #234, .T. ) ;
#295 = FACE_BOUND ( 'NONE', #427, .T. ) ;
#296 = ORIENTED_EDGE ( 'NONE', *, *, #315, .T. ) ;
#297 = DIRECTION ( 'NONE',  ( -1.000000000000000000, -0.000000000000000000, -0.000000000000000000 ) ) ;
#298 = ADVANCED_FACE ( 'NONE', ( #22 ), #526, .F. ) ;
#299 = EDGE_LOOP ( 'NONE', ( #353, #347, #187, #446 ) ) ;
#300 = EDGE_CURVE ( 'NONE', #25, #490, #443, .T. ) ;
#301 = EDGE_LOOP ( 'NONE', ( #477, #279, #479, #389 ) ) ;
#302 = DIRECTION ( 'NONE',  ( -1.000000000000000000, -0.000000000000000000, -0.000000000000000000 ) ) ;
#303 = ORIENTED_EDGE ( 'NONE', *, *, #528, .T. ) ;
#304 = CARTESIAN_POINT ( 'NONE',  ( 0.000000000000000000, -8.000000000000000000, -1.500000000000000222 ) ) ;
#305 = ORIENTED_EDGE ( 'NONE', *, *, #475, .T. ) ;
#306 = CARTESIAN_POINT ( 'NONE',  ( 36.96853973261324455, 0.000000000000000000, 0.000000000000000000 ) ) ;
#307 = ORIENTED_EDGE ( 'NONE', *, *, #198, .F. ) ;
#308 = VECTOR ( 'NONE', #412, 1000.000000000000114 ) ;
#309 = CIRCLE ( 'NONE', #385, 26.74908047606610495 ) ;
#310 = PRODUCT_DEFINITION_FORMATION_WITH_SPECIFIED_SOURCE ( 'Symmetric', '', #354, .NOT_KNOWN. ) ;
#311 = CARTESIAN_POINT ( 'NONE',  ( 0.000000000000000000, 0.000000000000000000, 9.500000000000001776 ) ) ;
#312 = DIRECTION ( 'NONE',  ( 1.000000000000000000, 0.000000000000000000, 0.000000000000000000 ) ) ;
#313 = FACE_OUTER_BOUND ( 'NONE', #65, .T. ) ;
#314 = DIRECTION ( 'NONE',  ( 0.9372769880807900744, 0.000000000000000000, -0.3485854954156907271 ) ) ;
#315 = EDGE_CURVE ( 'NONE', #14, #115, #131, .T. ) ;
#316 = EDGE_CURVE ( 'NONE', #253, #12, #309, .T. ) ;
#317 = CARTESIAN_POINT ( 'NONE',  ( 10.00000000000000000, 0.000000000000000000, -10.01335581735189884 ) ) ;
#318 = VERTEX_POINT ( 'NONE', #449 ) ;
#319 = DIRECTION ( 'NONE',  ( -1.000000000000000000, 0.000000000000000000, 0.000000000000000000 ) ) ;
#320 = ORIENTED_EDGE ( 'NONE', *, *, #333, .F. ) ;
#321 = VECTOR ( 'NONE', #457, 1000.000000000000000 ) ;
#322 = DIRECTION ( 'NONE',  ( -1.000000000000000000, -0.000000000000000000, -0.000000000000000000 ) ) ;
#323 = VERTEX_POINT ( 'NONE', #55 ) ;
#324 = FACE_OUTER_BOUND ( 'NONE', #255, .T. ) ;
#325 = CONICAL_SURFACE ( 'NONE', #439, 26.74908047606610495, 0.3560615154151333672 ) ;
#326 = DIRECTION ( 'NONE',  ( -1.000000000000000000, 0.000000000000000000, 0.000000000000000000 ) ) ;
#327 = AXIS2_PLACEMENT_3D ( 'NONE', #529, #66, #147 ) ;
#328 = LINE ( 'NONE', #252, #384 ) ;
#329 = CIRCLE ( 'NONE', #27, 1.499999999999999556 ) ;
#330 = ORIENTED_EDGE ( 'NONE', *, *, #452, .T. ) ;
#331 = DIRECTION ( 'NONE',  ( 0.000000000000000000, 0.000000000000000000, 1.000000000000000000 ) ) ;
#332 = CARTESIAN_POINT ( 'NONE',  ( 10.00000000000000000, 0.000000000000000000, -6.500000000000000888 ) ) ;
#333 = EDGE_CURVE ( 'NONE', #468, #181, #482, .T. ) ;
#334 = CARTESIAN_POINT ( 'NONE',  ( 0.000000000000000000, 0.000000000000000000, 8.000000000000000000 ) ) ;
#335 = EDGE_LOOP ( 'NONE', ( #178, #520 ) ) ;
#336 = AXIS2_PLACEMENT_3D ( 'NONE', #3, #6, #49 ) ;
#337 = CARTESIAN_POINT ( 'NONE',  ( 80.00000000000000000, 3.673940397442059178E-15, 30.00000000000000000 ) ) ;
#338 = AXIS2_PLACEMENT_3D ( 'NONE', #155, #425, #112 ) ;
#339 = APPLICATION_CONTEXT ( 'automotive_design' ) ;
#340 = EDGE_CURVE ( 'NONE', #318, #372, #158, .T. ) ;
#341 = VERTEX_POINT ( 'NONE', #406 ) ;
#342 =( LENGTH_UNIT ( ) NAMED_UNIT ( * ) SI_UNIT ( .MILLI., .METRE. ) );
#343 = EDGE_CURVE ( 'NONE', #356, #14, #57, .T. ) ;
#344 = ORIENTED_EDGE ( 'NONE', *, *, #259, .T. ) ;
#345 = FACE_OUTER_BOUND ( 'NONE', #391, .T. ) ;
#346 = AXIS2_PLACEMENT_3D ( 'NONE', #461, #377, #293 ) ;
#347 = ORIENTED_EDGE ( 'NONE', *, *, #436, .F. ) ;
#348 = CONICAL_SURFACE ( 'NONE', #140, 26.74908047606610495, 0.3560615154151333672 ) ;
#349 = CIRCLE ( 'NONE', #161, 10.01335581735189884 ) ;
#350 = LINE ( 'NONE', #125, #414 ) ;
#351 = ORIENTED_EDGE ( 'NONE', *, *, #156, .F. ) ;
#352 = DIRECTION ( 'NONE',  ( 1.000000000000000000, 0.000000000000000000, 0.000000000000000000 ) ) ;
#353 = ORIENTED_EDGE ( 'NONE', *, *, #475, .F. ) ;
#354 = PRODUCT ( 'Plane_Nose', 'Plane_Nose', '', ( #290 ) ) ;
#355 = CARTESIAN_POINT ( 'NONE',  ( 36.96853973261324455, 0.000000000000000000, 0.000000000000000000 ) ) ;
#356 = VERTEX_POINT ( 'NONE', #317 ) ;
#357 = CIRCLE ( 'NONE', #229, 1.499999999999999556 ) ;
#358 = AXIS2_PLACEMENT_3D ( 'NONE', #519, #179, #275 ) ;
#359 = EDGE_CURVE ( 'NONE', #372, #224, #231, .T. ) ;
#360 = DIRECTION ( 'NONE',  ( 0.9781588509178572588, 0.000000000000000000, -0.2078587558200446217 ) ) ;
#361 = EDGE_CURVE ( 'NONE', #397, #224, #240, .T. ) ;
#362 = FACE_BOUND ( 'NONE', #99, .T. ) ;
#363 = CARTESIAN_POINT ( 'NONE',  ( 10.00000000000000000, 0.000000000000000000, -8.000000000000000000 ) ) ;
#364 = ORIENTED_EDGE ( 'NONE', *, *, #361, .T. ) ;
#365 = CARTESIAN_POINT ( 'NONE',  ( 80.00000000000000000, 0.000000000000000000, 0.000000000000000000 ) ) ;
#366 = EDGE_LOOP ( 'NONE', ( #344, #232 ) ) ;
#367 = AXIS2_PLACEMENT_3D ( 'NONE', #419, #32, #494 ) ;
#368 = DIRECTION ( 'NONE',  ( 0.000000000000000000, 0.000000000000000000, 1.000000000000000000 ) ) ;
#369 = LINE ( 'NONE', #17, #182 ) ;
#370 = APPLICATION_PROTOCOL_DEFINITION ( 'draft international standard', 'automotive_design', 1998, #536 ) ;
#371 = CARTESIAN_POINT ( 'NONE',  ( 0.000000000000000000, 0.000000000000000000, -8.000000000000000000 ) ) ;
#372 = VERTEX_POINT ( 'NONE', #278 ) ;
#373 = CARTESIAN_POINT ( 'NONE',  ( 0.000000000000000000, 0.000000000000000000, 0.000000000000000000 ) ) ;
#374 = CARTESIAN_POINT ( 'NONE',  ( 80.00000000000000000, 3.673940397442059178E-15, 30.00000000000000000 ) ) ;
#375 = CARTESIAN_POINT ( 'NONE',  ( 10.00000000000000000, 0.000000000000000000, 9.500000000000001776 ) ) ;
#376 = ADVANCED_FACE ( 'NONE', ( #409 ), #483, .F. ) ;
#377 = DIRECTION ( 'NONE',  ( -1.000000000000000000, -0.000000000000000000, -0.000000000000000000 ) ) ;
#378 = ADVANCED_FACE ( 'NONE', ( #313 ), #96, .F. ) ;
#379 = CIRCLE ( 'NONE', #205, 13.00000000000000000 ) ;
#380 = DIRECTION ( 'NONE',  ( -1.000000000000000000, -0.000000000000000000, -0.000000000000000000 ) ) ;
#381 = DIRECTION ( 'NONE',  ( 0.000000000000000000, 0.000000000000000000, 1.000000000000000000 ) ) ;
#382 = CARTESIAN_POINT ( 'NONE',  ( 10.00000000000000000, 0.000000000000000000, 8.000000000000000000 ) ) ;
#383 = ORIENTED_EDGE ( 'NONE', *, *, #436, .T. ) ;
#384 = VECTOR ( 'NONE', #250, 1000.000000000000000 ) ;
#385 = AXIS2_PLACEMENT_3D ( 'NONE', #355, #15, #19 ) ;
#386 = DIRECTION ( 'NONE',  ( 0.000000000000000000, 0.000000000000000000, 1.000000000000000000 ) ) ;
#387 = EDGE_LOOP ( 'NONE', ( #10, #138, #470, #221 ) ) ;
#388 = FACE_OUTER_BOUND ( 'NONE', #86, .T. ) ;
#389 = ORIENTED_EDGE ( 'NONE', *, *, #242, .F. ) ;
#390 = DIRECTION ( 'NONE',  ( -1.000000000000000000, 0.000000000000000000, 0.000000000000000000 ) ) ;
#391 = EDGE_LOOP ( 'NONE', ( #383, #268 ) ) ;
#392 = FILL_AREA_STYLE ('',( #438 ) ) ;
#393 = CLOSED_SHELL ( 'NONE', ( #201, #298, #100, #376, #285, #101, #400, #197, #173, #20, #218, #435, #44, #75, #378, #118, #291 ) ) ;
#394 = VERTEX_POINT ( 'NONE', #236 ) ;
#395 = EDGE_CURVE ( 'NONE', #261, #496, #542, .T. ) ;
#396 = DIRECTION ( 'NONE',  ( -1.000000000000000000, -0.000000000000000000, -0.000000000000000000 ) ) ;
#397 = VERTEX_POINT ( 'NONE', #411 ) ;
#398 = DIRECTION ( 'NONE',  ( -1.000000000000000000, 0.000000000000000000, 0.000000000000000000 ) ) ;
#399 = ORIENTED_EDGE ( 'NONE', *, *, #77, .T. ) ;
#400 = ADVANCED_FACE ( 'NONE', ( #24 ), #282, .F. ) ;
#401 = CARTESIAN_POINT ( 'NONE',  ( 0.000000000000000000, -8.000000000000000000, 0.000000000000000000 ) ) ;
#402 = FACE_BOUND ( 'NONE', #366, .T. ) ;
#403 = CIRCLE ( 'NONE', #541, 24.88835581735190061 ) ;
#404 = VECTOR ( 'NONE', #360, 1000.000000000000114 ) ;
#405 = VECTOR ( 'NONE', #380, 1000.000000000000000 ) ;
#406 = CARTESIAN_POINT ( 'NONE',  ( 0.000000000000000000, 2.433929208703245037E-15, 13.00000000000000000 ) ) ;
#407 = EDGE_CURVE ( 'NONE', #12, #253, #472, .T. ) ;
#408 = EDGE_LOOP ( 'NONE', ( #296, #94 ) ) ;
#409 = FACE_OUTER_BOUND ( 'NONE', #301, .T. ) ;
#410 = PLANE ( 'NONE',  #238 ) ;
#411 = CARTESIAN_POINT ( 'NONE',  ( 0.000000000000000000, 8.000000000000000000, 1.500000000000000000 ) ) ;
#412 = DIRECTION ( 'NONE',  ( 0.9781588509178572588, 2.545535599897689138E-17, 0.2078587558200446217 ) ) ;
#413 = CIRCLE ( 'NONE', #481, 1.500000000000000222 ) ;
#414 = VECTOR ( 'NONE', #297, 1000.000000000000000 ) ;
#415 = FACE_BOUND ( 'NONE', #408, .T. ) ;
#416 = AXIS2_PLACEMENT_3D ( 'NONE', #373, #368, #460 ) ;
#417 = DIRECTION ( 'NONE',  ( 0.000000000000000000, 0.000000000000000000, 1.000000000000000000 ) ) ;
#418 = CARTESIAN_POINT ( 'NONE',  ( 10.00000000000000000, -8.000000000000000000, -1.500000000000000222 ) ) ;
#419 = CARTESIAN_POINT ( 'NONE',  ( 10.00000000000000000, 0.000000000000000000, -8.000000000000000000 ) ) ;
#420 = LINE ( 'NONE', #79, #277 ) ;
#421 = EDGE_CURVE ( 'NONE', #496, #261, #274, .T. ) ;
#422 = CARTESIAN_POINT ( 'NONE',  ( 80.00000000000000000, 0.000000000000000000, 0.000000000000000000 ) ) ;
#423 =( LENGTH_UNIT ( ) NAMED_UNIT ( * ) SI_UNIT ( .MILLI., .METRE. ) );
#424 = FACE_OUTER_BOUND ( 'NONE', #5, .T. ) ;
#425 = DIRECTION ( 'NONE',  ( -1.000000000000000000, -0.000000000000000000, -0.000000000000000000 ) ) ;
#426 = DIRECTION ( 'NONE',  ( 0.9971584448364589903, 9.225611413335168774E-18, 0.07533283408537384818 ) ) ;
#427 = EDGE_LOOP ( 'NONE', ( #189, #307 ) ) ;
#428 =( GEOMETRIC_REPRESENTATION_CONTEXT ( 3 ) GLOBAL_UNCERTAINTY_ASSIGNED_CONTEXT ( ( #127 ) ) GLOBAL_UNIT_ASSIGNED_CONTEXT ( ( #342, #214, #42 ) ) REPRESENTATION_CONTEXT ( 'NONE', 'WORKASPACE' ) );
#429 = AXIS2_PLACEMENT_3D ( 'NONE', #144, #352, #137 ) ;
#430 = CARTESIAN_POINT ( 'NONE',  ( 10.00000000000000000, 8.000000000000000000, 0.000000000000000000 ) ) ;
#431 = EDGE_LOOP ( 'NONE', ( #7, #81, #174, #364 ) ) ;
#432 = AXIS2_PLACEMENT_3D ( 'NONE', #454, #286, #492 ) ;
#433 = PLANE ( 'NONE',  #124 ) ;
#434 = VERTEX_POINT ( 'NONE', #311 ) ;
#435 = ADVANCED_FACE ( 'NONE', ( #98, #415 ), #31, .F. ) ;
#436 = EDGE_CURVE ( 'NONE', #540, #341, #379, .T. ) ;
#437 = VERTEX_POINT ( 'NONE', #465 ) ;
#438 = FILL_AREA_STYLE_COLOUR ( '', #531 ) ;
#439 = AXIS2_PLACEMENT_3D ( 'NONE', #63, #312, #488 ) ;
#440 = ORIENTED_EDGE ( 'NONE', *, *, #159, .F. ) ;
#441 = DIRECTION ( 'NONE',  ( 0.000000000000000000, 0.000000000000000000, 1.000000000000000000 ) ) ;
#442 = EDGE_LOOP ( 'NONE', ( #263, #151 ) ) ;
#443 = LINE ( 'NONE', #445, #70 ) ;
#444 = CARTESIAN_POINT ( 'NONE',  ( 10.00000000000000000, 1.836970198721030427E-16, 6.500000000000000000 ) ) ;
#445 = CARTESIAN_POINT ( 'NONE',  ( 10.00000000000000000, 1.836970198721030427E-16, 6.500000000000000000 ) ) ;
#446 = ORIENTED_EDGE ( 'NONE', *, *, #407, .T. ) ;
#447 = AXIS2_PLACEMENT_3D ( 'NONE', #455, #243, #501 ) ;
#448 = AXIS2_PLACEMENT_3D ( 'NONE', #61, #319, #102 ) ;
#449 = CARTESIAN_POINT ( 'NONE',  ( 10.00000000000000000, 8.000000000000000000, 1.500000000000000000 ) ) ;
#450 = ORIENTED_EDGE ( 'NONE', *, *, #528, .F. ) ;
#451 = DIRECTION ( 'NONE',  ( 0.000000000000000000, 0.000000000000000000, 1.000000000000000000 ) ) ;
#452 = EDGE_CURVE ( 'NONE', #394, #50, #516, .T. ) ;
#453 = ORIENTED_EDGE ( 'NONE', *, *, #510, .T. ) ;
#454 = CARTESIAN_POINT ( 'NONE',  ( 80.00000000000000000, 24.88835581735190061, 0.000000000000000000 ) ) ;
#455 = CARTESIAN_POINT ( 'NONE',  ( 80.00000000000000000, 0.000000000000000000, 0.000000000000000000 ) ) ;
#456 = CIRCLE ( 'NONE', #105, 1.500000000000001332 ) ;
#457 = DIRECTION ( 'NONE',  ( 0.9372769880807900744, 4.268941111900200285E-17, 0.3485854954156907271 ) ) ;
#458 = CARTESIAN_POINT ( 'NONE',  ( 80.00000000000000000, 0.000000000000000000, 0.000000000000000000 ) ) ;
#459 = EDGE_CURVE ( 'NONE', #437, #356, #349, .T. ) ;
#460 = DIRECTION ( 'NONE',  ( 1.000000000000000000, 0.000000000000000000, 0.000000000000000000 ) ) ;
#461 = CARTESIAN_POINT ( 'NONE',  ( 10.00000000000000000, -8.000000000000000000, 0.000000000000000000 ) ) ;
#462 = ORIENTED_EDGE ( 'NONE', *, *, #512, .F. ) ;
#463 = DIRECTION ( 'NONE',  ( 0.000000000000000000, 0.000000000000000000, 1.000000000000000000 ) ) ;
#464 = CARTESIAN_POINT ( 'NONE',  ( 10.00000000000000000, -8.000000000000000000, 1.500000000000000222 ) ) ;
#465 = CARTESIAN_POINT ( 'NONE',  ( 10.00000000000000000, 2.137113471910197393E-15, 10.01335581735189884 ) ) ;
#466 = DIRECTION ( 'NONE',  ( 0.000000000000000000, 0.000000000000000000, 1.000000000000000000 ) ) ;
#467 = FACE_BOUND ( 'NONE', #153, .T. ) ;
#468 = VERTEX_POINT ( 'NONE', #418 ) ;
#469 = FACE_OUTER_BOUND ( 'NONE', #431, .T. ) ;
#470 = ORIENTED_EDGE ( 'NONE', *, *, #216, .T. ) ;
#471 = VECTOR ( 'NONE', #166, 1000.000000000000000 ) ;
#472 = CIRCLE ( 'NONE', #230, 26.74908047606610495 ) ;
#473 = DIRECTION ( 'NONE',  ( 0.000000000000000000, 0.000000000000000000, -1.000000000000000000 ) ) ;
#474 = VERTEX_POINT ( 'NONE', #375 ) ;
#475 = EDGE_CURVE ( 'NONE', #341, #253, #152, .T. ) ;
#476 = DIRECTION ( 'NONE',  ( 0.000000000000000000, 0.000000000000000000, 1.000000000000000000 ) ) ;
#477 = ORIENTED_EDGE ( 'NONE', *, *, #493, .F. ) ;
#478 = DIRECTION ( 'NONE',  ( 0.000000000000000000, 0.000000000000000000, -1.000000000000000000 ) ) ;
#479 = ORIENTED_EDGE ( 'NONE', *, *, #159, .T. ) ;
#480 = DIRECTION ( 'NONE',  ( 0.000000000000000000, 0.000000000000000000, 1.000000000000000000 ) ) ;
#481 = AXIS2_PLACEMENT_3D ( 'NONE', #172, #514, #476 ) ;
#482 = CIRCLE ( 'NONE', #448, 1.500000000000000222 ) ;
#483 = CYLINDRICAL_SURFACE ( 'NONE', #551, 1.499999999999999556 ) ;
#484 = ORIENTED_EDGE ( 'NONE', *, *, #60, .F. ) ;
#485 = DIRECTION ( 'NONE',  ( 0.000000000000000000, 0.000000000000000000, 1.000000000000000000 ) ) ;
#486 = CARTESIAN_POINT ( 'NONE',  ( 80.00000000000000000, 0.000000000000000000, -24.88835581735190061 ) ) ;
#487 = DIRECTION ( 'NONE',  ( 0.000000000000000000, 0.000000000000000000, 1.000000000000000000 ) ) ;
#488 = DIRECTION ( 'NONE',  ( 0.000000000000000000, 0.000000000000000000, -1.000000000000000000 ) ) ;
#489 = CARTESIAN_POINT ( 'NONE',  ( 5.421010862427522170E-15, 0.000000000000000000, -7.888355817351901500 ) ) ;
#490 = VERTEX_POINT ( 'NONE', #206 ) ;
#491 = ORIENTED_EDGE ( 'NONE', *, *, #4, .T. ) ;
#492 = DIRECTION ( 'NONE',  ( -0.000000000000000000, 0.000000000000000000, 1.000000000000000000 ) ) ;
#493 = EDGE_CURVE ( 'NONE', #109, #160, #329, .T. ) ;
#494 = DIRECTION ( 'NONE',  ( 0.000000000000000000, 0.000000000000000000, 1.000000000000000000 ) ) ;
#495 = EDGE_CURVE ( 'NONE', #109, #323, #420, .T. ) ;
#496 = VERTEX_POINT ( 'NONE', #110 ) ;
#497 = AXIS2_PLACEMENT_3D ( 'NONE', #165, #72, #539 ) ;
#498 = AXIS2_PLACEMENT_3D ( 'NONE', #365, #149, #485 ) ;
#499 = CARTESIAN_POINT ( 'NONE',  ( 10.00000000000000000, 8.000000000000000000, 1.500000000000000000 ) ) ;
#500 = AXIS2_PLACEMENT_3D ( 'NONE', #225, #521, #141 ) ;
#501 = DIRECTION ( 'NONE',  ( 0.000000000000000000, 0.000000000000000000, 1.000000000000000000 ) ) ;
#502 = ORIENTED_EDGE ( 'NONE', *, *, #4, .F. ) ;
#503 = EDGE_CURVE ( 'NONE', #167, #323, #88, .T. ) ;
#504 = DIRECTION ( 'NONE',  ( 1.000000000000000000, 0.000000000000000000, 0.000000000000000000 ) ) ;
#505 = DIRECTION ( 'NONE',  ( -1.000000000000000000, 0.000000000000000000, 0.000000000000000000 ) ) ;
#506 = AXIS2_PLACEMENT_3D ( 'NONE', #430, #396, #87 ) ;
#507 = DIRECTION ( 'NONE',  ( -1.000000000000000000, -0.000000000000000000, -0.000000000000000000 ) ) ;
#508 = DIRECTION ( 'NONE',  ( 1.000000000000000000, 0.000000000000000000, 0.000000000000000000 ) ) ;
#509 = ORIENTED_EDGE ( 'NONE', *, *, #343, .F. ) ;
#510 = EDGE_CURVE ( 'NONE', #434, #490, #185, .T. ) ;
#511 = ORIENTED_EDGE ( 'NONE', *, *, #216, .F. ) ;
#512 = EDGE_CURVE ( 'NONE', #318, #397, #76, .T. ) ;
#513 = AXIS2_PLACEMENT_3D ( 'NONE', #186, #64, #227 ) ;
#514 = DIRECTION ( 'NONE',  ( -1.000000000000000000, 0.000000000000000000, 0.000000000000000000 ) ) ;
#515 = ORIENTED_EDGE ( 'NONE', *, *, #421, .F. ) ;
#516 = CIRCLE ( 'NONE', #338, 30.00000000000000000 ) ;
#517 = CARTESIAN_POINT ( 'NONE',  ( 10.00000000000000000, -8.000000000000000000, 1.500000000000000222 ) ) ;
#518 = ORIENTED_EDGE ( 'NONE', *, *, #343, .T. ) ;
#519 = CARTESIAN_POINT ( 'NONE',  ( 10.00000000000000000, 8.000000000000000000, 0.000000000000000000 ) ) ;
#520 = ORIENTED_EDGE ( 'NONE', *, *, #459, .T. ) ;
#521 = DIRECTION ( 'NONE',  ( -1.000000000000000000, 0.000000000000000000, 0.000000000000000000 ) ) ;
#522 = VECTOR ( 'NONE', #314, 1000.000000000000000 ) ;
#523 = ORIENTED_EDGE ( 'NONE', *, *, #46, .F. ) ;
#524 = DIRECTION ( 'NONE',  ( -1.000000000000000000, -0.000000000000000000, -0.000000000000000000 ) ) ;
#525 = ORIENTED_EDGE ( 'NONE', *, *, #459, .F. ) ;
#526 = CYLINDRICAL_SURFACE ( 'NONE', #327, 1.500000000000000222 ) ;
#527 = ORIENTED_EDGE ( 'NONE', *, *, #452, .F. ) ;
#528 = EDGE_CURVE ( 'NONE', #474, #25, #1, .T. ) ;
#529 = CARTESIAN_POINT ( 'NONE',  ( 10.00000000000000000, -8.000000000000000000, 0.000000000000000000 ) ) ;
#530 = LINE ( 'NONE', #56, #308 ) ;
#531 = COLOUR_RGB ( '',0.7921568627450980005, 0.8196078431372548767, 0.9333333333333333481 ) ;
#532 = SHAPE_DEFINITION_REPRESENTATION ( #180, #196 ) ;
#533 = ORIENTED_EDGE ( 'NONE', *, *, #40, .F. ) ;
#534 = DIRECTION ( 'NONE',  ( 0.000000000000000000, 0.000000000000000000, 1.000000000000000000 ) ) ;
#535 = CARTESIAN_POINT ( 'NONE',  ( 0.000000000000000000, 0.000000000000000000, -6.500000000000000888 ) ) ;
#536 = APPLICATION_CONTEXT ( 'automotive_design' ) ;
#537 = ORIENTED_EDGE ( 'NONE', *, *, #93, .T. ) ;
#538 = DIRECTION ( 'NONE',  ( -1.000000000000000000, 0.000000000000000000, 0.000000000000000000 ) ) ;
#539 = DIRECTION ( 'NONE',  ( 0.000000000000000000, 0.000000000000000000, -1.000000000000000000 ) ) ;
#540 = VERTEX_POINT ( 'NONE', #194 ) ;
#541 = AXIS2_PLACEMENT_3D ( 'NONE', #422, #34, #417 ) ;
#542 = CIRCLE ( 'NONE', #212, 1.500000000000000222 ) ;
#543 = DIRECTION ( 'NONE',  ( -1.000000000000000000, -0.000000000000000000, -0.000000000000000000 ) ) ;
#544 = CARTESIAN_POINT ( 'NONE',  ( 10.00000000000000000, 0.000000000000000000, -8.000000000000000000 ) ) ;
#545 = ORIENTED_EDGE ( 'NONE', *, *, #119, .F. ) ;
#546 = DIRECTION ( 'NONE',  ( -1.000000000000000000, 0.000000000000000000, 0.000000000000000000 ) ) ;
#547 = DIRECTION ( 'NONE',  ( -1.000000000000000000, -0.000000000000000000, -0.000000000000000000 ) ) ;
#548 = ORIENTED_EDGE ( 'NONE', *, *, #198, .T. ) ;
#549 = DIRECTION ( 'NONE',  ( -1.000000000000000000, 0.000000000000000000, 0.000000000000000000 ) ) ;
#550 = ORIENTED_EDGE ( 'NONE', *, *, #503, .F. ) ;
#551 = AXIS2_PLACEMENT_3D ( 'NONE', #363, #233, #480 ) ;
ENDSEC;
END-ISO-10303-21;
