ISO-10303-21;
HEADER;
FILE_DESCRIPTION (( 'STEP AP214' ),
    '1' );
FILE_NAME ('Right Wing.STEP',
    '2026-04-30T22:21:28',
    ( '' ),
    ( '' ),
    'SwSTEP 2.0',
    'SolidWorks 2026',
    '' );
FILE_SCHEMA (( 'AUTOMOTIVE_DESIGN' ));
ENDSEC;

DATA;
#1 = VECTOR ( 'NONE', #544, 1000.000000000000000 ) ;
#2 = DIRECTION ( 'NONE',  ( 0.9546217834310483097, 0.000000000000000000, -0.2978208364082755022 ) ) ;
#3 = FACE_OUTER_BOUND ( 'NONE', #291, .T. ) ;
#4 = EDGE_CURVE ( 'NONE', #131, #414, #228, .T. ) ;
#5 = VERTEX_POINT ( 'NONE', #697 ) ;
#6 = CARTESIAN_POINT ( 'NONE',  ( -98.78305834884920955, -7.263223091717684099, -196.3246903110813264 ) ) ;
#7 = EDGE_CURVE ( 'NONE', #549, #66, #704, .T. ) ;
#8 = CARTESIAN_POINT ( 'NONE',  ( 0.000000000000000000, 0.000000000000000000, -200.0000000000000000 ) ) ;
#9 = ORIENTED_EDGE ( 'NONE', *, *, #353, .F. ) ;
#10 = CARTESIAN_POINT ( 'NONE',  ( -88.34396290815411135, -16.61990135442023586, -187.3300485445839456 ) ) ;
#11 = ORIENTED_EDGE ( 'NONE', *, *, #14, .T. ) ;
#12 = CARTESIAN_POINT ( 'NONE',  ( -99.09275140823579875, -6.532907639439045511, -197.0919453483167558 ) ) ;
#13 = AXIS2_PLACEMENT_3D ( 'NONE', #479, #233, #609 ) ;
#14 = EDGE_CURVE ( 'NONE', #380, #214, #766, .T. ) ;
#15 = LINE ( 'NONE', #531, #412 ) ;
#16 = ORIENTED_EDGE ( 'NONE', *, *, #243, .T. ) ;
#17 = PLANE ( 'NONE',  #335 ) ;
#18 = CARTESIAN_POINT ( 'NONE',  ( -83.23734362398099051, 17.49555031573109076, -186.2595659199780584 ) ) ;
#19 = ORIENTED_EDGE ( 'NONE', *, *, #623, .F. ) ;
#20 = PLANE ( 'NONE',  #64 ) ;
#21 = CARTESIAN_POINT ( 'NONE',  ( 99.82325015093557852, -0.1767498490644614506, -200.0000000000000000 ) ) ;
#22 = LINE ( 'NONE', #274, #476 ) ;
#23 = VERTEX_POINT ( 'NONE', #196 ) ;
#24 = EDGE_CURVE ( 'NONE', #816, #440, #701, .T. ) ;
#25 = AXIS2_PLACEMENT_3D ( 'NONE', #752, #443, #636 ) ;
#26 = CARTESIAN_POINT ( 'NONE',  ( -100.0000000000000000, -3.433599921454314252, -200.0000000000000000 ) ) ;
#27 = PLANE ( 'NONE',  #519 ) ;
#28 = CIRCLE ( 'NONE', #273, 5.000000000000000000 ) ;
#29 = ORIENTED_EDGE ( 'NONE', *, *, #620, .F. ) ;
#30 = EDGE_CURVE ( 'NONE', #214, #414, #28, .T. ) ;
#31 = DIRECTION ( 'NONE',  ( -1.000000000000000000, 0.000000000000000000, 0.000000000000000000 ) ) ;
#32 = DIRECTION ( 'NONE',  ( 0.000000000000000000, 0.000000000000000000, -1.000000000000000000 ) ) ;
#33 = ORIENTED_EDGE ( 'NONE', *, *, #143, .T. ) ;
#34 = DIRECTION ( 'NONE',  ( 0.9546217834310480876, 1.324803854717348916E-16, -0.2978208364082759463 ) ) ;
#35 = LINE ( 'NONE', #787, #707 ) ;
#36 = DIRECTION ( 'NONE',  ( 0.2977591233433190543, 0.02035651910119326558, 0.9544239710924600217 ) ) ;
#37 = VERTEX_POINT ( 'NONE', #263 ) ;
#38 = CARTESIAN_POINT ( 'NONE',  ( -83.40843789216918935, -17.49086496806832614, -186.1289573695850379 ) ) ;
#39 = AXIS2_PLACEMENT_3D ( 'NONE', #765, #755, #2 ) ;
#40 = DIRECTION ( 'NONE',  ( 0.000000000000000000, 0.000000000000000000, -1.000000000000000000 ) ) ;
#41 = ORIENTED_EDGE ( 'NONE', *, *, #672, .F. ) ;
#42 = AXIS2_PLACEMENT_3D ( 'NONE', #522, #784, #655 ) ;
#43 = DIRECTION ( 'NONE',  ( -1.000000000000000000, 0.000000000000000000, 0.000000000000000000 ) ) ;
#44 = ORIENTED_EDGE ( 'NONE', *, *, #138, .F. ) ;
#45 = CARTESIAN_POINT ( 'NONE',  ( -82.84015176117839019, -2.255140518769849223E-14, -200.0000000000000000 ) ) ;
#46 = LINE ( 'NONE', #306, #640 ) ;
#47 = VERTEX_POINT ( 'NONE', #69 ) ;
#48 = CARTESIAN_POINT ( 'NONE',  ( 100.0000000000000000, -4.999999999999987566, -200.0000000000000000 ) ) ;
#49 = DIRECTION ( 'NONE',  ( 1.000000000000000000, 0.000000000000000000, 0.000000000000000000 ) ) ;
#50 = VECTOR ( 'NONE', #251, 1000.000000000000114 ) ;
#51 = CARTESIAN_POINT ( 'NONE',  ( -95.96448438871109943, 11.58496628741383461, -192.2394132932776358 ) ) ;
#52 = CARTESIAN_POINT ( 'NONE',  ( -82.84015176117839019, -2.255140518769849223E-14, -200.0000000000000000 ) ) ;
#53 = EDGE_CURVE ( 'NONE', #145, #436, #124, .T. ) ;
#54 = CARTESIAN_POINT ( 'NONE',  ( 94.63308709453529843, -5.366912905464734429, -200.0000000000000000 ) ) ;
#55 = CARTESIAN_POINT ( 'NONE',  ( -92.40725560786911785, 14.66154374131506799, -189.4535949589735537 ) ) ;
#56 = ORIENTED_EDGE ( 'NONE', *, *, #535, .F. ) ;
#57 = FACE_OUTER_BOUND ( 'NONE', #821, .T. ) ;
#58 = LINE ( 'NONE', #561, #391 ) ;
#59 = ORIENTED_EDGE ( 'NONE', *, *, #626, .F. ) ;
#60 = CARTESIAN_POINT ( 'NONE',  ( -82.84015176117840440, -17.50000000000003553, -200.0000000000000000 ) ) ;
#61 = DIRECTION ( 'NONE',  ( -1.000000000000000000, 0.000000000000000000, 0.000000000000000000 ) ) ;
#62 = ADVANCED_FACE ( 'NONE', ( #496 ), #576, .F. ) ;
#63 = AXIS2_PLACEMENT_3D ( 'NONE', #169, #181, #493 ) ;
#64 = AXIS2_PLACEMENT_3D ( 'NONE', #539, #34, #157 ) ;
#65 = ADVANCED_FACE ( 'NONE', ( #3, #253, #688, #633 ), #643, .T. ) ;
#66 = VERTEX_POINT ( 'NONE', #691 ) ;
#67 = CARTESIAN_POINT ( 'NONE',  ( 77.73577781892640814, 29.67429048439427319, -110.0000000000000142 ) ) ;
#68 = CLOSED_SHELL ( 'NONE', ( #289, #358, #374, #527, #329, #803, #714, #65, #432, #120, #558, #559, #451, #489, #692, #148, #775, #295, #836, #304, #100, #178, #62, #746, #81 ) ) ;
#69 = CARTESIAN_POINT ( 'NONE',  ( -82.84015176117840440, -17.50000000000003553, -200.0000000000000000 ) ) ;
#70 = ORIENTED_EDGE ( 'NONE', *, *, #314, .T. ) ;
#71 = PLANE ( 'NONE',  #664 ) ;
#72 = SURFACE_STYLE_USAGE ( .BOTH. , #154 ) ;
#73 = ORIENTED_EDGE ( 'NONE', *, *, #658, .F. ) ;
#74 = DIRECTION ( 'NONE',  ( -0.7071067811865473507, -0.7071067811865477948, 0.000000000000000000 ) ) ;
#75 = CARTESIAN_POINT ( 'NONE',  ( -86.86261027894565245, 17.03953597767022998, -186.7195300751931200 ) ) ;
#76 = EDGE_LOOP ( 'NONE', ( #406, #402, #497, #826, #246, #398 ) ) ;
#77 = FACE_OUTER_BOUND ( 'NONE', #464, .T. ) ;
#78 = SURFACE_STYLE_FILL_AREA ( #525 ) ;
#79 = VERTEX_POINT ( 'NONE', #119 ) ;
#80 = FACE_OUTER_BOUND ( 'NONE', #830, .T. ) ;
#81 = ADVANCED_FACE ( 'NONE', ( #776 ), #427, .F. ) ;
#82 = CARTESIAN_POINT ( 'NONE',  ( -85.83017048856326880, 17.24473953767862611, -186.3597999149784528 ) ) ;
#83 = VERTEX_POINT ( 'NONE', #373 ) ;
#84 = FACE_OUTER_BOUND ( 'NONE', #142, .T. ) ;
#85 = CARTESIAN_POINT ( 'NONE',  ( -84.63016661837453114, 17.40874576888562686, -186.0484457728818768 ) ) ;
#86 = EDGE_CURVE ( 'NONE', #670, #79, #439, .T. ) ;
#87 = EDGE_LOOP ( 'NONE', ( #239, #134, #796, #772, #652 ) ) ;
#88 = LINE ( 'NONE', #719, #708 ) ;
#89 = CIRCLE ( 'NONE', #473, 2.500000000000002220 ) ;
#90 = CARTESIAN_POINT ( 'NONE',  ( 0.000000000000000000, 0.000000000000000000, -150.0000000000000284 ) ) ;
#91 = AXIS2_PLACEMENT_3D ( 'NONE', #67, #396, #649 ) ;
#92 = LINE ( 'NONE', #569, #679 ) ;
#93 = EDGE_LOOP ( 'NONE', ( #267, #151, #595, #546 ) ) ;
#94 = CARTESIAN_POINT ( 'NONE',  ( -52.50000000000000711, 0.000000000000000000, -150.0000000000000284 ) ) ;
#95 = CARTESIAN_POINT ( 'NONE',  ( 100.0000000000000000, -0.3794404183931309182, 200.0000000000000000 ) ) ;
#96 = CARTESIAN_POINT ( 'NONE',  ( 50.00000000000000000, 0.000000000000000000, -150.0000000000000284 ) ) ;
#97 = ORIENTED_EDGE ( 'NONE', *, *, #4, .F. ) ;
#98 = EDGE_CURVE ( 'NONE', #224, #66, #15, .T. ) ;
#99 = CARTESIAN_POINT ( 'NONE',  ( -83.29348327911216643, -17.49422181729510939, -186.2083841186259292 ) ) ;
#100 = ADVANCED_FACE ( 'NONE', ( #280 ), #27, .T. ) ;
#101 = DIRECTION ( 'NONE',  ( -0.7071067811865473507, -0.7071067811865477948, -1.045954128700536658E-15 ) ) ;
#102 = ORIENTED_EDGE ( 'NONE', *, *, #314, .F. ) ;
#103 = DIRECTION ( 'NONE',  ( 1.000000000000000000, 0.000000000000000000, 0.000000000000000000 ) ) ;
#104 = CARTESIAN_POINT ( 'NONE',  ( 24.71348079501039408, 2.664153838074581060, 199.7510949543430741 ) ) ;
#105 = ORIENTED_EDGE ( 'NONE', *, *, #155, .F. ) ;
#106 = VECTOR ( 'NONE', #815, 1000.000000000000000 ) ;
#107 = CARTESIAN_POINT ( 'NONE',  ( -85.04576177757746791, -17.36260364304417436, -186.1325777113845561 ) ) ;
#108 = DIRECTION ( 'NONE',  ( -1.000000000000000000, 0.000000000000000000, 0.000000000000000000 ) ) ;
#109 = ORIENTED_EDGE ( 'NONE', *, *, #340, .F. ) ;
#110 = CARTESIAN_POINT ( 'NONE',  ( -82.94555515574445792, -17.49974381168873094, -186.8058075801865527 ) ) ;
#111 = MANIFOLD_SOLID_BREP ( 'Cut-Extrude4', #68 ) ;
#112 = LINE ( 'NONE', #182, #201 ) ;
#113 = DIRECTION ( 'NONE',  ( -1.384546954556844116E-15, -9.465555987158890586E-17, 1.000000000000000000 ) ) ;
#114 = EDGE_CURVE ( 'NONE', #66, #582, #401, .T. ) ;
#115 = DIRECTION ( 'NONE',  ( -0.000000000000000000, -0.000000000000000000, -1.000000000000000000 ) ) ;
#116 = EDGE_CURVE ( 'NONE', #694, #549, #22, .T. ) ;
#117 = DIRECTION ( 'NONE',  ( -0.000000000000000000, -0.000000000000000000, -1.000000000000000000 ) ) ;
#118 = AXIS2_PLACEMENT_3D ( 'NONE', #671, #339, #276 ) ;
#119 = CARTESIAN_POINT ( 'NONE',  ( -82.84015176117840440, 17.49999999999999289, -187.9127739143834788 ) ) ;
#120 = ADVANCED_FACE ( 'NONE', ( #204 ), #586, .T. ) ;
#121 = ORIENTED_EDGE ( 'NONE', *, *, #709, .F. ) ;
#122 = CARTESIAN_POINT ( 'NONE',  ( -99.34500689923761740, -5.817194931552537085, -197.9005139817428471 ) ) ;
#123 = DIRECTION ( 'NONE',  ( 0.7071067811865477948, -0.7071067811865473507, 0.000000000000000000 ) ) ;
#124 = LINE ( 'NONE', #383, #311 ) ;
#125 = EDGE_LOOP ( 'NONE', ( #333, #533, #644, #102, #342 ) ) ;
#126 = CARTESIAN_POINT ( 'NONE',  ( -93.55786248231359536, -13.84248914890491555, -190.2176135660066052 ) ) ;
#127 = EDGE_CURVE ( 'NONE', #789, #37, #505, .T. ) ;
#128 = DIRECTION ( 'NONE',  ( 0.000000000000000000, 0.000000000000000000, -1.000000000000000000 ) ) ;
#129 = DIRECTION ( 'NONE',  ( -0.6572307955757380471, 0.7536893798819792600, 0.000000000000000000 ) ) ;
#130 = UNCERTAINTY_MEASURE_WITH_UNIT (LENGTH_MEASURE( 1.000000000000000082E-05 ), #287, 'distance_accuracy_value', 'NONE');
#131 = VERTEX_POINT ( 'NONE', #174 ) ;
#132 = CARTESIAN_POINT ( 'NONE',  ( -82.84015176117840440, 17.49999999999999289, -200.0000000000000000 ) ) ;
#133 = AXIS2_PLACEMENT_3D ( 'NONE', #438, #123, #565 ) ;
#134 = ORIENTED_EDGE ( 'NONE', *, *, #205, .F. ) ;
#135 = CARTESIAN_POINT ( 'NONE',  ( 94.63308709453529843, -5.366912905464734429, -110.0000000000000142 ) ) ;
#136 = MECHANICAL_DESIGN_GEOMETRIC_PRESENTATION_REPRESENTATION (  '', ( #490 ), #628 ) ;
#137 =( NAMED_UNIT ( * ) PLANE_ANGLE_UNIT ( ) SI_UNIT ( $, .RADIAN. ) );
#138 = EDGE_CURVE ( 'NONE', #271, #168, #365, .T. ) ;
#139 = ORIENTED_EDGE ( 'NONE', *, *, #467, .F. ) ;
#140 = FACE_OUTER_BOUND ( 'NONE', #740, .T. ) ;
#141 = FILL_AREA_STYLE_COLOUR ( '', #176 ) ;
#142 = EDGE_LOOP ( 'NONE', ( #328, #410, #360, #286 ) ) ;
#143 = EDGE_CURVE ( 'NONE', #83, #208, #800, .T. ) ;
#144 = CYLINDRICAL_SURFACE ( 'NONE', #693, 5.000000000000000000 ) ;
#145 = VERTEX_POINT ( 'NONE', #294 ) ;
#146 = PRODUCT_CONTEXT ( 'NONE', #167, 'mechanical' ) ;
#147 = CARTESIAN_POINT ( 'NONE',  ( 31.72867368829633605, -9.667418893914382139, 200.0000000000000000 ) ) ;
#148 = ADVANCED_FACE ( 'NONE', ( #669 ), #616, .T. ) ;
#149 = PRESENTATION_LAYER_ASSIGNMENT (  '', '', ( #490 ) ) ;
#150 = CARTESIAN_POINT ( 'NONE',  ( 100.0000000000000000, -0.3794404183931309182, 200.0000000000000000 ) ) ;
#151 = ORIENTED_EDGE ( 'NONE', *, *, #236, .F. ) ;
#152 = CARTESIAN_POINT ( 'NONE',  ( 50.00000000000000000, 0.000000000000000000, -150.0000000000000284 ) ) ;
#153 = EDGE_CURVE ( 'NONE', #436, #224, #548, .T. ) ;
#154 = SURFACE_SIDE_STYLE ('',( #78 ) ) ;
#155 = EDGE_CURVE ( 'NONE', #224, #474, #227, .T. ) ;
#156 = EDGE_LOOP ( 'NONE', ( #737, #11, #782, #97 ) ) ;
#157 = DIRECTION ( 'NONE',  ( -0.2978208364082759463, 0.000000000000000000, -0.9546217834310480876 ) ) ;
#158 = CARTESIAN_POINT ( 'NONE',  ( -50.00000000000000000, 0.000000000000000000, -150.0000000000000284 ) ) ;
#159 = LINE ( 'NONE', #104, #364 ) ;
#160 = ORIENTED_EDGE ( 'NONE', *, *, #240, .F. ) ;
#161 = VECTOR ( 'NONE', #488, 1000.000000000000114 ) ;
#162 = CYLINDRICAL_SURFACE ( 'NONE', #458, 5.000000000000000000 ) ;
#163 = CARTESIAN_POINT ( 'NONE',  ( -99.83806010860976698, -4.242914932997851274, -199.4809250091701074 ) ) ;
#164 = EDGE_LOOP ( 'NONE', ( #711, #264, #785, #460 ) ) ;
#165 = FACE_OUTER_BOUND ( 'NONE', #356, .T. ) ;
#166 = CARTESIAN_POINT ( 'NONE',  ( 99.82325015093559273, -0.1767498490644423548, -200.0000000000000000 ) ) ;
#167 = APPLICATION_CONTEXT ( 'automotive_design' ) ;
#168 = VERTEX_POINT ( 'NONE', #468 ) ;
#169 = CARTESIAN_POINT ( 'NONE',  ( -50.00000000000000000, 0.000000000000000000, -150.0000000000000284 ) ) ;
#170 = LINE ( 'NONE', #416, #173 ) ;
#171 = ORIENTED_EDGE ( 'NONE', *, *, #24, .F. ) ;
#172 = CARTESIAN_POINT ( 'NONE',  ( -84.08868883498290359, -17.45596866261992020, -185.9873116091867473 ) ) ;
#173 = VECTOR ( 'NONE', #101, 999.9999999999998863 ) ;
#174 = CARTESIAN_POINT ( 'NONE',  ( -5.000000000000000000, 0.000000000000000000, -150.0000000000000284 ) ) ;
#175 = ORIENTED_EDGE ( 'NONE', *, *, #340, .T. ) ;
#176 = COLOUR_RGB ( '',0.7921568627450980005, 0.8196078431372548767, 0.9333333333333333481 ) ;
#177 = LINE ( 'NONE', #614, #229 ) ;
#178 = ADVANCED_FACE ( 'NONE', ( #290 ), #551, .T. ) ;
#179 = CARTESIAN_POINT ( 'NONE',  ( -99.61936498898629111, 5.038771553869959341, -198.7799293110839187 ) ) ;
#180 = ORIENTED_EDGE ( 'NONE', *, *, #53, .T. ) ;
#181 = DIRECTION ( 'NONE',  ( 0.000000000000000000, 0.000000000000000000, -1.000000000000000000 ) ) ;
#182 = CARTESIAN_POINT ( 'NONE',  ( 95.01164388110458958, 5.341032595333003563, -200.0000000000000000 ) ) ;
#183 = EDGE_CURVE ( 'NONE', #275, #168, #89, .T. ) ;
#184 = CARTESIAN_POINT ( 'NONE',  ( 5.000000000000000000, 6.123233995736766282E-16, -150.0000000000000284 ) ) ;
#185 = EDGE_LOOP ( 'NONE', ( #70, #445, #19, #805 ) ) ;
#186 = DIRECTION ( 'NONE',  ( 0.000000000000000000, 0.000000000000000000, 1.000000000000000000 ) ) ;
#187 = CARTESIAN_POINT ( 'NONE',  ( -91.57143705412875079, 15.17415559512189382, -188.9530264387418867 ) ) ;
#188 = ORIENTED_EDGE ( 'NONE', *, *, #684, .T. ) ;
#189 = CARTESIAN_POINT ( 'NONE',  ( -90.22400861907296132, -15.87368749385565181, -188.2226581139458972 ) ) ;
#190 = CARTESIAN_POINT ( 'NONE',  ( -99.34500689923763161, 5.817194931552474024, -197.9005139817428756 ) ) ;
#191 = PRODUCT_DEFINITION_SHAPE ( 'NONE', 'NONE',  #456 ) ;
#192 = DIRECTION ( 'NONE',  ( 1.000000000000000000, 0.000000000000000000, 1.384546954556844116E-15 ) ) ;
#193 = VERTEX_POINT ( 'NONE', #302 ) ;
#194 = CARTESIAN_POINT ( 'NONE',  ( -96.55316616022390974, -10.90790661054370503, -192.8422579556103358 ) ) ;
#195 = CARTESIAN_POINT ( 'NONE',  ( 77.73577781892640814, 29.67429048439427319, 110.0000000000000000 ) ) ;
#196 = CARTESIAN_POINT ( 'NONE',  ( 94.63308709453529843, -5.366912905464734429, 200.0000000000000000 ) ) ;
#197 = UNCERTAINTY_MEASURE_WITH_UNIT (LENGTH_MEASURE( 1.000000000000000082E-05 ), #349, 'distance_accuracy_value', 'NONE');
#198 = ORIENTED_EDGE ( 'NONE', *, *, #30, .F. ) ;
#199 = FACE_OUTER_BOUND ( 'NONE', #76, .T. ) ;
#200 = EDGE_CURVE ( 'NONE', #271, #5, #503, .T. ) ;
#201 = VECTOR ( 'NONE', #128, 1000.000000000000000 ) ;
#202 = ORIENTED_EDGE ( 'NONE', *, *, #648, .F. ) ;
#203 = CARTESIAN_POINT ( 'NONE',  ( 94.63308709453528422, -5.366912905464739758, 110.0000000000000284 ) ) ;
#204 = FACE_OUTER_BOUND ( 'NONE', #753, .T. ) ;
#205 = EDGE_CURVE ( 'NONE', #698, #580, #159, .T. ) ;
#206 = VERTEX_POINT ( 'NONE', #359 ) ;
#207 = CARTESIAN_POINT ( 'NONE',  ( 12.08286554953813408, -4.929420633200071281E-15, 158.9271726322263589 ) ) ;
#208 = VERTEX_POINT ( 'NONE', #809 ) ;
#209 = APPLICATION_PROTOCOL_DEFINITION ( 'draft international standard', 'automotive_design', 1998, #167 ) ;
#210 = CARTESIAN_POINT ( 'NONE',  ( 25.10643666798131335, 4.770489558936219510E-15, 200.0000000000000000 ) ) ;
#211 = CARTESIAN_POINT ( 'NONE',  ( -84.49306890504351486, 17.42231612826599374, -186.0254238957300856 ) ) ;
#212 = CIRCLE ( 'NONE', #834, 5.000000000000000000 ) ;
#213 = EDGE_CURVE ( 'NONE', #346, #563, #751, .T. ) ;
#214 = VERTEX_POINT ( 'NONE', #234 ) ;
#215 =( GEOMETRIC_REPRESENTATION_CONTEXT ( 3 ) GLOBAL_UNCERTAINTY_ASSIGNED_CONTEXT ( ( #130 ) ) GLOBAL_UNIT_ASSIGNED_CONTEXT ( ( #287, #221, #465 ) ) REPRESENTATION_CONTEXT ( 'NONE', 'WORKASPACE' ) );
#216 = EDGE_CURVE ( 'NONE', #307, #193, #46, .T. ) ;
#217 = CARTESIAN_POINT ( 'NONE',  ( 99.82325015093559273, -0.1767498490644434650, 200.0000000000000000 ) ) ;
#218 = EDGE_CURVE ( 'NONE', #206, #470, #804, .T. ) ;
#219 = CARTESIAN_POINT ( 'NONE',  ( -83.79929774447872148, 17.47425076721441783, -186.0013719328518107 ) ) ;
#220 = ORIENTED_EDGE ( 'NONE', *, *, #720, .F. ) ;
#221 =( NAMED_UNIT ( * ) PLANE_ANGLE_UNIT ( ) SI_UNIT ( $, .RADIAN. ) );
#222 = LINE ( 'NONE', #731, #808 ) ;
#223 = DIRECTION ( 'NONE',  ( 1.000000000000000000, 0.000000000000000000, 0.000000000000000000 ) ) ;
#224 = VERTEX_POINT ( 'NONE', #673 ) ;
#225 = CARTESIAN_POINT ( 'NONE',  ( 100.0000000000000000, -0.3794404183931309182, 200.0000000000000000 ) ) ;
#226 = PLANE ( 'NONE',  #421 ) ;
#227 = LINE ( 'NONE', #678, #106 ) ;
#228 = LINE ( 'NONE', #435, #750 ) ;
#229 = VECTOR ( 'NONE', #817, 1000.000000000000114 ) ;
#230 = LINE ( 'NONE', #457, #721 ) ;
#231 = DIRECTION ( 'NONE',  ( -0.000000000000000000, 0.000000000000000000, 1.000000000000000000 ) ) ;
#232 = ORIENTED_EDGE ( 'NONE', *, *, #585, .T. ) ;
#233 = DIRECTION ( 'NONE',  ( 0.000000000000000000, 0.000000000000000000, -1.000000000000000000 ) ) ;
#234 = CARTESIAN_POINT ( 'NONE',  ( 5.000000000000000000, 6.123233995736766282E-16, -200.0000000000000000 ) ) ;
#235 = EDGE_LOOP ( 'NONE', ( #600, #810, #418, #674, #748 ) ) ;
#236 = EDGE_CURVE ( 'NONE', #131, #380, #819, .T. ) ;
#237 = CARTESIAN_POINT ( 'NONE',  ( -84.63824659536517458, -17.40791587668508811, -186.0498820595636289 ) ) ;
#238 = CARTESIAN_POINT ( 'NONE',  ( 47.50000000000000000, 0.000000000000000000, -150.0000000000000284 ) ) ;
#239 = ORIENTED_EDGE ( 'NONE', *, *, #756, .T. ) ;
#240 = EDGE_CURVE ( 'NONE', #206, #694, #170, .T. ) ;
#241 = VECTOR ( 'NONE', #231, 1000.000000000000000 ) ;
#242 = AXIS2_PLACEMENT_3D ( 'NONE', #583, #703, #255 ) ;
#243 = EDGE_CURVE ( 'NONE', #698, #440, #326, .T. ) ;
#244 = CYLINDRICAL_SURFACE ( 'NONE', #281, 2.500000000000002220 ) ;
#245 =( BOUNDED_CURVE ( )  B_SPLINE_CURVE ( 3, ( #272, #207, #521, #394 ),
 .UNSPECIFIED., .F., .F. ) 
 B_SPLINE_CURVE_WITH_KNOTS ( ( 4, 4 ),
 ( 4.487940798217945115, 4.712388980384549342 ),
 .UNSPECIFIED. ) 
 CURVE ( )  GEOMETRIC_REPRESENTATION_ITEM ( )  RATIONAL_B_SPLINE_CURVE ( ( 1.000000000000000000, 0.9958063219178139303, 0.9958063219178139303, 1.000000000000000000 ) ) 
 REPRESENTATION_ITEM ( '' )  );
#246 = ORIENTED_EDGE ( 'NONE', *, *, #213, .T. ) ;
#247 = CARTESIAN_POINT ( 'NONE',  ( -82.91569234240473918, -17.49985034875204093, -186.9409764310213973 ) ) ;
#248 = CARTESIAN_POINT ( 'NONE',  ( -52.50000000000000711, 0.000000000000000000, -200.0000000000000000 ) ) ;
#249 = CARTESIAN_POINT ( 'NONE',  ( -99.34500689923763161, 5.817194931552474024, -197.9005139817428756 ) ) ;
#250 = ORIENTED_EDGE ( 'NONE', *, *, #620, .T. ) ;
#251 = DIRECTION ( 'NONE',  ( -0.2977591233433190543, 0.02035651910119314761, -0.9544239710924600217 ) ) ;
#252 = DIRECTION ( 'NONE',  ( 0.000000000000000000, 0.000000000000000000, -1.000000000000000000 ) ) ;
#253 = FACE_BOUND ( 'NONE', #555, .T. ) ;
#254 = ORIENTED_EDGE ( 'NONE', *, *, #585, .F. ) ;
#255 = DIRECTION ( 'NONE',  ( -1.000000000000000000, 0.000000000000000000, 0.000000000000000000 ) ) ;
#256 = CARTESIAN_POINT ( 'NONE',  ( 47.50000000000000000, 0.000000000000000000, -150.0000000000000284 ) ) ;
#257 = CIRCLE ( 'NONE', #545, 5.000000000000000000 ) ;
#258 = DIRECTION ( 'NONE',  ( -1.000000000000000000, 0.000000000000000000, 0.000000000000000000 ) ) ;
#259 = VECTOR ( 'NONE', #683, 1000.000000000000000 ) ;
#260 = EDGE_LOOP ( 'NONE', ( #702, #198 ) ) ;
#261 = DIRECTION ( 'NONE',  ( 0.9976712237790653637, -0.06820651906659695729, 1.374866528283163780E-15 ) ) ;
#262 = LINE ( 'NONE', #195, #556 ) ;
#263 = CARTESIAN_POINT ( 'NONE',  ( -47.50000000000000000, 3.061616997868386099E-16, -150.0000000000000284 ) ) ;
#264 = ORIENTED_EDGE ( 'NONE', *, *, #143, .F. ) ;
#265 = CARTESIAN_POINT ( 'NONE',  ( -98.01218445493103104, -8.731791189148539800, -194.8693127982714941 ) ) ;
#266 = DIRECTION ( 'NONE',  ( -1.000000000000000000, 0.000000000000000000, -0.000000000000000000 ) ) ;
#267 = ORIENTED_EDGE ( 'NONE', *, *, #14, .F. ) ;
#268 = CARTESIAN_POINT ( 'NONE',  ( -97.56521318122756270, -9.466114282374352484, -194.1706604818137123 ) ) ;
#269 = EDGE_CURVE ( 'NONE', #37, #389, #92, .T. ) ;
#270 = VECTOR ( 'NONE', #115, 1000.000000000000000 ) ;
#271 = VERTEX_POINT ( 'NONE', #256 ) ;
#272 = CARTESIAN_POINT ( 'NONE',  ( 25.10643666798131335, 4.770489558936219510E-15, 200.0000000000000000 ) ) ;
#273 = AXIS2_PLACEMENT_3D ( 'NONE', #835, #579, #637 ) ;
#274 = CARTESIAN_POINT ( 'NONE',  ( 100.1522834034042972, -4.989589034332889028, 110.0000000000000284 ) ) ;
#275 = VERTEX_POINT ( 'NONE', #323 ) ;
#276 = DIRECTION ( 'NONE',  ( -1.000000000000000000, 0.000000000000000000, -0.000000000000000000 ) ) ;
#277 = VERTEX_POINT ( 'NONE', #54 ) ;
#278 = FACE_OUTER_BOUND ( 'NONE', #235, .T. ) ;
#279 = LINE ( 'NONE', #606, #486 ) ;
#280 = FACE_OUTER_BOUND ( 'NONE', #164, .T. ) ;
#281 = AXIS2_PLACEMENT_3D ( 'NONE', #399, #504, #61 ) ;
#282 = ORIENTED_EDGE ( 'NONE', *, *, #305, .F. ) ;
#283 = DIRECTION ( 'NONE',  ( -0.9546217834310483097, 0.000000000000000000, 0.2978208364082755022 ) ) ;
#284 = DIRECTION ( 'NONE',  ( -0.000000000000000000, -0.000000000000000000, -1.000000000000000000 ) ) ;
#285 = DIRECTION ( 'NONE',  ( 0.000000000000000000, 0.000000000000000000, -1.000000000000000000 ) ) ;
#286 = ORIENTED_EDGE ( 'NONE', *, *, #626, .T. ) ;
#287 =( LENGTH_UNIT ( ) NAMED_UNIT ( * ) SI_UNIT ( .MILLI., .METRE. ) );
#288 = CARTESIAN_POINT ( 'NONE',  ( 79.32602611741019416, 6.413391265775819861, 110.0000000000000142 ) ) ;
#289 = ADVANCED_FACE ( 'NONE', ( #372 ), #244, .F. ) ;
#290 = FACE_OUTER_BOUND ( 'NONE', #303, .T. ) ;
#291 = EDGE_LOOP ( 'NONE', ( #715, #507, #705, #41, #171, #638, #56 ) ) ;
#292 = DIRECTION ( 'NONE',  ( -0.000000000000000000, -0.000000000000000000, -1.000000000000000000 ) ) ;
#293 = DIRECTION ( 'NONE',  ( -0.9976712237790653637, 0.06820651906659695729, 0.000000000000000000 ) ) ;
#294 = CARTESIAN_POINT ( 'NONE',  ( 99.82325015093556431, -0.1767498490644779374, -110.0000000000000142 ) ) ;
#295 = ADVANCED_FACE ( 'NONE', ( #494 ), #700, .T. ) ;
#296 = VERTEX_POINT ( 'NONE', #248 ) ;
#297 = CIRCLE ( 'NONE', #517, 17.50000000000001421 ) ;
#298 = CARTESIAN_POINT ( 'NONE',  ( -83.47117944608008600, -17.48874402754141499, -186.0966860321654792 ) ) ;
#299 = CARTESIAN_POINT ( 'NONE',  ( 95.01164388110458958, 5.341032595333003563, -200.0000000000000000 ) ) ;
#300 = ORIENTED_EDGE ( 'NONE', *, *, #741, .T. ) ;
#301 = DIRECTION ( 'NONE',  ( 1.000000000000000000, 0.000000000000000000, 0.000000000000000000 ) ) ;
#302 = CARTESIAN_POINT ( 'NONE',  ( -82.84015176117840440, -17.50000000000003553, -187.9127739143833935 ) ) ;
#303 = EDGE_LOOP ( 'NONE', ( #160, #481, #363, #139 ) ) ;
#304 = ADVANCED_FACE ( 'NONE', ( #310 ), #828, .T. ) ;
#305 = EDGE_CURVE ( 'NONE', #83, #346, #58, .T. ) ;
#306 = CARTESIAN_POINT ( 'NONE',  ( -70.64386498825467697, -16.66619198139437330, -148.8193338085204118 ) ) ;
#307 = VERTEX_POINT ( 'NONE', #696 ) ;
#308 = CARTESIAN_POINT ( 'NONE',  ( -85.83714004173900491, -17.24350608117812200, -186.3620834657024830 ) ) ;
#309 = AXIS2_PLACEMENT_3D ( 'NONE', #375, #749, #498 ) ;
#310 = FACE_OUTER_BOUND ( 'NONE', #87, .T. ) ;
#311 = VECTOR ( 'NONE', #129, 999.9999999999998863 ) ;
#312 = ORIENTED_EDGE ( 'NONE', *, *, #467, .T. ) ;
#313 = CARTESIAN_POINT ( 'NONE',  ( -83.10304693664862441, -17.49826449081433211, -186.4160910881357438 ) ) ;
#314 = EDGE_CURVE ( 'NONE', #816, #670, #642, .T. ) ;
#315 = CARTESIAN_POINT ( 'NONE',  ( -96.82706837103616238, 10.52666187933804487, -193.1920373455663480 ) ) ;
#316 = ORIENTED_EDGE ( 'NONE', *, *, #709, .T. ) ;
#317 = CARTESIAN_POINT ( 'NONE',  ( 100.0000000000000000, -4.999999999999987566, -200.0000000000000000 ) ) ;
#318 = CARTESIAN_POINT ( 'NONE',  ( -99.83806010860976698, 4.242914932997792654, -199.4809250091701358 ) ) ;
#319 = DIRECTION ( 'NONE',  ( -0.000000000000000000, -0.000000000000000000, -1.000000000000000000 ) ) ;
#320 = ORIENTED_EDGE ( 'NONE', *, *, #672, .T. ) ;
#321 = DIRECTION ( 'NONE',  ( -0.000000000000000000, -0.000000000000000000, 1.000000000000000000 ) ) ;
#322 = VECTOR ( 'NONE', #536, 999.9999999999998863 ) ;
#323 = CARTESIAN_POINT ( 'NONE',  ( 52.50000000000000711, 3.061616997868386099E-16, -200.0000000000000000 ) ) ;
#324 = AXIS2_PLACEMENT_3D ( 'NONE', #513, #330, #446 ) ;
#325 = DIRECTION ( 'NONE',  ( 0.000000000000000000, 0.000000000000000000, -1.000000000000000000 ) ) ;
#326 =( BOUNDED_CURVE ( )  B_SPLINE_CURVE ( 3, ( #603, #736, #163, #833 ),
 .UNSPECIFIED., .F., .F. ) 
 B_SPLINE_CURVE_WITH_KNOTS ( ( 4, 4 ),
 ( 2.802733710076705798, 2.944105744318273210 ),
 .UNSPECIFIED. ) 
 CURVE ( )  GEOMETRIC_REPRESENTATION_ITEM ( )  RATIONAL_B_SPLINE_CURVE ( ( 1.000000000000000000, 0.9983351890218872260, 0.9983351890218872260, 1.000000000000000000 ) ) 
 REPRESENTATION_ITEM ( '' )  );
#327 = VERTEX_POINT ( 'NONE', #818 ) ;
#328 = ORIENTED_EDGE ( 'NONE', *, *, #269, .F. ) ;
#329 = ADVANCED_FACE ( 'NONE', ( #77 ), #574, .T. ) ;
#330 = DIRECTION ( 'NONE',  ( 0.06820651906659695729, 0.9976712237790653637, 0.000000000000000000 ) ) ;
#331 = EDGE_CURVE ( 'NONE', #380, #131, #257, .T. ) ;
#332 = CARTESIAN_POINT ( 'NONE',  ( -82.85054390461441187, 17.50004926510449721, -187.3571867942237361 ) ) ;
#333 = ORIENTED_EDGE ( 'NONE', *, *, #243, .F. ) ;
#334 = CARTESIAN_POINT ( 'NONE',  ( -99.34500689923761740, -5.817194931552537085, -197.9005139817428471 ) ) ;
#335 = AXIS2_PLACEMENT_3D ( 'NONE', #152, #405, #528 ) ;
#336 = DIRECTION ( 'NONE',  ( -0.9976712237790652527, -0.06820651906659733199, -1.387778780781445478E-15 ) ) ;
#337 = ORIENTED_EDGE ( 'NONE', *, *, #200, .F. ) ;
#338 = DIRECTION ( 'NONE',  ( 1.000000000000000000, 0.000000000000000000, 0.000000000000000000 ) ) ;
#339 = DIRECTION ( 'NONE',  ( 0.000000000000000000, 0.000000000000000000, -1.000000000000000000 ) ) ;
#340 = EDGE_CURVE ( 'NONE', #474, #549, #262, .T. ) ;
#341 = CARTESIAN_POINT ( 'NONE',  ( -84.07732289354387945, 17.45676970352809221, -185.9871002055225233 ) ) ;
#342 = ORIENTED_EDGE ( 'NONE', *, *, #24, .T. ) ;
#343 = FACE_OUTER_BOUND ( 'NONE', #125, .T. ) ;
#344 = LINE ( 'NONE', #662, #376 ) ;
#345 = CARTESIAN_POINT ( 'NONE',  ( -85.30282117986602941, 17.32791138731813874, -186.2018746542761676 ) ) ;
#346 = VERTEX_POINT ( 'NONE', #632 ) ;
#347 = DIRECTION ( 'NONE',  ( 0.9976712237790652527, 0.06820651906659734587, 0.000000000000000000 ) ) ;
#348 = LINE ( 'NONE', #734, #322 ) ;
#349 =( LENGTH_UNIT ( ) NAMED_UNIT ( * ) SI_UNIT ( .MILLI., .METRE. ) );
#350 = VECTOR ( 'NONE', #689, 1000.000000000000000 ) ;
#351 = ORIENTED_EDGE ( 'NONE', *, *, #127, .T. ) ;
#352 = DIRECTION ( 'NONE',  ( 0.000000000000000000, 0.000000000000000000, 1.000000000000000000 ) ) ;
#353 = EDGE_CURVE ( 'NONE', #436, #327, #112, .T. ) ;
#354 = DIRECTION ( 'NONE',  ( 0.000000000000000000, 0.000000000000000000, -1.000000000000000000 ) ) ;
#355 = DIRECTION ( 'NONE',  ( 0.000000000000000000, 0.000000000000000000, -1.000000000000000000 ) ) ;
#356 = EDGE_LOOP ( 'NONE', ( #351, #232 ) ) ;
#357 = CARTESIAN_POINT ( 'NONE',  ( 50.00000000000000000, 0.000000000000000000, -150.0000000000000284 ) ) ;
#358 = ADVANCED_FACE ( 'NONE', ( #629 ), #377, .F. ) ;
#359 = CARTESIAN_POINT ( 'NONE',  ( 99.82325015093559273, -0.1767498490644423548, 110.0000000000000426 ) ) ;
#360 = ORIENTED_EDGE ( 'NONE', *, *, #799, .T. ) ;
#361 = LINE ( 'NONE', #811, #761 ) ;
#362 = DIRECTION ( 'NONE',  ( 0.7071067811865477948, -0.7071067811865473507, 0.000000000000000000 ) ) ;
#363 = ORIENTED_EDGE ( 'NONE', *, *, #532, .F. ) ;
#364 = VECTOR ( 'NONE', #36, 1000.000000000000114 ) ;
#365 = LINE ( 'NONE', #238, #259 ) ;
#366 = EDGE_CURVE ( 'NONE', #168, #275, #791, .T. ) ;
#367 = ORIENTED_EDGE ( 'NONE', *, *, #98, .T. ) ;
#368 = CARTESIAN_POINT ( 'NONE',  ( -85.31284854638920478, -17.32645986154854612, -186.2046874407945438 ) ) ;
#369 = CARTESIAN_POINT ( 'NONE',  ( 31.72867368829635737, 9.667418893914375033, 200.0000000000000000 ) ) ;
#370 = ORIENTED_EDGE ( 'NONE', *, *, #799, .F. ) ;
#371 = CARTESIAN_POINT ( 'NONE',  ( -84.22699767204261434, -17.44550604271662664, -185.9956514437936050 ) ) ;
#372 = FACE_OUTER_BOUND ( 'NONE', #512, .T. ) ;
#373 = CARTESIAN_POINT ( 'NONE',  ( 95.01164388110458958, 5.341032595333003563, 200.0000000000000000 ) ) ;
#374 = ADVANCED_FACE ( 'NONE', ( #716 ), #144, .F. ) ;
#375 = CARTESIAN_POINT ( 'NONE',  ( -50.00000000000000000, 0.000000000000000000, -200.0000000000000000 ) ) ;
#376 = VECTOR ( 'NONE', #540, 1000.000000000000114 ) ;
#377 = CYLINDRICAL_SURFACE ( 'NONE', #572, 2.500000000000002220 ) ;
#378 = CARTESIAN_POINT ( 'NONE',  ( -92.80933533234606614, 14.39080829340563028, -189.7096130495405646 ) ) ;
#379 = VECTOR ( 'NONE', #781, 1000.000000000000114 ) ;
#380 = VERTEX_POINT ( 'NONE', #382 ) ;
#381 = DIRECTION ( 'NONE',  ( 0.7071067811865473507, 0.7071067811865477948, 0.000000000000000000 ) ) ;
#382 = CARTESIAN_POINT ( 'NONE',  ( 5.000000000000000000, 6.123233995736766282E-16, -150.0000000000000284 ) ) ;
#383 = CARTESIAN_POINT ( 'NONE',  ( 100.0000000000000000, -0.3794404183931309182, -110.0000000000000426 ) ) ;
#384 = ORIENTED_EDGE ( 'NONE', *, *, #710, .F. ) ;
#385 = CARTESIAN_POINT ( 'NONE',  ( -94.65668856927791808, -12.91690576933766721, -191.0529003275135267 ) ) ;
#386 = ADVANCED_BREP_SHAPE_REPRESENTATION ( 'Right Wing', ( #111, #793 ), #215 ) ;
#387 = DIRECTION ( 'NONE',  ( -1.000000000000000000, 0.000000000000000000, 0.000000000000000000 ) ) ;
#388 = CARTESIAN_POINT ( 'NONE',  ( 97.68920229450770876, 31.03842086572621994, -110.0000000000000142 ) ) ;
#389 = VERTEX_POINT ( 'NONE', #624 ) ;
#390 = PLANE ( 'NONE',  #91 ) ;
#391 = VECTOR ( 'NONE', #434, 1000.000000000000000 ) ;
#392 = VECTOR ( 'NONE', #319, 1000.000000000000000 ) ;
#393 = ORIENTED_EDGE ( 'NONE', *, *, #114, .T. ) ;
#394 = CARTESIAN_POINT ( 'NONE',  ( -14.25566257045952945, -1.695692197767328935E-12, 74.84112026295727560 ) ) ;
#395 = EDGE_LOOP ( 'NONE', ( #542, #587, #613, #9 ) ) ;
#396 = DIRECTION ( 'NONE',  ( -0.9976712237790653637, -0.06820651906659737362, 0.000000000000000000 ) ) ;
#397 =( NAMED_UNIT ( * ) SI_UNIT ( $, .STERADIAN. ) SOLID_ANGLE_UNIT ( ) );
#398 = ORIENTED_EDGE ( 'NONE', *, *, #426, .T. ) ;
#399 = CARTESIAN_POINT ( 'NONE',  ( 50.00000000000000000, 0.000000000000000000, -150.0000000000000284 ) ) ;
#400 = VECTOR ( 'NONE', #321, 1000.000000000000000 ) ;
#401 = LINE ( 'NONE', #518, #379 ) ;
#402 = ORIENTED_EDGE ( 'NONE', *, *, #532, .T. ) ;
#403 = CARTESIAN_POINT ( 'NONE',  ( -14.25566257045952945, -1.695692197767328935E-12, 74.84112026295727560 ) ) ;
#404 = ORIENTED_EDGE ( 'NONE', *, *, #269, .T. ) ;
#405 = DIRECTION ( 'NONE',  ( 0.000000000000000000, 0.000000000000000000, -1.000000000000000000 ) ) ;
#406 = ORIENTED_EDGE ( 'NONE', *, *, #648, .T. ) ;
#407 = CARTESIAN_POINT ( 'NONE',  ( -100.0000000000000000, 3.433599921454264514, -200.0000000000000000 ) ) ;
#408 = DIRECTION ( 'NONE',  ( -1.000000000000000000, 0.000000000000000000, 0.000000000000000000 ) ) ;
#409 = AXIS2_PLACEMENT_3D ( 'NONE', #45, #675, #301 ) ;
#410 = ORIENTED_EDGE ( 'NONE', *, *, #127, .F. ) ;
#411 = DIRECTION ( 'NONE',  ( -0.000000000000000000, 0.000000000000000000, 1.000000000000000000 ) ) ;
#412 = VECTOR ( 'NONE', #448, 1000.000000000000114 ) ;
#413 = CARTESIAN_POINT ( 'NONE',  ( 100.0000000000000000, 5.000000000000012434, -110.0000000000000142 ) ) ;
#414 = VERTEX_POINT ( 'NONE', #690 ) ;
#415 = PLANE ( 'NONE',  #118 ) ;
#416 = CARTESIAN_POINT ( 'NONE',  ( 94.63308709453507106, -5.366912905464963579, 110.0000000000000426 ) ) ;
#417 = B_SPLINE_CURVE_WITH_KNOTS ( 'NONE', 3,
 ( #754, #742, #618, #247, #110, #557, #313, #431, #99, #38, #298, #686, #547, #172, #371, #814, #237, #107, #368, #308, #553, #822, #502, #10, #783, #695, #189, #639, #437, #126, #508, #385, #763, #450, #194, #699, #268, #265, #635, #6, #12, #334 ),
 .UNSPECIFIED., .F., .F.,
 ( 4, 2, 2, 2, 2, 2, 2, 2, 2, 2, 2, 2, 2, 2, 2, 2, 2, 2, 2, 2, 4 ),
 ( 0.000000000000000000, 0.0008364066801182027918, 0.001254610020177262825, 0.001672813360236323184, 0.001881915030265835041, 0.002091016700295347114, 0.002509220040354333096, 0.002927423380413319513, 0.003345626720472305929, 0.004182033400590277027, 0.005018440080708247257, 0.006691253440944186850, 0.008364066801180127311, 0.01003688016141606777, 0.01338250688188787757, 0.01505532024212378334, 0.01672813360235968910, 0.02007376032283153880, 0.02174657368306745844, 0.02341938704330337115, 0.02676501376377519656 ),
 .UNSPECIFIED. ) ;
#418 = ORIENTED_EDGE ( 'NONE', *, *, #756, .F. ) ;
#419 = CARTESIAN_POINT ( 'NONE',  ( -50.00000000000000000, 0.000000000000000000, -150.0000000000000284 ) ) ;
#420 = ORIENTED_EDGE ( 'NONE', *, *, #7, .T. ) ;
#421 = AXIS2_PLACEMENT_3D ( 'NONE', #95, #668, #738 ) ;
#422 = DIRECTION ( 'NONE',  ( 0.6572307955757380471, -0.7536893798819792600, 0.000000000000000000 ) ) ;
#423 = CARTESIAN_POINT ( 'NONE',  ( -82.84015176117839019, -2.255140518769849223E-14, -200.0000000000000000 ) ) ;
#424 = ORIENTED_EDGE ( 'NONE', *, *, #676, .T. ) ;
#425 = CARTESIAN_POINT ( 'NONE',  ( 0.000000000000000000, 0.000000000000000000, -150.0000000000000284 ) ) ;
#426 = EDGE_CURVE ( 'NONE', #563, #307, #485, .T. ) ;
#427 = PLANE ( 'NONE',  #575 ) ;
#428 = LINE ( 'NONE', #745, #350 ) ;
#429 = DIRECTION ( 'NONE',  ( -0.000000000000000000, -0.000000000000000000, -1.000000000000000000 ) ) ;
#430 = CARTESIAN_POINT ( 'NONE',  ( -93.96909421789057149, 13.53944524151399698, -190.4979798047419308 ) ) ;
#431 = CARTESIAN_POINT ( 'NONE',  ( -83.24028365460614509, -17.49548478847636446, -186.2565833083193922 ) ) ;
#432 = ADVANCED_FACE ( 'NONE', ( #597 ), #162, .F. ) ;
#433 = AXIS2_PLACEMENT_3D ( 'NONE', #96, #355, #108 ) ;
#434 = DIRECTION ( 'NONE',  ( -0.9976712237790653637, 0.06820651906659695729, 0.000000000000000000 ) ) ;
#435 = CARTESIAN_POINT ( 'NONE',  ( -5.000000000000000000, 0.000000000000000000, -150.0000000000000284 ) ) ;
#436 = VERTEX_POINT ( 'NONE', #722 ) ;
#437 = CARTESIAN_POINT ( 'NONE',  ( -92.38672330899044027, -14.69858113698189683, -189.4240768670572947 ) ) ;
#438 = CARTESIAN_POINT ( 'NONE',  ( 94.63308709453529843, -5.366912905464734429, -200.0000000000000000 ) ) ;
#439 = B_SPLINE_CURVE_WITH_KNOTS ( 'NONE', 3,
 ( #249, #630, #760, #315, #625, #51, #562, #825, #430, #378, #55, #187, #566, #829, #500, #594, #75, #646, #82, #345, #463, #85, #211, #537, #341, #219, #454, #724, #713, #728, #18, #599, #651, #452, #788, #332, #717, #590 ),
 .UNSPECIFIED., .F., .F.,
 ( 4, 2, 2, 2, 2, 2, 2, 2, 2, 2, 2, 2, 2, 2, 2, 2, 2, 2, 4 ),
 ( 3.736708725176135323E-17, 0.006570184421593731026, 0.008212730526992140581, 0.009855276632390552738, 0.01314036884318732848, 0.01478291494858572155, 0.01642546105398411116, 0.01971055326478086261, 0.02135309937017922099, 0.02217437242287841406, 0.02299564547557760366, 0.02340628200192717071, 0.02381691852827673775, 0.02422755505462630826, 0.02443287331780108831, 0.02463819158097586490, 0.02504882810732540072, 0.02545946463367493307, 0.02628073768637407756 ),
 .UNSPECIFIED. ) ;
#440 = VERTEX_POINT ( 'NONE', #26 ) ;
#441 = DIRECTION ( 'NONE',  ( 0.000000000000000000, 0.000000000000000000, 1.000000000000000000 ) ) ;
#442 = EDGE_CURVE ( 'NONE', #526, #145, #230, .T. ) ;
#443 = DIRECTION ( 'NONE',  ( 0.000000000000000000, 0.000000000000000000, -1.000000000000000000 ) ) ;
#444 = DIRECTION ( 'NONE',  ( 0.000000000000000000, 0.000000000000000000, -1.000000000000000000 ) ) ;
#445 = ORIENTED_EDGE ( 'NONE', *, *, #86, .T. ) ;
#446 = DIRECTION ( 'NONE',  ( -0.9976712237790653637, 0.06820651906659695729, 0.000000000000000000 ) ) ;
#447 = AXIS2_PLACEMENT_3D ( 'NONE', #653, #554, #49 ) ;
#448 = DIRECTION ( 'NONE',  ( 0.06820651906659735975, -0.9976712237790652527, -0.000000000000000000 ) ) ;
#449 = EDGE_LOOP ( 'NONE', ( #59, #29 ) ) ;
#450 = CARTESIAN_POINT ( 'NONE',  ( -95.97311789051411779, -11.60319640342311409, -192.2232608559381788 ) ) ;
#451 = ADVANCED_FACE ( 'NONE', ( #80 ), #466, .F. ) ;
#452 = CARTESIAN_POINT ( 'NONE',  ( -82.94494716889578001, 17.49974741631796604, -186.8080064216866276 ) ) ;
#453 = ORIENTED_EDGE ( 'NONE', *, *, #720, .T. ) ;
#454 = CARTESIAN_POINT ( 'NONE',  ( -83.66276448061724125, 17.48114901188539960, -186.0227719368105568 ) ) ;
#455 = ORIENTED_EDGE ( 'NONE', *, *, #155, .T. ) ;
#456 = PRODUCT_DEFINITION ( 'General', '', #487, #767 ) ;
#457 = CARTESIAN_POINT ( 'NONE',  ( 99.82325015093559273, -0.1767498490644423548, -200.0000000000000000 ) ) ;
#458 = AXIS2_PLACEMENT_3D ( 'NONE', #90, #524, #807 ) ;
#459 = PRESENTATION_STYLE_ASSIGNMENT (( #72 ) ) ;
#460 = ORIENTED_EDGE ( 'NONE', *, *, #218, .F. ) ;
#461 = AXIS2_PLACEMENT_3D ( 'NONE', #423, #665, #223 ) ;
#462 = CARTESIAN_POINT ( 'NONE',  ( 94.63308709453529843, -5.366912905464737982, -110.0000000000000142 ) ) ;
#463 = CARTESIAN_POINT ( 'NONE',  ( -85.03663583481460364, 17.36374923376191148, -186.1303374817330507 ) ) ;
#464 = EDGE_LOOP ( 'NONE', ( #608, #220, #384, #634 ) ) ;
#465 =( NAMED_UNIT ( * ) SI_UNIT ( $, .STERADIAN. ) SOLID_ANGLE_UNIT ( ) );
#466 = CYLINDRICAL_SURFACE ( 'NONE', #735, 2.500000000000002220 ) ;
#467 = EDGE_CURVE ( 'NONE', #694, #23, #35, .T. ) ;
#468 = CARTESIAN_POINT ( 'NONE',  ( 47.50000000000000000, 0.000000000000000000, -200.0000000000000000 ) ) ;
#469 = EDGE_CURVE ( 'NONE', #414, #214, #212, .T. ) ;
#470 = VERTEX_POINT ( 'NONE', #217 ) ;
#471 = CARTESIAN_POINT ( 'NONE',  ( 38.18003527604805214, -9.226366865297443098, 200.0000000000000000 ) ) ;
#472 = DIRECTION ( 'NONE',  ( 0.000000000000000000, 0.000000000000000000, -1.000000000000000000 ) ) ;
#473 = AXIS2_PLACEMENT_3D ( 'NONE', #541, #472, #607 ) ;
#474 = VERTEX_POINT ( 'NONE', #288 ) ;
#475 = CARTESIAN_POINT ( 'NONE',  ( 0.000000000000000000, 0.000000000000000000, -200.0000000000000000 ) ) ;
#476 = VECTOR ( 'NONE', #336, 1000.000000000000114 ) ;
#477 = DIRECTION ( 'NONE',  ( -0.2977591233433189433, -0.02035651910119325517, -0.9544239710924600217 ) ) ;
#478 = ORIENTED_EDGE ( 'NONE', *, *, #114, .F. ) ;
#479 = CARTESIAN_POINT ( 'NONE',  ( -50.00000000000000000, 0.000000000000000000, -200.0000000000000000 ) ) ;
#480 = CARTESIAN_POINT ( 'NONE',  ( 0.000000000000000000, 0.000000000000000000, -150.0000000000000284 ) ) ;
#481 = ORIENTED_EDGE ( 'NONE', *, *, #218, .T. ) ;
#482 = LINE ( 'NONE', #48, #161 ) ;
#483 = DIRECTION ( 'NONE',  ( 0.000000000000000000, 0.000000000000000000, -1.000000000000000000 ) ) ;
#484 = ORIENTED_EDGE ( 'NONE', *, *, #682, .T. ) ;
#485 =( BOUNDED_CURVE ( )  B_SPLINE_CURVE ( 3, ( #589, #727, #147, #471 ),
 .UNSPECIFIED., .F., .F. ) 
 B_SPLINE_CURVE_WITH_KNOTS ( ( 4, 4 ),
 ( 3.300883312260540770, 4.712388980384689674 ),
 .UNSPECIFIED. ) 
 CURVE ( )  GEOMETRIC_REPRESENTATION_ITEM ( )  RATIONAL_B_SPLINE_CURVE ( ( 1.000000000000000000, 0.8407489826951706213, 0.8407489826951706213, 1.000000000000000000 ) ) 
 REPRESENTATION_ITEM ( '' )  );
#486 = VECTOR ( 'NONE', #798, 999.9999999999998863 ) ;
#487 = PRODUCT_DEFINITION_FORMATION_WITH_SPECIFIED_SOURCE ( 'Symmetric', '', #832, .NOT_KNOWN. ) ;
#488 = DIRECTION ( 'NONE',  ( 0.9976712237790652527, 0.06820651906659734587, -0.000000000000000000 ) ) ;
#489 = ADVANCED_FACE ( 'NONE', ( #602 ), #17, .T. ) ;
#490 = STYLED_ITEM ( 'NONE', ( #459 ), #111 ) ;
#491 = DIRECTION ( 'NONE',  ( -1.000000000000000000, 0.000000000000000000, 0.000000000000000000 ) ) ;
#492 = ORIENTED_EDGE ( 'NONE', *, *, #98, .F. ) ;
#493 = DIRECTION ( 'NONE',  ( -1.000000000000000000, 0.000000000000000000, 0.000000000000000000 ) ) ;
#494 = FACE_OUTER_BOUND ( 'NONE', #733, .T. ) ;
#495 = EDGE_CURVE ( 'NONE', #79, #346, #344, .T. ) ;
#496 = FACE_OUTER_BOUND ( 'NONE', #801, .T. ) ;
#497 = ORIENTED_EDGE ( 'NONE', *, *, #823, .T. ) ;
#498 = DIRECTION ( 'NONE',  ( -1.000000000000000000, 0.000000000000000000, 0.000000000000000000 ) ) ;
#499 = CARTESIAN_POINT ( 'NONE',  ( -50.00000000000000000, 0.000000000000000000, -150.0000000000000284 ) ) ;
#500 = CARTESIAN_POINT ( 'NONE',  ( -88.84894520856148858, 16.46838541505654874, -187.5428302183535720 ) ) ;
#501 = ORIENTED_EDGE ( 'NONE', *, *, #183, .T. ) ;
#502 = CARTESIAN_POINT ( 'NONE',  ( -87.36115605951570728, -16.91370977363183670, -186.9165602926592840 ) ) ;
#503 = CIRCLE ( 'NONE', #433, 2.500000000000002220 ) ;
#504 = DIRECTION ( 'NONE',  ( -0.000000000000000000, -0.000000000000000000, -1.000000000000000000 ) ) ;
#505 = CIRCLE ( 'NONE', #615, 2.500000000000002220 ) ;
#506 = CARTESIAN_POINT ( 'NONE',  ( 97.68920229450770876, 31.03842086572621994, 110.0000000000000284 ) ) ;
#507 = ORIENTED_EDGE ( 'NONE', *, *, #710, .T. ) ;
#508 = CARTESIAN_POINT ( 'NONE',  ( -93.93637344114897303, -13.54071125237041606, -190.4918088507562572 ) ) ;
#509 = EDGE_CURVE ( 'NONE', #208, #206, #348, .T. ) ;
#510 = DIRECTION ( 'NONE',  ( 0.06820651906659735975, -0.9976712237790652527, -0.000000000000000000 ) ) ;
#511 = DIRECTION ( 'NONE',  ( 0.000000000000000000, -1.000000000000000000, 0.000000000000000000 ) ) ;
#512 = EDGE_LOOP ( 'NONE', ( #685, #552, #501, #44 ) ) ;
#513 = CARTESIAN_POINT ( 'NONE',  ( 100.0000000000000000, 5.000000000000012434, -200.0000000000000000 ) ) ;
#514 = DIRECTION ( 'NONE',  ( -0.000000000000000000, -0.000000000000000000, -1.000000000000000000 ) ) ;
#515 = ORIENTED_EDGE ( 'NONE', *, *, #684, .F. ) ;
#516 = PLANE ( 'NONE',  #723 ) ;
#517 = AXIS2_PLACEMENT_3D ( 'NONE', #52, #186, #103 ) ;
#518 = CARTESIAN_POINT ( 'NONE',  ( 100.1522834034042972, -4.989589034332889028, -110.0000000000000142 ) ) ;
#519 = AXIS2_PLACEMENT_3D ( 'NONE', #150, #794, #285 ) ;
#520 = EDGE_LOOP ( 'NONE', ( #316, #621, #523, #661, #109 ) ) ;
#521 = CARTESIAN_POINT ( 'NONE',  ( -1.093089912240650996, -7.444080984758694432E-15, 117.0318505592890546 ) ) ;
#522 = CARTESIAN_POINT ( 'NONE',  ( 0.000000000000000000, 0.000000000000000000, -150.0000000000000284 ) ) ;
#523 = ORIENTED_EDGE ( 'NONE', *, *, #240, .T. ) ;
#524 = DIRECTION ( 'NONE',  ( -0.000000000000000000, -0.000000000000000000, -1.000000000000000000 ) ) ;
#525 = FILL_AREA_STYLE ('',( #141 ) ) ;
#526 = VERTEX_POINT ( 'NONE', #21 ) ;
#527 = ADVANCED_FACE ( 'NONE', ( #593 ), #226, .T. ) ;
#528 = DIRECTION ( 'NONE',  ( -1.000000000000000000, 0.000000000000000000, -0.000000000000000000 ) ) ;
#529 = CIRCLE ( 'NONE', #13, 2.500000000000002220 ) ;
#530 = VECTOR ( 'NONE', #381, 999.9999999999998863 ) ;
#531 = CARTESIAN_POINT ( 'NONE',  ( 77.73577781892640814, 29.67429048439427319, -110.0000000000000142 ) ) ;
#532 = EDGE_CURVE ( 'NONE', #23, #470, #279, .T. ) ;
#533 = ORIENTED_EDGE ( 'NONE', *, *, #205, .T. ) ;
#534 = APPLICATION_CONTEXT ( 'automotive_design' ) ;
#535 = EDGE_CURVE ( 'NONE', #327, #744, #222, .T. ) ;
#536 = DIRECTION ( 'NONE',  ( 0.6572307955757380471, -0.7536893798819792600, 8.386260062333603704E-16 ) ) ;
#537 = CARTESIAN_POINT ( 'NONE',  ( -84.21673395392264183, 17.44632499480449539, -185.9948695898863775 ) ) ;
#538 = ORIENTED_EDGE ( 'NONE', *, *, #774, .T. ) ;
#539 = CARTESIAN_POINT ( 'NONE',  ( -100.0000000000000000, -17.50000000000004263, -200.0000000000000000 ) ) ;
#540 = DIRECTION ( 'NONE',  ( 0.2977591233433190543, -0.02035651910119314414, 0.9544239710924600217 ) ) ;
#541 = CARTESIAN_POINT ( 'NONE',  ( 50.00000000000000000, 0.000000000000000000, -200.0000000000000000 ) ) ;
#542 = ORIENTED_EDGE ( 'NONE', *, *, #53, .F. ) ;
#543 = CYLINDRICAL_SURFACE ( 'NONE', #654, 2.500000000000002220 ) ;
#544 = DIRECTION ( 'NONE',  ( -0.9976712237790653637, 0.06820651906659695729, 0.000000000000000000 ) ) ;
#545 = AXIS2_PLACEMENT_3D ( 'NONE', #824, #252, #491 ) ;
#546 = ORIENTED_EDGE ( 'NONE', *, *, #469, .T. ) ;
#547 = CARTESIAN_POINT ( 'NONE',  ( -83.80863323967029999, -17.47374402928151227, -186.0001546990148995 ) ) ;
#548 = LINE ( 'NONE', #413, #1 ) ;
#549 = VERTEX_POINT ( 'NONE', #660 ) ;
#550 = CARTESIAN_POINT ( 'NONE',  ( -99.34500689923763161, 5.817194931552474024, -197.9005139817428756 ) ) ;
#551 = PLANE ( 'NONE',  #612 ) ;
#552 = ORIENTED_EDGE ( 'NONE', *, *, #658, .T. ) ;
#553 = CARTESIAN_POINT ( 'NONE',  ( -86.09531267947117783, -17.19656598767319977, -186.4481866557428020 ) ) ;
#554 = DIRECTION ( 'NONE',  ( -0.000000000000000000, -0.000000000000000000, 1.000000000000000000 ) ) ;
#555 = EDGE_LOOP ( 'NONE', ( #647, #617 ) ) ;
#556 = VECTOR ( 'NONE', #510, 1000.000000000000114 ) ;
#557 = CARTESIAN_POINT ( 'NONE',  ( -83.03814434014378776, -17.49894117622545053, -186.5446406466469682 ) ) ;
#558 = ADVANCED_FACE ( 'NONE', ( #84 ), #543, .F. ) ;
#559 = ADVANCED_FACE ( 'NONE', ( #165 ), #415, .T. ) ;
#560 = AXIS2_PLACEMENT_3D ( 'NONE', #8, #444, #266 ) ;
#561 = CARTESIAN_POINT ( 'NONE',  ( 100.0000000000000000, 5.000000000000012434, 200.0000000000000000 ) ) ;
#562 = CARTESIAN_POINT ( 'NONE',  ( -95.65504520438638281, 11.92659349089598919, -191.9351712690691727 ) ) ;
#563 = VERTEX_POINT ( 'NONE', #210 ) ;
#564 = LINE ( 'NONE', #627, #270 ) ;
#565 = DIRECTION ( 'NONE',  ( 0.000000000000000000, 0.000000000000000000, -1.000000000000000000 ) ) ;
#566 = CARTESIAN_POINT ( 'NONE',  ( -91.13662468275168749, 15.41657509877760646, -188.7078906110202468 ) ) ;
#567 = ORIENTED_EDGE ( 'NONE', *, *, #7, .F. ) ;
#568 = LINE ( 'NONE', #60, #400 ) ;
#569 = CARTESIAN_POINT ( 'NONE',  ( -47.50000000000000000, 3.061616997868386099E-16, -150.0000000000000284 ) ) ;
#570 = DIRECTION ( 'NONE',  ( -0.000000000000000000, -0.000000000000000000, -1.000000000000000000 ) ) ;
#571 = LINE ( 'NONE', #838, #598 ) ;
#572 = AXIS2_PLACEMENT_3D ( 'NONE', #499, #429, #387 ) ;
#573 = VECTOR ( 'NONE', #441, 1000.000000000000000 ) ;
#574 = PLANE ( 'NONE',  #133 ) ;
#575 = AXIS2_PLACEMENT_3D ( 'NONE', #506, #113, #192 ) ;
#576 = PLANE ( 'NONE',  #780 ) ;
#577 = EDGE_LOOP ( 'NONE', ( #762, #300 ) ) ;
#578 = LINE ( 'NONE', #135, #530 ) ;
#579 = DIRECTION ( 'NONE',  ( 0.000000000000000000, 0.000000000000000000, -1.000000000000000000 ) ) ;
#580 = VERTEX_POINT ( 'NONE', #403 ) ;
#581 = DIRECTION ( 'NONE',  ( 0.000000000000000000, 0.000000000000000000, -1.000000000000000000 ) ) ;
#582 = VERTEX_POINT ( 'NONE', #462 ) ;
#583 = CARTESIAN_POINT ( 'NONE',  ( 50.00000000000000000, 0.000000000000000000, -150.0000000000000284 ) ) ;
#584 = CIRCLE ( 'NONE', #63, 2.500000000000002220 ) ;
#585 = EDGE_CURVE ( 'NONE', #37, #789, #584, .T. ) ;
#586 = PLANE ( 'NONE',  #42 ) ;
#587 = ORIENTED_EDGE ( 'NONE', *, *, #442, .F. ) ;
#588 = DIRECTION ( 'NONE',  ( -0.6572307955757380471, 0.7536893798819792600, 0.000000000000000000 ) ) ;
#589 = CARTESIAN_POINT ( 'NONE',  ( 25.10643666798131335, 4.770489558936219510E-15, 200.0000000000000000 ) ) ;
#590 = CARTESIAN_POINT ( 'NONE',  ( -82.84015176117840440, 17.49999999999999289, -187.9127739143834788 ) ) ;
#591 = ORIENTED_EDGE ( 'NONE', *, *, #153, .F. ) ;
#592 = DIRECTION ( 'NONE',  ( -0.2977591233433190543, 0.02035651910119314761, -0.9544239710924600217 ) ) ;
#593 = FACE_OUTER_BOUND ( 'NONE', #395, .T. ) ;
#594 = CARTESIAN_POINT ( 'NONE',  ( -87.36721721382927797, 16.91217039901900421, -186.9189501455840627 ) ) ;
#595 = ORIENTED_EDGE ( 'NONE', *, *, #4, .T. ) ;
#596 = CARTESIAN_POINT ( 'NONE',  ( -70.80721477505564110, 4.649348963471451768, -146.7194139734307896 ) ) ;
#597 = FACE_OUTER_BOUND ( 'NONE', #93, .T. ) ;
#598 = VECTOR ( 'NONE', #74, 999.9999999999998863 ) ;
#599 = CARTESIAN_POINT ( 'NONE',  ( -83.10179806449978912, 17.49827734711557525, -186.4184468347170025 ) ) ;
#600 = ORIENTED_EDGE ( 'NONE', *, *, #86, .F. ) ;
#601 = VECTOR ( 'NONE', #511, 1000.000000000000000 ) ;
#602 = FACE_OUTER_BOUND ( 'NONE', #577, .T. ) ;
#603 = CARTESIAN_POINT ( 'NONE',  ( -99.34500689923761740, -5.817194931552537085, -197.9005139817428471 ) ) ;
#604 = ORIENTED_EDGE ( 'NONE', *, *, #366, .T. ) ;
#605 = APPLICATION_PROTOCOL_DEFINITION ( 'draft international standard', 'automotive_design', 1998, #534 ) ;
#606 = CARTESIAN_POINT ( 'NONE',  ( 94.63308709453529843, -5.366912905464734429, 200.0000000000000000 ) ) ;
#607 = DIRECTION ( 'NONE',  ( -1.000000000000000000, 0.000000000000000000, 0.000000000000000000 ) ) ;
#608 = ORIENTED_EDGE ( 'NONE', *, *, #774, .F. ) ;
#609 = DIRECTION ( 'NONE',  ( -1.000000000000000000, 0.000000000000000000, 0.000000000000000000 ) ) ;
#610 = CARTESIAN_POINT ( 'NONE',  ( 26.54535941449372416, 6.009423838235703030, 200.0000000000000000 ) ) ;
#611 = AXIS2_PLACEMENT_3D ( 'NONE', #480, #40, #732 ) ;
#612 = AXIS2_PLACEMENT_3D ( 'NONE', #743, #362, #483 ) ;
#613 = ORIENTED_EDGE ( 'NONE', *, *, #677, .F. ) ;
#614 = CARTESIAN_POINT ( 'NONE',  ( 100.0000000000000000, -4.999999999999987566, 200.0000000000000000 ) ) ;
#615 = AXIS2_PLACEMENT_3D ( 'NONE', #419, #32, #43 ) ;
#616 = CYLINDRICAL_SURFACE ( 'NONE', #461, 17.50000000000001421 ) ;
#617 = ORIENTED_EDGE ( 'NONE', *, *, #183, .F. ) ;
#618 = CARTESIAN_POINT ( 'NONE',  ( -82.85075057500863238, -17.50005034557496231, -187.3533600799709689 ) ) ;
#619 = CARTESIAN_POINT ( 'NONE',  ( 25.10643666798131335, 4.770489558936219510E-15, 200.0000000000000000 ) ) ;
#620 = EDGE_CURVE ( 'NONE', #389, #296, #529, .T. ) ;
#621 = ORIENTED_EDGE ( 'NONE', *, *, #509, .T. ) ;
#622 = CARTESIAN_POINT ( 'NONE',  ( -82.91780461822625625, 4.694137296045532537, -145.2454837716205986 ) ) ;
#623 = EDGE_CURVE ( 'NONE', #744, #79, #428, .T. ) ;
#624 = CARTESIAN_POINT ( 'NONE',  ( -47.50000000000000000, 3.061616997868386099E-16, -200.0000000000000000 ) ) ;
#625 = CARTESIAN_POINT ( 'NONE',  ( -96.55220365306298902, 10.88297678546173053, -192.8696452645954764 ) ) ;
#626 = EDGE_CURVE ( 'NONE', #296, #389, #663, .T. ) ;
#627 = CARTESIAN_POINT ( 'NONE',  ( 52.50000000000000711, 3.061616997868386099E-16, -150.0000000000000284 ) ) ;
#628 =( GEOMETRIC_REPRESENTATION_CONTEXT ( 3 ) GLOBAL_UNCERTAINTY_ASSIGNED_CONTEXT ( ( #197 ) ) GLOBAL_UNIT_ASSIGNED_CONTEXT ( ( #349, #137, #397 ) ) REPRESENTATION_CONTEXT ( 'NONE', 'WORKASPACE' ) );
#629 = FACE_OUTER_BOUND ( 'NONE', #681, .T. ) ;
#630 = CARTESIAN_POINT ( 'NONE',  ( -98.83976679745451577, 7.250689044778484416, -196.2810396264835333 ) ) ;
#631 = FACE_OUTER_BOUND ( 'NONE', #768, .T. ) ;
#632 = CARTESIAN_POINT ( 'NONE',  ( 38.18003527604806635, 9.226366865297441322, 200.0000000000000000 ) ) ;
#633 = FACE_BOUND ( 'NONE', #260, .T. ) ;
#634 = ORIENTED_EDGE ( 'NONE', *, *, #442, .T. ) ;
#635 = CARTESIAN_POINT ( 'NONE',  ( -98.21752812341314609, -8.363998221544449052, -195.2265724574917840 ) ) ;
#636 = DIRECTION ( 'NONE',  ( -1.000000000000000000, 0.000000000000000000, 0.000000000000000000 ) ) ;
#637 = DIRECTION ( 'NONE',  ( -1.000000000000000000, 0.000000000000000000, 0.000000000000000000 ) ) ;
#638 = ORIENTED_EDGE ( 'NONE', *, *, #650, .F. ) ;
#639 = CARTESIAN_POINT ( 'NONE',  ( -91.55294398041456816, -15.20915641139498398, -188.9286165878251040 ) ) ;
#640 = VECTOR ( 'NONE', #477, 1000.000000000000114 ) ;
#641 = VECTOR ( 'NONE', #261, 1000.000000000000000 ) ;
#642 =( BOUNDED_CURVE ( )  B_SPLINE_CURVE ( 3, ( #770, #318, #179, #190 ),
 .UNSPECIFIED., .F., .F. ) 
 B_SPLINE_CURVE_WITH_KNOTS ( ( 4, 4 ),
 ( 3.339079562861313022, 3.480451597102879546 ),
 .UNSPECIFIED. ) 
 CURVE ( )  GEOMETRIC_REPRESENTATION_ITEM ( )  RATIONAL_B_SPLINE_CURVE ( ( 1.000000000000000000, 0.9983351890218872260, 0.9983351890218872260, 1.000000000000000000 ) ) 
 REPRESENTATION_ITEM ( '' )  );
#643 = PLANE ( 'NONE',  #560 ) ;
#644 = ORIENTED_EDGE ( 'NONE', *, *, #666, .T. ) ;
#645 = PLANE ( 'NONE',  #324 ) ;
#646 = CARTESIAN_POINT ( 'NONE',  ( -86.09062563609536767, 17.19748264438289809, -186.4465683901430282 ) ) ;
#647 = ORIENTED_EDGE ( 'NONE', *, *, #366, .F. ) ;
#648 = EDGE_CURVE ( 'NONE', #307, #23, #177, .T. ) ;
#649 = DIRECTION ( 'NONE',  ( 0.06820651906659735975, -0.9976712237790652527, 0.000000000000000000 ) ) ;
#650 = EDGE_CURVE ( 'NONE', #744, #816, #779, .T. ) ;
#651 = CARTESIAN_POINT ( 'NONE',  ( -83.03750099752141978, 17.49894839672718660, -186.5459779297745229 ) ) ;
#652 = ORIENTED_EDGE ( 'NONE', *, *, #426, .F. ) ;
#653 = CARTESIAN_POINT ( 'NONE',  ( -82.84015176117839019, -2.255140518769849223E-14, -200.0000000000000000 ) ) ;
#654 = AXIS2_PLACEMENT_3D ( 'NONE', #158, #792, #408 ) ;
#655 = DIRECTION ( 'NONE',  ( -1.000000000000000000, 0.000000000000000000, -0.000000000000000000 ) ) ;
#656 = ORIENTED_EDGE ( 'NONE', *, *, #236, .T. ) ;
#657 = DIRECTION ( 'NONE',  ( 0.000000000000000000, 0.000000000000000000, 1.000000000000000000 ) ) ;
#658 = EDGE_CURVE ( 'NONE', #5, #275, #564, .T. ) ;
#659 = ORIENTED_EDGE ( 'NONE', *, *, #331, .T. ) ;
#660 = CARTESIAN_POINT ( 'NONE',  ( 80.19885892782298242, -6.353719415664835779, 110.0000000000000000 ) ) ;
#661 = ORIENTED_EDGE ( 'NONE', *, *, #116, .T. ) ;
#662 = CARTESIAN_POINT ( 'NONE',  ( 36.98742042498217586, 9.307900847274199307, 196.1772449174438293 ) ) ;
#663 = CIRCLE ( 'NONE', #309, 2.500000000000002220 ) ;
#664 = AXIS2_PLACEMENT_3D ( 'NONE', #317, #797, #347 ) ;
#665 = DIRECTION ( 'NONE',  ( -0.000000000000000000, -0.000000000000000000, 1.000000000000000000 ) ) ;
#666 = EDGE_CURVE ( 'NONE', #580, #670, #827, .T. ) ;
#667 = ORIENTED_EDGE ( 'NONE', *, *, #216, .T. ) ;
#668 = DIRECTION ( 'NONE',  ( 0.7536893798819792600, 0.6572307955757380471, 0.000000000000000000 ) ) ;
#669 = FACE_OUTER_BOUND ( 'NONE', #185, .T. ) ;
#670 = VERTEX_POINT ( 'NONE', #550 ) ;
#671 = CARTESIAN_POINT ( 'NONE',  ( -50.00000000000000000, 0.000000000000000000, -150.0000000000000284 ) ) ;
#672 = EDGE_CURVE ( 'NONE', #440, #47, #297, .T. ) ;
#673 = CARTESIAN_POINT ( 'NONE',  ( 79.32602611741019416, 6.413391265775818972, -110.0000000000000142 ) ) ;
#674 = ORIENTED_EDGE ( 'NONE', *, *, #213, .F. ) ;
#675 = DIRECTION ( 'NONE',  ( 0.000000000000000000, 0.000000000000000000, 1.000000000000000000 ) ) ;
#676 = EDGE_CURVE ( 'NONE', #47, #277, #482, .T. ) ;
#677 = EDGE_CURVE ( 'NONE', #327, #526, #361, .T. ) ;
#678 = CARTESIAN_POINT ( 'NONE',  ( 79.32602611741019416, 6.413391265775817196, -200.0000000000000000 ) ) ;
#679 = VECTOR ( 'NONE', #117, 1000.000000000000000 ) ;
#680 = CIRCLE ( 'NONE', #242, 2.500000000000002220 ) ;
#681 = EDGE_LOOP ( 'NONE', ( #254, #404, #250, #370 ) ) ;
#682 = EDGE_CURVE ( 'NONE', #193, #698, #417, .T. ) ;
#683 = DIRECTION ( 'NONE',  ( -0.000000000000000000, -0.000000000000000000, -1.000000000000000000 ) ) ;
#684 = EDGE_CURVE ( 'NONE', #47, #193, #568, .T. ) ;
#685 = ORIENTED_EDGE ( 'NONE', *, *, #741, .F. ) ;
#686 = CARTESIAN_POINT ( 'NONE',  ( -83.66919483821445169, -17.48085072232830584, -186.0212515834047622 ) ) ;
#687 = DIRECTION ( 'NONE',  ( -0.000000000000000000, -0.000000000000000000, -1.000000000000000000 ) ) ;
#688 = FACE_BOUND ( 'NONE', #449, .T. ) ;
#689 = DIRECTION ( 'NONE',  ( -0.000000000000000000, -0.000000000000000000, 1.000000000000000000 ) ) ;
#690 = CARTESIAN_POINT ( 'NONE',  ( -5.000000000000000000, 0.000000000000000000, -200.0000000000000000 ) ) ;
#691 = CARTESIAN_POINT ( 'NONE',  ( 80.19885892782298242, -6.353719415664835779, -110.0000000000000142 ) ) ;
#692 = ADVANCED_FACE ( 'NONE', ( #631 ), #645, .T. ) ;
#693 = AXIS2_PLACEMENT_3D ( 'NONE', #425, #687, #759 ) ;
#694 = VERTEX_POINT ( 'NONE', #203 ) ;
#695 = CARTESIAN_POINT ( 'NONE',  ( -89.76793610049899996, -16.07828371996167860, -187.9936057004977101 ) ) ;
#696 = CARTESIAN_POINT ( 'NONE',  ( 38.18003527604805214, -9.226366865297443098, 200.0000000000000000 ) ) ;
#697 = CARTESIAN_POINT ( 'NONE',  ( 52.50000000000000711, 3.061616997868386099E-16, -150.0000000000000284 ) ) ;
#698 = VERTEX_POINT ( 'NONE', #122 ) ;
#699 = CARTESIAN_POINT ( 'NONE',  ( -97.32417829407370391, -9.831468508192420686, -193.8304098732347427 ) ) ;
#700 = CYLINDRICAL_SURFACE ( 'NONE', #447, 17.50000000000001421 ) ;
#701 = LINE ( 'NONE', #771, #601 ) ;
#702 = ORIENTED_EDGE ( 'NONE', *, *, #469, .F. ) ;
#703 = DIRECTION ( 'NONE',  ( 0.000000000000000000, 0.000000000000000000, -1.000000000000000000 ) ) ;
#704 = LINE ( 'NONE', #757, #392 ) ;
#705 = ORIENTED_EDGE ( 'NONE', *, *, #676, .F. ) ;
#706 = LINE ( 'NONE', #712, #573 ) ;
#707 = VECTOR ( 'NONE', #657, 1000.000000000000000 ) ;
#708 = VECTOR ( 'NONE', #292, 1000.000000000000000 ) ;
#709 = EDGE_CURVE ( 'NONE', #474, #208, #773, .T. ) ;
#710 = EDGE_CURVE ( 'NONE', #526, #277, #571, .T. ) ;
#711 = ORIENTED_EDGE ( 'NONE', *, *, #509, .F. ) ;
#712 = CARTESIAN_POINT ( 'NONE',  ( 94.63308709453529843, -5.366912905464734429, 200.0000000000000000 ) ) ;
#713 = CARTESIAN_POINT ( 'NONE',  ( -83.40409410605202822, 17.49100439635642701, -186.1314715540507905 ) ) ;
#714 = ADVANCED_FACE ( 'NONE', ( #199 ), #516, .F. ) ;
#715 = ORIENTED_EDGE ( 'NONE', *, *, #677, .T. ) ;
#716 = FACE_OUTER_BOUND ( 'NONE', #156, .T. ) ;
#717 = CARTESIAN_POINT ( 'NONE',  ( -82.84015176117839019, 17.49999999999999289, -187.6344987429963282 ) ) ;
#718 = ORIENTED_EDGE ( 'NONE', *, *, #535, .T. ) ;
#719 = CARTESIAN_POINT ( 'NONE',  ( -52.50000000000000711, 0.000000000000000000, -150.0000000000000284 ) ) ;
#720 = EDGE_CURVE ( 'NONE', #277, #582, #706, .T. ) ;
#721 = VECTOR ( 'NONE', #411, 1000.000000000000000 ) ;
#722 = CARTESIAN_POINT ( 'NONE',  ( 95.01164388110458958, 5.341032595333003563, -110.0000000000000426 ) ) ;
#723 = AXIS2_PLACEMENT_3D ( 'NONE', #831, #581, #769 ) ;
#724 = CARTESIAN_POINT ( 'NONE',  ( -83.46583828987945708, 17.48893455826520338, -186.0992162888575763 ) ) ;
#725 = VECTOR ( 'NONE', #739, 1000.000000000000000 ) ;
#726 = ORIENTED_EDGE ( 'NONE', *, *, #153, .T. ) ;
#727 = CARTESIAN_POINT ( 'NONE',  ( 26.54535941449370640, -6.009423838235697701, 200.0000000000000000 ) ) ;
#728 = CARTESIAN_POINT ( 'NONE',  ( -83.28984836115185431, 17.49431446869735751, -186.2114179063889878 ) ) ;
#729 = ORIENTED_EDGE ( 'NONE', *, *, #138, .T. ) ;
#730 = CARTESIAN_POINT ( 'NONE',  ( 0.000000000000000000, 0.000000000000000000, 0.000000000000000000 ) ) ;
#731 = CARTESIAN_POINT ( 'NONE',  ( 100.0000000000000000, 5.000000000000012434, -200.0000000000000000 ) ) ;
#732 = DIRECTION ( 'NONE',  ( -1.000000000000000000, 0.000000000000000000, 0.000000000000000000 ) ) ;
#733 = EDGE_LOOP ( 'NONE', ( #188, #484, #16, #320 ) ) ;
#734 = CARTESIAN_POINT ( 'NONE',  ( 100.0000000000000568, -0.3794404183931877617, 110.0000000000000284 ) ) ;
#735 = AXIS2_PLACEMENT_3D ( 'NONE', #357, #284, #31 ) ;
#736 = CARTESIAN_POINT ( 'NONE',  ( -99.61936498898627690, -5.038771553870023290, -198.7799293110839187 ) ) ;
#737 = ORIENTED_EDGE ( 'NONE', *, *, #331, .F. ) ;
#738 = DIRECTION ( 'NONE',  ( 0.000000000000000000, 0.000000000000000000, -1.000000000000000000 ) ) ;
#739 = DIRECTION ( 'NONE',  ( 0.000000000000000000, 0.000000000000000000, -1.000000000000000000 ) ) ;
#740 = EDGE_LOOP ( 'NONE', ( #455, #175, #420, #492 ) ) ;
#741 = EDGE_CURVE ( 'NONE', #5, #271, #680, .T. ) ;
#742 = CARTESIAN_POINT ( 'NONE',  ( -82.84015176117840440, -17.50000000000003908, -187.6335818989665540 ) ) ;
#743 = CARTESIAN_POINT ( 'NONE',  ( 94.63308709453529843, -5.366912905464734429, -200.0000000000000000 ) ) ;
#744 = VERTEX_POINT ( 'NONE', #132 ) ;
#745 = CARTESIAN_POINT ( 'NONE',  ( -82.84015176117840440, 17.49999999999999289, -200.0000000000000000 ) ) ;
#746 = ADVANCED_FACE ( 'NONE', ( #140 ), #390, .F. ) ;
#747 = AXIS2_PLACEMENT_3D ( 'NONE', #596, #592, #283 ) ;
#748 = ORIENTED_EDGE ( 'NONE', *, *, #495, .F. ) ;
#749 = DIRECTION ( 'NONE',  ( 0.000000000000000000, 0.000000000000000000, -1.000000000000000000 ) ) ;
#750 = VECTOR ( 'NONE', #514, 1000.000000000000000 ) ;
#751 =( BOUNDED_CURVE ( )  B_SPLINE_CURVE ( 3, ( #812, #369, #610, #619 ),
 .UNSPECIFIED., .F., .F. ) 
 B_SPLINE_CURVE_WITH_KNOTS ( ( 4, 4 ),
 ( 4.712388980384689674, 6.123894648508837690 ),
 .UNSPECIFIED. ) 
 CURVE ( )  GEOMETRIC_REPRESENTATION_ITEM ( )  RATIONAL_B_SPLINE_CURVE ( ( 1.000000000000000000, 0.8407489826951707323, 0.8407489826951707323, 1.000000000000000000 ) ) 
 REPRESENTATION_ITEM ( '' )  );
#752 = CARTESIAN_POINT ( 'NONE',  ( 50.00000000000000000, 0.000000000000000000, -200.0000000000000000 ) ) ;
#753 = EDGE_LOOP ( 'NONE', ( #656, #659 ) ) ;
#754 = CARTESIAN_POINT ( 'NONE',  ( -82.84015176117840440, -17.50000000000003553, -187.9127739143833935 ) ) ;
#755 = DIRECTION ( 'NONE',  ( 0.2977591233433190543, 0.02035651910119326211, 0.9544239710924600217 ) ) ;
#756 = EDGE_CURVE ( 'NONE', #563, #580, #245, .T. ) ;
#757 = CARTESIAN_POINT ( 'NONE',  ( 80.19885892782298242, -6.353719415664835779, -110.0000000000000142 ) ) ;
#758 = ORIENTED_EDGE ( 'NONE', *, *, #495, .T. ) ;
#759 = DIRECTION ( 'NONE',  ( -1.000000000000000000, 0.000000000000000000, 0.000000000000000000 ) ) ;
#760 = CARTESIAN_POINT ( 'NONE',  ( -98.10809361252964322, 8.732187400197146232, -194.8403503196543909 ) ) ;
#761 = VECTOR ( 'NONE', #422, 999.9999999999998863 ) ;
#762 = ORIENTED_EDGE ( 'NONE', *, *, #200, .T. ) ;
#763 = CARTESIAN_POINT ( 'NONE',  ( -94.99883562282980165, -12.59488579881099035, -191.3398442965069535 ) ) ;
#764 = PRODUCT_RELATED_PRODUCT_CATEGORY ( 'part', '', ( #832 ) ) ;
#765 = CARTESIAN_POINT ( 'NONE',  ( -70.80721477505565531, -4.649348963471495289, -146.7194139734307896 ) ) ;
#766 = LINE ( 'NONE', #184, #795 ) ;
#767 = PRODUCT_DEFINITION_CONTEXT ( 'detailed design', #534, 'design' ) ;
#768 = EDGE_LOOP ( 'NONE', ( #591, #777, #718, #813, #758, #282, #33, #121, #105 ) ) ;
#769 = DIRECTION ( 'NONE',  ( -1.000000000000000000, 0.000000000000000000, -0.000000000000000000 ) ) ;
#770 = CARTESIAN_POINT ( 'NONE',  ( -100.0000000000000000, 3.433599921454264514, -200.0000000000000000 ) ) ;
#771 = CARTESIAN_POINT ( 'NONE',  ( -100.0000000000000000, 17.49999999999998934, -200.0000000000000000 ) ) ;
#772 = ORIENTED_EDGE ( 'NONE', *, *, #216, .F. ) ;
#773 = LINE ( 'NONE', #778, #641 ) ;
#774 = EDGE_CURVE ( 'NONE', #582, #145, #578, .T. ) ;
#775 = ADVANCED_FACE ( 'NONE', ( #57 ), #71, .T. ) ;
#776 = FACE_OUTER_BOUND ( 'NONE', #520, .T. ) ;
#777 = ORIENTED_EDGE ( 'NONE', *, *, #353, .T. ) ;
#778 = CARTESIAN_POINT ( 'NONE',  ( 99.99999999999957367, 5.000000000000041744, 110.0000000000000426 ) ) ;
#779 = CIRCLE ( 'NONE', #409, 17.50000000000001421 ) ;
#780 = AXIS2_PLACEMENT_3D ( 'NONE', #388, #325, #258 ) ;
#781 = DIRECTION ( 'NONE',  ( 0.9976712237790652527, 0.06820651906659733199, -0.000000000000000000 ) ) ;
#782 = ORIENTED_EDGE ( 'NONE', *, *, #30, .T. ) ;
#783 = CARTESIAN_POINT ( 'NONE',  ( -88.82852988006317219, -16.45128355895014138, -187.5475876746949382 ) ) ;
#784 = DIRECTION ( 'NONE',  ( 0.000000000000000000, 0.000000000000000000, -1.000000000000000000 ) ) ;
#785 = ORIENTED_EDGE ( 'NONE', *, *, #823, .F. ) ;
#786 = CYLINDRICAL_SURFACE ( 'NONE', #747, 12.00000000000000178 ) ;
#787 = CARTESIAN_POINT ( 'NONE',  ( 94.63308709453529843, -5.366912905464734429, 200.0000000000000000 ) ) ;
#788 = CARTESIAN_POINT ( 'NONE',  ( -82.91475127799755285, 17.49985408457803615, -186.9457253926051123 ) ) ;
#789 = VERTEX_POINT ( 'NONE', #94 ) ;
#790 = LINE ( 'NONE', #225, #820 ) ;
#791 = CIRCLE ( 'NONE', #25, 2.500000000000002220 ) ;
#792 = DIRECTION ( 'NONE',  ( -0.000000000000000000, -0.000000000000000000, -1.000000000000000000 ) ) ;
#793 = AXIS2_PLACEMENT_3D ( 'NONE', #730, #352, #338 ) ;
#794 = DIRECTION ( 'NONE',  ( 0.7536893798819792600, 0.6572307955757380471, 0.000000000000000000 ) ) ;
#795 = VECTOR ( 'NONE', #570, 1000.000000000000000 ) ;
#796 = ORIENTED_EDGE ( 'NONE', *, *, #682, .F. ) ;
#797 = DIRECTION ( 'NONE',  ( 0.06820651906659735975, -0.9976712237790653637, 0.000000000000000000 ) ) ;
#798 = DIRECTION ( 'NONE',  ( 0.7071067811865473507, 0.7071067811865477948, 0.000000000000000000 ) ) ;
#799 = EDGE_CURVE ( 'NONE', #789, #296, #88, .T. ) ;
#800 = LINE ( 'NONE', #299, #725 ) ;
#801 = EDGE_LOOP ( 'NONE', ( #726, #367, #393, #538, #180 ) ) ;
#802 = DIRECTION ( 'NONE',  ( -1.000000000000000000, 0.000000000000000000, 0.000000000000000000 ) ) ;
#803 = ADVANCED_FACE ( 'NONE', ( #343 ), #20, .F. ) ;
#804 = LINE ( 'NONE', #166, #241 ) ;
#805 = ORIENTED_EDGE ( 'NONE', *, *, #650, .T. ) ;
#806 = SHAPE_DEFINITION_REPRESENTATION ( #191, #386 ) ;
#807 = DIRECTION ( 'NONE',  ( -1.000000000000000000, 0.000000000000000000, 0.000000000000000000 ) ) ;
#808 = VECTOR ( 'NONE', #293, 1000.000000000000000 ) ;
#809 = CARTESIAN_POINT ( 'NONE',  ( 95.01164388110458958, 5.341032595333002675, 110.0000000000000284 ) ) ;
#810 = ORIENTED_EDGE ( 'NONE', *, *, #666, .F. ) ;
#811 = CARTESIAN_POINT ( 'NONE',  ( 56.61681313135814264, 49.37088690716616668, -200.0000000000000000 ) ) ;
#812 = CARTESIAN_POINT ( 'NONE',  ( 38.18003527604806635, 9.226366865297441322, 200.0000000000000000 ) ) ;
#813 = ORIENTED_EDGE ( 'NONE', *, *, #623, .T. ) ;
#814 = CARTESIAN_POINT ( 'NONE',  ( -84.50179471893343930, -17.42147999877984432, -186.0267670328026099 ) ) ;
#815 = DIRECTION ( 'NONE',  ( 0.000000000000000000, 0.000000000000000000, 1.000000000000000000 ) ) ;
#816 = VERTEX_POINT ( 'NONE', #407 ) ;
#817 = DIRECTION ( 'NONE',  ( 0.9976712237790652527, 0.06820651906659734587, -0.000000000000000000 ) ) ;
#818 = CARTESIAN_POINT ( 'NONE',  ( 95.01164388110458958, 5.341032595333003563, -200.0000000000000000 ) ) ;
#819 = CIRCLE ( 'NONE', #611, 5.000000000000000000 ) ;
#820 = VECTOR ( 'NONE', #588, 999.9999999999998863 ) ;
#821 = EDGE_LOOP ( 'NONE', ( #837, #312, #202, #667, #515, #424, #453, #478, #567 ) ) ;
#822 = CARTESIAN_POINT ( 'NONE',  ( -86.86145769093000979, -17.03968650265778351, -186.7192011685172872 ) ) ;
#823 = EDGE_CURVE ( 'NONE', #470, #83, #790, .T. ) ;
#824 = CARTESIAN_POINT ( 'NONE',  ( 0.000000000000000000, 0.000000000000000000, -150.0000000000000284 ) ) ;
#825 = CARTESIAN_POINT ( 'NONE',  ( -94.68042297183313849, 12.91969359890426006, -191.0505011499735986 ) ) ;
#826 = ORIENTED_EDGE ( 'NONE', *, *, #305, .T. ) ;
#827 = LINE ( 'NONE', #622, #50 ) ;
#828 = CYLINDRICAL_SURFACE ( 'NONE', #39, 12.00000000000000178 ) ;
#829 = CARTESIAN_POINT ( 'NONE',  ( -89.78987747710169742, 16.09224394955622728, -187.9912044776474147 ) ) ;
#830 = EDGE_LOOP ( 'NONE', ( #73, #337, #729, #604 ) ) ;
#831 = CARTESIAN_POINT ( 'NONE',  ( 0.000000000000000000, 0.000000000000000000, 200.0000000000000000 ) ) ;
#832 = PRODUCT ( 'Right Wing', 'Right Wing', '', ( #146 ) ) ;
#833 = CARTESIAN_POINT ( 'NONE',  ( -100.0000000000000000, -3.433599921454314252, -200.0000000000000000 ) ) ;
#834 = AXIS2_PLACEMENT_3D ( 'NONE', #475, #354, #802 ) ;
#835 = CARTESIAN_POINT ( 'NONE',  ( 0.000000000000000000, 0.000000000000000000, -200.0000000000000000 ) ) ;
#836 = ADVANCED_FACE ( 'NONE', ( #278 ), #786, .T. ) ;
#837 = ORIENTED_EDGE ( 'NONE', *, *, #116, .F. ) ;
#838 = CARTESIAN_POINT ( 'NONE',  ( 50.00000000000002842, -50.00000000000000711, -200.0000000000000000 ) ) ;
ENDSEC;
END-ISO-10303-21;
